<svg width="66" height="24" viewBox="0 0 66 24" fill="none" xmlns="http://www.w3.org/2000/svg">
<path d="M53.3675 7.40905C53.3896 7.38574 53.4208 7.3714 53.4543 7.36914C53.4655 7.36978 53.4764 7.37248 53.4863 7.37708C53.4963 7.38168 53.5052 7.38808 53.5124 7.3959C53.5196 7.40372 53.525 7.41279 53.5282 7.42258C53.5315 7.43236 53.5326 7.44266 53.5315 7.45284C53.5291 7.48513 53.5136 7.51542 53.488 7.53766C52.3373 8.85101 51.5006 10.3869 51.5006 12.5171C51.5006 14.6473 52.3415 16.151 53.488 17.4643C53.5136 17.4866 53.5291 17.5169 53.5315 17.5492C53.5326 17.5594 53.5315 17.5697 53.5282 17.5794C53.5249 17.5892 53.5195 17.5983 53.5123 17.6061C53.5051 17.6139 53.4963 17.6203 53.4863 17.6249C53.4763 17.6295 53.4655 17.6322 53.4543 17.6328C53.4377 17.6318 53.4215 17.6277 53.4066 17.6209C53.3916 17.614 53.3784 17.6045 53.3675 17.5929L48.4619 13.2387C48.3374 13.1529 48.2364 13.0417 48.1668 12.9139C48.0973 12.7861 48.061 12.6452 48.061 12.5023C48.061 12.3594 48.0973 12.2185 48.1668 12.0907C48.2364 11.9629 48.3374 11.8517 48.4619 11.7659L53.3675 7.41032" fill="#ED1C24"/>
<path d="M57.1362 7.04004C55.2161 7.04004 54.4662 9.53812 54.4662 12.516C54.4662 15.4938 55.2161 17.9597 57.1362 17.9597C58.2883 17.9597 59.2709 17.3397 59.275 16.8303C59.2745 16.7719 59.2611 16.7142 59.2356 16.6607C59.2101 16.6072 59.1729 16.559 59.1265 16.519C58.5799 16.0354 58.3668 15.5504 58.364 15.1233C58.364 14.3079 59.1321 13.7007 59.8427 13.7007C60.8238 13.7007 61.3956 14.4056 61.3956 15.3176C61.3956 16.182 60.9934 16.9036 60.5547 17.4799C60.5383 17.5014 60.5295 17.527 60.5294 17.5532C60.528 17.563 60.5289 17.573 60.5318 17.5826C60.5348 17.5921 60.5399 17.601 60.5467 17.6087C60.5535 17.6164 60.562 17.6228 60.5715 17.6274C60.5811 17.632 60.5916 17.6348 60.6024 17.6355C60.6377 17.6321 60.6702 17.6164 60.6934 17.5918L65.599 13.2376C65.7235 13.1518 65.8245 13.0406 65.8941 12.9128C65.9637 12.785 65.9999 12.644 65.9999 12.5012C65.9999 12.3583 65.9637 12.2174 65.8941 12.0895C65.8245 11.9617 65.7235 11.8505 65.599 11.7647L60.6934 7.40922C60.6702 7.38459 60.6377 7.36897 60.6024 7.3655C60.5575 7.3655 60.5295 7.40279 60.5295 7.44912C60.5296 7.47533 60.5384 7.50088 60.5547 7.52236C60.9906 8.0987 61.3957 8.81897 61.3957 9.68348C61.3957 10.5954 60.8196 11.3017 59.8427 11.3017C59.1321 11.3017 58.3612 10.6932 58.364 9.87771C58.364 9.45188 58.5799 8.96694 59.1265 8.482C59.1729 8.44202 59.2099 8.39383 59.2355 8.34033C59.261 8.28683 59.2745 8.22914 59.275 8.17074C59.275 7.65621 58.294 7.04131 57.1362 7.04131M6.97622 14.3593C6.97181 14.1508 7.02271 13.9444 7.12452 13.758C7.22632 13.5716 7.37599 13.4106 7.56063 13.2891C7.99523 13.0205 8.51152 12.8853 9.03514 12.9032C9.38325 12.8992 9.72902 12.9559 10.0541 13.0704V12.5558C10.0457 12.0413 9.83403 11.7506 9.20475 11.7442C9.00233 11.7504 8.80183 11.7824 8.60902 11.8394C8.63007 11.912 8.64137 11.9868 8.64265 12.0619C8.6468 12.2251 8.58545 12.3839 8.47027 12.5082C8.40932 12.5695 8.33472 12.6179 8.25154 12.6503C8.16836 12.6827 8.07854 12.6983 7.98821 12.696C7.9036 12.6952 7.82 12.6791 7.7422 12.6485C7.66439 12.618 7.59392 12.5737 7.5348 12.5181C7.47569 12.4626 7.4291 12.3968 7.39771 12.3247C7.36631 12.2526 7.35073 12.1755 7.35185 12.0979C7.36023 11.474 8.18437 11.0547 9.28602 11.0534C10.1606 11.0534 10.7086 11.2437 11.0029 11.5898C11.2692 11.9011 11.2833 12.3539 11.2833 12.9945V14.6667C11.2833 14.9896 11.4879 15.077 11.9252 15.1401H11.9757V15.1864C11.9504 15.6263 11.5972 15.8089 11.2188 15.836H11.1207C10.9319 15.8408 10.7456 15.7946 10.5852 15.7031C10.4247 15.6116 10.2971 15.4789 10.2181 15.3214C9.81442 15.64 9.30378 15.8217 8.77164 15.836C7.75541 15.836 6.98322 15.2057 6.98184 14.3438M38.1812 15.6186C38.0904 15.4863 38.0286 15.3391 37.9989 15.1851C37.9485 15.2378 37.8896 15.2931 37.7986 15.3729C37.458 15.6689 37.0061 15.8329 36.5371 15.8308C36.297 15.8381 36.0581 15.7969 35.8372 15.7102C35.6164 15.6235 35.4189 15.4935 35.2588 15.3291C34.8145 14.8417 34.8174 14.2242 34.8174 13.3469V12.5018C34.8076 12.1597 34.6912 12.0426 34.345 12.0349C34.2982 12.0352 34.2514 12.0377 34.2049 12.0426H34.1641L34.1488 12.0065C34.1227 11.9486 34.1089 11.8866 34.1081 11.8239C34.1194 11.4149 34.6828 11.1961 35.0136 11.1331C35.1228 11.1146 35.2333 11.1034 35.3443 11.0997C35.4554 11.0921 35.5668 11.1083 35.67 11.1469C35.7731 11.1855 35.8651 11.2455 35.9386 11.3222C36.0659 11.4879 36.1276 11.6885 36.1138 11.8908L36.1054 13.3341C36.1054 13.8666 36.146 14.2654 36.275 14.5226C36.4039 14.7799 36.6016 14.897 36.9631 14.8995C37.1199 14.9088 37.2765 14.8776 37.415 14.8094C37.5535 14.7412 37.6684 14.6388 37.7467 14.5137C37.8952 14.253 37.9667 13.9612 37.9541 13.6672V12.4992C37.9443 12.1571 37.8266 12.04 37.4818 12.0323C37.4349 12.0326 37.3881 12.0351 37.3416 12.04H37.2996L37.2841 12.004C37.2571 11.9526 37.24 11.8974 37.2336 11.8406C37.2449 11.4315 37.8083 11.2129 38.1405 11.1499C38.2497 11.1312 38.3603 11.1201 38.4713 11.1164C38.5826 11.1089 38.6942 11.1251 38.7975 11.1637C38.9008 11.2023 38.993 11.2623 39.067 11.339C39.1953 11.5042 39.2577 11.705 39.2436 11.9075C39.2436 12.0734 39.2267 12.3667 39.2267 13.5965C39.2267 14.111 39.217 14.3927 39.217 14.4763C39.2253 14.8301 39.357 14.9908 39.7131 14.9908H39.8757L39.8911 15.0269C39.9168 15.0831 39.9306 15.1434 39.9317 15.2044C39.9177 15.6032 39.3529 15.7639 39.0249 15.8231C38.9226 15.8406 38.8191 15.8514 38.7151 15.8553C38.6137 15.8625 38.512 15.8462 38.4192 15.808C38.3264 15.7698 38.2455 15.7109 38.184 15.6366M20.3067 13.5283C20.284 12.8757 20.5348 12.2399 21.0075 11.7519C21.2465 11.5237 21.5347 11.3437 21.8537 11.2234C22.1728 11.1031 22.5156 11.0452 22.8604 11.0534C23.1471 11.043 23.4328 11.0888 23.6987 11.1877C23.9646 11.2866 24.2044 11.4364 24.4022 11.6271C24.7209 11.95 24.8981 12.3697 24.8997 12.8054C24.9038 13.0294 24.8459 13.2507 24.7315 13.4486L24.7161 13.4743H21.627C21.6789 14.3014 22.2521 14.8802 23.2515 14.8893C23.4853 14.8907 23.7168 14.8474 23.9313 14.7622C24.1459 14.6769 24.3387 14.5515 24.4974 14.394L24.5311 14.3554L24.5746 14.385C24.6371 14.4275 24.6869 14.4839 24.719 14.549C24.7511 14.6141 24.7646 14.6856 24.7582 14.7568C24.7582 15.234 24.1457 15.845 22.7959 15.845C22.4662 15.845 22.1397 15.7849 21.8355 15.6682C21.5313 15.5514 21.2554 15.3804 21.0238 15.165C20.7922 14.9496 20.6095 14.6941 20.4864 14.4133C20.3633 14.1326 20.3022 13.8322 20.3066 13.5296M31.2853 15.8385C30.9531 15.8423 30.6234 15.7859 30.3151 15.6724C30.0067 15.5589 29.7258 15.3907 29.4885 15.1774C29.244 14.9481 29.0519 14.6762 28.9236 14.3777C28.7953 14.0793 28.7334 13.7603 28.7414 13.4395C28.7367 13.1261 28.8004 12.8149 28.9286 12.5244C29.0569 12.2338 29.2471 11.9697 29.4882 11.7477C29.7292 11.5256 30.0163 11.35 30.3324 11.2312C30.6485 11.1124 30.9873 11.0528 31.3288 11.0559C31.6664 11.0476 32.0024 11.1014 32.317 11.2141C32.6316 11.3267 32.9184 11.496 33.1606 11.712C33.5322 12.049 33.7856 12.4802 33.8883 12.9503C33.991 13.4204 33.9382 13.908 33.7368 14.3504C33.5354 14.7928 33.1946 15.1698 32.758 15.4332C32.3214 15.6965 31.8091 15.8341 31.2867 15.8283L31.2853 15.8385ZM40.7783 15.6996C40.5625 15.6456 40.4237 15.5376 40.4251 15.3742C40.4284 15.3021 40.4485 15.2315 40.484 15.1671L40.4951 15.1439H40.5218C40.6447 15.1218 40.7603 15.0738 40.8596 15.0038C40.9885 14.9073 41.0376 14.7722 41.0376 14.3927V12.4748C41.0278 12.1532 40.9479 12.0414 40.6564 12.0336C40.5787 12.0348 40.5013 12.0425 40.4251 12.0568L40.3802 12.0645L40.3634 12.0259C40.3347 11.9609 40.3196 11.8915 40.3186 11.8214C40.3256 11.4354 40.7811 11.2425 41.0866 11.155C41.1982 11.1223 41.3143 11.105 41.4314 11.1035C41.8519 11.1035 42.0734 11.3776 42.1687 11.73C42.4406 11.3197 42.8694 11.0482 43.3026 11.047C43.7048 11.047 44.1085 11.2888 44.1098 11.7467C44.1171 11.9162 44.051 12.0816 43.9261 12.2066C43.8011 12.3317 43.6274 12.4063 43.4427 12.4144C43.2938 12.4175 43.1483 12.373 43.0312 12.2885C42.9141 12.204 42.8326 12.0848 42.8008 11.9512C42.5653 12.022 42.2318 12.2947 42.2289 13.2376V14.3952C42.2289 14.7734 42.2878 14.9097 42.4042 15.005C42.5441 15.0773 42.6977 15.1249 42.8569 15.1452H42.8834L42.8947 15.1683C42.9333 15.2378 42.9553 15.3142 42.9592 15.3921C42.9592 15.5465 42.8344 15.6494 42.6326 15.7034C42.3349 15.7655 42.0295 15.791 41.7244 15.7793C41.4066 15.7903 41.0886 15.7635 40.7783 15.6996ZM25.7813 15.6995C25.5655 15.6456 25.4253 15.5362 25.4253 15.3728C25.428 15.3012 25.4476 15.2309 25.4827 15.167L25.494 15.1438H25.522C25.6459 15.1217 25.7628 15.0742 25.864 15.005C25.9887 14.9072 26.0392 14.7721 26.042 14.3939V11.8754L25.3075 11.8522L25.295 11.8226C25.2593 11.7479 25.2402 11.6675 25.2388 11.5859C25.2384 11.5307 25.2502 11.476 25.2736 11.4252C25.2971 11.3743 25.3315 11.3284 25.375 11.2902C25.4184 11.252 25.4699 11.2224 25.5263 11.2031C25.5827 11.1839 25.6428 11.1754 25.7028 11.1782H26.021V10.9003C26.021 10.2289 26.1611 9.84684 26.3433 9.59081C26.6236 9.18307 27.1269 8.90267 27.8851 8.90267C28.8368 8.90267 29.6357 9.30914 29.6399 9.9626C29.6429 10.0445 29.628 10.1261 29.5961 10.2026C29.5642 10.2791 29.5159 10.3489 29.4541 10.408C29.3924 10.4671 29.3183 10.5143 29.2363 10.5467C29.1544 10.5791 29.0662 10.5962 28.9769 10.5968C28.8081 10.5945 28.6468 10.5325 28.5267 10.4237C28.4065 10.3148 28.3368 10.1676 28.3322 10.0127C28.3339 9.89491 28.3718 9.7799 28.4415 9.68094C28.3036 9.59088 28.1369 9.5456 27.9678 9.55225C27.672 9.55225 27.5109 9.64746 27.4071 9.80305C27.3006 10.0027 27.2523 10.2244 27.267 10.4463V11.1679H28.5284L28.5424 11.1988C28.5781 11.2752 28.5967 11.3574 28.5971 11.4406C28.6013 11.5543 28.5581 11.6652 28.4763 11.7507C28.3946 11.8363 28.2804 11.89 28.157 11.9011C28.0638 11.9084 27.9702 11.9114 27.8766 11.9101C27.6664 11.9101 27.4562 11.8959 27.3049 11.8934V14.3837C27.3049 14.7606 27.3735 14.8982 27.4982 14.9934C27.623 15.0887 27.9187 15.1221 28.0126 15.1336H28.0393L28.0505 15.1581C28.0826 15.2173 28.1003 15.2823 28.1024 15.3484C28.1024 15.5208 27.9495 15.6289 27.7183 15.6867C27.3937 15.7533 27.0611 15.7815 26.7287 15.7704C26.4096 15.7816 26.0902 15.7547 25.7785 15.6906M16.9765 15.6906C16.7621 15.6366 16.6233 15.5285 16.6248 15.3652C16.6285 15.2936 16.6486 15.2235 16.6836 15.1594L16.6948 15.1362H16.7228C16.8467 15.114 16.9636 15.0665 17.0648 14.9973C17.1896 14.8995 17.2414 14.7645 17.2428 14.3863V12.4748C17.233 12.1532 17.1503 12.0414 16.8602 12.0336C16.7825 12.0348 16.7051 12.0425 16.6289 12.0568L16.5841 12.0645L16.5673 12.0259C16.5373 11.9598 16.5216 11.889 16.521 11.8175C16.528 11.4315 16.9835 11.2425 17.2919 11.155C17.4015 11.1225 17.5159 11.1052 17.6311 11.1035C18.0516 11.1035 18.2758 11.3737 18.3739 11.721C18.6542 11.3158 19.0832 11.0482 19.5106 11.0457C19.9072 11.0457 20.3151 11.2862 20.3165 11.7442C20.3237 11.9145 20.2569 12.0806 20.1307 12.2058C20.0046 12.331 19.8294 12.4051 19.6437 12.4117C19.4954 12.4149 19.3506 12.3704 19.2344 12.2858C19.1182 12.2012 19.0379 12.0819 19.0074 11.9487C18.7692 12.0207 18.4313 12.2922 18.4272 13.235V14.3927C18.4272 14.7709 18.4888 14.9073 18.6122 15.0024C18.7511 15.0759 18.9045 15.1236 19.0635 15.1426H19.0901L19.1027 15.1658C19.1402 15.2347 19.1612 15.3101 19.1644 15.387C19.1644 15.5414 19.0397 15.6443 18.8364 15.6996C18.5378 15.7621 18.2315 15.7881 17.9254 15.7768C17.6076 15.7878 17.2896 15.761 16.9793 15.6971M12.8194 15.6971C12.605 15.643 12.4677 15.535 12.4677 15.3716C12.4708 15.3 12.4903 15.2299 12.5251 15.1658L12.5363 15.1426H12.5643C12.6882 15.1205 12.8051 15.073 12.9063 15.0038C13.0311 14.9059 13.083 14.7709 13.0843 14.3927V12.4748C13.0731 12.1532 12.9918 12.0414 12.7003 12.0336C12.6226 12.0348 12.5452 12.0425 12.4691 12.0568L12.4242 12.0645L12.4073 12.0259C12.3773 11.9598 12.3616 11.889 12.3611 11.8175C12.3681 11.4315 12.8236 11.2425 13.132 11.155C13.2412 11.1226 13.355 11.1052 13.4697 11.1035C13.8902 11.1035 14.1145 11.3737 14.2126 11.7197C14.4929 11.3158 14.9219 11.0482 15.3494 11.0456C15.7459 11.0456 16.1552 11.2863 16.1566 11.7454C16.1639 11.9158 16.097 12.0819 15.9709 12.2071C15.8447 12.3323 15.6695 12.4064 15.4839 12.4131C15.3356 12.416 15.1909 12.3714 15.0747 12.2868C14.9585 12.2023 14.8782 12.0831 14.8475 11.95C14.6092 12.022 14.2715 12.2934 14.2686 13.2363V14.3939C14.2686 14.7722 14.3289 14.9086 14.4536 15.0038C14.5925 15.0774 14.7459 15.1251 14.905 15.144H14.933L14.9442 15.1671C14.9822 15.2359 15.0037 15.3113 15.0073 15.3883C15.0073 15.5427 14.8811 15.6456 14.6779 15.7009C14.3793 15.7635 14.0729 15.7894 13.7669 15.7781C13.4491 15.7891 13.1311 15.7623 12.8208 15.6983M30.1669 13.3096C30.1669 14.5638 30.7639 15.1041 31.347 15.1105C32.0127 15.1105 32.4949 14.5702 32.4992 13.5142C32.4992 12.9623 32.366 12.5211 32.1487 12.2278C32.0606 12.0906 31.9356 11.9764 31.7857 11.8962C31.6357 11.816 31.4659 11.7725 31.2923 11.7699C30.5999 11.7699 30.1711 12.3449 30.1711 13.3212M9.26363 13.5862C8.71415 13.5862 8.34552 13.828 8.34267 14.2963C8.34267 14.7387 8.67075 15.0359 9.18366 15.0384C9.35462 15.0327 9.52219 14.9931 9.67486 14.9223C9.82753 14.8514 9.96168 14.7511 10.0681 14.6282V13.9849C10.0611 13.9302 10.0392 13.8779 10.0045 13.8329C9.96967 13.788 9.9231 13.7518 9.86905 13.7277C9.68377 13.635 9.47443 13.5905 9.26363 13.599M23.4785 12.8401C23.5766 12.8401 23.6032 12.8182 23.6186 12.7887C23.6399 12.7352 23.648 12.6781 23.6424 12.6214C23.6408 12.5091 23.615 12.3982 23.5664 12.2951C23.5177 12.192 23.4474 12.0988 23.3593 12.0208C23.2712 11.9428 23.1671 11.8816 23.0531 11.8407C22.9391 11.7999 22.8174 11.7802 22.695 11.7827C21.9788 11.7827 21.6886 12.3088 21.6438 12.8402H23.4729L23.4785 12.8401ZM1.42312 15.0141C0.818916 14.4454 0.429362 13.6144 0.429362 12.5802C0.410385 11.691 0.76122 10.8286 1.41049 10.1683C1.69651 9.87963 2.0445 9.64831 2.43259 9.48894C2.82069 9.32957 3.2405 9.24558 3.66566 9.24226C5.19481 9.24226 6.27398 10.2263 6.2796 11.0753C6.2796 11.5294 5.96569 11.8805 5.54234 11.8818C5.33991 11.8847 5.1439 11.8166 4.99433 11.6914C4.91775 11.6231 4.85751 11.541 4.81745 11.4502C4.7774 11.3594 4.7584 11.2619 4.76169 11.164C4.76398 11.0625 4.78806 10.9625 4.83255 10.8695C4.87704 10.7766 4.94106 10.6927 5.02096 10.6225C4.81356 10.297 4.41553 10.0398 3.79179 10.0398C3.26202 10.0398 2.81066 10.297 2.4939 10.737C2.17714 11.1769 1.98237 11.8187 1.98237 12.5739C1.98237 13.3291 2.17999 13.9618 2.51076 14.4043C2.84152 14.8468 3.29703 15.0976 3.82681 15.0989C4.45055 15.0989 4.84857 14.8417 5.04905 14.5149C4.88885 14.3736 4.7961 14.1798 4.79108 13.976C4.78795 13.8779 4.80701 13.7802 4.84707 13.6892C4.88712 13.5982 4.9473 13.5158 5.02381 13.4472C5.17333 13.3218 5.36926 13.2533 5.57182 13.2556C5.99232 13.2556 6.30761 13.6055 6.30907 14.0582C6.30907 14.9111 5.2242 15.8887 3.69505 15.8926C3.27134 15.8932 2.8518 15.8158 2.46129 15.6649C2.07079 15.514 1.71728 15.2926 1.42173 15.014M1.42173 15.014C0.817613 14.4454 0.427978 13.6145 0.427978 12.5803C0.409001 11.6911 0.759836 10.8286 1.40911 10.1684C1.69512 9.87969 2.04311 9.64836 2.4312 9.48898C2.81929 9.32959 3.23911 9.24559 3.66427 9.24226C5.19334 9.24226 6.27259 10.2263 6.27813 11.0753C6.27813 11.5294 5.96422 11.8805 5.54096 11.8818C5.33853 11.8847 5.14252 11.8166 4.99294 11.6914C4.91636 11.6231 4.85612 11.541 4.81607 11.4502C4.77601 11.3594 4.75702 11.2619 4.7603 11.164C4.7626 11.0625 4.78668 10.9625 4.83117 10.8695C4.87566 10.7766 4.93968 10.6927 5.01957 10.6225C4.81356 10.297 4.41553 10.0398 3.79179 10.0398C3.26202 10.0398 2.81066 10.297 2.4939 10.737C2.17714 11.1769 1.98237 11.8187 1.98237 12.5739C1.98237 13.3291 2.17999 13.9618 2.51076 14.4043C2.84152 14.8468 3.29703 15.0976 3.82681 15.0989C4.45055 15.0989 4.84857 14.8417 5.04905 14.5149C4.88885 14.3736 4.7961 14.1798 4.79108 13.976C4.78795 13.8779 4.80701 13.7802 4.84707 13.6892C4.88712 13.5982 4.9473 13.5158 5.02381 13.4472C5.17333 13.3218 5.36926 13.2533 5.57182 13.2556C5.99232 13.2556 6.30761 13.6055 6.30907 14.0582C6.30907 14.9111 5.2242 15.8887 3.69505 15.8926C3.27134 15.8932 2.8518 15.8158 2.46129 15.6649C2.07079 15.514 1.71728 15.2926 1.42173 15.014ZM1.42173 15.014C0.817613 14.4454 0.427978 13.6145 0.427978 12.5803C0.409001 11.6911 0.759836 10.8286 1.40911 10.1684C1.69512 9.87969 2.04311 9.64836 2.4312 9.48898C2.81929 9.32959 3.23911 9.24559 3.66427 9.24226C5.19334 9.24226 6.27259 10.2263 6.27813 11.0753C6.27813 11.5294 5.96422 11.8805 5.54096 11.8818C5.33853 11.8847 5.14252 11.8166 4.99294 11.6914C4.91636 11.6231 4.85612 11.541 4.81607 11.4502C4.77601 11.3594 4.75702 11.2619 4.7603 11.164C4.7626 11.0625 4.78668 10.9625 4.83117 10.8695C4.87566 10.7766 4.93968 10.6927 5.01957 10.6225C4.81356 10.297 4.41553 10.0398 3.79179 10.0398C3.26202 10.0398 2.81066 10.297 2.4939 10.737C2.17714 11.1769 1.98237 11.8187 1.98237 12.5739C1.98237 13.3291 2.17999 13.9618 2.51076 14.4043C2.84152 14.8468 3.29703 15.0976 3.82681 15.0989C4.45055 15.0989 4.84857 14.8417 5.04905 14.5149C4.88885 14.3736 4.7961 14.1798 4.79108 13.976C4.78795 13.8779 4.80701 13.7802 4.84707 13.6892C4.88712 13.5982 4.9473 13.5158 5.02381 13.4472C5.17333 13.3218 5.36926 13.2533 5.57182 13.2556C5.99232 13.2556 6.30761 13.6055 6.30907 14.0582C6.30907 14.9111 5.2242 15.8887 3.69505 15.8926C3.27134 15.8932 2.8518 15.8158 2.46129 15.6649C2.07079 15.514 1.71728 15.2926 1.42173 15.014Z" fill="#005BAB"/>
</svg>
