<svg width="91" height="42" viewBox="0 0 91 42" fill="none" xmlns="http://www.w3.org/2000/svg">
<g filter="url(#filter0_d_3532_1198)">
<path fill-rule="evenodd" clip-rule="evenodd" d="M41.6966 30.1806L45.4937 31.9995L49.2908 30.1806L70.9097 30.1806C76.4824 30.1806 81 25.663 81 20.0903C81 14.5176 76.4824 10.0001 70.9097 10.0001L20.0903 10.0001C14.5176 10.0001 10 14.5176 10 20.0903C10 25.663 14.5176 30.1806 20.0903 30.1806L41.6966 30.1806Z" fill="#08074E"/>
</g>
<path d="M22.3666 23.096C21.8546 23.096 21.404 22.976 21.0146 22.736C20.6306 22.496 20.3293 22.16 20.1106 21.728C19.8973 21.2907 19.7906 20.784 19.7906 20.208C19.7906 19.632 19.8973 19.128 20.1106 18.696C20.3293 18.264 20.6306 17.928 21.0146 17.688C21.404 17.448 21.8546 17.328 22.3666 17.328C22.9266 17.328 23.412 17.4667 23.8226 17.744C24.2333 18.0213 24.5293 18.4053 24.7106 18.896L24.0546 19.144C23.916 18.7813 23.7026 18.5013 23.4146 18.304C23.1266 18.1013 22.7773 18 22.3666 18C21.988 18 21.6573 18.0907 21.3746 18.272C21.092 18.4533 20.8733 18.7093 20.7186 19.04C20.5693 19.3653 20.4946 19.7547 20.4946 20.208C20.4946 20.6613 20.5693 21.0533 20.7186 21.384C20.8733 21.7147 21.092 21.9707 21.3746 22.152C21.6573 22.3333 21.988 22.424 22.3666 22.424C22.7773 22.424 23.1266 22.3227 23.4146 22.12C23.7026 21.9173 23.916 21.6373 24.0546 21.28L24.7106 21.52C24.5293 22.0053 24.2333 22.3893 23.8226 22.672C23.412 22.9547 22.9266 23.096 22.3666 23.096ZM28.1914 23L28.1434 22.208V20.528C28.1434 20.224 28.0581 19.9893 27.8874 19.824C27.7221 19.6587 27.4741 19.576 27.1434 19.576C26.9301 19.576 26.7301 19.6213 26.5434 19.712C26.3568 19.7973 26.1754 19.944 25.9994 20.152L25.5114 19.736C25.7301 19.48 25.9808 19.2933 26.2634 19.176C26.5461 19.0533 26.8554 18.992 27.1914 18.992C27.7088 18.992 28.1088 19.1253 28.3914 19.392C28.6741 19.6587 28.8154 20.0373 28.8154 20.528V23H28.1914ZM26.8874 23.064C26.5888 23.064 26.3274 23.0133 26.1034 22.912C25.8848 22.8053 25.7141 22.6587 25.5914 22.472C25.4741 22.2853 25.4154 22.0693 25.4154 21.824C25.4154 21.6053 25.4581 21.4213 25.5434 21.272C25.6341 21.1173 25.7488 20.9973 25.8874 20.912C26.0261 20.8213 26.1834 20.76 26.3594 20.728C26.5408 20.6907 26.7301 20.672 26.9274 20.672H28.2074V21.184H27.0234C26.9061 21.184 26.7834 21.1947 26.6554 21.216C26.5274 21.2373 26.4154 21.2827 26.3194 21.352C26.2501 21.4053 26.1941 21.472 26.1514 21.552C26.1141 21.632 26.0954 21.7253 26.0954 21.832C26.0954 22.04 26.1728 22.2053 26.3274 22.328C26.4821 22.4507 26.6901 22.512 26.9514 22.512C27.1701 22.512 27.3674 22.4613 27.5434 22.36C27.7248 22.2587 27.8688 22.12 27.9754 21.944C28.0874 21.7627 28.1434 21.56 28.1434 21.336L28.4234 21.624C28.3914 21.9067 28.3061 22.1573 28.1674 22.376C28.0288 22.5947 27.8501 22.7653 27.6314 22.888C27.4181 23.0053 27.1701 23.064 26.8874 23.064ZM31.2318 23.064C31.0451 23.064 30.8744 23.0293 30.7198 22.96C30.5704 22.8853 30.4531 22.768 30.3678 22.608C30.2824 22.448 30.2398 22.2427 30.2398 21.992V18L30.9278 17.616V21.816C30.9278 22.0347 30.9624 22.2053 31.0318 22.328C31.1011 22.4453 31.2264 22.504 31.4078 22.504C31.4611 22.504 31.5251 22.4987 31.5998 22.488C31.6744 22.472 31.7544 22.4533 31.8398 22.432V22.96C31.7384 22.9973 31.6344 23.024 31.5278 23.04C31.4264 23.056 31.3278 23.064 31.2318 23.064ZM29.4238 19.584V19.056H31.8398V19.584H29.4238ZM34.2713 23.064C33.9619 23.064 33.6899 23.0133 33.4553 22.912C33.2259 22.8053 33.0339 22.6587 32.8793 22.472C32.7299 22.2853 32.6153 22.072 32.5353 21.832C32.4606 21.5867 32.4233 21.328 32.4233 21.056C32.4233 20.784 32.4606 20.5253 32.5353 20.28C32.6099 20.0293 32.7193 19.808 32.8633 19.616C33.0126 19.424 33.1993 19.272 33.4233 19.16C33.6473 19.048 33.9086 18.992 34.2073 18.992C34.5113 18.992 34.7726 19.0453 34.9913 19.152C35.2153 19.2533 35.3966 19.3947 35.5353 19.576C35.6793 19.7573 35.7859 19.96 35.8553 20.184C35.9246 20.408 35.9593 20.64 35.9593 20.88C35.9593 20.9013 35.9566 20.952 35.9513 21.032C35.9513 21.1067 35.9459 21.1733 35.9353 21.232H33.0953C33.1113 21.616 33.2233 21.9147 33.4313 22.128C33.6393 22.3413 33.9219 22.448 34.2793 22.448C34.5086 22.448 34.7086 22.4107 34.8793 22.336C35.0499 22.2613 35.2099 22.1413 35.3593 21.976L35.8313 22.392C35.6873 22.5467 35.5353 22.6747 35.3753 22.776C35.2153 22.872 35.0446 22.944 34.8633 22.992C34.6873 23.04 34.4899 23.064 34.2713 23.064ZM35.2873 20.888C35.2979 20.8453 35.3033 20.8027 35.3033 20.76C35.3086 20.7173 35.3113 20.6747 35.3113 20.632C35.3113 20.504 35.2873 20.376 35.2393 20.248C35.1966 20.12 35.1299 20.0053 35.0393 19.904C34.9539 19.7973 34.8419 19.7147 34.7033 19.656C34.5699 19.592 34.4099 19.56 34.2233 19.56C33.9939 19.56 33.7966 19.6133 33.6313 19.72C33.4659 19.8267 33.3379 19.968 33.2473 20.144C33.1566 20.32 33.1033 20.5147 33.0872 20.728H35.5113L35.2873 20.888ZM38.5196 24.704C37.9542 24.704 37.5062 24.6 37.1756 24.392C36.8449 24.184 36.6796 23.896 36.6796 23.528C36.6796 23.5013 36.6796 23.4667 36.6796 23.424C36.6849 23.3813 36.6929 23.3413 36.7036 23.304L37.6876 22.592L37.9196 22.752L37.3596 23.448C37.3542 23.4693 37.3516 23.488 37.3516 23.504C37.3516 23.52 37.3516 23.536 37.3516 23.552C37.3516 23.7653 37.4636 23.9227 37.6876 24.024C37.9116 24.1307 38.1889 24.184 38.5196 24.184C38.8129 24.184 39.0556 24.1413 39.2476 24.056C39.4396 23.976 39.5356 23.8427 39.5356 23.656C39.5356 23.5493 39.5036 23.4613 39.4396 23.392C39.3809 23.328 39.2929 23.2773 39.1756 23.24C39.0636 23.2027 38.9302 23.1707 38.7756 23.144C38.6209 23.1173 38.4476 23.0907 38.2556 23.064C38.0156 23.0267 37.7809 22.9733 37.5516 22.904C37.3276 22.8347 37.1409 22.7333 36.9916 22.6C36.8476 22.4667 36.7756 22.2907 36.7756 22.072C36.7756 21.8853 36.8396 21.7147 36.9676 21.56C37.1009 21.4053 37.2742 21.2773 37.4876 21.176L37.9196 21.456C37.7382 21.4987 37.6102 21.5653 37.5356 21.656C37.4609 21.7413 37.4236 21.8453 37.4236 21.968C37.4236 22.0693 37.4582 22.152 37.5276 22.216C37.6022 22.28 37.7062 22.3307 37.8396 22.368C37.9782 22.4 38.1436 22.4293 38.3356 22.456C38.5916 22.4933 38.8316 22.5333 39.0556 22.576C39.2796 22.6187 39.4769 22.68 39.6476 22.76C39.8236 22.8347 39.9596 22.936 40.0556 23.064C40.1516 23.1973 40.1996 23.368 40.1996 23.576C40.1996 23.9387 40.0502 24.216 39.7516 24.408C39.4529 24.6053 39.0422 24.704 38.5196 24.704ZM38.4236 21.768C38.1196 21.768 37.8502 21.7093 37.6156 21.592C37.3809 21.4747 37.1969 21.312 37.0636 21.104C36.9356 20.896 36.8716 20.6587 36.8716 20.392C36.8716 20.1147 36.9382 19.872 37.0716 19.664C37.2102 19.4507 37.3942 19.2853 37.6236 19.168C37.8582 19.0507 38.1169 18.992 38.3996 18.992C38.6769 18.992 38.9302 19.0507 39.1596 19.168C39.3889 19.2853 39.5729 19.4507 39.7116 19.664C39.8502 19.8773 39.9196 20.128 39.9196 20.416C39.9196 20.688 39.8556 20.9253 39.7276 21.128C39.5996 21.3307 39.4236 21.488 39.1996 21.6C38.9756 21.712 38.7169 21.768 38.4236 21.768ZM38.4076 21.216C38.6742 21.216 38.8796 21.136 39.0236 20.976C39.1729 20.8107 39.2476 20.6107 39.2476 20.376C39.2476 20.1253 39.1702 19.9227 39.0156 19.768C38.8609 19.6133 38.6582 19.536 38.4076 19.536C38.1516 19.536 37.9436 19.616 37.7836 19.776C37.6236 19.9307 37.5436 20.128 37.5436 20.368C37.5436 20.608 37.6209 20.8107 37.7756 20.976C37.9302 21.136 38.1409 21.216 38.4076 21.216ZM39.6636 19.792L39.1756 19.464L40.0076 18.776L40.3516 19.2L39.6636 19.792ZM42.7026 23.064C42.3346 23.064 42.004 22.9787 41.7106 22.808C41.4226 22.632 41.196 22.3893 41.0306 22.08C40.8653 21.7707 40.7826 21.4187 40.7826 21.024C40.7826 20.6293 40.8626 20.28 41.0226 19.976C41.188 19.6667 41.4146 19.4267 41.7026 19.256C41.996 19.08 42.3293 18.992 42.7026 18.992C43.076 18.992 43.404 19.08 43.6866 19.256C43.9746 19.4267 44.2013 19.6667 44.3666 19.976C44.532 20.28 44.6146 20.6293 44.6146 21.024C44.6146 21.4187 44.532 21.7707 44.3666 22.08C44.2013 22.384 43.9746 22.624 43.6866 22.8C43.3986 22.976 43.0706 23.064 42.7026 23.064ZM42.7026 22.464C42.9533 22.464 43.1693 22.4053 43.3506 22.288C43.5373 22.1653 43.6813 21.9973 43.7826 21.784C43.884 21.5653 43.9346 21.312 43.9346 21.024C43.9346 20.7307 43.884 20.4773 43.7826 20.264C43.6813 20.0453 43.5373 19.8773 43.3506 19.76C43.1693 19.6427 42.9533 19.584 42.7026 19.584C42.4466 19.584 42.2253 19.6453 42.0386 19.768C41.852 19.8853 41.708 20.0507 41.6066 20.264C41.5053 20.4773 41.4546 20.7307 41.4546 21.024C41.4546 21.312 41.5053 21.5653 41.6066 21.784C41.708 21.9973 41.852 22.1653 42.0386 22.288C42.2253 22.4053 42.4466 22.464 42.7026 22.464ZM45.5838 23V19.056H46.2638V20.112L46.0878 20.152C46.1251 19.9173 46.2131 19.7147 46.3518 19.544C46.4958 19.368 46.6611 19.232 46.8478 19.136C47.0398 19.04 47.2265 18.992 47.4078 18.992C47.5305 18.992 47.6478 19.0053 47.7598 19.032C47.8718 19.0587 47.9865 19.104 48.1038 19.168L47.7678 19.776C47.7038 19.744 47.6265 19.7173 47.5358 19.696C47.4505 19.6747 47.3678 19.664 47.2878 19.664C47.1598 19.664 47.0318 19.688 46.9038 19.736C46.7811 19.784 46.6691 19.8587 46.5678 19.96C46.4665 20.0613 46.3891 20.1973 46.3358 20.368C46.3145 20.4427 46.2958 20.5413 46.2798 20.664C46.2691 20.7813 46.2638 20.944 46.2638 21.152V23H45.5838ZM48.8336 23V19.056H49.5056V23H48.8336ZM48.7696 18.344V17.424H49.5696V18.344H48.7696ZM52.3103 23.064C52.001 23.064 51.729 23.0133 51.4943 22.912C51.265 22.8053 51.073 22.6587 50.9183 22.472C50.769 22.2853 50.6543 22.072 50.5743 21.832C50.4996 21.5867 50.4623 21.328 50.4623 21.056C50.4623 20.784 50.4996 20.5253 50.5743 20.28C50.649 20.0293 50.7583 19.808 50.9023 19.616C51.0516 19.424 51.2383 19.272 51.4623 19.16C51.6863 19.048 51.9476 18.992 52.2463 18.992C52.5503 18.992 52.8116 19.0453 53.0303 19.152C53.2543 19.2533 53.4356 19.3947 53.5743 19.576C53.7183 19.7573 53.825 19.96 53.8943 20.184C53.9636 20.408 53.9983 20.64 53.9983 20.88C53.9983 20.9013 53.9956 20.952 53.9903 21.032C53.9903 21.1067 53.985 21.1733 53.9743 21.232H51.1343C51.1503 21.616 51.2623 21.9147 51.4703 22.128C51.6783 22.3413 51.961 22.448 52.3183 22.448C52.5476 22.448 52.7476 22.4107 52.9183 22.336C53.089 22.2613 53.249 22.1413 53.3983 21.976L53.8703 22.392C53.7263 22.5467 53.5743 22.6747 53.4143 22.776C53.2543 22.872 53.0836 22.944 52.9023 22.992C52.7263 23.04 52.529 23.064 52.3103 23.064ZM53.3263 20.888C53.337 20.8453 53.3423 20.8027 53.3423 20.76C53.3476 20.7173 53.3503 20.6747 53.3503 20.632C53.3503 20.504 53.3263 20.376 53.2783 20.248C53.2356 20.12 53.169 20.0053 53.0783 19.904C52.993 19.7973 52.881 19.7147 52.7423 19.656C52.609 19.592 52.449 19.56 52.2623 19.56C52.033 19.56 51.8356 19.6133 51.6703 19.72C51.505 19.8267 51.377 19.968 51.2863 20.144C51.1956 20.32 51.1423 20.5147 51.1263 20.728H53.5503L53.3263 20.888ZM58.2688 23L56.6528 19.056H57.3968L58.5488 22.128L59.7088 19.056H60.4448L58.8368 23H58.2688ZM61.2086 23V19.056H61.8806V23H61.2086ZM61.1446 18.344V17.424H61.9446V18.344H61.1446ZM64.6853 23.064C64.376 23.064 64.104 23.0133 63.8693 22.912C63.64 22.8053 63.448 22.6587 63.2933 22.472C63.144 22.2853 63.0293 22.072 62.9493 21.832C62.8746 21.5867 62.8373 21.328 62.8373 21.056C62.8373 20.784 62.8746 20.5253 62.9493 20.28C63.024 20.0293 63.1333 19.808 63.2773 19.616C63.4266 19.424 63.6133 19.272 63.8373 19.16C64.0613 19.048 64.3226 18.992 64.6213 18.992C64.9253 18.992 65.1866 19.0453 65.4053 19.152C65.6293 19.2533 65.8106 19.3947 65.9493 19.576C66.0933 19.7573 66.2 19.96 66.2693 20.184C66.3386 20.408 66.3733 20.64 66.3733 20.88C66.3733 20.9013 66.3706 20.952 66.3653 21.032C66.3653 21.1067 66.36 21.1733 66.3493 21.232H63.5093C63.5253 21.616 63.6373 21.9147 63.8453 22.128C64.0533 22.3413 64.336 22.448 64.6933 22.448C64.9226 22.448 65.1226 22.4107 65.2933 22.336C65.464 22.2613 65.624 22.1413 65.7733 21.976L66.2453 22.392C66.1013 22.5467 65.9493 22.6747 65.7893 22.776C65.6293 22.872 65.4586 22.944 65.2773 22.992C65.1013 23.04 64.904 23.064 64.6853 23.064ZM65.7013 20.888C65.712 20.8453 65.7173 20.8027 65.7173 20.76C65.7226 20.7173 65.7253 20.6747 65.7253 20.632C65.7253 20.504 65.7013 20.376 65.6533 20.248C65.6106 20.12 65.544 20.0053 65.4533 19.904C65.368 19.7973 65.256 19.7147 65.1173 19.656C64.984 19.592 64.824 19.56 64.6373 19.56C64.408 19.56 64.2106 19.6133 64.0453 19.72C63.88 19.8267 63.752 19.968 63.6613 20.144C63.5706 20.32 63.5173 20.5147 63.5013 20.728H65.9253L65.7013 20.888ZM67.3256 23V22.072H68.1256V23H67.3256ZM69.2475 23V22.072H70.0475V23H69.2475Z" fill="white"/>
<defs>
<filter id="filter0_d_3532_1198" x="0.352942" y="0.352942" width="90.2941" height="41.2936" filterUnits="userSpaceOnUse" color-interpolation-filters="sRGB">
<feFlood flood-opacity="0" result="BackgroundImageFix"/>
<feColorMatrix in="SourceAlpha" type="matrix" values="0 0 0 0 0 0 0 0 0 0 0 0 0 0 0 0 0 0 127 0" result="hardAlpha"/>
<feOffset/>
<feGaussianBlur stdDeviation="4.82353"/>
<feComposite in2="hardAlpha" operator="out"/>
<feColorMatrix type="matrix" values="0 0 0 0 0 0 0 0 0 0 0 0 0 0 0 0 0 0 0.3 0"/>
<feBlend mode="normal" in2="BackgroundImageFix" result="effect1_dropShadow_3532_1198"/>
<feBlend mode="normal" in="SourceGraphic" in2="effect1_dropShadow_3532_1198" result="shape"/>
</filter>
</defs>
</svg>
