<svg width="20" height="20" viewBox="0 0 20 20" fill="none" xmlns="http://www.w3.org/2000/svg">
<path d="M10 1.875C8.39303 1.875 6.82214 2.35152 5.486 3.24431C4.14985 4.1371 3.10844 5.40605 2.49348 6.8907C1.87852 8.37535 1.71762 10.009 2.03112 11.5851C2.34463 13.1612 3.11846 14.6089 4.25476 15.7452C5.39106 16.8815 6.8388 17.6554 8.4149 17.9689C9.99099 18.2824 11.6247 18.1215 13.1093 17.5065C14.594 16.8916 15.8629 15.8502 16.7557 14.514C17.6485 13.1779 18.125 11.607 18.125 10C18.1209 7.84639 17.2635 5.78216 15.7407 4.25932C14.2178 2.73648 12.1536 1.87913 10 1.875ZM11.6719 12.3516C11.7941 12.4635 11.8669 12.6193 11.8742 12.7849C11.8815 12.9504 11.8228 13.1121 11.7109 13.2344C11.6527 13.2987 11.5816 13.3501 11.5021 13.3851C11.4227 13.4201 11.3368 13.438 11.25 13.4375C11.0941 13.436 10.9441 13.3776 10.8281 13.2734L7.70313 10.4609C7.63919 10.4024 7.58812 10.3312 7.55319 10.2518C7.51826 10.1725 7.50022 10.0867 7.50022 10C7.50022 9.9133 7.51826 9.82754 7.55319 9.74819C7.58812 9.66884 7.63919 9.59762 7.70313 9.53906L10.8281 6.72656C10.8883 6.66906 10.9593 6.62416 11.0371 6.59447C11.1148 6.56479 11.1977 6.55093 11.2809 6.55371C11.364 6.55649 11.4458 6.57585 11.5214 6.61065C11.597 6.64546 11.6648 6.69501 11.721 6.75639C11.7772 6.81778 11.8206 6.88976 11.8486 6.96813C11.8766 7.04649 11.8886 7.12966 11.884 7.21275C11.8795 7.29584 11.8583 7.37718 11.8219 7.45199C11.7855 7.52681 11.7345 7.5936 11.6719 7.64844L9.0625 10L11.6719 12.3516Z" fill="#08074E"/>
</svg>
