<svg width="703" height="64" viewBox="0 0 703 64" fill="none" xmlns="http://www.w3.org/2000/svg">
<path d="M53 49L58.7735 39H47.2265L53 49ZM53 3.8147e-06L47.2265 10H58.7735L53 3.8147e-06ZM54 40L54 9H52L52 40H54Z" fill="#8E98A8" fill-opacity="0.7"/>
<path d="M46.1472 61.08C45.7605 61.08 45.4305 61.01 45.1572 60.87C44.8905 60.7233 44.6705 60.5267 44.4972 60.28C44.3239 60.0333 44.1905 59.7567 44.0972 59.45C44.0105 59.1367 43.9472 58.8133 43.9072 58.48C43.8739 58.14 43.8572 57.81 43.8572 57.49C43.8572 57.1767 43.8739 56.8533 43.9072 56.52C43.9405 56.1867 44.0005 55.8667 44.0872 55.56C44.1805 55.2533 44.3105 54.98 44.4772 54.74C44.6505 54.4933 44.8705 54.3 45.1372 54.16C45.4039 54.0133 45.7305 53.94 46.1172 53.94C46.4905 53.94 46.8072 54.01 47.0672 54.15C47.3339 54.2833 47.5539 54.47 47.7272 54.71C47.9005 54.9433 48.0339 55.2133 48.1272 55.52C48.2272 55.82 48.2972 56.14 48.3372 56.48C48.3772 56.82 48.3972 57.16 48.3972 57.5C48.3972 57.8467 48.3772 58.19 48.3372 58.53C48.2972 58.87 48.2272 59.1933 48.1272 59.5C48.0339 59.8067 47.9005 60.08 47.7272 60.32C47.5605 60.5533 47.3472 60.74 47.0872 60.88C46.8272 61.0133 46.5139 61.08 46.1472 61.08ZM46.1472 60.26C46.4939 60.26 46.7672 60.14 46.9672 59.9C47.1739 59.66 47.3205 59.3333 47.4072 58.92C47.4939 58.5067 47.5372 58.0433 47.5372 57.53C47.5372 56.99 47.4905 56.5133 47.3972 56.1C47.3105 55.68 47.1639 55.35 46.9572 55.11C46.7505 54.87 46.4705 54.75 46.1172 54.75C45.8372 54.75 45.6072 54.8233 45.4272 54.97C45.2472 55.1167 45.1072 55.32 45.0072 55.58C44.9072 55.8333 44.8339 56.1267 44.7872 56.46C44.7472 56.7933 44.7272 57.1467 44.7272 57.52C44.7272 57.88 44.7472 58.2267 44.7872 58.56C44.8339 58.8867 44.9072 59.1767 45.0072 59.43C45.1139 59.6833 45.2572 59.8867 45.4372 60.04C45.6239 60.1867 45.8605 60.26 46.1472 60.26ZM49.6229 61V59.84H50.6229V61H49.6229ZM53.1053 61L54.8853 58.15L54.9853 58.28C54.8386 58.38 54.6786 58.4567 54.5053 58.51C54.3386 58.5633 54.1719 58.59 54.0053 58.59C53.5719 58.59 53.1786 58.4867 52.8253 58.28C52.4786 58.0733 52.2019 57.7967 51.9953 57.45C51.7953 57.1033 51.6953 56.7167 51.6953 56.29C51.6953 55.8433 51.8053 55.4433 52.0253 55.09C52.2453 54.7367 52.5386 54.46 52.9053 54.26C53.2719 54.0533 53.6753 53.95 54.1153 53.95C54.5619 53.95 54.9686 54.0533 55.3353 54.26C55.7019 54.46 55.9953 54.7367 56.2153 55.09C56.4353 55.4367 56.5453 55.8333 56.5453 56.28C56.5453 56.5067 56.5086 56.7267 56.4353 56.94C56.3686 57.1533 56.2786 57.3567 56.1653 57.55L54.0753 61H53.1053ZM54.1153 57.84C54.4019 57.84 54.6619 57.7733 54.8953 57.64C55.1286 57.5067 55.3153 57.3233 55.4553 57.09C55.6019 56.8567 55.6753 56.59 55.6753 56.29C55.6753 55.99 55.6053 55.7267 55.4653 55.5C55.3253 55.2667 55.1353 55.0833 54.8953 54.95C54.6619 54.8167 54.4019 54.75 54.1153 54.75C53.8286 54.75 53.5653 54.8167 53.3253 54.95C53.0919 55.0833 52.9053 55.2667 52.7653 55.5C52.6253 55.7333 52.5553 56 52.5553 56.3C52.5553 56.5933 52.6253 56.8567 52.7653 57.09C52.9053 57.3233 53.0919 57.5067 53.3253 57.64C53.5653 57.7733 53.8286 57.84 54.1153 57.84ZM60.531 54.03L58.751 56.88L58.651 56.75C58.8043 56.65 58.9643 56.5733 59.131 56.52C59.2976 56.4667 59.4643 56.44 59.631 56.44C60.0643 56.44 60.4543 56.5433 60.801 56.75C61.1543 56.9567 61.431 57.2333 61.631 57.58C61.8376 57.9267 61.941 58.3133 61.941 58.74C61.941 59.1867 61.831 59.5867 61.611 59.94C61.391 60.2933 61.0976 60.5733 60.731 60.78C60.371 60.98 59.9676 61.08 59.521 61.08C59.081 61.08 58.6743 60.98 58.301 60.78C57.9343 60.5733 57.641 60.2933 57.421 59.94C57.201 59.5867 57.091 59.19 57.091 58.75C57.091 58.5233 57.1243 58.3033 57.191 58.09C57.2643 57.87 57.3576 57.6667 57.471 57.48L59.561 54.03H60.531ZM59.521 57.19C59.241 57.19 58.981 57.2567 58.741 57.39C58.5076 57.5233 58.3176 57.7067 58.171 57.94C58.031 58.1733 57.961 58.44 57.961 58.74C57.961 59.0333 58.031 59.2967 58.171 59.53C58.311 59.7633 58.4976 59.9467 58.731 60.08C58.971 60.2133 59.2343 60.28 59.521 60.28C59.8076 60.28 60.0676 60.2133 60.301 60.08C60.541 59.9467 60.731 59.7633 60.871 59.53C61.011 59.2967 61.081 59.03 61.081 58.73C61.081 58.4367 61.011 58.1733 60.871 57.94C60.731 57.7067 60.5443 57.5233 60.311 57.39C60.0776 57.2567 59.8143 57.19 59.521 57.19Z" fill="#08074E"/>
<path d="M127 49L132.774 39H121.226L127 49ZM127 2.52781e-06L121.226 10H132.774L127 2.52781e-06ZM128 40V9H126L126 40H128Z" fill="#8E98A8" fill-opacity="0.7"/>
<path d="M201 49L206.774 39H195.226L201 49ZM201 2.52781e-06L195.226 10H206.774L201 2.52781e-06ZM202 40V9H200V40H202Z" fill="#8E98A8" fill-opacity="0.7"/>
<path d="M275 49L280.774 39H269.226L275 49ZM275 2.52781e-06L269.226 10H280.774L275 2.52781e-06ZM276 40V9H274V40H276Z" fill="#8E98A8" fill-opacity="0.7"/>
<path d="M349 49L354.774 39H343.226L349 49ZM349 2.52781e-06L343.226 10H354.774L349 2.52781e-06ZM350 40V9H348V40H350Z" fill="#8E98A8" fill-opacity="0.7"/>
<path d="M423 49L428.774 39H417.226L423 49ZM423 2.52781e-06L417.226 10H428.774L423 2.52781e-06ZM424 40V9H422V40H424Z" fill="#8E98A8" fill-opacity="0.7"/>
<path d="M497 49L502.774 39H491.226L497 49ZM497 2.52781e-06L491.226 10H502.774L497 2.52781e-06ZM498 40V9H496V40H498Z" fill="#8E98A8" fill-opacity="0.7"/>
<path d="M571 49L576.774 39H565.226L571 49ZM571 2.52781e-06L565.226 10H576.774L571 2.52781e-06ZM572 40V9H570V40H572Z" fill="#8E98A8" fill-opacity="0.7"/>
<path d="M645 49L650.774 39H639.226L645 49ZM645 2.52781e-06L639.226 10H650.774L645 2.52781e-06ZM646 40V9H644V40H646Z" fill="#8E98A8" fill-opacity="0.7"/>
<path d="M120.147 61.08C119.761 61.08 119.431 61.01 119.157 60.87C118.891 60.7233 118.671 60.5267 118.497 60.28C118.324 60.0333 118.191 59.7567 118.097 59.45C118.011 59.1367 117.947 58.8133 117.907 58.48C117.874 58.14 117.857 57.81 117.857 57.49C117.857 57.1767 117.874 56.8533 117.907 56.52C117.941 56.1867 118.001 55.8667 118.087 55.56C118.181 55.2533 118.311 54.98 118.477 54.74C118.651 54.4933 118.871 54.3 119.137 54.16C119.404 54.0133 119.731 53.94 120.117 53.94C120.491 53.94 120.807 54.01 121.067 54.15C121.334 54.2833 121.554 54.47 121.727 54.71C121.901 54.9433 122.034 55.2133 122.127 55.52C122.227 55.82 122.297 56.14 122.337 56.48C122.377 56.82 122.397 57.16 122.397 57.5C122.397 57.8467 122.377 58.19 122.337 58.53C122.297 58.87 122.227 59.1933 122.127 59.5C122.034 59.8067 121.901 60.08 121.727 60.32C121.561 60.5533 121.347 60.74 121.087 60.88C120.827 61.0133 120.514 61.08 120.147 61.08ZM120.147 60.26C120.494 60.26 120.767 60.14 120.967 59.9C121.174 59.66 121.321 59.3333 121.407 58.92C121.494 58.5067 121.537 58.0433 121.537 57.53C121.537 56.99 121.491 56.5133 121.397 56.1C121.311 55.68 121.164 55.35 120.957 55.11C120.751 54.87 120.471 54.75 120.117 54.75C119.837 54.75 119.607 54.8233 119.427 54.97C119.247 55.1167 119.107 55.32 119.007 55.58C118.907 55.8333 118.834 56.1267 118.787 56.46C118.747 56.7933 118.727 57.1467 118.727 57.52C118.727 57.88 118.747 58.2267 118.787 58.56C118.834 58.8867 118.907 59.1767 119.007 59.43C119.114 59.6833 119.257 59.8867 119.437 60.04C119.624 60.1867 119.861 60.26 120.147 60.26ZM123.623 61V59.84H124.623V61H123.623ZM127.105 61L128.885 58.15L128.985 58.28C128.839 58.38 128.679 58.4567 128.505 58.51C128.339 58.5633 128.172 58.59 128.005 58.59C127.572 58.59 127.179 58.4867 126.825 58.28C126.479 58.0733 126.202 57.7967 125.995 57.45C125.795 57.1033 125.695 56.7167 125.695 56.29C125.695 55.8433 125.805 55.4433 126.025 55.09C126.245 54.7367 126.539 54.46 126.905 54.26C127.272 54.0533 127.675 53.95 128.115 53.95C128.562 53.95 128.969 54.0533 129.335 54.26C129.702 54.46 129.995 54.7367 130.215 55.09C130.435 55.4367 130.545 55.8333 130.545 56.28C130.545 56.5067 130.509 56.7267 130.435 56.94C130.369 57.1533 130.279 57.3567 130.165 57.55L128.075 61H127.105ZM128.115 57.84C128.402 57.84 128.662 57.7733 128.895 57.64C129.129 57.5067 129.315 57.3233 129.455 57.09C129.602 56.8567 129.675 56.59 129.675 56.29C129.675 55.99 129.605 55.7267 129.465 55.5C129.325 55.2667 129.135 55.0833 128.895 54.95C128.662 54.8167 128.402 54.75 128.115 54.75C127.829 54.75 127.565 54.8167 127.325 54.95C127.092 55.0833 126.905 55.2667 126.765 55.5C126.625 55.7333 126.555 56 126.555 56.3C126.555 56.5933 126.625 56.8567 126.765 57.09C126.905 57.3233 127.092 57.5067 127.325 57.64C127.565 57.7733 127.829 57.84 128.115 57.84ZM131.961 61L135.361 54.52L135.591 54.82H131.201V54.03H136.201V54.68L132.901 61H131.961Z" fill="#08074E"/>
<path d="M194.147 61.08C193.761 61.08 193.431 61.01 193.157 60.87C192.891 60.7233 192.671 60.5267 192.497 60.28C192.324 60.0333 192.191 59.7567 192.097 59.45C192.011 59.1367 191.947 58.8133 191.907 58.48C191.874 58.14 191.857 57.81 191.857 57.49C191.857 57.1767 191.874 56.8533 191.907 56.52C191.941 56.1867 192.001 55.8667 192.087 55.56C192.181 55.2533 192.311 54.98 192.477 54.74C192.651 54.4933 192.871 54.3 193.137 54.16C193.404 54.0133 193.731 53.94 194.117 53.94C194.491 53.94 194.807 54.01 195.067 54.15C195.334 54.2833 195.554 54.47 195.727 54.71C195.901 54.9433 196.034 55.2133 196.127 55.52C196.227 55.82 196.297 56.14 196.337 56.48C196.377 56.82 196.397 57.16 196.397 57.5C196.397 57.8467 196.377 58.19 196.337 58.53C196.297 58.87 196.227 59.1933 196.127 59.5C196.034 59.8067 195.901 60.08 195.727 60.32C195.561 60.5533 195.347 60.74 195.087 60.88C194.827 61.0133 194.514 61.08 194.147 61.08ZM194.147 60.26C194.494 60.26 194.767 60.14 194.967 59.9C195.174 59.66 195.321 59.3333 195.407 58.92C195.494 58.5067 195.537 58.0433 195.537 57.53C195.537 56.99 195.491 56.5133 195.397 56.1C195.311 55.68 195.164 55.35 194.957 55.11C194.751 54.87 194.471 54.75 194.117 54.75C193.837 54.75 193.607 54.8233 193.427 54.97C193.247 55.1167 193.107 55.32 193.007 55.58C192.907 55.8333 192.834 56.1267 192.787 56.46C192.747 56.7933 192.727 57.1467 192.727 57.52C192.727 57.88 192.747 58.2267 192.787 58.56C192.834 58.8867 192.907 59.1767 193.007 59.43C193.114 59.6833 193.257 59.8867 193.437 60.04C193.624 60.1867 193.861 60.26 194.147 60.26ZM197.623 61V59.84H198.623V61H197.623ZM201.105 61L202.885 58.15L202.985 58.28C202.839 58.38 202.679 58.4567 202.505 58.51C202.339 58.5633 202.172 58.59 202.005 58.59C201.572 58.59 201.179 58.4867 200.825 58.28C200.479 58.0733 200.202 57.7967 199.995 57.45C199.795 57.1033 199.695 56.7167 199.695 56.29C199.695 55.8433 199.805 55.4433 200.025 55.09C200.245 54.7367 200.539 54.46 200.905 54.26C201.272 54.0533 201.675 53.95 202.115 53.95C202.562 53.95 202.969 54.0533 203.335 54.26C203.702 54.46 203.995 54.7367 204.215 55.09C204.435 55.4367 204.545 55.8333 204.545 56.28C204.545 56.5067 204.509 56.7267 204.435 56.94C204.369 57.1533 204.279 57.3567 204.165 57.55L202.075 61H201.105ZM202.115 57.84C202.402 57.84 202.662 57.7733 202.895 57.64C203.129 57.5067 203.315 57.3233 203.455 57.09C203.602 56.8567 203.675 56.59 203.675 56.29C203.675 55.99 203.605 55.7267 203.465 55.5C203.325 55.2667 203.135 55.0833 202.895 54.95C202.662 54.8167 202.402 54.75 202.115 54.75C201.829 54.75 201.565 54.8167 201.325 54.95C201.092 55.0833 200.905 55.2667 200.765 55.5C200.625 55.7333 200.555 56 200.555 56.3C200.555 56.5933 200.625 56.8567 200.765 57.09C200.905 57.3233 201.092 57.5067 201.325 57.64C201.565 57.7733 201.829 57.84 202.115 57.84ZM207.721 61.08C207.308 61.08 206.914 61.0033 206.541 60.85C206.174 60.69 205.874 60.4567 205.641 60.15C205.414 59.8367 205.301 59.45 205.301 58.99C205.301 58.5767 205.404 58.2133 205.611 57.9C205.824 57.5867 206.124 57.3567 206.511 57.21C206.258 57.0833 206.054 56.9 205.901 56.66C205.748 56.4133 205.671 56.1267 205.671 55.8C205.671 55.4067 205.771 55.0733 205.971 54.8C206.171 54.5267 206.428 54.3167 206.741 54.17C207.054 54.0233 207.384 53.95 207.731 53.95C208.104 53.95 208.444 54.0267 208.751 54.18C209.064 54.3333 209.311 54.55 209.491 54.83C209.678 55.11 209.771 55.4433 209.771 55.83C209.771 56.1567 209.694 56.4367 209.541 56.67C209.394 56.9033 209.191 57.0833 208.931 57.21C209.318 57.3567 209.614 57.5867 209.821 57.9C210.034 58.2133 210.141 58.5767 210.141 58.99C210.141 59.45 210.024 59.8367 209.791 60.15C209.564 60.4567 209.268 60.69 208.901 60.85C208.534 61.0033 208.141 61.08 207.721 61.08ZM207.721 60.28C208.008 60.28 208.268 60.23 208.501 60.13C208.741 60.0233 208.931 59.87 209.071 59.67C209.218 59.4633 209.291 59.21 209.291 58.91C209.291 58.63 209.224 58.39 209.091 58.19C208.958 57.9833 208.771 57.8267 208.531 57.72C208.298 57.6067 208.028 57.55 207.721 57.55C207.414 57.55 207.141 57.6067 206.901 57.72C206.668 57.8267 206.481 57.9833 206.341 58.19C206.208 58.39 206.141 58.63 206.141 58.91C206.141 59.21 206.214 59.4633 206.361 59.67C206.508 59.87 206.701 60.0233 206.941 60.13C207.181 60.23 207.441 60.28 207.721 60.28ZM207.741 56.97C208.088 56.97 208.371 56.87 208.591 56.67C208.818 56.47 208.931 56.21 208.931 55.89C208.931 55.55 208.821 55.2767 208.601 55.07C208.388 54.8567 208.098 54.75 207.731 54.75C207.511 54.75 207.308 54.7933 207.121 54.88C206.941 54.9667 206.794 55.0933 206.681 55.26C206.574 55.42 206.521 55.6167 206.521 55.85C206.521 56.19 206.634 56.4633 206.861 56.67C207.088 56.87 207.381 56.97 207.741 56.97Z" fill="#08074E"/>
<path d="M268.147 61.08C267.761 61.08 267.431 61.01 267.157 60.87C266.891 60.7233 266.671 60.5267 266.497 60.28C266.324 60.0333 266.191 59.7567 266.097 59.45C266.011 59.1367 265.947 58.8133 265.907 58.48C265.874 58.14 265.857 57.81 265.857 57.49C265.857 57.1767 265.874 56.8533 265.907 56.52C265.941 56.1867 266.001 55.8667 266.087 55.56C266.181 55.2533 266.311 54.98 266.477 54.74C266.651 54.4933 266.871 54.3 267.137 54.16C267.404 54.0133 267.731 53.94 268.117 53.94C268.491 53.94 268.807 54.01 269.067 54.15C269.334 54.2833 269.554 54.47 269.727 54.71C269.901 54.9433 270.034 55.2133 270.127 55.52C270.227 55.82 270.297 56.14 270.337 56.48C270.377 56.82 270.397 57.16 270.397 57.5C270.397 57.8467 270.377 58.19 270.337 58.53C270.297 58.87 270.227 59.1933 270.127 59.5C270.034 59.8067 269.901 60.08 269.727 60.32C269.561 60.5533 269.347 60.74 269.087 60.88C268.827 61.0133 268.514 61.08 268.147 61.08ZM268.147 60.26C268.494 60.26 268.767 60.14 268.967 59.9C269.174 59.66 269.321 59.3333 269.407 58.92C269.494 58.5067 269.537 58.0433 269.537 57.53C269.537 56.99 269.491 56.5133 269.397 56.1C269.311 55.68 269.164 55.35 268.957 55.11C268.751 54.87 268.471 54.75 268.117 54.75C267.837 54.75 267.607 54.8233 267.427 54.97C267.247 55.1167 267.107 55.32 267.007 55.58C266.907 55.8333 266.834 56.1267 266.787 56.46C266.747 56.7933 266.727 57.1467 266.727 57.52C266.727 57.88 266.747 58.2267 266.787 58.56C266.834 58.8867 266.907 59.1767 267.007 59.43C267.114 59.6833 267.257 59.8867 267.437 60.04C267.624 60.1867 267.861 60.26 268.147 60.26ZM271.623 61V59.84H272.623V61H271.623ZM275.105 61L276.885 58.15L276.985 58.28C276.839 58.38 276.679 58.4567 276.505 58.51C276.339 58.5633 276.172 58.59 276.005 58.59C275.572 58.59 275.179 58.4867 274.825 58.28C274.479 58.0733 274.202 57.7967 273.995 57.45C273.795 57.1033 273.695 56.7167 273.695 56.29C273.695 55.8433 273.805 55.4433 274.025 55.09C274.245 54.7367 274.539 54.46 274.905 54.26C275.272 54.0533 275.675 53.95 276.115 53.95C276.562 53.95 276.969 54.0533 277.335 54.26C277.702 54.46 277.995 54.7367 278.215 55.09C278.435 55.4367 278.545 55.8333 278.545 56.28C278.545 56.5067 278.509 56.7267 278.435 56.94C278.369 57.1533 278.279 57.3567 278.165 57.55L276.075 61H275.105ZM276.115 57.84C276.402 57.84 276.662 57.7733 276.895 57.64C277.129 57.5067 277.315 57.3233 277.455 57.09C277.602 56.8567 277.675 56.59 277.675 56.29C277.675 55.99 277.605 55.7267 277.465 55.5C277.325 55.2667 277.135 55.0833 276.895 54.95C276.662 54.8167 276.402 54.75 276.115 54.75C275.829 54.75 275.565 54.8167 275.325 54.95C275.092 55.0833 274.905 55.2667 274.765 55.5C274.625 55.7333 274.555 56 274.555 56.3C274.555 56.5933 274.625 56.8567 274.765 57.09C274.905 57.3233 275.092 57.5067 275.325 57.64C275.565 57.7733 275.829 57.84 276.115 57.84ZM280.701 61L282.481 58.15L282.581 58.28C282.434 58.38 282.274 58.4567 282.101 58.51C281.934 58.5633 281.768 58.59 281.601 58.59C281.168 58.59 280.774 58.4867 280.421 58.28C280.074 58.0733 279.798 57.7967 279.591 57.45C279.391 57.1033 279.291 56.7167 279.291 56.29C279.291 55.8433 279.401 55.4433 279.621 55.09C279.841 54.7367 280.134 54.46 280.501 54.26C280.868 54.0533 281.271 53.95 281.711 53.95C282.158 53.95 282.564 54.0533 282.931 54.26C283.298 54.46 283.591 54.7367 283.811 55.09C284.031 55.4367 284.141 55.8333 284.141 56.28C284.141 56.5067 284.104 56.7267 284.031 56.94C283.964 57.1533 283.874 57.3567 283.761 57.55L281.671 61H280.701ZM281.711 57.84C281.998 57.84 282.258 57.7733 282.491 57.64C282.724 57.5067 282.911 57.3233 283.051 57.09C283.198 56.8567 283.271 56.59 283.271 56.29C283.271 55.99 283.201 55.7267 283.061 55.5C282.921 55.2667 282.731 55.0833 282.491 54.95C282.258 54.8167 281.998 54.75 281.711 54.75C281.424 54.75 281.161 54.8167 280.921 54.95C280.688 55.0833 280.501 55.2667 280.361 55.5C280.221 55.7333 280.151 56 280.151 56.3C280.151 56.5933 280.221 56.8567 280.361 57.09C280.501 57.3233 280.688 57.5067 280.921 57.64C281.161 57.7733 281.424 57.84 281.711 57.84Z" fill="#08074E"/>
<path d="M342.237 61V55.38L342.497 55.82H340.417V55.14H341.627C341.827 55.14 341.977 55.0967 342.077 55.01C342.184 54.9233 342.237 54.7733 342.237 54.56V54.03H343.087V61H342.237ZM345.623 61V59.84H346.623V61H345.623ZM350.145 61.08C349.759 61.08 349.429 61.01 349.155 60.87C348.889 60.7233 348.669 60.5267 348.495 60.28C348.322 60.0333 348.189 59.7567 348.095 59.45C348.009 59.1367 347.945 58.8133 347.905 58.48C347.872 58.14 347.855 57.81 347.855 57.49C347.855 57.1767 347.872 56.8533 347.905 56.52C347.939 56.1867 347.999 55.8667 348.085 55.56C348.179 55.2533 348.309 54.98 348.475 54.74C348.649 54.4933 348.869 54.3 349.135 54.16C349.402 54.0133 349.729 53.94 350.115 53.94C350.489 53.94 350.805 54.01 351.065 54.15C351.332 54.2833 351.552 54.47 351.725 54.71C351.899 54.9433 352.032 55.2133 352.125 55.52C352.225 55.82 352.295 56.14 352.335 56.48C352.375 56.82 352.395 57.16 352.395 57.5C352.395 57.8467 352.375 58.19 352.335 58.53C352.295 58.87 352.225 59.1933 352.125 59.5C352.032 59.8067 351.899 60.08 351.725 60.32C351.559 60.5533 351.345 60.74 351.085 60.88C350.825 61.0133 350.512 61.08 350.145 61.08ZM350.145 60.26C350.492 60.26 350.765 60.14 350.965 59.9C351.172 59.66 351.319 59.3333 351.405 58.92C351.492 58.5067 351.535 58.0433 351.535 57.53C351.535 56.99 351.489 56.5133 351.395 56.1C351.309 55.68 351.162 55.35 350.955 55.11C350.749 54.87 350.469 54.75 350.115 54.75C349.835 54.75 349.605 54.8233 349.425 54.97C349.245 55.1167 349.105 55.32 349.005 55.58C348.905 55.8333 348.832 56.1267 348.785 56.46C348.745 56.7933 348.725 57.1467 348.725 57.52C348.725 57.88 348.745 58.2267 348.785 58.56C348.832 58.8867 348.905 59.1767 349.005 59.43C349.112 59.6833 349.255 59.8867 349.435 60.04C349.622 60.1867 349.859 60.26 350.145 60.26ZM355.741 61.08C355.354 61.08 355.024 61.01 354.751 60.87C354.484 60.7233 354.264 60.5267 354.091 60.28C353.918 60.0333 353.784 59.7567 353.691 59.45C353.604 59.1367 353.541 58.8133 353.501 58.48C353.468 58.14 353.451 57.81 353.451 57.49C353.451 57.1767 353.468 56.8533 353.501 56.52C353.534 56.1867 353.594 55.8667 353.681 55.56C353.774 55.2533 353.904 54.98 354.071 54.74C354.244 54.4933 354.464 54.3 354.731 54.16C354.998 54.0133 355.324 53.94 355.711 53.94C356.084 53.94 356.401 54.01 356.661 54.15C356.928 54.2833 357.148 54.47 357.321 54.71C357.494 54.9433 357.628 55.2133 357.721 55.52C357.821 55.82 357.891 56.14 357.931 56.48C357.971 56.82 357.991 57.16 357.991 57.5C357.991 57.8467 357.971 58.19 357.931 58.53C357.891 58.87 357.821 59.1933 357.721 59.5C357.628 59.8067 357.494 60.08 357.321 60.32C357.154 60.5533 356.941 60.74 356.681 60.88C356.421 61.0133 356.108 61.08 355.741 61.08ZM355.741 60.26C356.088 60.26 356.361 60.14 356.561 59.9C356.768 59.66 356.914 59.3333 357.001 58.92C357.088 58.5067 357.131 58.0433 357.131 57.53C357.131 56.99 357.084 56.5133 356.991 56.1C356.904 55.68 356.758 55.35 356.551 55.11C356.344 54.87 356.064 54.75 355.711 54.75C355.431 54.75 355.201 54.8233 355.021 54.97C354.841 55.1167 354.701 55.32 354.601 55.58C354.501 55.8333 354.428 56.1267 354.381 56.46C354.341 56.7933 354.321 57.1467 354.321 57.52C354.321 57.88 354.341 58.2267 354.381 58.56C354.428 58.8867 354.501 59.1767 354.601 59.43C354.708 59.6833 354.851 59.8867 355.031 60.04C355.218 60.1867 355.454 60.26 355.741 60.26Z" fill="#08074E"/>
<path d="M416.237 61V55.38L416.497 55.82H414.417V55.14H415.627C415.827 55.14 415.977 55.0967 416.077 55.01C416.184 54.9233 416.237 54.7733 416.237 54.56V54.03H417.087V61H416.237ZM419.623 61V59.84H420.623V61H419.623ZM424.145 61.08C423.759 61.08 423.429 61.01 423.155 60.87C422.889 60.7233 422.669 60.5267 422.495 60.28C422.322 60.0333 422.189 59.7567 422.095 59.45C422.009 59.1367 421.945 58.8133 421.905 58.48C421.872 58.14 421.855 57.81 421.855 57.49C421.855 57.1767 421.872 56.8533 421.905 56.52C421.939 56.1867 421.999 55.8667 422.085 55.56C422.179 55.2533 422.309 54.98 422.475 54.74C422.649 54.4933 422.869 54.3 423.135 54.16C423.402 54.0133 423.729 53.94 424.115 53.94C424.489 53.94 424.805 54.01 425.065 54.15C425.332 54.2833 425.552 54.47 425.725 54.71C425.899 54.9433 426.032 55.2133 426.125 55.52C426.225 55.82 426.295 56.14 426.335 56.48C426.375 56.82 426.395 57.16 426.395 57.5C426.395 57.8467 426.375 58.19 426.335 58.53C426.295 58.87 426.225 59.1933 426.125 59.5C426.032 59.8067 425.899 60.08 425.725 60.32C425.559 60.5533 425.345 60.74 425.085 60.88C424.825 61.0133 424.512 61.08 424.145 61.08ZM424.145 60.26C424.492 60.26 424.765 60.14 424.965 59.9C425.172 59.66 425.319 59.3333 425.405 58.92C425.492 58.5067 425.535 58.0433 425.535 57.53C425.535 56.99 425.489 56.5133 425.395 56.1C425.309 55.68 425.162 55.35 424.955 55.11C424.749 54.87 424.469 54.75 424.115 54.75C423.835 54.75 423.605 54.8233 423.425 54.97C423.245 55.1167 423.105 55.32 423.005 55.58C422.905 55.8333 422.832 56.1267 422.785 56.46C422.745 56.7933 422.725 57.1467 422.725 57.52C422.725 57.88 422.745 58.2267 422.785 58.56C422.832 58.8867 422.905 59.1767 423.005 59.43C423.112 59.6833 423.255 59.8867 423.435 60.04C423.622 60.1867 423.859 60.26 424.145 60.26ZM429.831 61V55.38L430.091 55.82H428.011V55.14H429.221C429.421 55.14 429.571 55.0967 429.671 55.01C429.778 54.9233 429.831 54.7733 429.831 54.56V54.03H430.681V61H429.831Z" fill="#08074E"/>
<path d="M490.237 61V55.38L490.497 55.82H488.417V55.14H489.627C489.827 55.14 489.977 55.0967 490.077 55.01C490.184 54.9233 490.237 54.7733 490.237 54.56V54.03H491.087V61H490.237ZM493.623 61V59.84H494.623V61H493.623ZM498.145 61.08C497.759 61.08 497.429 61.01 497.155 60.87C496.889 60.7233 496.669 60.5267 496.495 60.28C496.322 60.0333 496.189 59.7567 496.095 59.45C496.009 59.1367 495.945 58.8133 495.905 58.48C495.872 58.14 495.855 57.81 495.855 57.49C495.855 57.1767 495.872 56.8533 495.905 56.52C495.939 56.1867 495.999 55.8667 496.085 55.56C496.179 55.2533 496.309 54.98 496.475 54.74C496.649 54.4933 496.869 54.3 497.135 54.16C497.402 54.0133 497.729 53.94 498.115 53.94C498.489 53.94 498.805 54.01 499.065 54.15C499.332 54.2833 499.552 54.47 499.725 54.71C499.899 54.9433 500.032 55.2133 500.125 55.52C500.225 55.82 500.295 56.14 500.335 56.48C500.375 56.82 500.395 57.16 500.395 57.5C500.395 57.8467 500.375 58.19 500.335 58.53C500.295 58.87 500.225 59.1933 500.125 59.5C500.032 59.8067 499.899 60.08 499.725 60.32C499.559 60.5533 499.345 60.74 499.085 60.88C498.825 61.0133 498.512 61.08 498.145 61.08ZM498.145 60.26C498.492 60.26 498.765 60.14 498.965 59.9C499.172 59.66 499.319 59.3333 499.405 58.92C499.492 58.5067 499.535 58.0433 499.535 57.53C499.535 56.99 499.489 56.5133 499.395 56.1C499.309 55.68 499.162 55.35 498.955 55.11C498.749 54.87 498.469 54.75 498.115 54.75C497.835 54.75 497.605 54.8233 497.425 54.97C497.245 55.1167 497.105 55.32 497.005 55.58C496.905 55.8333 496.832 56.1267 496.785 56.46C496.745 56.7933 496.725 57.1467 496.725 57.52C496.725 57.88 496.745 58.2267 496.785 58.56C496.832 58.8867 496.905 59.1767 497.005 59.43C497.112 59.6833 497.255 59.8867 497.435 60.04C497.622 60.1867 497.859 60.26 498.145 60.26ZM501.401 61V60.3C501.634 60.1133 501.904 59.9067 502.211 59.68C502.524 59.4533 502.838 59.2067 503.151 58.94C503.471 58.6733 503.764 58.39 504.031 58.09C504.304 57.79 504.524 57.4733 504.691 57.14C504.858 56.8067 504.941 56.4633 504.941 56.11C504.941 55.7167 504.831 55.3967 504.611 55.15C504.391 54.9033 504.068 54.78 503.641 54.78C503.328 54.78 503.064 54.8533 502.851 55C502.644 55.14 502.488 55.3367 502.381 55.59C502.281 55.8367 502.228 56.12 502.221 56.44L501.391 56.38C501.391 56.0533 501.441 55.7467 501.541 55.46C501.641 55.1667 501.788 54.91 501.981 54.69C502.174 54.4633 502.411 54.2867 502.691 54.16C502.978 54.0267 503.304 53.96 503.671 53.96C504.091 53.96 504.458 54.05 504.771 54.23C505.084 54.4033 505.328 54.65 505.501 54.97C505.681 55.2833 505.771 55.6533 505.771 56.08C505.771 56.4533 505.701 56.8133 505.561 57.16C505.428 57.5067 505.238 57.8367 504.991 58.15C504.751 58.4633 504.474 58.76 504.161 59.04C503.848 59.32 503.514 59.5833 503.161 59.83C502.808 60.0767 502.448 60.3033 502.081 60.51L502.301 60.21H506.051V61H501.401Z" fill="#08074E"/>
<path d="M564.237 61V55.38L564.497 55.82H562.417V55.14H563.627C563.827 55.14 563.977 55.0967 564.077 55.01C564.184 54.9233 564.237 54.7733 564.237 54.56V54.03H565.087V61H564.237ZM567.623 61V59.84H568.623V61H567.623ZM572.145 61.08C571.759 61.08 571.429 61.01 571.155 60.87C570.889 60.7233 570.669 60.5267 570.495 60.28C570.322 60.0333 570.189 59.7567 570.095 59.45C570.009 59.1367 569.945 58.8133 569.905 58.48C569.872 58.14 569.855 57.81 569.855 57.49C569.855 57.1767 569.872 56.8533 569.905 56.52C569.939 56.1867 569.999 55.8667 570.085 55.56C570.179 55.2533 570.309 54.98 570.475 54.74C570.649 54.4933 570.869 54.3 571.135 54.16C571.402 54.0133 571.729 53.94 572.115 53.94C572.489 53.94 572.805 54.01 573.065 54.15C573.332 54.2833 573.552 54.47 573.725 54.71C573.899 54.9433 574.032 55.2133 574.125 55.52C574.225 55.82 574.295 56.14 574.335 56.48C574.375 56.82 574.395 57.16 574.395 57.5C574.395 57.8467 574.375 58.19 574.335 58.53C574.295 58.87 574.225 59.1933 574.125 59.5C574.032 59.8067 573.899 60.08 573.725 60.32C573.559 60.5533 573.345 60.74 573.085 60.88C572.825 61.0133 572.512 61.08 572.145 61.08ZM572.145 60.26C572.492 60.26 572.765 60.14 572.965 59.9C573.172 59.66 573.319 59.3333 573.405 58.92C573.492 58.5067 573.535 58.0433 573.535 57.53C573.535 56.99 573.489 56.5133 573.395 56.1C573.309 55.68 573.162 55.35 572.955 55.11C572.749 54.87 572.469 54.75 572.115 54.75C571.835 54.75 571.605 54.8233 571.425 54.97C571.245 55.1167 571.105 55.32 571.005 55.58C570.905 55.8333 570.832 56.1267 570.785 56.46C570.745 56.7933 570.725 57.1467 570.725 57.52C570.725 57.88 570.745 58.2267 570.785 58.56C570.832 58.8867 570.905 59.1767 571.005 59.43C571.112 59.6833 571.255 59.8867 571.435 60.04C571.622 60.1867 571.859 60.26 572.145 60.26ZM577.671 61.08C577.171 61.08 576.734 60.99 576.361 60.81C575.988 60.6233 575.698 60.3667 575.491 60.04C575.284 59.7067 575.181 59.32 575.181 58.88L576.021 58.83C576.021 59.27 576.174 59.62 576.481 59.88C576.788 60.1333 577.194 60.26 577.701 60.26C578.034 60.26 578.321 60.2067 578.561 60.1C578.801 59.9933 578.984 59.84 579.111 59.64C579.244 59.44 579.311 59.2067 579.311 58.94C579.311 58.6933 579.258 58.49 579.151 58.33C579.044 58.1633 578.898 58.0333 578.711 57.94C578.531 57.84 578.318 57.77 578.071 57.73C577.824 57.69 577.561 57.67 577.281 57.67V57C577.488 57 577.688 56.9833 577.881 56.95C578.081 56.91 578.258 56.8467 578.411 56.76C578.571 56.6733 578.694 56.5567 578.781 56.41C578.874 56.2633 578.921 56.08 578.921 55.86C578.921 55.64 578.868 55.4467 578.761 55.28C578.654 55.1133 578.508 54.9867 578.321 54.9C578.134 54.8067 577.914 54.76 577.661 54.76C577.248 54.76 576.924 54.8733 576.691 55.1C576.458 55.3267 576.338 55.6167 576.331 55.97L575.501 55.92C575.501 55.5333 575.594 55.1933 575.781 54.9C575.968 54.6 576.224 54.3667 576.551 54.2C576.884 54.0333 577.264 53.95 577.691 53.95C578.098 53.95 578.454 54.03 578.761 54.19C579.074 54.3433 579.321 54.5567 579.501 54.83C579.681 55.1033 579.771 55.42 579.771 55.78C579.771 55.98 579.741 56.16 579.681 56.32C579.621 56.4733 579.534 56.61 579.421 56.73C579.314 56.85 579.188 56.9533 579.041 57.04C578.901 57.12 578.751 57.1867 578.591 57.24C578.791 57.2867 578.984 57.3533 579.171 57.44C579.358 57.5267 579.524 57.64 579.671 57.78C579.818 57.92 579.934 58.0867 580.021 58.28C580.108 58.4733 580.151 58.6967 580.151 58.95C580.151 59.37 580.044 59.74 579.831 60.06C579.624 60.38 579.334 60.63 578.961 60.81C578.594 60.99 578.164 61.08 577.671 61.08Z" fill="#08074E"/>
<path d="M638.237 61V55.38L638.497 55.82H636.417V55.14H637.627C637.827 55.14 637.977 55.0967 638.077 55.01C638.184 54.9233 638.237 54.7733 638.237 54.56V54.03H639.087V61H638.237ZM641.623 61V59.84H642.623V61H641.623ZM646.145 61.08C645.759 61.08 645.429 61.01 645.155 60.87C644.889 60.7233 644.669 60.5267 644.495 60.28C644.322 60.0333 644.189 59.7567 644.095 59.45C644.009 59.1367 643.945 58.8133 643.905 58.48C643.872 58.14 643.855 57.81 643.855 57.49C643.855 57.1767 643.872 56.8533 643.905 56.52C643.939 56.1867 643.999 55.8667 644.085 55.56C644.179 55.2533 644.309 54.98 644.475 54.74C644.649 54.4933 644.869 54.3 645.135 54.16C645.402 54.0133 645.729 53.94 646.115 53.94C646.489 53.94 646.805 54.01 647.065 54.15C647.332 54.2833 647.552 54.47 647.725 54.71C647.899 54.9433 648.032 55.2133 648.125 55.52C648.225 55.82 648.295 56.14 648.335 56.48C648.375 56.82 648.395 57.16 648.395 57.5C648.395 57.8467 648.375 58.19 648.335 58.53C648.295 58.87 648.225 59.1933 648.125 59.5C648.032 59.8067 647.899 60.08 647.725 60.32C647.559 60.5533 647.345 60.74 647.085 60.88C646.825 61.0133 646.512 61.08 646.145 61.08ZM646.145 60.26C646.492 60.26 646.765 60.14 646.965 59.9C647.172 59.66 647.319 59.3333 647.405 58.92C647.492 58.5067 647.535 58.0433 647.535 57.53C647.535 56.99 647.489 56.5133 647.395 56.1C647.309 55.68 647.162 55.35 646.955 55.11C646.749 54.87 646.469 54.75 646.115 54.75C645.835 54.75 645.605 54.8233 645.425 54.97C645.245 55.1167 645.105 55.32 645.005 55.58C644.905 55.8333 644.832 56.1267 644.785 56.46C644.745 56.7933 644.725 57.1467 644.725 57.52C644.725 57.88 644.745 58.2267 644.785 58.56C644.832 58.8867 644.905 59.1767 645.005 59.43C645.112 59.6833 645.255 59.8867 645.435 60.04C645.622 60.1867 645.859 60.26 646.145 60.26ZM652.401 61V59.34H649.081V58.67L652.471 54.03H653.251V58.55H654.371V59.34H653.251V61H652.401ZM649.791 58.85L649.721 58.55H652.401V54.98L652.501 55.05L649.791 58.85Z" fill="#08074E"/>
<path d="M8 24H695" stroke="url(#paint0_linear_3364_466)" stroke-width="15" stroke-linecap="round"/>
<defs>
<linearGradient id="paint0_linear_3364_466" x1="8" y1="24.5" x2="695" y2="24.5" gradientUnits="userSpaceOnUse">
<stop stop-color="#9E1421"/>
<stop offset="0.0001" stop-color="#9E1421"/>
<stop offset="0.495523" stop-color="#010101"/>
<stop offset="1" stop-color="#00B050"/>
</linearGradient>
</defs>
</svg>
