<svg width="32" height="32" viewBox="0 0 32 32" fill="none" xmlns="http://www.w3.org/2000/svg">
<path d="M16 0.5625C12.9468 0.5625 9.96207 1.46789 7.42339 3.16419C4.88471 4.86048 2.90604 7.27149 1.73762 10.0923C0.569189 12.9132 0.263475 16.0171 0.859134 19.0117C1.45479 22.0063 2.92507 24.757 5.08405 26.916C7.24302 29.0749 9.99372 30.5452 12.9883 31.1409C15.9829 31.7365 19.0868 31.4308 21.9077 30.2624C24.7285 29.094 27.1395 27.1153 28.8358 24.5766C30.5321 22.0379 31.4375 19.0532 31.4375 16C31.4297 11.9081 29.8007 7.9861 26.9073 5.09271C24.0139 2.19931 20.0919 0.570346 16 0.5625ZM23.3477 13.2984L14.6492 21.6109C14.4243 21.8225 14.1267 21.9394 13.818 21.9375C13.6671 21.9397 13.5172 21.9119 13.3771 21.8559C13.237 21.7998 13.1094 21.7166 13.0016 21.6109L8.65235 17.4547C8.53172 17.3494 8.43361 17.2209 8.36393 17.0768C8.29425 16.9326 8.25443 16.7759 8.24686 16.616C8.23929 16.4561 8.26414 16.2963 8.3199 16.1462C8.37567 15.9962 8.4612 15.8589 8.57135 15.7428C8.68151 15.6266 8.81402 15.5339 8.96091 15.4703C9.1078 15.4066 9.26605 15.3733 9.42614 15.3724C9.58622 15.3715 9.74485 15.4029 9.89247 15.4649C10.0401 15.5268 10.1737 15.6179 10.2852 15.7328L13.818 19.1023L21.7148 11.5766C21.9457 11.3751 22.2456 11.2707 22.5517 11.2852C22.8577 11.2997 23.1464 11.4319 23.3572 11.6543C23.5681 11.8766 23.6848 12.1719 23.683 12.4783C23.6812 12.7847 23.5611 13.0786 23.3477 13.2984Z" fill="#08074E"/>
</svg>
