<svg width="38" height="38" viewBox="0 0 38 38" fill="none" xmlns="http://www.w3.org/2000/svg">
<path d="M19 3.5625C15.9468 3.5625 12.9621 4.46789 10.4234 6.16419C7.88471 7.86048 5.90604 10.2715 4.73762 13.0923C3.56919 15.9132 3.26347 19.0171 3.85913 22.0117C4.45479 25.0063 5.92507 27.757 8.08405 29.916C10.243 32.0749 12.9937 33.5452 15.9883 34.1409C18.9829 34.7365 22.0868 34.4308 24.9077 33.2624C27.7285 32.094 30.1395 30.1153 31.8358 27.5766C33.5321 25.0379 34.4375 22.0532 34.4375 19C34.4297 14.9081 32.8007 10.9861 29.9073 8.09271C27.0139 5.19931 23.0919 3.57035 19 3.5625ZM26.3477 16.2984L17.6492 24.6109C17.4243 24.8225 17.1267 24.9394 16.818 24.9375C16.6671 24.9397 16.5172 24.9119 16.3771 24.8559C16.237 24.7998 16.1094 24.7166 16.0016 24.6109L11.6524 20.4547C11.5317 20.3494 11.4336 20.2209 11.3639 20.0768C11.2942 19.9326 11.2544 19.7759 11.2469 19.616C11.2393 19.4561 11.2641 19.2963 11.3199 19.1462C11.3757 18.9962 11.4612 18.8589 11.5714 18.7428C11.6815 18.6266 11.814 18.5339 11.9609 18.4703C12.1078 18.4066 12.2661 18.3733 12.4261 18.3724C12.5862 18.3715 12.7448 18.4029 12.8925 18.4649C13.0401 18.5268 13.1737 18.6179 13.2852 18.7328L16.818 22.1023L24.7148 14.5766C24.9457 14.3751 25.2456 14.2707 25.5517 14.2852C25.8577 14.2997 26.1464 14.4319 26.3572 14.6543C26.5681 14.8766 26.6848 15.1719 26.683 15.4783C26.6812 15.7847 26.5611 16.0786 26.3477 16.2984Z" fill="#08074E"/>
</svg>
