<svg width="91" height="42" viewBox="0 0 91 42" fill="none" xmlns="http://www.w3.org/2000/svg">
<g filter="url(#filter0_d_3732_725)">
<path fill-rule="evenodd" clip-rule="evenodd" d="M41.6966 30.1801L45.4937 31.999L49.2908 30.1801L70.9097 30.1801C76.4824 30.1801 81 25.6625 81 20.0898C81 14.5171 76.4824 9.99958 70.9097 9.99958L20.0903 9.99958C14.5176 9.99958 10 14.5171 10 20.0898C10 25.6625 14.5176 30.1801 20.0903 30.1801L41.6966 30.1801Z" fill="#08074E"/>
</g>
<path d="M26.0112 23.096C25.4992 23.096 25.0485 22.976 24.6592 22.736C24.2752 22.496 23.9738 22.16 23.7552 21.728C23.5418 21.2907 23.4352 20.784 23.4352 20.208C23.4352 19.632 23.5418 19.128 23.7552 18.696C23.9738 18.264 24.2752 17.928 24.6592 17.688C25.0485 17.448 25.4992 17.328 26.0112 17.328C26.5712 17.328 27.0565 17.4667 27.4672 17.744C27.8778 18.0213 28.1738 18.4053 28.3552 18.896L27.6992 19.144C27.5605 18.7813 27.3472 18.5013 27.0592 18.304C26.7712 18.1013 26.4218 18 26.0112 18C25.6325 18 25.3018 18.0907 25.0192 18.272C24.7365 18.4533 24.5178 18.7093 24.3632 19.04C24.2138 19.3653 24.1392 19.7547 24.1392 20.208C24.1392 20.6613 24.2138 21.0533 24.3632 21.384C24.5178 21.7147 24.7365 21.9707 25.0192 22.152C25.3018 22.3333 25.6325 22.424 26.0112 22.424C26.4218 22.424 26.7712 22.3227 27.0592 22.12C27.3472 21.9173 27.5605 21.6373 27.6992 21.28L28.3552 21.52C28.1738 22.0053 27.8778 22.3893 27.4672 22.672C27.0565 22.9547 26.5712 23.096 26.0112 23.096ZM30.98 23.064C30.612 23.064 30.2813 22.9787 29.988 22.808C29.7 22.632 29.4733 22.3893 29.308 22.08C29.1426 21.7707 29.06 21.4187 29.06 21.024C29.06 20.6293 29.14 20.28 29.3 19.976C29.4653 19.6667 29.692 19.4267 29.98 19.256C30.2733 19.08 30.6066 18.992 30.98 18.992C31.3533 18.992 31.6813 19.08 31.964 19.256C32.252 19.4267 32.4786 19.6667 32.644 19.976C32.8093 20.28 32.892 20.6293 32.892 21.024C32.892 21.4187 32.8093 21.7707 32.644 22.08C32.4786 22.384 32.252 22.624 31.964 22.8C31.676 22.976 31.348 23.064 30.98 23.064ZM30.98 22.464C31.2306 22.464 31.4466 22.4053 31.628 22.288C31.8146 22.1653 31.9586 21.9973 32.06 21.784C32.1613 21.5653 32.212 21.312 32.212 21.024C32.212 20.7307 32.1613 20.4773 32.06 20.264C31.9586 20.0453 31.8146 19.8773 31.628 19.76C31.4466 19.6427 31.2306 19.584 30.98 19.584C30.724 19.584 30.5026 19.6453 30.316 19.768C30.1293 19.8853 29.9853 20.0507 29.884 20.264C29.7826 20.4773 29.732 20.7307 29.732 21.024C29.732 21.312 29.7826 21.5653 29.884 21.784C29.9853 21.9973 30.1293 22.1653 30.316 22.288C30.5026 22.4053 30.724 22.464 30.98 22.464ZM33.8612 23V19.056H34.5412V20.072H34.4052C34.4532 19.8853 34.5172 19.7253 34.5972 19.592C34.6825 19.4533 34.7812 19.3413 34.8932 19.256C35.0052 19.1653 35.1252 19.0987 35.2532 19.056C35.3865 19.0133 35.5252 18.992 35.6692 18.992C35.9092 18.992 36.1198 19.0373 36.3012 19.128C36.4825 19.2187 36.6318 19.3573 36.7492 19.544C36.8665 19.7253 36.9465 19.9573 36.9892 20.24L36.6052 20.264C36.6852 19.992 36.7865 19.7627 36.9092 19.576C37.0318 19.384 37.1838 19.24 37.3652 19.144C37.5518 19.0427 37.7732 18.992 38.0292 18.992C38.3545 18.992 38.6158 19.0667 38.8132 19.216C39.0105 19.36 39.1545 19.5547 39.2452 19.8C39.3358 20.04 39.3812 20.3067 39.3812 20.6V23H38.7092V20.76C38.7092 20.5147 38.6798 20.304 38.6212 20.128C38.5678 19.952 38.4798 19.816 38.3572 19.72C38.2398 19.624 38.0798 19.576 37.8772 19.576C37.6852 19.576 37.5198 19.624 37.3812 19.72C37.2478 19.816 37.1438 19.9627 37.0692 20.16C36.9998 20.352 36.9652 20.592 36.9652 20.88V23H36.2852V20.704C36.2852 20.3253 36.2158 20.0427 36.0772 19.856C35.9385 19.6693 35.7358 19.576 35.4692 19.576C35.2772 19.576 35.1118 19.6267 34.9732 19.728C34.8345 19.824 34.7278 19.968 34.6532 20.16C34.5785 20.352 34.5412 20.592 34.5412 20.88V23H33.8612ZM40.4862 24.632V19.056H41.1582V20.232L40.9422 20.08C41.0115 19.8507 41.1128 19.656 41.2462 19.496C41.3848 19.3307 41.5528 19.2053 41.7502 19.12C41.9475 19.0347 42.1715 18.992 42.4222 18.992C42.7795 18.992 43.0915 19.0827 43.3582 19.264C43.6302 19.44 43.8408 19.6827 43.9902 19.992C44.1395 20.296 44.2142 20.6427 44.2142 21.032C44.2142 21.4427 44.1342 21.8027 43.9742 22.112C43.8142 22.416 43.5982 22.6507 43.3262 22.816C43.0542 22.9813 42.7528 23.064 42.4222 23.064C42.1715 23.064 41.9475 23.0187 41.7502 22.928C41.5528 22.8373 41.3875 22.712 41.2542 22.552C41.1208 22.392 41.0248 22.2107 40.9662 22.008L41.1582 21.824V24.632H40.4862ZM42.3102 22.448C42.5502 22.448 42.7608 22.3893 42.9422 22.272C43.1288 22.1493 43.2728 21.9813 43.3742 21.768C43.4808 21.5547 43.5342 21.3093 43.5342 21.032C43.5342 20.7547 43.4808 20.5093 43.3742 20.296C43.2728 20.0827 43.1288 19.9173 42.9422 19.8C42.7608 19.6773 42.5502 19.616 42.3102 19.616C42.0702 19.616 41.8595 19.6773 41.6782 19.8C41.4968 19.9173 41.3555 20.0827 41.2542 20.296C41.1528 20.5093 41.1022 20.7547 41.1022 21.032C41.1022 21.3093 41.1528 21.5547 41.2542 21.768C41.3555 21.9813 41.4968 22.1493 41.6782 22.272C41.8595 22.3893 42.0702 22.448 42.3102 22.448ZM47.7735 23L47.7255 22.208V20.528C47.7255 20.224 47.6401 19.9893 47.4695 19.824C47.3041 19.6587 47.0561 19.576 46.7255 19.576C46.5121 19.576 46.3121 19.6213 46.1255 19.712C45.9388 19.7973 45.7575 19.944 45.5815 20.152L45.0935 19.736C45.3121 19.48 45.5628 19.2933 45.8455 19.176C46.1281 19.0533 46.4375 18.992 46.7735 18.992C47.2908 18.992 47.6908 19.1253 47.9735 19.392C48.2561 19.6587 48.3975 20.0373 48.3975 20.528V23H47.7735ZM46.4695 23.064C46.1708 23.064 45.9095 23.0133 45.6855 22.912C45.4668 22.8053 45.2961 22.6587 45.1735 22.472C45.0561 22.2853 44.9975 22.0693 44.9975 21.824C44.9975 21.6053 45.0401 21.4213 45.1255 21.272C45.2161 21.1173 45.3308 20.9973 45.4695 20.912C45.6081 20.8213 45.7655 20.76 45.9415 20.728C46.1228 20.6907 46.3121 20.672 46.5095 20.672H47.7895V21.184H46.6055C46.4881 21.184 46.3655 21.1947 46.2375 21.216C46.1095 21.2373 45.9975 21.2827 45.9015 21.352C45.8321 21.4053 45.7761 21.472 45.7335 21.552C45.6961 21.632 45.6775 21.7253 45.6775 21.832C45.6775 22.04 45.7548 22.2053 45.9095 22.328C46.0641 22.4507 46.2721 22.512 46.5335 22.512C46.7521 22.512 46.9495 22.4613 47.1255 22.36C47.3068 22.2587 47.4508 22.12 47.5575 21.944C47.6695 21.7627 47.7255 21.56 47.7255 21.336L48.0055 21.624C47.9735 21.9067 47.8881 22.1573 47.7495 22.376C47.6108 22.5947 47.4321 22.7653 47.2135 22.888C47.0001 23.0053 46.7521 23.064 46.4695 23.064ZM49.5018 23V19.056H50.1818V20.112L50.0058 20.152C50.0431 19.9173 50.1311 19.7147 50.2698 19.544C50.4138 19.368 50.5791 19.232 50.7658 19.136C50.9578 19.04 51.1444 18.992 51.3258 18.992C51.4484 18.992 51.5658 19.0053 51.6778 19.032C51.7898 19.0587 51.9044 19.104 52.0218 19.168L51.6858 19.776C51.6218 19.744 51.5444 19.7173 51.4538 19.696C51.3684 19.6747 51.2858 19.664 51.2058 19.664C51.0778 19.664 50.9498 19.688 50.8218 19.736C50.6991 19.784 50.5871 19.8587 50.4858 19.96C50.3844 20.0613 50.3071 20.1973 50.2538 20.368C50.2324 20.4427 50.2138 20.5413 50.1978 20.664C50.1871 20.7813 50.1818 20.944 50.1818 21.152V23H49.5018ZM55.25 23L55.202 22.208V20.528C55.202 20.224 55.1167 19.9893 54.946 19.824C54.7807 19.6587 54.5327 19.576 54.202 19.576C53.9887 19.576 53.7887 19.6213 53.602 19.712C53.4154 19.7973 53.234 19.944 53.058 20.152L52.57 19.736C52.7887 19.48 53.0394 19.2933 53.322 19.176C53.6047 19.0533 53.914 18.992 54.25 18.992C54.7674 18.992 55.1674 19.1253 55.45 19.392C55.7327 19.6587 55.874 20.0373 55.874 20.528V23H55.25ZM53.946 23.064C53.6474 23.064 53.386 23.0133 53.162 22.912C52.9434 22.8053 52.7727 22.6587 52.65 22.472C52.5327 22.2853 52.474 22.0693 52.474 21.824C52.474 21.6053 52.5167 21.4213 52.602 21.272C52.6927 21.1173 52.8074 20.9973 52.946 20.912C53.0847 20.8213 53.242 20.76 53.418 20.728C53.5994 20.6907 53.7887 20.672 53.986 20.672H55.266V21.184H54.082C53.9647 21.184 53.842 21.1947 53.714 21.216C53.586 21.2373 53.474 21.2827 53.378 21.352C53.3087 21.4053 53.2527 21.472 53.21 21.552C53.1727 21.632 53.154 21.7253 53.154 21.832C53.154 22.04 53.2314 22.2053 53.386 22.328C53.5407 22.4507 53.7487 22.512 54.01 22.512C54.2287 22.512 54.426 22.4613 54.602 22.36C54.7834 22.2587 54.9274 22.12 55.034 21.944C55.146 21.7627 55.202 21.56 55.202 21.336L55.482 21.624C55.45 21.9067 55.3647 22.1573 55.226 22.376C55.0874 22.5947 54.9087 22.7653 54.69 22.888C54.4767 23.0053 54.2287 23.064 53.946 23.064ZM58.2903 23.064C58.1037 23.064 57.933 23.0293 57.7783 22.96C57.629 22.8853 57.5117 22.768 57.4263 22.608C57.341 22.448 57.2983 22.2427 57.2983 21.992V18L57.9863 17.616V21.816C57.9863 22.0347 58.021 22.2053 58.0903 22.328C58.1597 22.4453 58.285 22.504 58.4663 22.504C58.5197 22.504 58.5837 22.4987 58.6583 22.488C58.733 22.472 58.813 22.4533 58.8983 22.432V22.96C58.797 22.9973 58.693 23.024 58.5863 23.04C58.485 23.056 58.3863 23.064 58.2903 23.064ZM56.4823 19.584V19.056H58.8983V19.584H56.4823ZM61.4018 23.064C61.0338 23.064 60.7032 22.9787 60.4098 22.808C60.1218 22.632 59.8952 22.3893 59.7298 22.08C59.5645 21.7707 59.4818 21.4187 59.4818 21.024C59.4818 20.6293 59.5618 20.28 59.7218 19.976C59.8872 19.6667 60.1138 19.4267 60.4018 19.256C60.6952 19.08 61.0285 18.992 61.4018 18.992C61.7752 18.992 62.1032 19.08 62.3858 19.256C62.6738 19.4267 62.9005 19.6667 63.0658 19.976C63.2312 20.28 63.3138 20.6293 63.3138 21.024C63.3138 21.4187 63.2312 21.7707 63.0658 22.08C62.9005 22.384 62.6738 22.624 62.3858 22.8C62.0978 22.976 61.7698 23.064 61.4018 23.064ZM61.4018 22.464C61.6525 22.464 61.8685 22.4053 62.0498 22.288C62.2365 22.1653 62.3805 21.9973 62.4818 21.784C62.5832 21.5653 62.6338 21.312 62.6338 21.024C62.6338 20.7307 62.5832 20.4773 62.4818 20.264C62.3805 20.0453 62.2365 19.8773 62.0498 19.76C61.8685 19.6427 61.6525 19.584 61.4018 19.584C61.1458 19.584 60.9245 19.6453 60.7378 19.768C60.5512 19.8853 60.4072 20.0507 60.3058 20.264C60.2045 20.4773 60.1538 20.7307 60.1538 21.024C60.1538 21.312 60.2045 21.5653 60.3058 21.784C60.4072 21.9973 60.5512 22.1653 60.7378 22.288C60.9245 22.4053 61.1458 22.464 61.4018 22.464ZM64.283 23V19.056H64.963V20.112L64.787 20.152C64.8244 19.9173 64.9124 19.7147 65.051 19.544C65.195 19.368 65.3604 19.232 65.547 19.136C65.739 19.04 65.9257 18.992 66.107 18.992C66.2297 18.992 66.347 19.0053 66.459 19.032C66.571 19.0587 66.6857 19.104 66.803 19.168L66.467 19.776C66.403 19.744 66.3257 19.7173 66.235 19.696C66.1497 19.6747 66.067 19.664 65.987 19.664C65.859 19.664 65.731 19.688 65.603 19.736C65.4804 19.784 65.3684 19.8587 65.267 19.96C65.1657 20.0613 65.0884 20.1973 65.035 20.368C65.0137 20.4427 64.995 20.5413 64.979 20.664C64.9684 20.7813 64.963 20.944 64.963 21.152V23H64.283Z" fill="white"/>
<defs>
<filter id="filter0_d_3732_725" x="0.352942" y="0.352942" width="90.2941" height="41.2931" filterUnits="userSpaceOnUse" color-interpolation-filters="sRGB">
<feFlood flood-opacity="0" result="BackgroundImageFix"/>
<feColorMatrix in="SourceAlpha" type="matrix" values="0 0 0 0 0 0 0 0 0 0 0 0 0 0 0 0 0 0 127 0" result="hardAlpha"/>
<feOffset/>
<feGaussianBlur stdDeviation="4.82353"/>
<feComposite in2="hardAlpha" operator="out"/>
<feColorMatrix type="matrix" values="0 0 0 0 0 0 0 0 0 0 0 0 0 0 0 0 0 0 0.3 0"/>
<feBlend mode="normal" in2="BackgroundImageFix" result="effect1_dropShadow_3732_725"/>
<feBlend mode="normal" in="SourceGraphic" in2="effect1_dropShadow_3732_725" result="shape"/>
</filter>
</defs>
</svg>
