<svg width="91" height="42" viewBox="0 0 91 42" fill="none" xmlns="http://www.w3.org/2000/svg">
<g filter="url(#filter0_d_3854_1600)">
<path fill-rule="evenodd" clip-rule="evenodd" d="M41.6966 30.1806L45.4937 31.9995L49.2908 30.1806L70.9097 30.1806C76.4824 30.1806 81 25.663 81 20.0903C81 14.5176 76.4824 10.0001 70.9097 10.0001L20.0903 10.0001C14.5176 10.0001 10 14.5176 10 20.0903C10 25.663 14.5176 30.1806 20.0903 30.1806L41.6966 30.1806Z" fill="#08074E"/>
</g>
<path d="M27.5463 23.096C27.0343 23.096 26.5836 22.976 26.1943 22.736C25.8103 22.496 25.509 22.16 25.2903 21.728C25.077 21.2907 24.9703 20.784 24.9703 20.208C24.9703 19.632 25.077 19.128 25.2903 18.696C25.509 18.264 25.8103 17.928 26.1943 17.688C26.5836 17.448 27.0343 17.328 27.5463 17.328C28.1063 17.328 28.5916 17.4667 29.0023 17.744C29.413 18.0213 29.709 18.4053 29.8903 18.896L29.2343 19.144C29.0956 18.7813 28.8823 18.5013 28.5943 18.304C28.3063 18.1013 27.957 18 27.5463 18C27.1676 18 26.837 18.0907 26.5543 18.272C26.2716 18.4533 26.053 18.7093 25.8983 19.04C25.749 19.3653 25.6743 19.7547 25.6743 20.208C25.6743 20.6613 25.749 21.0533 25.8983 21.384C26.053 21.7147 26.2716 21.9707 26.5543 22.152C26.837 22.3333 27.1676 22.424 27.5463 22.424C27.957 22.424 28.3063 22.3227 28.5943 22.12C28.8823 21.9173 29.0956 21.6373 29.2343 21.28L29.8903 21.52C29.709 22.0053 29.413 22.3893 29.0023 22.672C28.5916 22.9547 28.1063 23.096 27.5463 23.096ZM32.5151 23.064C32.1471 23.064 31.8165 22.9787 31.5231 22.808C31.2351 22.632 31.0085 22.3893 30.8431 22.08C30.6778 21.7707 30.5951 21.4187 30.5951 21.024C30.5951 20.6293 30.6751 20.28 30.8351 19.976C31.0005 19.6667 31.2271 19.4267 31.5151 19.256C31.8085 19.08 32.1418 18.992 32.5151 18.992C32.8885 18.992 33.2165 19.08 33.4991 19.256C33.7871 19.4267 34.0138 19.6667 34.1791 19.976C34.3445 20.28 34.4271 20.6293 34.4271 21.024C34.4271 21.4187 34.3445 21.7707 34.1791 22.08C34.0138 22.384 33.7871 22.624 33.4991 22.8C33.2111 22.976 32.8831 23.064 32.5151 23.064ZM32.5151 22.464C32.7658 22.464 32.9818 22.4053 33.1631 22.288C33.3498 22.1653 33.4938 21.9973 33.5951 21.784C33.6965 21.5653 33.7471 21.312 33.7471 21.024C33.7471 20.7307 33.6965 20.4773 33.5951 20.264C33.4938 20.0453 33.3498 19.8773 33.1631 19.76C32.9818 19.6427 32.7658 19.584 32.5151 19.584C32.2591 19.584 32.0378 19.6453 31.8511 19.768C31.6645 19.8853 31.5205 20.0507 31.4191 20.264C31.3178 20.4773 31.2671 20.7307 31.2671 21.024C31.2671 21.312 31.3178 21.5653 31.4191 21.784C31.5205 21.9973 31.6645 22.1653 31.8511 22.288C32.0378 22.4053 32.2591 22.464 32.5151 22.464ZM35.3963 23V19.056H36.0763V20.112L35.9003 20.152C35.9376 19.9173 36.0256 19.7147 36.1643 19.544C36.3083 19.368 36.4736 19.232 36.6603 19.136C36.8523 19.04 37.039 18.992 37.2203 18.992C37.343 18.992 37.4603 19.0053 37.5723 19.032C37.6843 19.0587 37.799 19.104 37.9163 19.168L37.5803 19.776C37.5163 19.744 37.439 19.7173 37.3483 19.696C37.263 19.6747 37.1803 19.664 37.1003 19.664C36.9723 19.664 36.8443 19.688 36.7163 19.736C36.5936 19.784 36.4816 19.8587 36.3803 19.96C36.279 20.0613 36.2016 20.1973 36.1483 20.368C36.127 20.4427 36.1083 20.5413 36.0923 20.664C36.0816 20.7813 36.0763 20.944 36.0763 21.152V23H35.3963ZM38.6541 23V19.056H39.3341V20.112L39.1581 20.152C39.1955 19.9173 39.2835 19.7147 39.4221 19.544C39.5661 19.368 39.7315 19.232 39.9181 19.136C40.1101 19.04 40.2968 18.992 40.4781 18.992C40.6008 18.992 40.7181 19.0053 40.8301 19.032C40.9421 19.0587 41.0568 19.104 41.1741 19.168L40.8381 19.776C40.7741 19.744 40.6968 19.7173 40.6061 19.696C40.5208 19.6747 40.4381 19.664 40.3581 19.664C40.2301 19.664 40.1021 19.688 39.9741 19.736C39.8515 19.784 39.7395 19.8587 39.6381 19.96C39.5368 20.0613 39.4595 20.1973 39.4061 20.368C39.3848 20.4427 39.3661 20.5413 39.3501 20.664C39.3395 20.7813 39.3341 20.944 39.3341 21.152V23H38.6541ZM43.3494 23.064C43.04 23.064 42.768 23.0133 42.5334 22.912C42.304 22.8053 42.112 22.6587 41.9574 22.472C41.808 22.2853 41.6934 22.072 41.6134 21.832C41.5387 21.5867 41.5014 21.328 41.5014 21.056C41.5014 20.784 41.5387 20.5253 41.6134 20.28C41.688 20.0293 41.7974 19.808 41.9414 19.616C42.0907 19.424 42.2774 19.272 42.5014 19.16C42.7254 19.048 42.9867 18.992 43.2854 18.992C43.5894 18.992 43.8507 19.0453 44.0694 19.152C44.2934 19.2533 44.4747 19.3947 44.6134 19.576C44.7574 19.7573 44.864 19.96 44.9334 20.184C45.0027 20.408 45.0374 20.64 45.0374 20.88C45.0374 20.9013 45.0347 20.952 45.0294 21.032C45.0294 21.1067 45.024 21.1733 45.0134 21.232H42.1734C42.1894 21.616 42.3014 21.9147 42.5094 22.128C42.7174 22.3413 43 22.448 43.3574 22.448C43.5867 22.448 43.7867 22.4107 43.9574 22.336C44.128 22.2613 44.288 22.1413 44.4374 21.976L44.9094 22.392C44.7654 22.5467 44.6134 22.6747 44.4534 22.776C44.2934 22.872 44.1227 22.944 43.9414 22.992C43.7654 23.04 43.568 23.064 43.3494 23.064ZM44.3654 20.888C44.376 20.8453 44.3814 20.8027 44.3814 20.76C44.3867 20.7173 44.3894 20.6747 44.3894 20.632C44.3894 20.504 44.3654 20.376 44.3174 20.248C44.2747 20.12 44.208 20.0053 44.1174 19.904C44.032 19.7973 43.92 19.7147 43.7814 19.656C43.648 19.592 43.488 19.56 43.3014 19.56C43.072 19.56 42.8747 19.6133 42.7094 19.72C42.544 19.8267 42.416 19.968 42.3254 20.144C42.2347 20.32 42.1814 20.5147 42.1654 20.728H44.5894L44.3654 20.888ZM46.7977 23.064C46.5577 23.064 46.363 22.9893 46.2137 22.84C46.0644 22.6907 45.9897 22.4533 45.9897 22.128V17.424H46.6617V22C46.6617 22.1547 46.6937 22.2667 46.7577 22.336C46.8217 22.4053 46.907 22.44 47.0137 22.44C47.0617 22.44 47.115 22.4347 47.1737 22.424C47.2324 22.4133 47.2937 22.3973 47.3577 22.376V22.952C47.267 22.9893 47.171 23.016 47.0697 23.032C46.9684 23.0533 46.8777 23.064 46.7977 23.064ZM50.7149 23L50.6669 22.208V20.528C50.6669 20.224 50.5815 19.9893 50.4109 19.824C50.2455 19.6587 49.9975 19.576 49.6669 19.576C49.4535 19.576 49.2535 19.6213 49.0669 19.712C48.8802 19.7973 48.6989 19.944 48.5229 20.152L48.0349 19.736C48.2535 19.48 48.5042 19.2933 48.7869 19.176C49.0695 19.0533 49.3789 18.992 49.7149 18.992C50.2322 18.992 50.6322 19.1253 50.9149 19.392C51.1975 19.6587 51.3389 20.0373 51.3389 20.528V23H50.7149ZM49.4109 23.064C49.1122 23.064 48.8509 23.0133 48.6269 22.912C48.4082 22.8053 48.2375 22.6587 48.1149 22.472C47.9975 22.2853 47.9389 22.0693 47.9389 21.824C47.9389 21.6053 47.9815 21.4213 48.0669 21.272C48.1575 21.1173 48.2722 20.9973 48.4109 20.912C48.5495 20.8213 48.7069 20.76 48.8829 20.728C49.0642 20.6907 49.2535 20.672 49.4509 20.672H50.7309V21.184H49.5469C49.4295 21.184 49.3069 21.1947 49.1789 21.216C49.0509 21.2373 48.9389 21.2827 48.8429 21.352C48.7735 21.4053 48.7175 21.472 48.6749 21.552C48.6375 21.632 48.6189 21.7253 48.6189 21.832C48.6189 22.04 48.6962 22.2053 48.8509 22.328C49.0055 22.4507 49.2135 22.512 49.4749 22.512C49.6935 22.512 49.8909 22.4613 50.0669 22.36C50.2482 22.2587 50.3922 22.12 50.4989 21.944C50.6109 21.7627 50.6669 21.56 50.6669 21.336L50.9469 21.624C50.9149 21.9067 50.8295 22.1573 50.6909 22.376C50.5522 22.5947 50.3735 22.7653 50.1549 22.888C49.9415 23.0053 49.6935 23.064 49.4109 23.064ZM53.7552 23.064C53.5685 23.064 53.3979 23.0293 53.2432 22.96C53.0939 22.8853 52.9765 22.768 52.8912 22.608C52.8059 22.448 52.7632 22.2427 52.7632 21.992V18L53.4512 17.616V21.816C53.4512 22.0347 53.4859 22.2053 53.5552 22.328C53.6245 22.4453 53.7499 22.504 53.9312 22.504C53.9845 22.504 54.0485 22.4987 54.1232 22.488C54.1979 22.472 54.2779 22.4533 54.3632 22.432V22.96C54.2619 22.9973 54.1579 23.024 54.0512 23.04C53.9499 23.056 53.8512 23.064 53.7552 23.064ZM51.9472 19.584V19.056H54.3632V19.584H51.9472ZM55.2008 23V19.056H55.8728V23H55.2008ZM55.1368 18.344V17.424H55.9368V18.344H55.1368ZM58.7495 23.064C58.3815 23.064 58.0508 22.9787 57.7575 22.808C57.4695 22.632 57.2428 22.3893 57.0775 22.08C56.9122 21.7707 56.8295 21.4187 56.8295 21.024C56.8295 20.6293 56.9095 20.28 57.0695 19.976C57.2348 19.6667 57.4615 19.4267 57.7495 19.256C58.0428 19.08 58.3762 18.992 58.7495 18.992C59.1228 18.992 59.4508 19.08 59.7335 19.256C60.0215 19.4267 60.2482 19.6667 60.4135 19.976C60.5788 20.28 60.6615 20.6293 60.6615 21.024C60.6615 21.4187 60.5788 21.7707 60.4135 22.08C60.2482 22.384 60.0215 22.624 59.7335 22.8C59.4455 22.976 59.1175 23.064 58.7495 23.064ZM58.7495 22.464C59.0002 22.464 59.2162 22.4053 59.3975 22.288C59.5842 22.1653 59.7282 21.9973 59.8295 21.784C59.9308 21.5653 59.9815 21.312 59.9815 21.024C59.9815 20.7307 59.9308 20.4773 59.8295 20.264C59.7282 20.0453 59.5842 19.8773 59.3975 19.76C59.2162 19.6427 59.0002 19.584 58.7495 19.584C58.4935 19.584 58.2722 19.6453 58.0855 19.768C57.8988 19.8853 57.7548 20.0507 57.6535 20.264C57.5522 20.4773 57.5015 20.7307 57.5015 21.024C57.5015 21.312 57.5522 21.5653 57.6535 21.784C57.7548 21.9973 57.8988 22.1653 58.0855 22.288C58.2722 22.4053 58.4935 22.464 58.7495 22.464ZM61.6307 23V19.056H62.3107V19.896L62.1507 19.952C62.2254 19.7493 62.3267 19.5787 62.4547 19.44C62.5827 19.296 62.7374 19.1867 62.9187 19.112C63.1 19.032 63.3 18.992 63.5187 18.992C63.9507 18.992 64.2894 19.12 64.5347 19.376C64.78 19.6267 64.9027 20 64.9027 20.496V23H64.2227V20.744C64.2227 20.344 64.148 20.0507 63.9987 19.864C63.8547 19.672 63.6334 19.576 63.3347 19.576C63.116 19.576 62.9294 19.6267 62.7747 19.728C62.6254 19.8293 62.5107 19.9893 62.4307 20.208C62.3507 20.4213 62.3107 20.696 62.3107 21.032V23H61.6307Z" fill="white"/>
<defs>
<filter id="filter0_d_3854_1600" x="0.352942" y="0.352942" width="90.2941" height="41.2936" filterUnits="userSpaceOnUse" color-interpolation-filters="sRGB">
<feFlood flood-opacity="0" result="BackgroundImageFix"/>
<feColorMatrix in="SourceAlpha" type="matrix" values="0 0 0 0 0 0 0 0 0 0 0 0 0 0 0 0 0 0 127 0" result="hardAlpha"/>
<feOffset/>
<feGaussianBlur stdDeviation="4.82353"/>
<feComposite in2="hardAlpha" operator="out"/>
<feColorMatrix type="matrix" values="0 0 0 0 0 0 0 0 0 0 0 0 0 0 0 0 0 0 0.3 0"/>
<feBlend mode="normal" in2="BackgroundImageFix" result="effect1_dropShadow_3854_1600"/>
<feBlend mode="normal" in="SourceGraphic" in2="effect1_dropShadow_3854_1600" result="shape"/>
</filter>
</defs>
</svg>
