<svg width="18" height="18" viewBox="0 0 18 18" fill="none" xmlns="http://www.w3.org/2000/svg">
<path d="M17.9809 1.1376C17.9314 0.5196 17.4634 0 16.875 0H1.125C0.536625 0 0.068625 0.5196 0.019125 1.1376H0V16.8C0 17.1183 0.118526 17.4235 0.329505 17.6485C0.540483 17.8736 0.826631 18 1.125 18H16.875C17.1734 18 17.4595 17.8736 17.6705 17.6485C17.8815 17.4235 18 17.1183 18 16.8V1.1376H17.9809ZM6.75 7.2V3.6H11.25V7.2H6.75ZM11.25 8.4V12.0996H6.75V8.4H11.25ZM5.625 3.6V7.2H1.125V3.6H5.625ZM1.125 8.4H5.625V12.0996H1.125V8.4ZM1.125 16.8V13.2H5.625V16.8H1.125ZM6.75 16.8V13.2H11.25V16.8H6.75ZM16.875 16.8H12.375V13.2H16.875V16.8ZM16.875 12.0996H12.375V8.4H16.875V12.0996ZM16.875 7.2H12.375V3.6H16.875V7.2Z" fill="#08074E"/>
</svg>
