<svg width="14" height="14" viewBox="0 0 14 14" fill="none" xmlns="http://www.w3.org/2000/svg">
<g clip-path="url(#clip0_2103_326)">
<path d="M11.1397 1.44619H10.6089V0.915479C10.6089 0.774725 10.553 0.639736 10.4535 0.540208C10.354 0.44068 10.219 0.384766 10.0782 0.384766C9.93748 0.384766 9.80249 0.44068 9.70296 0.540208C9.60344 0.639736 9.54752 0.774725 9.54752 0.915479V1.44619H4.24039V0.915479C4.24039 0.774725 4.18447 0.639736 4.08494 0.540208C3.98542 0.44068 3.85043 0.384766 3.70967 0.384766C3.56892 0.384766 3.43393 0.44068 3.3344 0.540208C3.23487 0.639736 3.17896 0.774725 3.17896 0.915479V1.44619H2.64825C2.08523 1.44619 1.54527 1.66985 1.14716 2.06796C0.749048 2.46607 0.525391 3.00603 0.525391 3.56905L0.525391 10.999C0.525391 11.5621 0.749048 12.102 1.14716 12.5001C1.54527 12.8982 2.08523 13.1219 2.64825 13.1219H11.1397C11.7027 13.1219 12.2426 12.8982 12.6407 12.5001C13.0389 12.102 13.2625 11.5621 13.2625 10.999V3.56905C13.2625 3.00603 13.0389 2.46607 12.6407 2.06796C12.2426 1.66985 11.7027 1.44619 11.1397 1.44619ZM12.2011 10.999C12.2011 11.2805 12.0893 11.5505 11.8902 11.7496C11.6911 11.9486 11.4212 12.0605 11.1397 12.0605H2.64825C2.36674 12.0605 2.09676 11.9486 1.8977 11.7496C1.69865 11.5505 1.58682 11.2805 1.58682 10.999V3.56905C1.58682 3.28754 1.69865 3.01756 1.8977 2.8185C2.09676 2.61945 2.36674 2.50762 2.64825 2.50762H3.17896V3.03833C3.17896 3.17909 3.23487 3.31408 3.3344 3.4136C3.43393 3.51313 3.56892 3.56905 3.70967 3.56905C3.85043 3.56905 3.98542 3.51313 4.08494 3.4136C4.18447 3.31408 4.24039 3.17909 4.24039 3.03833V2.50762H9.54752V3.03833C9.54752 3.17909 9.60344 3.31408 9.70296 3.4136C9.80249 3.51313 9.93748 3.56905 10.0782 3.56905C10.219 3.56905 10.354 3.51313 10.4535 3.4136C10.553 3.31408 10.6089 3.17909 10.6089 3.03833V2.50762H11.1397C11.4212 2.50762 11.6911 2.61945 11.8902 2.8185C12.0893 3.01756 12.2011 3.28754 12.2011 3.56905V10.999Z" fill="#8D8DAE"/>
<path d="M10.6091 4.09961H3.17915C3.0384 4.09961 2.90341 4.15552 2.80388 4.25505C2.70435 4.35458 2.64844 4.48957 2.64844 4.63032C2.64844 4.77108 2.70435 4.90607 2.80388 5.00559C2.90341 5.10512 3.0384 5.16104 3.17915 5.16104H10.6091C10.7499 5.16104 10.8849 5.10512 10.9844 5.00559C11.0839 4.90607 11.1399 4.77108 11.1399 4.63032C11.1399 4.48957 11.0839 4.35458 10.9844 4.25505C10.8849 4.15552 10.7499 4.09961 10.6091 4.09961Z" fill="#8D8DAE"/>
<path d="M4.24058 6.75391H3.17915C3.0384 6.75391 2.90341 6.80982 2.80388 6.90935C2.70435 7.00888 2.64844 7.14387 2.64844 7.28462C2.64844 7.42537 2.70435 7.56036 2.80388 7.65989C2.90341 7.75942 3.0384 7.81533 3.17915 7.81533H4.24058C4.38133 7.81533 4.51632 7.75942 4.61585 7.65989C4.71538 7.56036 4.77129 7.42537 4.77129 7.28462C4.77129 7.14387 4.71538 7.00888 4.61585 6.90935C4.51632 6.80982 4.38133 6.75391 4.24058 6.75391Z" fill="#8D8DAE"/>
<path d="M4.24058 9.40625H3.17915C3.0384 9.40625 2.90341 9.46216 2.80388 9.56169C2.70435 9.66122 2.64844 9.79621 2.64844 9.93696C2.64844 10.0777 2.70435 10.2127 2.80388 10.3122C2.90341 10.4118 3.0384 10.4677 3.17915 10.4677H4.24058C4.38133 10.4677 4.51632 10.4118 4.61585 10.3122C4.71538 10.2127 4.77129 10.0777 4.77129 9.93696C4.77129 9.79621 4.71538 9.66122 4.61585 9.56169C4.51632 9.46216 4.38133 9.40625 4.24058 9.40625Z" fill="#8D8DAE"/>
<path d="M7.42417 6.75391H6.36274C6.22199 6.75391 6.087 6.80982 5.98747 6.90935C5.88795 7.00888 5.83203 7.14387 5.83203 7.28462C5.83203 7.42537 5.88795 7.56036 5.98747 7.65989C6.087 7.75942 6.22199 7.81533 6.36274 7.81533H7.42417C7.56493 7.81533 7.69992 7.75942 7.79944 7.65989C7.89897 7.56036 7.95489 7.42537 7.95489 7.28462C7.95489 7.14387 7.89897 7.00888 7.79944 6.90935C7.69992 6.80982 7.56493 6.75391 7.42417 6.75391Z" fill="#8D8DAE"/>
<path d="M7.42417 9.40625H6.36274C6.22199 9.40625 6.087 9.46216 5.98747 9.56169C5.88795 9.66122 5.83203 9.79621 5.83203 9.93696C5.83203 10.0777 5.88795 10.2127 5.98747 10.3122C6.087 10.4118 6.22199 10.4677 6.36274 10.4677H7.42417C7.56493 10.4677 7.69992 10.4118 7.79944 10.3122C7.89897 10.2127 7.95489 10.0777 7.95489 9.93696C7.95489 9.79621 7.89897 9.66122 7.79944 9.56169C7.69992 9.46216 7.56493 9.40625 7.42417 9.40625Z" fill="#8D8DAE"/>
<path d="M10.6087 6.75391H9.54732C9.40656 6.75391 9.27157 6.80982 9.17204 6.90935C9.07252 7.00888 9.0166 7.14387 9.0166 7.28462C9.0166 7.42537 9.07252 7.56036 9.17204 7.65989C9.27157 7.75942 9.40656 7.81533 9.54732 7.81533H10.6087C10.7495 7.81533 10.8845 7.75942 10.984 7.65989C11.0835 7.56036 11.1395 7.42537 11.1395 7.28462C11.1395 7.14387 11.0835 7.00888 10.984 6.90935C10.8845 6.80982 10.7495 6.75391 10.6087 6.75391Z" fill="#8D8DAE"/>
<path d="M10.6087 9.40625H9.54732C9.40656 9.40625 9.27157 9.46216 9.17204 9.56169C9.07252 9.66122 9.0166 9.79621 9.0166 9.93696C9.0166 10.0777 9.07252 10.2127 9.17204 10.3122C9.27157 10.4118 9.40656 10.4677 9.54732 10.4677H10.6087C10.7495 10.4677 10.8845 10.4118 10.984 10.3122C11.0835 10.2127 11.1395 10.0777 11.1395 9.93696C11.1395 9.79621 11.0835 9.66122 10.984 9.56169C10.8845 9.46216 10.7495 9.40625 10.6087 9.40625Z" fill="#8D8DAE"/>
</g>
<defs>
<clipPath id="clip0_2103_326">
<rect width="12.7371" height="12.7371" fill="white" transform="translate(0.525391 0.384766)"/>
</clipPath>
</defs>
</svg>
