<svg width="17" height="18" viewBox="0 0 17 18" fill="none" xmlns="http://www.w3.org/2000/svg">
<path d="M13.8944 2.44263H12.2716V1.63123C12.2716 1.41603 12.1862 1.20965 12.034 1.05748C11.8818 0.905311 11.6754 0.819824 11.4602 0.819824C11.245 0.819824 11.0387 0.905311 10.8865 1.05748C10.7343 1.20965 10.6488 1.41603 10.6488 1.63123V2.44263L5.78041 2.44263V1.63123C5.78041 1.41603 5.69492 1.20965 5.54276 1.05748C5.39059 0.905311 5.18421 0.819824 4.96901 0.819824C4.75381 0.819824 4.54743 0.905311 4.39526 1.05748C4.24309 1.20965 4.1576 1.41603 4.1576 1.63123V2.44263H2.5348C1.8892 2.44263 1.27005 2.69909 0.81355 3.1556C0.357047 3.6121 0.100586 4.23125 0.100586 4.87684L0.100586 14.6137C0.100586 15.2593 0.357047 15.8784 0.81355 16.3349C1.27005 16.7914 1.8892 17.0479 2.5348 17.0479H13.8944C14.54 17.0479 15.1592 16.7914 15.6157 16.3349C16.0722 15.8784 16.3287 15.2593 16.3287 14.6137V4.87684C16.3287 4.23125 16.0722 3.6121 15.6157 3.1556C15.1592 2.69909 14.54 2.44263 13.8944 2.44263ZM14.7059 14.6137C14.7059 14.8289 14.6204 15.0353 14.4682 15.1874C14.316 15.3396 14.1096 15.4251 13.8944 15.4251H2.5348C2.3196 15.4251 2.11322 15.3396 1.96105 15.1874C1.80888 15.0353 1.72339 14.8289 1.72339 14.6137L1.72339 8.93386H14.7059V14.6137ZM14.7059 7.31105L1.72339 7.31105L1.72339 4.87684C1.72339 4.66164 1.80888 4.45526 1.96105 4.30309C2.11322 4.15093 2.3196 4.06544 2.5348 4.06544H4.1576V4.87684C4.1576 5.09204 4.24309 5.29842 4.39526 5.45059C4.54743 5.60276 4.75381 5.68825 4.96901 5.68825C5.18421 5.68825 5.39059 5.60276 5.54276 5.45059C5.69492 5.29842 5.78041 5.09204 5.78041 4.87684V4.06544H10.6488V4.87684C10.6488 5.09204 10.7343 5.29842 10.8865 5.45059C11.0387 5.60276 11.245 5.68825 11.4602 5.68825C11.6754 5.68825 11.8818 5.60276 12.034 5.45059C12.1862 5.29842 12.2716 5.09204 12.2716 4.87684V4.06544H13.8944C14.1096 4.06544 14.316 4.15093 14.4682 4.30309C14.6204 4.45526 14.7059 4.66164 14.7059 4.87684V7.31105Z" fill="white"/>
</svg>
