<svg width="8" height="5" viewBox="0 0 8 5" fill="none" xmlns="http://www.w3.org/2000/svg">
<path d="M4.0256 4.83006C3.91972 4.83067 3.81477 4.81038 3.71676 4.77034C3.61874 4.73031 3.5296 4.67132 3.45443 4.59676L0.236585 1.37892C0.0851023 1.22744 0 1.02198 0 0.807752C0 0.593523 0.0851023 0.388068 0.236585 0.236585C0.388068 0.0851019 0.593523 0 0.807753 0C1.02198 0 1.22744 0.0851019 1.37892 0.236585L4.0256 2.89131L6.67227 0.24463C6.82617 0.112838 7.02413 0.0439707 7.22659 0.0517909C7.42905 0.0596112 7.62111 0.143543 7.76438 0.286813C7.90765 0.430083 7.99158 0.622139 7.9994 0.824603C8.00722 1.02707 7.93835 1.22502 7.80656 1.37892L4.58872 4.59676C4.43888 4.74538 4.23664 4.82917 4.0256 4.83006Z" fill="#8D8DAE"/>
</svg>
