<svg width="10" height="9" viewBox="0 0 10 9" fill="none" xmlns="http://www.w3.org/2000/svg">
<path d="M0.652971 5.06117C0.652971 4.864 0.721796 4.69659 0.859445 4.55894L4.49226 0.920549C4.63735 0.782901 4.80662 0.714076 5.00007 0.714076C5.19724 0.714076 5.36465 0.782901 5.5023 0.920549L9.13511 4.55894C9.27648 4.69287 9.34717 4.86028 9.34717 5.06117C9.34717 5.25835 9.27648 5.42762 9.13511 5.56899L8.72217 5.98751C8.57708 6.12516 8.40781 6.19399 8.21436 6.19399C8.01718 6.19399 7.84977 6.12516 7.71212 5.98751L6.0715 4.34689V8.27546C6.0715 8.46891 6.00081 8.63632 5.85944 8.77769C5.71808 8.91906 5.55066 8.98975 5.35721 8.98975H4.64293C4.44947 8.98975 4.28206 8.91906 4.14069 8.77769C3.99933 8.63632 3.92864 8.46891 3.92864 8.27546L3.92864 4.34689L2.28802 5.98751C2.15037 6.12516 1.98296 6.19399 1.78578 6.19399C1.59233 6.19399 1.42306 6.12516 1.27797 5.98751L0.859445 5.56899C0.721796 5.4239 0.652971 5.25463 0.652971 5.06117Z" fill="#62B5B5"/>
</svg>
