<svg width="18" height="18" viewBox="0 0 18 18" fill="none" xmlns="http://www.w3.org/2000/svg">
<g clip-path="url(#clip0_1089_21406)">
<path d="M0.277344 2.40234V15.1523C0.277344 15.7159 0.501227 16.2564 0.899742 16.6549C1.29826 17.0535 1.83876 17.2773 2.40234 17.2773H15.1523C15.7159 17.2773 16.2564 17.0535 16.6549 16.6549C17.0535 16.2564 17.2773 15.7159 17.2773 15.1523V2.40234C17.2773 1.83876 17.0535 1.29826 16.6549 0.899742C16.2564 0.501227 15.7159 0.277344 15.1523 0.277344H2.40234C1.83876 0.277344 1.29826 0.501227 0.899742 0.899742C0.501227 1.29826 0.277344 1.83876 0.277344 2.40234ZM5.58984 16.2148H2.40234C2.12055 16.2148 1.8503 16.1029 1.65104 15.9036C1.45179 15.7044 1.33984 15.4341 1.33984 15.1523V14.0898H5.58984V16.2148ZM5.58984 13.0273H1.33984V10.9023H5.58984V13.0273ZM5.58984 9.83984H1.33984V7.71484H5.58984V9.83984ZM10.9023 13.0273H6.65234V10.9023H10.9023V13.0273ZM10.9023 6.65234H6.65234V4.52734H10.9023V6.65234ZM15.1523 16.2148H11.9648V14.0898H16.2148V15.1523C16.2148 15.4341 16.1029 15.7044 15.9036 15.9036C15.7044 16.1029 15.4341 16.2148 15.1523 16.2148ZM16.2148 13.0273H11.9648V10.9023H16.2148V13.0273ZM16.2148 9.83984H11.9648V7.71484H16.2148V9.83984ZM16.2148 3.46484H11.9648V1.33984H15.1523C15.4341 1.33984 15.7044 1.45179 15.9036 1.65104C16.1029 1.8503 16.2148 2.12055 16.2148 2.40234V3.46484Z" fill="#08074E"/>
</g>
<defs>
<clipPath id="clip0_1089_21406">
<rect width="18" height="18" fill="white"/>
</clipPath>
</defs>
</svg>
