<svg width="91" height="42" viewBox="0 0 91 42" fill="none" xmlns="http://www.w3.org/2000/svg">
<g filter="url(#filter0_d_3393_1743)">
<path fill-rule="evenodd" clip-rule="evenodd" d="M41.6966 30.1806L45.4937 31.9995L49.2908 30.1806L70.9097 30.1806C76.4824 30.1806 81 25.663 81 20.0903C81 14.5176 76.4824 10.0001 70.9097 10.0001L20.0903 10.0001C14.5176 10.0001 10 14.5176 10 20.0903C10 25.663 14.5176 30.1806 20.0903 30.1806L41.6966 30.1806Z" fill="#08074E"/>
</g>
<path d="M23.7368 23.096C23.2354 23.096 22.7928 22.976 22.4088 22.736C22.0301 22.496 21.7341 22.16 21.5208 21.728C21.3074 21.2907 21.2008 20.784 21.2008 20.208C21.2008 19.632 21.3074 19.128 21.5208 18.696C21.7394 18.264 22.0408 17.928 22.4248 17.688C22.8141 17.448 23.2648 17.328 23.7768 17.328C24.3368 17.328 24.8221 17.4667 25.2328 17.744C25.6434 18.0213 25.9394 18.4053 26.1208 18.896L25.4648 19.144C25.3261 18.7813 25.1128 18.5013 24.8248 18.304C24.5368 18.1013 24.1874 18 23.7768 18C23.3981 18 23.0674 18.0907 22.7848 18.272C22.5021 18.4533 22.2834 18.7093 22.1288 19.04C21.9794 19.3653 21.9048 19.7547 21.9048 20.208C21.9048 20.6613 21.9794 21.0533 22.1288 21.384C22.2834 21.7147 22.5021 21.9707 22.7848 22.152C23.0674 22.3333 23.3981 22.424 23.7768 22.424C23.9688 22.424 24.1661 22.3973 24.3688 22.344C24.5714 22.2907 24.7581 22.1973 24.9288 22.064C25.0994 21.9307 25.2354 21.7493 25.3368 21.52C25.4434 21.2853 25.4968 20.9893 25.4968 20.632V20.224L25.6568 20.704H24.0888V20.072H26.1208V23H25.4968L25.4008 21.912L25.5208 22C25.4248 22.256 25.2861 22.464 25.1048 22.624C24.9234 22.784 24.7128 22.904 24.4728 22.984C24.2381 23.0587 23.9928 23.096 23.7368 23.096ZM28.8923 23.064C28.583 23.064 28.311 23.0133 28.0763 22.912C27.847 22.8053 27.655 22.6587 27.5003 22.472C27.351 22.2853 27.2363 22.072 27.1563 21.832C27.0817 21.5867 27.0443 21.328 27.0443 21.056C27.0443 20.784 27.0817 20.5253 27.1563 20.28C27.231 20.0293 27.3403 19.808 27.4843 19.616C27.6337 19.424 27.8203 19.272 28.0443 19.16C28.2683 19.048 28.5297 18.992 28.8283 18.992C29.1323 18.992 29.3937 19.0453 29.6123 19.152C29.8363 19.2533 30.0177 19.3947 30.1563 19.576C30.3003 19.7573 30.407 19.96 30.4763 20.184C30.5457 20.408 30.5803 20.64 30.5803 20.88C30.5803 20.9013 30.5777 20.952 30.5723 21.032C30.5723 21.1067 30.567 21.1733 30.5563 21.232H27.7163C27.7323 21.616 27.8443 21.9147 28.0523 22.128C28.2603 22.3413 28.543 22.448 28.9003 22.448C29.1297 22.448 29.3297 22.4107 29.5003 22.336C29.671 22.2613 29.831 22.1413 29.9803 21.976L30.4523 22.392C30.3083 22.5467 30.1563 22.6747 29.9963 22.776C29.8363 22.872 29.6657 22.944 29.4843 22.992C29.3083 23.04 29.111 23.064 28.8923 23.064ZM29.9083 20.888C29.919 20.8453 29.9243 20.8027 29.9243 20.76C29.9297 20.7173 29.9323 20.6747 29.9323 20.632C29.9323 20.504 29.9083 20.376 29.8603 20.248C29.8177 20.12 29.751 20.0053 29.6603 19.904C29.575 19.7973 29.463 19.7147 29.3243 19.656C29.191 19.592 29.031 19.56 28.8443 19.56C28.615 19.56 28.4177 19.6133 28.2523 19.72C28.087 19.8267 27.959 19.968 27.8683 20.144C27.7777 20.32 27.7243 20.5147 27.7083 20.728H30.1323L29.9083 20.888ZM31.5487 23V19.056H32.2287V19.896L32.0687 19.952C32.1433 19.7493 32.2447 19.5787 32.3727 19.44C32.5007 19.296 32.6553 19.1867 32.8367 19.112C33.018 19.032 33.218 18.992 33.4367 18.992C33.8687 18.992 34.2073 19.12 34.4527 19.376C34.698 19.6267 34.8207 20 34.8207 20.496V23H34.1407V20.744C34.1407 20.344 34.066 20.0507 33.9167 19.864C33.7727 19.672 33.5513 19.576 33.2527 19.576C33.034 19.576 32.8473 19.6267 32.6927 19.728C32.5433 19.8293 32.4287 19.9893 32.3487 20.208C32.2687 20.4213 32.2287 20.696 32.2287 21.032V23H31.5487ZM37.5877 23.064C37.2783 23.064 37.0063 23.0133 36.7717 22.912C36.5423 22.8053 36.3503 22.6587 36.1957 22.472C36.0463 22.2853 35.9317 22.072 35.8517 21.832C35.777 21.5867 35.7397 21.328 35.7397 21.056C35.7397 20.784 35.777 20.5253 35.8517 20.28C35.9263 20.0293 36.0357 19.808 36.1797 19.616C36.329 19.424 36.5157 19.272 36.7397 19.16C36.9637 19.048 37.225 18.992 37.5237 18.992C37.8277 18.992 38.089 19.0453 38.3077 19.152C38.5317 19.2533 38.713 19.3947 38.8517 19.576C38.9957 19.7573 39.1023 19.96 39.1717 20.184C39.241 20.408 39.2757 20.64 39.2757 20.88C39.2757 20.9013 39.273 20.952 39.2677 21.032C39.2677 21.1067 39.2623 21.1733 39.2517 21.232H36.4117C36.4277 21.616 36.5397 21.9147 36.7477 22.128C36.9557 22.3413 37.2383 22.448 37.5957 22.448C37.825 22.448 38.025 22.4107 38.1957 22.336C38.3663 22.2613 38.5263 22.1413 38.6757 21.976L39.1477 22.392C39.0037 22.5467 38.8517 22.6747 38.6917 22.776C38.5317 22.872 38.361 22.944 38.1797 22.992C38.0037 23.04 37.8063 23.064 37.5877 23.064ZM38.6037 20.888C38.6143 20.8453 38.6197 20.8027 38.6197 20.76C38.625 20.7173 38.6277 20.6747 38.6277 20.632C38.6277 20.504 38.6037 20.376 38.5557 20.248C38.513 20.12 38.4463 20.0053 38.3557 19.904C38.2703 19.7973 38.1583 19.7147 38.0197 19.656C37.8863 19.592 37.7263 19.56 37.5397 19.56C37.3103 19.56 37.113 19.6133 36.9477 19.72C36.7823 19.8267 36.6543 19.968 36.5637 20.144C36.473 20.32 36.4197 20.5147 36.4037 20.728H38.8277L38.6037 20.888ZM40.244 23V19.056H40.924V20.112L40.748 20.152C40.7853 19.9173 40.8733 19.7147 41.012 19.544C41.156 19.368 41.3213 19.232 41.508 19.136C41.7 19.04 41.8866 18.992 42.068 18.992C42.1906 18.992 42.308 19.0053 42.42 19.032C42.532 19.0587 42.6466 19.104 42.764 19.168L42.428 19.776C42.364 19.744 42.2866 19.7173 42.196 19.696C42.1106 19.6747 42.028 19.664 41.948 19.664C41.82 19.664 41.692 19.688 41.564 19.736C41.4413 19.784 41.3293 19.8587 41.228 19.96C41.1266 20.0613 41.0493 20.1973 40.996 20.368C40.9746 20.4427 40.956 20.5413 40.94 20.664C40.9293 20.7813 40.924 20.944 40.924 21.152V23H40.244ZM45.9922 23L45.9442 22.208V20.528C45.9442 20.224 45.8589 19.9893 45.6882 19.824C45.5229 19.6587 45.2749 19.576 44.9442 19.576C44.7309 19.576 44.5309 19.6213 44.3442 19.712C44.1576 19.7973 43.9762 19.944 43.8002 20.152L43.3122 19.736C43.5309 19.48 43.7816 19.2933 44.0642 19.176C44.3469 19.0533 44.6562 18.992 44.9922 18.992C45.5096 18.992 45.9096 19.1253 46.1922 19.392C46.4749 19.6587 46.6162 20.0373 46.6162 20.528V23H45.9922ZM44.6882 23.064C44.3896 23.064 44.1282 23.0133 43.9042 22.912C43.6856 22.8053 43.5149 22.6587 43.3922 22.472C43.2749 22.2853 43.2162 22.0693 43.2162 21.824C43.2162 21.6053 43.2589 21.4213 43.3442 21.272C43.4349 21.1173 43.5496 20.9973 43.6882 20.912C43.8269 20.8213 43.9842 20.76 44.1602 20.728C44.3416 20.6907 44.5309 20.672 44.7282 20.672H46.0082V21.184H44.8242C44.7069 21.184 44.5842 21.1947 44.4562 21.216C44.3282 21.2373 44.2162 21.2827 44.1202 21.352C44.0509 21.4053 43.9949 21.472 43.9522 21.552C43.9149 21.632 43.8962 21.7253 43.8962 21.832C43.8962 22.04 43.9736 22.2053 44.1282 22.328C44.2829 22.4507 44.4909 22.512 44.7522 22.512C44.9709 22.512 45.1682 22.4613 45.3442 22.36C45.5256 22.2587 45.6696 22.12 45.7762 21.944C45.8882 21.7627 45.9442 21.56 45.9442 21.336L46.2242 21.624C46.1922 21.9067 46.1069 22.1573 45.9682 22.376C45.8296 22.5947 45.6509 22.7653 45.4322 22.888C45.2189 23.0053 44.9709 23.064 44.6882 23.064ZM48.5125 23.064C48.2725 23.064 48.0779 22.9893 47.9285 22.84C47.7792 22.6907 47.7045 22.4533 47.7045 22.128V17.424H48.3765V22C48.3765 22.1547 48.4085 22.2667 48.4725 22.336C48.5365 22.4053 48.6219 22.44 48.7285 22.44C48.7765 22.44 48.8299 22.4347 48.8885 22.424C48.9472 22.4133 49.0085 22.3973 49.0725 22.376V22.952C48.9819 22.9893 48.8859 23.016 48.7845 23.032C48.6832 23.0533 48.5925 23.064 48.5125 23.064ZM51.9158 24.632V19.056H52.5878V20.232L52.3718 20.08C52.4412 19.8507 52.5425 19.656 52.6758 19.496C52.8145 19.3307 52.9825 19.2053 53.1798 19.12C53.3772 19.0347 53.6012 18.992 53.8518 18.992C54.2092 18.992 54.5212 19.0827 54.7878 19.264C55.0598 19.44 55.2705 19.6827 55.4198 19.992C55.5692 20.296 55.6438 20.6427 55.6438 21.032C55.6438 21.4427 55.5638 21.8027 55.4038 22.112C55.2438 22.416 55.0278 22.6507 54.7558 22.816C54.4838 22.9813 54.1825 23.064 53.8518 23.064C53.6012 23.064 53.3772 23.0187 53.1798 22.928C52.9825 22.8373 52.8172 22.712 52.6838 22.552C52.5505 22.392 52.4545 22.2107 52.3958 22.008L52.5878 21.824V24.632H51.9158ZM53.7398 22.448C53.9798 22.448 54.1905 22.3893 54.3718 22.272C54.5585 22.1493 54.7025 21.9813 54.8038 21.768C54.9105 21.5547 54.9638 21.3093 54.9638 21.032C54.9638 20.7547 54.9105 20.5093 54.8038 20.296C54.7025 20.0827 54.5585 19.9173 54.3718 19.8C54.1905 19.6773 53.9798 19.616 53.7398 19.616C53.4998 19.616 53.2892 19.6773 53.1078 19.8C52.9265 19.9173 52.7852 20.0827 52.6838 20.296C52.5825 20.5093 52.5318 20.7547 52.5318 21.032C52.5318 21.3093 52.5825 21.5547 52.6838 21.768C52.7852 21.9813 52.9265 22.1493 53.1078 22.272C53.2892 22.3893 53.4998 22.448 53.7398 22.448ZM56.6032 23V19.056H57.2752V23H56.6032ZM56.5392 18.344V17.424H57.3392V18.344H56.5392ZM59.6398 23L58.0238 19.056H58.7678L59.9198 22.128L61.0798 19.056H61.8158L60.2078 23H59.6398ZM64.2143 23.064C63.8463 23.064 63.5157 22.9787 63.2223 22.808C62.9343 22.632 62.7077 22.3893 62.5423 22.08C62.377 21.7707 62.2943 21.4187 62.2943 21.024C62.2943 20.6293 62.3743 20.28 62.5343 19.976C62.6997 19.6667 62.9263 19.4267 63.2143 19.256C63.5077 19.08 63.841 18.992 64.2143 18.992C64.5877 18.992 64.9157 19.08 65.1983 19.256C65.4863 19.4267 65.713 19.6667 65.8783 19.976C66.0437 20.28 66.1263 20.6293 66.1263 21.024C66.1263 21.4187 66.0437 21.7707 65.8783 22.08C65.713 22.384 65.4863 22.624 65.1983 22.8C64.9103 22.976 64.5823 23.064 64.2143 23.064ZM64.2143 22.464C64.465 22.464 64.681 22.4053 64.8623 22.288C65.049 22.1653 65.193 21.9973 65.2943 21.784C65.3957 21.5653 65.4463 21.312 65.4463 21.024C65.4463 20.7307 65.3957 20.4773 65.2943 20.264C65.193 20.0453 65.049 19.8773 64.8623 19.76C64.681 19.6427 64.465 19.584 64.2143 19.584C63.9583 19.584 63.737 19.6453 63.5503 19.768C63.3637 19.8853 63.2197 20.0507 63.1183 20.264C63.017 20.4773 62.9663 20.7307 62.9663 21.024C62.9663 21.312 63.017 21.5653 63.1183 21.784C63.2197 21.9973 63.3637 22.1653 63.5503 22.288C63.737 22.4053 63.9583 22.464 64.2143 22.464ZM68.3216 23.064C68.1349 23.064 67.9643 23.0293 67.8096 22.96C67.6603 22.8853 67.5429 22.768 67.4576 22.608C67.3723 22.448 67.3296 22.2427 67.3296 21.992V18L68.0176 17.616V21.816C68.0176 22.0347 68.0523 22.2053 68.1216 22.328C68.1909 22.4453 68.3163 22.504 68.4976 22.504C68.5509 22.504 68.6149 22.4987 68.6896 22.488C68.7643 22.472 68.8443 22.4533 68.9296 22.432V22.96C68.8283 22.9973 68.7243 23.024 68.6176 23.04C68.5163 23.056 68.4176 23.064 68.3216 23.064ZM66.5136 19.584V19.056H68.9296V19.584H66.5136Z" fill="white"/>
<defs>
<filter id="filter0_d_3393_1743" x="0.352942" y="0.352942" width="90.2941" height="41.2936" filterUnits="userSpaceOnUse" color-interpolation-filters="sRGB">
<feFlood flood-opacity="0" result="BackgroundImageFix"/>
<feColorMatrix in="SourceAlpha" type="matrix" values="0 0 0 0 0 0 0 0 0 0 0 0 0 0 0 0 0 0 127 0" result="hardAlpha"/>
<feOffset/>
<feGaussianBlur stdDeviation="4.82353"/>
<feComposite in2="hardAlpha" operator="out"/>
<feColorMatrix type="matrix" values="0 0 0 0 0 0 0 0 0 0 0 0 0 0 0 0 0 0 0.3 0"/>
<feBlend mode="normal" in2="BackgroundImageFix" result="effect1_dropShadow_3393_1743"/>
<feBlend mode="normal" in="SourceGraphic" in2="effect1_dropShadow_3393_1743" result="shape"/>
</filter>
</defs>
</svg>
