<svg width="706" height="258" viewBox="0 0 706 258" fill="none" xmlns="http://www.w3.org/2000/svg">
<g clip-path="url(#clip0_101_378)">
<mask id="mask0_101_378" style="mask-type:alpha" maskUnits="userSpaceOnUse" x="-39" y="-39" width="744" height="685">
<mask id="mask1_101_378" style="mask-type:luminance" maskUnits="userSpaceOnUse" x="-39" y="-77" width="744" height="723">
<path d="M705 -77H-39V645.733H705V-77Z" fill="white"/>
</mask>
<g mask="url(#mask1_101_378)">
<path d="M0.188499 -38.85H-39V-0.0970078H0.188499V-38.85Z" stroke="url(#paint0_linear_101_378)" stroke-opacity="0.07" stroke-width="0.258333"/>
<path d="M78.565 -38.85H39.377V-0.0970078H78.565V-38.85Z" stroke="url(#paint1_linear_101_378)" stroke-opacity="0.07" stroke-width="0.258333"/>
<path d="M117.754 -38.85H78.565V-0.0970078H117.754V-38.85Z" stroke="url(#paint2_linear_101_378)" stroke-opacity="0.07" stroke-width="0.258333"/>
<path d="M156.942 -38.85H117.754V-0.0970078H156.942V-38.85Z" stroke="url(#paint3_linear_101_378)" stroke-opacity="0.07" stroke-width="0.258333"/>
<path d="M196.131 -38.85H156.942V-0.0970078H196.131V-38.85Z" stroke="url(#paint4_linear_101_378)" stroke-opacity="0.07" stroke-width="0.258333"/>
<path d="M235.319 -38.85H196.131V-0.0970078H235.319V-38.85Z" stroke="url(#paint5_linear_101_378)" stroke-opacity="0.07" stroke-width="0.258333"/>
<path d="M274.508 -38.85H235.319V-0.0970078H274.508V-38.85Z" stroke="url(#paint6_linear_101_378)" stroke-opacity="0.07" stroke-width="0.258333"/>
<path d="M313.696 -38.85H274.508V-0.0970078H313.696V-38.85Z" stroke="url(#paint7_linear_101_378)" stroke-opacity="0.07" stroke-width="0.258333"/>
<path d="M352.884 -38.85H313.696V-0.0970078H352.884V-38.85Z" stroke="url(#paint8_linear_101_378)" stroke-opacity="0.07" stroke-width="0.258333"/>
<path d="M392.073 -38.85H352.885V-0.0970078H392.073V-38.85Z" stroke="url(#paint9_linear_101_378)" stroke-opacity="0.07" stroke-width="0.258333"/>
<path d="M431.261 -38.85H392.073V-0.0970078H431.261V-38.85Z" stroke="url(#paint10_linear_101_378)" stroke-opacity="0.07" stroke-width="0.258333"/>
<path d="M470.45 -38.85H431.261V-0.0970078H470.45V-38.85Z" stroke="url(#paint11_linear_101_378)" stroke-opacity="0.07" stroke-width="0.258333"/>
<path d="M509.638 -38.85H470.45V-0.0970078H509.638V-38.85Z" stroke="url(#paint12_linear_101_378)" stroke-opacity="0.07" stroke-width="0.258333"/>
<path d="M548.827 -38.85H509.638V-0.0970078H548.827V-38.85Z" stroke="url(#paint13_linear_101_378)" stroke-opacity="0.07" stroke-width="0.258333"/>
<path d="M588.015 -38.85H548.827V-0.0970078H588.015V-38.85Z" stroke="url(#paint14_linear_101_378)" stroke-opacity="0.07" stroke-width="0.258333"/>
<path d="M627.203 -38.85H588.015V-0.0970078H627.203V-38.85Z" stroke="url(#paint15_linear_101_378)" stroke-opacity="0.07" stroke-width="0.258333"/>
<path opacity="0.33" d="M666.392 -38.85H627.204V-0.0970078H666.392V-38.85Z" stroke="url(#paint16_linear_101_378)" stroke-opacity="0.07" stroke-width="0.258333"/>
<path d="M705.58 -38.85H666.392V-0.0970078H705.58V-38.85Z" stroke="url(#paint17_linear_101_378)" stroke-opacity="0.07" stroke-width="0.258333"/>
<path d="M0.188499 -0.0970154H-39V38.656H0.188499V-0.0970154Z" stroke="#8E98A8" stroke-opacity="0.7" stroke-width="0.258333"/>
<path d="M39.3768 -0.0970154H0.188293V38.656H39.3768V-0.0970154Z" stroke="#8E98A8" stroke-opacity="0.7" stroke-width="0.258333"/>
<path d="M78.565 -0.0970154H39.377V38.656H78.565V-0.0970154Z" stroke="#8E98A8" stroke-opacity="0.7" stroke-width="0.258333"/>
<path d="M117.754 -0.0970154H78.565V38.656H117.754V-0.0970154Z" stroke="#8E98A8" stroke-opacity="0.7" stroke-width="0.258333"/>
<path d="M156.942 -0.0970154H117.754V38.656H156.942V-0.0970154Z" stroke="#8E98A8" stroke-opacity="0.7" stroke-width="0.258333"/>
<path d="M196.131 -0.0970154H156.942V38.656H196.131V-0.0970154Z" stroke="#8E98A8" stroke-opacity="0.7" stroke-width="0.258333"/>
<path d="M235.319 -0.0970154H196.131V38.656H235.319V-0.0970154Z" stroke="#8E98A8" stroke-opacity="0.7" stroke-width="0.258333"/>
<path d="M274.508 -0.0970154H235.319V38.656H274.508V-0.0970154Z" stroke="#8E98A8" stroke-opacity="0.7" stroke-width="0.258333"/>
<path d="M313.696 -0.0970154H274.508V38.656H313.696V-0.0970154Z" stroke="#8E98A8" stroke-opacity="0.7" stroke-width="0.258333"/>
<path d="M352.884 -0.0970154H313.696V38.656H352.884V-0.0970154Z" stroke="#8E98A8" stroke-opacity="0.7" stroke-width="0.258333"/>
<path d="M392.073 -0.0970154H352.885V38.656H392.073V-0.0970154Z" stroke="#8E98A8" stroke-opacity="0.7" stroke-width="0.258333"/>
<path d="M431.261 -0.0970154H392.073V38.656H431.261V-0.0970154Z" stroke="#8E98A8" stroke-opacity="0.7" stroke-width="0.258333"/>
<path d="M470.45 -0.0970154H431.261V38.656H470.45V-0.0970154Z" stroke="#8E98A8" stroke-opacity="0.7" stroke-width="0.258333"/>
<path d="M509.638 -0.0970154H470.45V38.656H509.638V-0.0970154Z" stroke="#8E98A8" stroke-opacity="0.7" stroke-width="0.258333"/>
<path d="M548.827 -0.0970154H509.638V38.656H548.827V-0.0970154Z" stroke="#8E98A8" stroke-opacity="0.7" stroke-width="0.258333"/>
<path d="M588.015 -0.0970154H548.827V38.656H588.015V-0.0970154Z" stroke="#8E98A8" stroke-opacity="0.7" stroke-width="0.258333"/>
<path d="M627.203 -0.0970154H588.015V38.656H627.203V-0.0970154Z" stroke="#8E98A8" stroke-opacity="0.7" stroke-width="0.258333"/>
<path d="M666.392 -0.0970154H627.204V38.656H666.392V-0.0970154Z" stroke="#8E98A8" stroke-opacity="0.7" stroke-width="0.258333"/>
<path d="M705.58 -0.0970154H666.392V38.656H705.58V-0.0970154Z" stroke="#8E98A8" stroke-opacity="0.7" stroke-width="0.258333"/>
<path d="M0.188499 38.656H-39V77.409H0.188499V38.656Z" stroke="#8E98A8" stroke-opacity="0.7" stroke-width="0.258333"/>
<path d="M39.3768 38.656H0.188293V77.409H39.3768V38.656Z" stroke="#8E98A8" stroke-opacity="0.7" stroke-width="0.258333"/>
<path d="M78.565 38.656H39.377V77.409H78.565V38.656Z" stroke="#8E98A8" stroke-opacity="0.7" stroke-width="0.258333"/>
<path d="M117.754 38.656H78.565V77.409H117.754V38.656Z" stroke="#8E98A8" stroke-opacity="0.7" stroke-width="0.258333"/>
<path d="M156.942 38.656H117.754V77.409H156.942V38.656Z" stroke="#8E98A8" stroke-opacity="0.7" stroke-width="0.258333"/>
<path d="M196.131 38.656H156.942V77.409H196.131V38.656Z" stroke="#8E98A8" stroke-opacity="0.7" stroke-width="0.258333"/>
<path d="M235.319 38.656H196.131V77.409H235.319V38.656Z" stroke="#8E98A8" stroke-opacity="0.7" stroke-width="0.258333"/>
<path d="M274.508 38.656H235.319V77.409H274.508V38.656Z" stroke="#8E98A8" stroke-opacity="0.7" stroke-width="0.258333"/>
<path d="M313.696 38.656H274.508V77.409H313.696V38.656Z" stroke="#8E98A8" stroke-opacity="0.7" stroke-width="0.258333"/>
<path d="M352.884 38.656H313.696V77.409H352.884V38.656Z" stroke="#8E98A8" stroke-opacity="0.7" stroke-width="0.258333"/>
<path d="M392.073 38.656H352.885V77.409H392.073V38.656Z" stroke="#8E98A8" stroke-opacity="0.7" stroke-width="0.258333"/>
<path d="M431.261 38.656H392.073V77.409H431.261V38.656Z" stroke="#8E98A8" stroke-opacity="0.7" stroke-width="0.258333"/>
<path d="M470.45 38.656H431.261V77.409H470.45V38.656Z" stroke="#8E98A8" stroke-opacity="0.7" stroke-width="0.258333"/>
<path d="M509.638 38.656H470.45V77.409H509.638V38.656Z" stroke="#8E98A8" stroke-opacity="0.7" stroke-width="0.258333"/>
<path d="M548.827 38.656H509.638V77.409H548.827V38.656Z" stroke="#8E98A8" stroke-opacity="0.7" stroke-width="0.258333"/>
<path d="M588.015 38.656H548.827V77.409H588.015V38.656Z" stroke="#8E98A8" stroke-opacity="0.7" stroke-width="0.258333"/>
<path d="M627.203 38.656H588.015V77.409H627.203V38.656Z" stroke="#8E98A8" stroke-opacity="0.7" stroke-width="0.258333"/>
<path d="M666.392 38.656H627.204V77.409H666.392V38.656Z" stroke="#8E98A8" stroke-opacity="0.7" stroke-width="0.258333"/>
<path d="M705.58 38.656H666.392V77.409H705.58V38.656Z" stroke="#8E98A8" stroke-opacity="0.7" stroke-width="0.258333"/>
<path d="M0.188499 77.409H-39V116.162H0.188499V77.409Z" stroke="#8E98A8" stroke-opacity="0.7" stroke-width="0.258333"/>
<path d="M39.3768 77.409H0.188293V116.162H39.3768V77.409Z" stroke="#8E98A8" stroke-opacity="0.7" stroke-width="0.258333"/>
<path d="M78.565 77.409H39.377V116.162H78.565V77.409Z" stroke="#8E98A8" stroke-opacity="0.7" stroke-width="0.258333"/>
<path d="M117.754 77.409H78.565V116.162H117.754V77.409Z" stroke="#8E98A8" stroke-opacity="0.7" stroke-width="0.258333"/>
<path d="M156.942 77.409H117.754V116.162H156.942V77.409Z" stroke="#8E98A8" stroke-opacity="0.7" stroke-width="0.258333"/>
<path d="M196.131 77.409H156.942V116.162H196.131V77.409Z" stroke="#8E98A8" stroke-opacity="0.7" stroke-width="0.258333"/>
<path d="M235.319 77.409H196.131V116.162H235.319V77.409Z" stroke="#8E98A8" stroke-opacity="0.7" stroke-width="0.258333"/>
<path d="M274.508 77.409H235.319V116.162H274.508V77.409Z" stroke="#8E98A8" stroke-opacity="0.7" stroke-width="0.258333"/>
<path d="M313.696 77.409H274.508V116.162H313.696V77.409Z" stroke="#8E98A8" stroke-opacity="0.7" stroke-width="0.258333"/>
<path d="M352.884 77.409H313.696V116.162H352.884V77.409Z" stroke="#8E98A8" stroke-opacity="0.7" stroke-width="0.258333"/>
<path d="M392.073 77.409H352.885V116.162H392.073V77.409Z" stroke="#8E98A8" stroke-opacity="0.7" stroke-width="0.258333"/>
<path d="M431.261 77.409H392.073V116.162H431.261V77.409Z" stroke="#8E98A8" stroke-opacity="0.7" stroke-width="0.258333"/>
<path d="M470.45 77.409H431.261V116.162H470.45V77.409Z" stroke="#8E98A8" stroke-opacity="0.7" stroke-width="0.258333"/>
<path d="M509.638 77.409H470.45V116.162H509.638V77.409Z" stroke="#8E98A8" stroke-opacity="0.7" stroke-width="0.258333"/>
<path d="M548.827 77.409H509.638V116.162H548.827V77.409Z" stroke="#8E98A8" stroke-opacity="0.7" stroke-width="0.258333"/>
<path d="M588.015 77.409H548.827V116.162H588.015V77.409Z" stroke="#8E98A8" stroke-opacity="0.7" stroke-width="0.258333"/>
<path d="M627.203 77.409H588.015V116.162H627.203V77.409Z" stroke="#8E98A8" stroke-opacity="0.7" stroke-width="0.258333"/>
<path d="M666.392 77.409H627.204V116.162H666.392V77.409Z" stroke="#8E98A8" stroke-opacity="0.7" stroke-width="0.258333"/>
<path d="M705.58 77.409H666.392V116.162H705.58V77.409Z" stroke="#8E98A8" stroke-opacity="0.7" stroke-width="0.258333"/>
<path d="M0.188499 116.162H-39V154.915H0.188499V116.162Z" stroke="#8E98A8" stroke-opacity="0.7" stroke-width="0.258333"/>
<path d="M39.3768 116.162H0.188293V154.915H39.3768V116.162Z" stroke="#8E98A8" stroke-opacity="0.7" stroke-width="0.258333"/>
<path d="M78.565 116.162H39.377V154.915H78.565V116.162Z" stroke="#8E98A8" stroke-opacity="0.7" stroke-width="0.258333"/>
<path d="M117.754 116.162H78.565V154.915H117.754V116.162Z" stroke="#8E98A8" stroke-opacity="0.7" stroke-width="0.258333"/>
<path d="M156.942 116.162H117.754V154.915H156.942V116.162Z" stroke="#8E98A8" stroke-opacity="0.7" stroke-width="0.258333"/>
<path d="M196.131 116.162H156.942V154.915H196.131V116.162Z" stroke="#8E98A8" stroke-opacity="0.7" stroke-width="0.258333"/>
<path d="M235.319 116.162H196.131V154.915H235.319V116.162Z" stroke="#8E98A8" stroke-opacity="0.7" stroke-width="0.258333"/>
<path d="M274.508 116.162H235.319V154.915H274.508V116.162Z" stroke="#8E98A8" stroke-opacity="0.7" stroke-width="0.258333"/>
<path d="M313.696 116.162H274.508V154.915H313.696V116.162Z" stroke="#8E98A8" stroke-opacity="0.7" stroke-width="0.258333"/>
<path d="M352.884 116.162H313.696V154.915H352.884V116.162Z" stroke="#8E98A8" stroke-opacity="0.7" stroke-width="0.258333"/>
<path d="M392.073 116.162H352.885V154.915H392.073V116.162Z" stroke="#8E98A8" stroke-opacity="0.7" stroke-width="0.258333"/>
<path d="M431.261 116.162H392.073V154.915H431.261V116.162Z" stroke="#8E98A8" stroke-opacity="0.7" stroke-width="0.258333"/>
<path d="M470.45 116.162H431.261V154.915H470.45V116.162Z" stroke="#8E98A8" stroke-opacity="0.7" stroke-width="0.258333"/>
<path d="M509.638 116.162H470.45V154.915H509.638V116.162Z" stroke="#8E98A8" stroke-opacity="0.7" stroke-width="0.258333"/>
<path d="M548.827 116.162H509.638V154.915H548.827V116.162Z" stroke="#8E98A8" stroke-opacity="0.7" stroke-width="0.258333"/>
<path d="M588.015 116.162H548.827V154.915H588.015V116.162Z" stroke="#8E98A8" stroke-opacity="0.7" stroke-width="0.258333"/>
<path d="M627.203 116.162H588.015V154.915H627.203V116.162Z" stroke="#8E98A8" stroke-opacity="0.7" stroke-width="0.258333"/>
<path d="M666.392 116.162H627.204V154.915H666.392V116.162Z" stroke="#8E98A8" stroke-opacity="0.7" stroke-width="0.258333"/>
<path d="M705.58 116.162H666.392V154.915H705.58V116.162Z" stroke="#8E98A8" stroke-opacity="0.7" stroke-width="0.258333"/>
<path d="M0.188499 154.915H-39V193.668H0.188499V154.915Z" stroke="#8E98A8" stroke-opacity="0.7" stroke-width="0.258333"/>
<path d="M39.3768 154.915H0.188293V193.668H39.3768V154.915Z" stroke="#8E98A8" stroke-opacity="0.7" stroke-width="0.258333"/>
<path d="M78.565 154.915H39.377V193.668H78.565V154.915Z" stroke="#8E98A8" stroke-opacity="0.7" stroke-width="0.258333"/>
<path d="M117.754 154.915H78.565V193.668H117.754V154.915Z" stroke="#8E98A8" stroke-opacity="0.7" stroke-width="0.258333"/>
<path d="M156.942 154.915H117.754V193.668H156.942V154.915Z" stroke="#8E98A8" stroke-opacity="0.7" stroke-width="0.258333"/>
<path d="M196.131 154.915H156.942V193.668H196.131V154.915Z" stroke="#8E98A8" stroke-opacity="0.7" stroke-width="0.258333"/>
<path d="M235.319 154.915H196.131V193.668H235.319V154.915Z" stroke="#8E98A8" stroke-opacity="0.7" stroke-width="0.258333"/>
<path d="M274.508 154.915H235.319V193.668H274.508V154.915Z" stroke="#8E98A8" stroke-opacity="0.7" stroke-width="0.258333"/>
<path d="M313.696 154.915H274.508V193.668H313.696V154.915Z" stroke="#8E98A8" stroke-opacity="0.7" stroke-width="0.258333"/>
<path d="M352.884 154.915H313.696V193.668H352.884V154.915Z" stroke="#8E98A8" stroke-opacity="0.7" stroke-width="0.258333"/>
<path d="M392.073 154.915H352.885V193.668H392.073V154.915Z" stroke="#8E98A8" stroke-opacity="0.7" stroke-width="0.258333"/>
<path d="M431.261 154.915H392.073V193.668H431.261V154.915Z" stroke="#8E98A8" stroke-opacity="0.7" stroke-width="0.258333"/>
<path d="M470.45 154.915H431.261V193.668H470.45V154.915Z" stroke="#8E98A8" stroke-opacity="0.7" stroke-width="0.258333"/>
<path d="M509.638 154.915H470.45V193.668H509.638V154.915Z" stroke="#8E98A8" stroke-opacity="0.7" stroke-width="0.258333"/>
<path d="M548.827 154.915H509.638V193.668H548.827V154.915Z" stroke="#8E98A8" stroke-opacity="0.7" stroke-width="0.258333"/>
<path d="M588.015 154.915H548.827V193.668H588.015V154.915Z" stroke="#8E98A8" stroke-opacity="0.7" stroke-width="0.258333"/>
<path d="M627.203 154.915H588.015V193.668H627.203V154.915Z" stroke="#8E98A8" stroke-opacity="0.7" stroke-width="0.258333"/>
<path d="M666.392 154.915H627.204V193.668H666.392V154.915Z" stroke="#8E98A8" stroke-opacity="0.7" stroke-width="0.258333"/>
<path d="M705.58 154.915H666.392V193.668H705.58V154.915Z" stroke="#8E98A8" stroke-opacity="0.7" stroke-width="0.258333"/>
<path d="M0.188499 193.668H-39V232.421H0.188499V193.668Z" stroke="#8E98A8" stroke-opacity="0.7" stroke-width="0.258333"/>
<path d="M39.3768 193.668H0.188293V232.421H39.3768V193.668Z" stroke="#8E98A8" stroke-opacity="0.7" stroke-width="0.258333"/>
<path d="M78.565 193.668H39.377V232.421H78.565V193.668Z" stroke="#8E98A8" stroke-opacity="0.7" stroke-width="0.258333"/>
<path d="M117.754 193.668H78.565V232.421H117.754V193.668Z" stroke="#8E98A8" stroke-opacity="0.7" stroke-width="0.258333"/>
<path d="M156.942 193.668H117.754V232.421H156.942V193.668Z" stroke="#8E98A8" stroke-opacity="0.7" stroke-width="0.258333"/>
<path d="M196.131 193.668H156.942V232.421H196.131V193.668Z" stroke="#8E98A8" stroke-opacity="0.7" stroke-width="0.258333"/>
<path d="M235.319 193.668H196.131V232.421H235.319V193.668Z" stroke="#8E98A8" stroke-opacity="0.7" stroke-width="0.258333"/>
<path d="M274.508 193.668H235.319V232.421H274.508V193.668Z" stroke="#8E98A8" stroke-opacity="0.7" stroke-width="0.258333"/>
<path d="M313.696 193.668H274.508V232.421H313.696V193.668Z" stroke="#8E98A8" stroke-opacity="0.7" stroke-width="0.258333"/>
<path d="M352.884 193.668H313.696V232.421H352.884V193.668Z" stroke="#8E98A8" stroke-opacity="0.7" stroke-width="0.258333"/>
<path d="M392.073 193.668H352.885V232.421H392.073V193.668Z" stroke="#8E98A8" stroke-opacity="0.7" stroke-width="0.258333"/>
<path d="M431.261 193.668H392.073V232.421H431.261V193.668Z" stroke="#8E98A8" stroke-opacity="0.7" stroke-width="0.258333"/>
<path d="M470.45 193.668H431.261V232.421H470.45V193.668Z" stroke="#8E98A8" stroke-opacity="0.7" stroke-width="0.258333"/>
<path d="M509.638 193.668H470.45V232.421H509.638V193.668Z" stroke="#8E98A8" stroke-opacity="0.7" stroke-width="0.258333"/>
<path d="M548.827 193.668H509.638V232.421H548.827V193.668Z" stroke="#8E98A8" stroke-opacity="0.7" stroke-width="0.258333"/>
<path d="M588.015 193.668H548.827V232.421H588.015V193.668Z" stroke="#8E98A8" stroke-opacity="0.7" stroke-width="0.258333"/>
<path d="M627.203 193.668H588.015V232.421H627.203V193.668Z" stroke="#8E98A8" stroke-opacity="0.7" stroke-width="0.258333"/>
<path d="M666.392 193.668H627.204V232.421H666.392V193.668Z" stroke="#8E98A8" stroke-opacity="0.7" stroke-width="0.258333"/>
<path d="M705.58 193.668H666.392V232.421H705.58V193.668Z" stroke="#8E98A8" stroke-opacity="0.7" stroke-width="0.258333"/>
<path d="M0.188499 232.421H-39V271.174H0.188499V232.421Z" stroke="#8E98A8" stroke-opacity="0.7" stroke-width="0.258333"/>
<path d="M39.3768 232.421H0.188293V271.174H39.3768V232.421Z" stroke="#8E98A8" stroke-opacity="0.7" stroke-width="0.258333"/>
<path d="M78.565 232.421H39.377V271.174H78.565V232.421Z" stroke="#8E98A8" stroke-opacity="0.7" stroke-width="0.258333"/>
<path d="M117.754 232.421H78.565V271.174H117.754V232.421Z" stroke="#8E98A8" stroke-opacity="0.7" stroke-width="0.258333"/>
<path d="M156.942 232.421H117.754V271.174H156.942V232.421Z" stroke="#8E98A8" stroke-opacity="0.7" stroke-width="0.258333"/>
<path d="M196.131 232.421H156.942V271.174H196.131V232.421Z" stroke="#8E98A8" stroke-opacity="0.7" stroke-width="0.258333"/>
<path d="M235.319 232.421H196.131V271.174H235.319V232.421Z" stroke="#8E98A8" stroke-opacity="0.7" stroke-width="0.258333"/>
<path d="M274.508 232.421H235.319V271.174H274.508V232.421Z" stroke="#8E98A8" stroke-opacity="0.7" stroke-width="0.258333"/>
<path d="M313.696 232.421H274.508V271.174H313.696V232.421Z" stroke="#8E98A8" stroke-opacity="0.7" stroke-width="0.258333"/>
<path d="M352.884 232.421H313.696V271.174H352.884V232.421Z" stroke="#8E98A8" stroke-opacity="0.7" stroke-width="0.258333"/>
<path d="M392.073 232.421H352.885V271.174H392.073V232.421Z" stroke="#8E98A8" stroke-opacity="0.7" stroke-width="0.258333"/>
<path d="M431.261 232.421H392.073V271.174H431.261V232.421Z" stroke="#8E98A8" stroke-opacity="0.7" stroke-width="0.258333"/>
<path d="M470.45 232.421H431.261V271.174H470.45V232.421Z" stroke="#8E98A8" stroke-opacity="0.7" stroke-width="0.258333"/>
<path d="M509.638 232.421H470.45V271.174H509.638V232.421Z" stroke="#8E98A8" stroke-opacity="0.7" stroke-width="0.258333"/>
<path d="M548.827 232.421H509.638V271.174H548.827V232.421Z" stroke="#8E98A8" stroke-opacity="0.7" stroke-width="0.258333"/>
<path d="M588.015 232.421H548.827V271.174H588.015V232.421Z" stroke="#8E98A8" stroke-opacity="0.7" stroke-width="0.258333"/>
<path d="M627.203 232.421H588.015V271.174H627.203V232.421Z" stroke="#8E98A8" stroke-opacity="0.7" stroke-width="0.258333"/>
<path d="M666.392 232.421H627.204V271.174H666.392V232.421Z" stroke="#8E98A8" stroke-opacity="0.7" stroke-width="0.258333"/>
<path d="M705.58 232.421H666.392V271.174H705.58V232.421Z" stroke="#8E98A8" stroke-opacity="0.7" stroke-width="0.258333"/>
</g>
</mask>
<g mask="url(#mask0_101_378)">
<path d="M795 0H-56V258H795V0Z" fill="url(#paint18_linear_101_378)"/>
</g>
</g>
<defs>
<linearGradient id="paint0_linear_101_378" x1="-19.4058" y1="-38.85" x2="-19.3667" y2="-0.100008" gradientUnits="userSpaceOnUse">
<stop stop-color="white" stop-opacity="0"/>
<stop offset="1" stop-color="#08074E"/>
</linearGradient>
<linearGradient id="paint1_linear_101_378" x1="58.9712" y1="-38.85" x2="58.9712" y2="-0.0970078" gradientUnits="userSpaceOnUse">
<stop stop-color="white" stop-opacity="0"/>
<stop offset="1" stop-color="#08074E"/>
</linearGradient>
<linearGradient id="paint2_linear_101_378" x1="98.16" y1="-38.85" x2="98.16" y2="-0.0970078" gradientUnits="userSpaceOnUse">
<stop stop-color="white" stop-opacity="0"/>
<stop offset="0.551032" stop-color="#08074E"/>
</linearGradient>
<linearGradient id="paint3_linear_101_378" x1="137.348" y1="-38.85" x2="137.348" y2="-0.0970078" gradientUnits="userSpaceOnUse">
<stop stop-color="white" stop-opacity="0"/>
<stop offset="1" stop-color="#08074E"/>
</linearGradient>
<linearGradient id="paint4_linear_101_378" x1="176.537" y1="-38.85" x2="176.537" y2="-0.0970078" gradientUnits="userSpaceOnUse">
<stop stop-color="white" stop-opacity="0"/>
<stop offset="1" stop-color="#08074E"/>
</linearGradient>
<linearGradient id="paint5_linear_101_378" x1="215.725" y1="-38.85" x2="215.725" y2="-0.0970078" gradientUnits="userSpaceOnUse">
<stop stop-color="white" stop-opacity="0"/>
<stop offset="1" stop-color="#08074E"/>
</linearGradient>
<linearGradient id="paint6_linear_101_378" x1="254.914" y1="-38.85" x2="254.914" y2="-0.0970078" gradientUnits="userSpaceOnUse">
<stop stop-color="white" stop-opacity="0"/>
<stop offset="1" stop-color="#08074E"/>
</linearGradient>
<linearGradient id="paint7_linear_101_378" x1="294.102" y1="-38.85" x2="294.102" y2="-0.0970078" gradientUnits="userSpaceOnUse">
<stop stop-color="white" stop-opacity="0"/>
<stop offset="1" stop-color="#08074E"/>
</linearGradient>
<linearGradient id="paint8_linear_101_378" x1="333.29" y1="-38.85" x2="333.29" y2="-0.0970078" gradientUnits="userSpaceOnUse">
<stop stop-color="white" stop-opacity="0"/>
<stop offset="1" stop-color="#08074E"/>
</linearGradient>
<linearGradient id="paint9_linear_101_378" x1="372.479" y1="-38.85" x2="372.479" y2="-0.0970078" gradientUnits="userSpaceOnUse">
<stop stop-color="white" stop-opacity="0"/>
<stop offset="1" stop-color="#08074E"/>
</linearGradient>
<linearGradient id="paint10_linear_101_378" x1="411.667" y1="-38.85" x2="411.667" y2="-0.0970078" gradientUnits="userSpaceOnUse">
<stop stop-color="white" stop-opacity="0"/>
<stop offset="1" stop-color="#08074E"/>
</linearGradient>
<linearGradient id="paint11_linear_101_378" x1="450.856" y1="-38.85" x2="450.856" y2="-0.0970078" gradientUnits="userSpaceOnUse">
<stop stop-color="white" stop-opacity="0"/>
<stop offset="1" stop-color="#08074E"/>
</linearGradient>
<linearGradient id="paint12_linear_101_378" x1="490.044" y1="-38.85" x2="490.044" y2="-0.0970078" gradientUnits="userSpaceOnUse">
<stop stop-color="white" stop-opacity="0"/>
<stop offset="1" stop-color="#08074E"/>
</linearGradient>
<linearGradient id="paint13_linear_101_378" x1="529.233" y1="-38.85" x2="529.233" y2="-0.0970078" gradientUnits="userSpaceOnUse">
<stop stop-color="white" stop-opacity="0"/>
<stop offset="1" stop-color="#08074E"/>
</linearGradient>
<linearGradient id="paint14_linear_101_378" x1="568.421" y1="-38.85" x2="568.421" y2="-0.0970078" gradientUnits="userSpaceOnUse">
<stop stop-color="white" stop-opacity="0"/>
<stop offset="1" stop-color="#08074E"/>
</linearGradient>
<linearGradient id="paint15_linear_101_378" x1="607.609" y1="-38.85" x2="607.609" y2="-0.0970078" gradientUnits="userSpaceOnUse">
<stop stop-color="white" stop-opacity="0"/>
<stop offset="1" stop-color="#08074E"/>
</linearGradient>
<linearGradient id="paint16_linear_101_378" x1="646.798" y1="-38.85" x2="646.798" y2="-0.0970078" gradientUnits="userSpaceOnUse">
<stop stop-color="white" stop-opacity="0"/>
<stop offset="1" stop-color="#08074E"/>
</linearGradient>
<linearGradient id="paint17_linear_101_378" x1="685.986" y1="-38.85" x2="685.986" y2="-0.0970078" gradientUnits="userSpaceOnUse">
<stop stop-color="white" stop-opacity="0"/>
<stop offset="1" stop-color="#08074E"/>
</linearGradient>
<linearGradient id="paint18_linear_101_378" x1="-56" y1="129" x2="842.817" y2="129" gradientUnits="userSpaceOnUse">
<stop offset="0.0615314" stop-color="#F3F5FA" stop-opacity="0"/>
<stop offset="0.491141" stop-color="#08074E"/>
<stop offset="0.831273" stop-color="#F3F5FA" stop-opacity="0"/>
</linearGradient>
<clipPath id="clip0_101_378">
<rect width="706" height="258" fill="white"/>
</clipPath>
</defs>
</svg>
