<svg width="744" height="723" viewBox="0 0 744 723" fill="none" xmlns="http://www.w3.org/2000/svg">
<mask id="mask0_1275_9" style="mask-type:alpha" maskUnits="userSpaceOnUse" x="0" y="0" width="744" height="723">
<g clip-path="url(#clip0_1275_9)">
<path d="M39.1885 38.1499H0V76.9029H39.1885V38.1499Z" stroke="url(#paint0_linear_1275_9)" stroke-opacity="0.07" stroke-width="0.258333"/>
<path d="M117.565 38.1499H78.377V76.9029H117.565V38.1499Z" stroke="url(#paint1_linear_1275_9)" stroke-opacity="0.07" stroke-width="0.258333"/>
<path d="M156.754 38.1499H117.565V76.9029H156.754V38.1499Z" stroke="url(#paint2_linear_1275_9)" stroke-opacity="0.07" stroke-width="0.258333"/>
<path d="M195.942 38.1499H156.754V76.9029H195.942V38.1499Z" stroke="url(#paint3_linear_1275_9)" stroke-opacity="0.07" stroke-width="0.258333"/>
<path d="M235.131 38.1499H195.942V76.9029H235.131V38.1499Z" stroke="url(#paint4_linear_1275_9)" stroke-opacity="0.07" stroke-width="0.258333"/>
<path d="M274.319 38.1499H235.131V76.9029H274.319V38.1499Z" stroke="url(#paint5_linear_1275_9)" stroke-opacity="0.07" stroke-width="0.258333"/>
<path d="M313.508 38.1499H274.319V76.9029H313.508V38.1499Z" stroke="url(#paint6_linear_1275_9)" stroke-opacity="0.07" stroke-width="0.258333"/>
<path d="M352.696 38.1499H313.508V76.9029H352.696V38.1499Z" stroke="url(#paint7_linear_1275_9)" stroke-opacity="0.07" stroke-width="0.258333"/>
<path d="M391.885 38.1499H352.696V76.9029H391.885V38.1499Z" stroke="url(#paint8_linear_1275_9)" stroke-opacity="0.07" stroke-width="0.258333"/>
<path d="M431.073 38.1499H391.885V76.9029H431.073V38.1499Z" stroke="url(#paint9_linear_1275_9)" stroke-opacity="0.07" stroke-width="0.258333"/>
<path d="M470.261 38.1499H431.073V76.9029H470.261V38.1499Z" stroke="url(#paint10_linear_1275_9)" stroke-opacity="0.07" stroke-width="0.258333"/>
<path d="M509.45 38.1499H470.261V76.9029H509.45V38.1499Z" stroke="url(#paint11_linear_1275_9)" stroke-opacity="0.07" stroke-width="0.258333"/>
<path d="M548.638 38.1499H509.45V76.9029H548.638V38.1499Z" stroke="url(#paint12_linear_1275_9)" stroke-opacity="0.07" stroke-width="0.258333"/>
<path d="M587.827 38.1499H548.638V76.9029H587.827V38.1499Z" stroke="url(#paint13_linear_1275_9)" stroke-opacity="0.07" stroke-width="0.258333"/>
<path d="M627.015 38.1499H587.827V76.9029H627.015V38.1499Z" stroke="url(#paint14_linear_1275_9)" stroke-opacity="0.07" stroke-width="0.258333"/>
<path d="M666.203 38.1499H627.015V76.9029H666.203V38.1499Z" stroke="url(#paint15_linear_1275_9)" stroke-opacity="0.07" stroke-width="0.258333"/>
<path opacity="0.33" d="M705.392 38.1499H666.204V76.9029H705.392V38.1499Z" stroke="url(#paint16_linear_1275_9)" stroke-opacity="0.07" stroke-width="0.258333"/>
<path d="M744.581 38.1499H705.392V76.9029H744.581V38.1499Z" stroke="url(#paint17_linear_1275_9)" stroke-opacity="0.07" stroke-width="0.258333"/>
<path d="M39.1885 76.9028H0V115.656H39.1885V76.9028Z" stroke="#8E98A8" stroke-opacity="0.7" stroke-width="0.258333"/>
<path d="M78.3767 76.9028H39.1882V115.656H78.3767V76.9028Z" stroke="#8E98A8" stroke-opacity="0.7" stroke-width="0.258333"/>
<path d="M117.565 76.9028H78.377V115.656H117.565V76.9028Z" stroke="#8E98A8" stroke-opacity="0.7" stroke-width="0.258333"/>
<path d="M156.754 76.9028H117.565V115.656H156.754V76.9028Z" stroke="#8E98A8" stroke-opacity="0.7" stroke-width="0.258333"/>
<path d="M195.942 76.9028H156.754V115.656H195.942V76.9028Z" stroke="#8E98A8" stroke-opacity="0.7" stroke-width="0.258333"/>
<path d="M235.131 76.9028H195.942V115.656H235.131V76.9028Z" stroke="#8E98A8" stroke-opacity="0.7" stroke-width="0.258333"/>
<path d="M274.319 76.9028H235.131V115.656H274.319V76.9028Z" stroke="#8E98A8" stroke-opacity="0.7" stroke-width="0.258333"/>
<path d="M313.508 76.9028H274.319V115.656H313.508V76.9028Z" stroke="#8E98A8" stroke-opacity="0.7" stroke-width="0.258333"/>
<path d="M352.696 76.9028H313.508V115.656H352.696V76.9028Z" stroke="#8E98A8" stroke-opacity="0.7" stroke-width="0.258333"/>
<path d="M391.885 76.9028H352.696V115.656H391.885V76.9028Z" stroke="#8E98A8" stroke-opacity="0.7" stroke-width="0.258333"/>
<path d="M431.073 76.9028H391.885V115.656H431.073V76.9028Z" stroke="#8E98A8" stroke-opacity="0.7" stroke-width="0.258333"/>
<path d="M470.261 76.9028H431.073V115.656H470.261V76.9028Z" stroke="#8E98A8" stroke-opacity="0.7" stroke-width="0.258333"/>
<path d="M509.45 76.9028H470.261V115.656H509.45V76.9028Z" stroke="#8E98A8" stroke-opacity="0.7" stroke-width="0.258333"/>
<path d="M548.638 76.9028H509.45V115.656H548.638V76.9028Z" stroke="#8E98A8" stroke-opacity="0.7" stroke-width="0.258333"/>
<path d="M587.827 76.9028H548.638V115.656H587.827V76.9028Z" stroke="#8E98A8" stroke-opacity="0.7" stroke-width="0.258333"/>
<path d="M627.015 76.9028H587.827V115.656H627.015V76.9028Z" stroke="#8E98A8" stroke-opacity="0.7" stroke-width="0.258333"/>
<path d="M666.203 76.9028H627.015V115.656H666.203V76.9028Z" stroke="#8E98A8" stroke-opacity="0.7" stroke-width="0.258333"/>
<path d="M705.392 76.9028H666.204V115.656H705.392V76.9028Z" stroke="#8E98A8" stroke-opacity="0.7" stroke-width="0.258333"/>
<path d="M744.581 76.9028H705.392V115.656H744.581V76.9028Z" stroke="#8E98A8" stroke-opacity="0.7" stroke-width="0.258333"/>
<path d="M39.1885 115.656H0V154.409H39.1885V115.656Z" stroke="#8E98A8" stroke-opacity="0.7" stroke-width="0.258333"/>
<path d="M78.3767 115.656H39.1882V154.409H78.3767V115.656Z" stroke="#8E98A8" stroke-opacity="0.7" stroke-width="0.258333"/>
<path d="M117.565 115.656H78.377V154.409H117.565V115.656Z" stroke="#8E98A8" stroke-opacity="0.7" stroke-width="0.258333"/>
<path d="M156.754 115.656H117.565V154.409H156.754V115.656Z" stroke="#8E98A8" stroke-opacity="0.7" stroke-width="0.258333"/>
<path d="M195.942 115.656H156.754V154.409H195.942V115.656Z" stroke="#8E98A8" stroke-opacity="0.7" stroke-width="0.258333"/>
<path d="M235.131 115.656H195.942V154.409H235.131V115.656Z" stroke="#8E98A8" stroke-opacity="0.7" stroke-width="0.258333"/>
<path d="M274.319 115.656H235.131V154.409H274.319V115.656Z" stroke="#8E98A8" stroke-opacity="0.7" stroke-width="0.258333"/>
<path d="M313.508 115.656H274.319V154.409H313.508V115.656Z" stroke="#8E98A8" stroke-opacity="0.7" stroke-width="0.258333"/>
<path d="M352.696 115.656H313.508V154.409H352.696V115.656Z" stroke="#8E98A8" stroke-opacity="0.7" stroke-width="0.258333"/>
<path d="M391.885 115.656H352.696V154.409H391.885V115.656Z" stroke="#8E98A8" stroke-opacity="0.7" stroke-width="0.258333"/>
<path d="M431.073 115.656H391.885V154.409H431.073V115.656Z" stroke="#8E98A8" stroke-opacity="0.7" stroke-width="0.258333"/>
<path d="M470.261 115.656H431.073V154.409H470.261V115.656Z" stroke="#8E98A8" stroke-opacity="0.7" stroke-width="0.258333"/>
<path d="M509.45 115.656H470.261V154.409H509.45V115.656Z" stroke="#8E98A8" stroke-opacity="0.7" stroke-width="0.258333"/>
<path d="M548.638 115.656H509.45V154.409H548.638V115.656Z" stroke="#8E98A8" stroke-opacity="0.7" stroke-width="0.258333"/>
<path d="M587.827 115.656H548.638V154.409H587.827V115.656Z" stroke="#8E98A8" stroke-opacity="0.7" stroke-width="0.258333"/>
<path d="M627.015 115.656H587.827V154.409H627.015V115.656Z" stroke="#8E98A8" stroke-opacity="0.7" stroke-width="0.258333"/>
<path d="M666.203 115.656H627.015V154.409H666.203V115.656Z" stroke="#8E98A8" stroke-opacity="0.7" stroke-width="0.258333"/>
<path d="M705.392 115.656H666.204V154.409H705.392V115.656Z" stroke="#8E98A8" stroke-opacity="0.7" stroke-width="0.258333"/>
<path d="M744.581 115.656H705.392V154.409H744.581V115.656Z" stroke="#8E98A8" stroke-opacity="0.7" stroke-width="0.258333"/>
<path d="M39.1885 154.409H0V193.162H39.1885V154.409Z" stroke="#8E98A8" stroke-opacity="0.7" stroke-width="0.258333"/>
<path d="M78.3767 154.409H39.1882V193.162H78.3767V154.409Z" stroke="#8E98A8" stroke-opacity="0.7" stroke-width="0.258333"/>
<path d="M117.565 154.409H78.377V193.162H117.565V154.409Z" stroke="#8E98A8" stroke-opacity="0.7" stroke-width="0.258333"/>
<path d="M156.754 154.409H117.565V193.162H156.754V154.409Z" stroke="#8E98A8" stroke-opacity="0.7" stroke-width="0.258333"/>
<path d="M195.942 154.409H156.754V193.162H195.942V154.409Z" stroke="#8E98A8" stroke-opacity="0.7" stroke-width="0.258333"/>
<path d="M235.131 154.409H195.942V193.162H235.131V154.409Z" stroke="#8E98A8" stroke-opacity="0.7" stroke-width="0.258333"/>
<path d="M274.319 154.409H235.131V193.162H274.319V154.409Z" stroke="#8E98A8" stroke-opacity="0.7" stroke-width="0.258333"/>
<path d="M313.508 154.409H274.319V193.162H313.508V154.409Z" stroke="#8E98A8" stroke-opacity="0.7" stroke-width="0.258333"/>
<path d="M352.696 154.409H313.508V193.162H352.696V154.409Z" stroke="#8E98A8" stroke-opacity="0.7" stroke-width="0.258333"/>
<path d="M391.885 154.409H352.696V193.162H391.885V154.409Z" stroke="#8E98A8" stroke-opacity="0.7" stroke-width="0.258333"/>
<path d="M431.073 154.409H391.885V193.162H431.073V154.409Z" stroke="#8E98A8" stroke-opacity="0.7" stroke-width="0.258333"/>
<path d="M470.261 154.409H431.073V193.162H470.261V154.409Z" stroke="#8E98A8" stroke-opacity="0.7" stroke-width="0.258333"/>
<path d="M509.45 154.409H470.261V193.162H509.45V154.409Z" stroke="#8E98A8" stroke-opacity="0.7" stroke-width="0.258333"/>
<path d="M548.638 154.409H509.45V193.162H548.638V154.409Z" stroke="#8E98A8" stroke-opacity="0.7" stroke-width="0.258333"/>
<path d="M587.827 154.409H548.638V193.162H587.827V154.409Z" stroke="#8E98A8" stroke-opacity="0.7" stroke-width="0.258333"/>
<path d="M627.015 154.409H587.827V193.162H627.015V154.409Z" stroke="#8E98A8" stroke-opacity="0.7" stroke-width="0.258333"/>
<path d="M666.203 154.409H627.015V193.162H666.203V154.409Z" stroke="#8E98A8" stroke-opacity="0.7" stroke-width="0.258333"/>
<path d="M705.392 154.409H666.204V193.162H705.392V154.409Z" stroke="#8E98A8" stroke-opacity="0.7" stroke-width="0.258333"/>
<path d="M744.581 154.409H705.392V193.162H744.581V154.409Z" stroke="#8E98A8" stroke-opacity="0.7" stroke-width="0.258333"/>
<path d="M39.1885 193.162H0V231.915H39.1885V193.162Z" stroke="#8E98A8" stroke-opacity="0.7" stroke-width="0.258333"/>
<path d="M78.3767 193.162H39.1882V231.915H78.3767V193.162Z" stroke="#8E98A8" stroke-opacity="0.7" stroke-width="0.258333"/>
<path d="M117.565 193.162H78.377V231.915H117.565V193.162Z" stroke="#8E98A8" stroke-opacity="0.7" stroke-width="0.258333"/>
<path d="M156.754 193.162H117.565V231.915H156.754V193.162Z" stroke="#8E98A8" stroke-opacity="0.7" stroke-width="0.258333"/>
<path d="M195.942 193.162H156.754V231.915H195.942V193.162Z" stroke="#8E98A8" stroke-opacity="0.7" stroke-width="0.258333"/>
<path d="M235.131 193.162H195.942V231.915H235.131V193.162Z" stroke="#8E98A8" stroke-opacity="0.7" stroke-width="0.258333"/>
<path d="M274.319 193.162H235.131V231.915H274.319V193.162Z" stroke="#8E98A8" stroke-opacity="0.7" stroke-width="0.258333"/>
<path d="M313.508 193.162H274.319V231.915H313.508V193.162Z" stroke="#8E98A8" stroke-opacity="0.7" stroke-width="0.258333"/>
<path d="M352.696 193.162H313.508V231.915H352.696V193.162Z" stroke="#8E98A8" stroke-opacity="0.7" stroke-width="0.258333"/>
<path d="M391.885 193.162H352.696V231.915H391.885V193.162Z" stroke="#8E98A8" stroke-opacity="0.7" stroke-width="0.258333"/>
<path d="M431.073 193.162H391.885V231.915H431.073V193.162Z" stroke="#8E98A8" stroke-opacity="0.7" stroke-width="0.258333"/>
<path d="M470.261 193.162H431.073V231.915H470.261V193.162Z" stroke="#8E98A8" stroke-opacity="0.7" stroke-width="0.258333"/>
<path d="M509.45 193.162H470.261V231.915H509.45V193.162Z" stroke="#8E98A8" stroke-opacity="0.7" stroke-width="0.258333"/>
<path d="M548.638 193.162H509.45V231.915H548.638V193.162Z" stroke="#8E98A8" stroke-opacity="0.7" stroke-width="0.258333"/>
<path d="M587.827 193.162H548.638V231.915H587.827V193.162Z" stroke="#8E98A8" stroke-opacity="0.7" stroke-width="0.258333"/>
<path d="M627.015 193.162H587.827V231.915H627.015V193.162Z" stroke="#8E98A8" stroke-opacity="0.7" stroke-width="0.258333"/>
<path d="M666.203 193.162H627.015V231.915H666.203V193.162Z" stroke="#8E98A8" stroke-opacity="0.7" stroke-width="0.258333"/>
<path d="M705.392 193.162H666.204V231.915H705.392V193.162Z" stroke="#8E98A8" stroke-opacity="0.7" stroke-width="0.258333"/>
<path d="M744.581 193.162H705.392V231.915H744.581V193.162Z" stroke="#8E98A8" stroke-opacity="0.7" stroke-width="0.258333"/>
<path d="M39.1885 231.915H0V270.668H39.1885V231.915Z" stroke="#8E98A8" stroke-opacity="0.7" stroke-width="0.258333"/>
<path d="M78.3767 231.915H39.1882V270.668H78.3767V231.915Z" stroke="#8E98A8" stroke-opacity="0.7" stroke-width="0.258333"/>
<path d="M117.565 231.915H78.377V270.668H117.565V231.915Z" stroke="#8E98A8" stroke-opacity="0.7" stroke-width="0.258333"/>
<path d="M156.754 231.915H117.565V270.668H156.754V231.915Z" stroke="#8E98A8" stroke-opacity="0.7" stroke-width="0.258333"/>
<path d="M195.942 231.915H156.754V270.668H195.942V231.915Z" stroke="#8E98A8" stroke-opacity="0.7" stroke-width="0.258333"/>
<path d="M235.131 231.915H195.942V270.668H235.131V231.915Z" stroke="#8E98A8" stroke-opacity="0.7" stroke-width="0.258333"/>
<path d="M274.319 231.915H235.131V270.668H274.319V231.915Z" stroke="#8E98A8" stroke-opacity="0.7" stroke-width="0.258333"/>
<path d="M313.508 231.915H274.319V270.668H313.508V231.915Z" stroke="#8E98A8" stroke-opacity="0.7" stroke-width="0.258333"/>
<path d="M352.696 231.915H313.508V270.668H352.696V231.915Z" stroke="#8E98A8" stroke-opacity="0.7" stroke-width="0.258333"/>
<path d="M391.885 231.915H352.696V270.668H391.885V231.915Z" stroke="#8E98A8" stroke-opacity="0.7" stroke-width="0.258333"/>
<path d="M431.073 231.915H391.885V270.668H431.073V231.915Z" stroke="#8E98A8" stroke-opacity="0.7" stroke-width="0.258333"/>
<path d="M470.261 231.915H431.073V270.668H470.261V231.915Z" stroke="#8E98A8" stroke-opacity="0.7" stroke-width="0.258333"/>
<path d="M509.45 231.915H470.261V270.668H509.45V231.915Z" stroke="#8E98A8" stroke-opacity="0.7" stroke-width="0.258333"/>
<path d="M548.638 231.915H509.45V270.668H548.638V231.915Z" stroke="#8E98A8" stroke-opacity="0.7" stroke-width="0.258333"/>
<path d="M587.827 231.915H548.638V270.668H587.827V231.915Z" stroke="#8E98A8" stroke-opacity="0.7" stroke-width="0.258333"/>
<path d="M627.015 231.915H587.827V270.668H627.015V231.915Z" stroke="#8E98A8" stroke-opacity="0.7" stroke-width="0.258333"/>
<path d="M666.203 231.915H627.015V270.668H666.203V231.915Z" stroke="#8E98A8" stroke-opacity="0.7" stroke-width="0.258333"/>
<path d="M705.392 231.915H666.204V270.668H705.392V231.915Z" stroke="#8E98A8" stroke-opacity="0.7" stroke-width="0.258333"/>
<path d="M744.581 231.915H705.392V270.668H744.581V231.915Z" stroke="#8E98A8" stroke-opacity="0.7" stroke-width="0.258333"/>
<path d="M39.1885 270.668H0V309.421H39.1885V270.668Z" stroke="#8E98A8" stroke-opacity="0.7" stroke-width="0.258333"/>
<path d="M78.3767 270.668H39.1882V309.421H78.3767V270.668Z" stroke="#8E98A8" stroke-opacity="0.7" stroke-width="0.258333"/>
<path d="M117.565 270.668H78.377V309.421H117.565V270.668Z" stroke="#8E98A8" stroke-opacity="0.7" stroke-width="0.258333"/>
<path d="M156.754 270.668H117.565V309.421H156.754V270.668Z" stroke="#8E98A8" stroke-opacity="0.7" stroke-width="0.258333"/>
<path d="M195.942 270.668H156.754V309.421H195.942V270.668Z" stroke="#8E98A8" stroke-opacity="0.7" stroke-width="0.258333"/>
<path d="M235.131 270.668H195.942V309.421H235.131V270.668Z" stroke="#8E98A8" stroke-opacity="0.7" stroke-width="0.258333"/>
<path d="M274.319 270.668H235.131V309.421H274.319V270.668Z" stroke="#8E98A8" stroke-opacity="0.7" stroke-width="0.258333"/>
<path d="M313.508 270.668H274.319V309.421H313.508V270.668Z" stroke="#8E98A8" stroke-opacity="0.7" stroke-width="0.258333"/>
<path d="M352.696 270.668H313.508V309.421H352.696V270.668Z" stroke="#8E98A8" stroke-opacity="0.7" stroke-width="0.258333"/>
<path d="M391.885 270.668H352.696V309.421H391.885V270.668Z" stroke="#8E98A8" stroke-opacity="0.7" stroke-width="0.258333"/>
<path d="M431.073 270.668H391.885V309.421H431.073V270.668Z" stroke="#8E98A8" stroke-opacity="0.7" stroke-width="0.258333"/>
<path d="M470.261 270.668H431.073V309.421H470.261V270.668Z" stroke="#8E98A8" stroke-opacity="0.7" stroke-width="0.258333"/>
<path d="M509.45 270.668H470.261V309.421H509.45V270.668Z" stroke="#8E98A8" stroke-opacity="0.7" stroke-width="0.258333"/>
<path d="M548.638 270.668H509.45V309.421H548.638V270.668Z" stroke="#8E98A8" stroke-opacity="0.7" stroke-width="0.258333"/>
<path d="M587.827 270.668H548.638V309.421H587.827V270.668Z" stroke="#8E98A8" stroke-opacity="0.7" stroke-width="0.258333"/>
<path d="M627.015 270.668H587.827V309.421H627.015V270.668Z" stroke="#8E98A8" stroke-opacity="0.7" stroke-width="0.258333"/>
<path d="M666.203 270.668H627.015V309.421H666.203V270.668Z" stroke="#8E98A8" stroke-opacity="0.7" stroke-width="0.258333"/>
<path d="M705.392 270.668H666.204V309.421H705.392V270.668Z" stroke="#8E98A8" stroke-opacity="0.7" stroke-width="0.258333"/>
<path d="M744.581 270.668H705.392V309.421H744.581V270.668Z" stroke="#8E98A8" stroke-opacity="0.7" stroke-width="0.258333"/>
<path d="M39.1885 309.421H0V348.174H39.1885V309.421Z" stroke="#8E98A8" stroke-opacity="0.7" stroke-width="0.258333"/>
<path d="M78.3767 309.421H39.1882V348.174H78.3767V309.421Z" stroke="#8E98A8" stroke-opacity="0.7" stroke-width="0.258333"/>
<path d="M117.565 309.421H78.377V348.174H117.565V309.421Z" stroke="#8E98A8" stroke-opacity="0.7" stroke-width="0.258333"/>
<path d="M156.754 309.421H117.565V348.174H156.754V309.421Z" stroke="#8E98A8" stroke-opacity="0.7" stroke-width="0.258333"/>
<path d="M195.942 309.421H156.754V348.174H195.942V309.421Z" stroke="#8E98A8" stroke-opacity="0.7" stroke-width="0.258333"/>
<path d="M235.131 309.421H195.942V348.174H235.131V309.421Z" stroke="#8E98A8" stroke-opacity="0.7" stroke-width="0.258333"/>
<path d="M274.319 309.421H235.131V348.174H274.319V309.421Z" stroke="#8E98A8" stroke-opacity="0.7" stroke-width="0.258333"/>
<path d="M313.508 309.421H274.319V348.174H313.508V309.421Z" stroke="#8E98A8" stroke-opacity="0.7" stroke-width="0.258333"/>
<path d="M352.696 309.421H313.508V348.174H352.696V309.421Z" stroke="#8E98A8" stroke-opacity="0.7" stroke-width="0.258333"/>
<path d="M391.885 309.421H352.696V348.174H391.885V309.421Z" stroke="#8E98A8" stroke-opacity="0.7" stroke-width="0.258333"/>
<path d="M431.073 309.421H391.885V348.174H431.073V309.421Z" stroke="#8E98A8" stroke-opacity="0.7" stroke-width="0.258333"/>
<path d="M470.261 309.421H431.073V348.174H470.261V309.421Z" stroke="#8E98A8" stroke-opacity="0.7" stroke-width="0.258333"/>
<path d="M509.45 309.421H470.261V348.174H509.45V309.421Z" stroke="#8E98A8" stroke-opacity="0.7" stroke-width="0.258333"/>
<path d="M548.638 309.421H509.45V348.174H548.638V309.421Z" stroke="#8E98A8" stroke-opacity="0.7" stroke-width="0.258333"/>
<path d="M587.827 309.421H548.638V348.174H587.827V309.421Z" stroke="#8E98A8" stroke-opacity="0.7" stroke-width="0.258333"/>
<path d="M627.015 309.421H587.827V348.174H627.015V309.421Z" stroke="#8E98A8" stroke-opacity="0.7" stroke-width="0.258333"/>
<path d="M666.203 309.421H627.015V348.174H666.203V309.421Z" stroke="#8E98A8" stroke-opacity="0.7" stroke-width="0.258333"/>
<path d="M705.392 309.421H666.204V348.174H705.392V309.421Z" stroke="#8E98A8" stroke-opacity="0.7" stroke-width="0.258333"/>
<path d="M744.581 309.421H705.392V348.174H744.581V309.421Z" stroke="#8E98A8" stroke-opacity="0.7" stroke-width="0.258333"/>
<path d="M39.1885 348.174H0V386.927H39.1885V348.174Z" stroke="#8E98A8" stroke-opacity="0.7" stroke-width="0.258333"/>
<path d="M78.3767 348.174H39.1882V386.927H78.3767V348.174Z" stroke="#8E98A8" stroke-opacity="0.7" stroke-width="0.258333"/>
<path d="M117.565 348.174H78.377V386.927H117.565V348.174Z" stroke="#8E98A8" stroke-opacity="0.7" stroke-width="0.258333"/>
<path d="M156.754 348.174H117.565V386.927H156.754V348.174Z" stroke="#8E98A8" stroke-opacity="0.7" stroke-width="0.258333"/>
<path d="M195.942 348.174H156.754V386.927H195.942V348.174Z" stroke="#8E98A8" stroke-opacity="0.7" stroke-width="0.258333"/>
<path d="M235.131 348.174H195.942V386.927H235.131V348.174Z" stroke="#8E98A8" stroke-opacity="0.7" stroke-width="0.258333"/>
<path d="M274.319 348.174H235.131V386.927H274.319V348.174Z" stroke="#8E98A8" stroke-opacity="0.7" stroke-width="0.258333"/>
<path d="M313.508 348.174H274.319V386.927H313.508V348.174Z" stroke="#8E98A8" stroke-opacity="0.7" stroke-width="0.258333"/>
<path d="M352.696 348.174H313.508V386.927H352.696V348.174Z" stroke="#8E98A8" stroke-opacity="0.7" stroke-width="0.258333"/>
<path d="M391.885 348.174H352.696V386.927H391.885V348.174Z" stroke="#8E98A8" stroke-opacity="0.7" stroke-width="0.258333"/>
<path d="M431.073 348.174H391.885V386.927H431.073V348.174Z" stroke="#8E98A8" stroke-opacity="0.7" stroke-width="0.258333"/>
<path d="M470.261 348.174H431.073V386.927H470.261V348.174Z" stroke="#8E98A8" stroke-opacity="0.7" stroke-width="0.258333"/>
<path d="M509.45 348.174H470.261V386.927H509.45V348.174Z" stroke="#8E98A8" stroke-opacity="0.7" stroke-width="0.258333"/>
<path d="M548.638 348.174H509.45V386.927H548.638V348.174Z" stroke="#8E98A8" stroke-opacity="0.7" stroke-width="0.258333"/>
<path d="M587.827 348.174H548.638V386.927H587.827V348.174Z" stroke="#8E98A8" stroke-opacity="0.7" stroke-width="0.258333"/>
<path d="M627.015 348.174H587.827V386.927H627.015V348.174Z" stroke="#8E98A8" stroke-opacity="0.7" stroke-width="0.258333"/>
<path d="M666.203 348.174H627.015V386.927H666.203V348.174Z" stroke="#8E98A8" stroke-opacity="0.7" stroke-width="0.258333"/>
<path d="M705.392 348.174H666.204V386.927H705.392V348.174Z" stroke="#8E98A8" stroke-opacity="0.7" stroke-width="0.258333"/>
<path d="M744.581 348.174H705.392V386.927H744.581V348.174Z" stroke="#8E98A8" stroke-opacity="0.7" stroke-width="0.258333"/>
<path d="M39.1885 386.927H0V425.68H39.1885V386.927Z" stroke="#8E98A8" stroke-opacity="0.7" stroke-width="0.258333"/>
<path d="M78.3767 386.927H39.1882V425.68H78.3767V386.927Z" stroke="#8E98A8" stroke-opacity="0.7" stroke-width="0.258333"/>
<path d="M117.565 386.927H78.377V425.68H117.565V386.927Z" stroke="#8E98A8" stroke-opacity="0.7" stroke-width="0.258333"/>
<path d="M156.754 386.927H117.565V425.68H156.754V386.927Z" stroke="#8E98A8" stroke-opacity="0.7" stroke-width="0.258333"/>
<path d="M195.942 386.927H156.754V425.68H195.942V386.927Z" stroke="#8E98A8" stroke-opacity="0.7" stroke-width="0.258333"/>
<path d="M235.131 386.927H195.942V425.68H235.131V386.927Z" stroke="#8E98A8" stroke-opacity="0.7" stroke-width="0.258333"/>
<path d="M274.319 386.927H235.131V425.68H274.319V386.927Z" stroke="#8E98A8" stroke-opacity="0.7" stroke-width="0.258333"/>
<path d="M313.508 386.927H274.319V425.68H313.508V386.927Z" stroke="#8E98A8" stroke-opacity="0.7" stroke-width="0.258333"/>
<path d="M352.696 386.927H313.508V425.68H352.696V386.927Z" stroke="#8E98A8" stroke-opacity="0.7" stroke-width="0.258333"/>
<path d="M391.885 386.927H352.696V425.68H391.885V386.927Z" stroke="#8E98A8" stroke-opacity="0.7" stroke-width="0.258333"/>
<path d="M431.073 386.927H391.885V425.68H431.073V386.927Z" stroke="#8E98A8" stroke-opacity="0.7" stroke-width="0.258333"/>
<path d="M470.261 386.927H431.073V425.68H470.261V386.927Z" stroke="#8E98A8" stroke-opacity="0.7" stroke-width="0.258333"/>
<path d="M509.45 386.927H470.261V425.68H509.45V386.927Z" stroke="#8E98A8" stroke-opacity="0.7" stroke-width="0.258333"/>
<path d="M548.638 386.927H509.45V425.68H548.638V386.927Z" stroke="#8E98A8" stroke-opacity="0.7" stroke-width="0.258333"/>
<path d="M587.827 386.927H548.638V425.68H587.827V386.927Z" stroke="#8E98A8" stroke-opacity="0.7" stroke-width="0.258333"/>
<path d="M627.015 386.927H587.827V425.68H627.015V386.927Z" stroke="#8E98A8" stroke-opacity="0.7" stroke-width="0.258333"/>
<path d="M666.203 386.927H627.015V425.68H666.203V386.927Z" stroke="#8E98A8" stroke-opacity="0.7" stroke-width="0.258333"/>
<path d="M705.392 386.927H666.204V425.68H705.392V386.927Z" stroke="#8E98A8" stroke-opacity="0.7" stroke-width="0.258333"/>
<path d="M744.581 386.927H705.392V425.68H744.581V386.927Z" stroke="#8E98A8" stroke-opacity="0.7" stroke-width="0.258333"/>
<path d="M39.1885 425.68H0V464.433H39.1885V425.68Z" stroke="#8E98A8" stroke-opacity="0.7" stroke-width="0.258333"/>
<path d="M78.3767 425.68H39.1882V464.433H78.3767V425.68Z" stroke="#8E98A8" stroke-opacity="0.7" stroke-width="0.258333"/>
<path d="M117.565 425.68H78.377V464.433H117.565V425.68Z" stroke="#8E98A8" stroke-opacity="0.7" stroke-width="0.258333"/>
<path d="M156.754 425.68H117.565V464.433H156.754V425.68Z" stroke="#8E98A8" stroke-opacity="0.7" stroke-width="0.258333"/>
<path d="M195.942 425.68H156.754V464.433H195.942V425.68Z" stroke="#8E98A8" stroke-opacity="0.7" stroke-width="0.258333"/>
<path d="M235.131 425.68H195.942V464.433H235.131V425.68Z" stroke="#8E98A8" stroke-opacity="0.7" stroke-width="0.258333"/>
<path d="M274.319 425.68H235.131V464.433H274.319V425.68Z" stroke="#8E98A8" stroke-opacity="0.7" stroke-width="0.258333"/>
<path d="M313.508 425.68H274.319V464.433H313.508V425.68Z" stroke="#8E98A8" stroke-opacity="0.7" stroke-width="0.258333"/>
<path d="M352.696 425.68H313.508V464.433H352.696V425.68Z" stroke="#8E98A8" stroke-opacity="0.7" stroke-width="0.258333"/>
<path d="M391.885 425.68H352.696V464.433H391.885V425.68Z" stroke="#8E98A8" stroke-opacity="0.7" stroke-width="0.258333"/>
<path d="M431.073 425.68H391.885V464.433H431.073V425.68Z" stroke="#8E98A8" stroke-opacity="0.7" stroke-width="0.258333"/>
<path d="M470.261 425.68H431.073V464.433H470.261V425.68Z" stroke="#8E98A8" stroke-opacity="0.7" stroke-width="0.258333"/>
<path d="M509.45 425.68H470.261V464.433H509.45V425.68Z" stroke="#8E98A8" stroke-opacity="0.7" stroke-width="0.258333"/>
<path d="M548.638 425.68H509.45V464.433H548.638V425.68Z" stroke="#8E98A8" stroke-opacity="0.7" stroke-width="0.258333"/>
<path d="M587.827 425.68H548.638V464.433H587.827V425.68Z" stroke="#8E98A8" stroke-opacity="0.7" stroke-width="0.258333"/>
<path d="M627.015 425.68H587.827V464.433H627.015V425.68Z" stroke="#8E98A8" stroke-opacity="0.7" stroke-width="0.258333"/>
<path d="M666.203 425.68H627.015V464.433H666.203V425.68Z" stroke="#8E98A8" stroke-opacity="0.7" stroke-width="0.258333"/>
<path d="M705.392 425.68H666.204V464.433H705.392V425.68Z" stroke="#8E98A8" stroke-opacity="0.7" stroke-width="0.258333"/>
<path d="M744.581 425.68H705.392V464.433H744.581V425.68Z" stroke="#8E98A8" stroke-opacity="0.7" stroke-width="0.258333"/>
<path d="M39.1885 464.433H0V503.186H39.1885V464.433Z" stroke="#8E98A8" stroke-opacity="0.7" stroke-width="0.258333"/>
<path d="M78.3767 464.433H39.1882V503.186H78.3767V464.433Z" stroke="#8E98A8" stroke-opacity="0.7" stroke-width="0.258333"/>
<path d="M117.565 464.433H78.377V503.186H117.565V464.433Z" stroke="#8E98A8" stroke-opacity="0.7" stroke-width="0.258333"/>
<path d="M156.754 464.433H117.565V503.186H156.754V464.433Z" stroke="#8E98A8" stroke-opacity="0.7" stroke-width="0.258333"/>
<path d="M195.942 464.433H156.754V503.186H195.942V464.433Z" stroke="#8E98A8" stroke-opacity="0.7" stroke-width="0.258333"/>
<path d="M235.131 464.433H195.942V503.186H235.131V464.433Z" stroke="#8E98A8" stroke-opacity="0.7" stroke-width="0.258333"/>
<path d="M274.319 464.433H235.131V503.186H274.319V464.433Z" stroke="#8E98A8" stroke-opacity="0.7" stroke-width="0.258333"/>
<path d="M313.508 464.433H274.319V503.186H313.508V464.433Z" stroke="#8E98A8" stroke-opacity="0.7" stroke-width="0.258333"/>
<path d="M352.696 464.433H313.508V503.186H352.696V464.433Z" stroke="#8E98A8" stroke-opacity="0.7" stroke-width="0.258333"/>
<path d="M391.885 464.433H352.696V503.186H391.885V464.433Z" stroke="#8E98A8" stroke-opacity="0.7" stroke-width="0.258333"/>
<path d="M431.073 464.433H391.885V503.186H431.073V464.433Z" stroke="#8E98A8" stroke-opacity="0.7" stroke-width="0.258333"/>
<path d="M470.261 464.433H431.073V503.186H470.261V464.433Z" stroke="#8E98A8" stroke-opacity="0.7" stroke-width="0.258333"/>
<path d="M509.45 464.433H470.261V503.186H509.45V464.433Z" stroke="#8E98A8" stroke-opacity="0.7" stroke-width="0.258333"/>
<path d="M548.638 464.433H509.45V503.186H548.638V464.433Z" stroke="#8E98A8" stroke-opacity="0.7" stroke-width="0.258333"/>
<path d="M587.827 464.433H548.638V503.186H587.827V464.433Z" stroke="#8E98A8" stroke-opacity="0.7" stroke-width="0.258333"/>
<path d="M627.015 464.433H587.827V503.186H627.015V464.433Z" stroke="#8E98A8" stroke-opacity="0.7" stroke-width="0.258333"/>
<path d="M666.203 464.433H627.015V503.186H666.203V464.433Z" stroke="#8E98A8" stroke-opacity="0.7" stroke-width="0.258333"/>
<path d="M705.392 464.433H666.204V503.186H705.392V464.433Z" stroke="#8E98A8" stroke-opacity="0.7" stroke-width="0.258333"/>
<path d="M744.581 464.433H705.392V503.186H744.581V464.433Z" stroke="#8E98A8" stroke-opacity="0.7" stroke-width="0.258333"/>
<path d="M39.1885 503.186H0V541.939H39.1885V503.186Z" stroke="#8E98A8" stroke-opacity="0.7" stroke-width="0.258333"/>
<path d="M78.3767 503.186H39.1882V541.939H78.3767V503.186Z" stroke="#8E98A8" stroke-opacity="0.7" stroke-width="0.258333"/>
<path d="M117.565 503.186H78.377V541.939H117.565V503.186Z" stroke="#8E98A8" stroke-opacity="0.7" stroke-width="0.258333"/>
<path d="M156.754 503.186H117.565V541.939H156.754V503.186Z" stroke="#8E98A8" stroke-opacity="0.7" stroke-width="0.258333"/>
<path d="M195.942 503.186H156.754V541.939H195.942V503.186Z" stroke="#8E98A8" stroke-opacity="0.7" stroke-width="0.258333"/>
<path d="M235.131 503.186H195.942V541.939H235.131V503.186Z" stroke="#8E98A8" stroke-opacity="0.7" stroke-width="0.258333"/>
<path d="M274.319 503.186H235.131V541.939H274.319V503.186Z" stroke="#8E98A8" stroke-opacity="0.7" stroke-width="0.258333"/>
<path d="M313.508 503.186H274.319V541.939H313.508V503.186Z" stroke="#8E98A8" stroke-opacity="0.7" stroke-width="0.258333"/>
<path d="M352.696 503.186H313.508V541.939H352.696V503.186Z" stroke="#8E98A8" stroke-opacity="0.7" stroke-width="0.258333"/>
<path d="M391.885 503.186H352.696V541.939H391.885V503.186Z" stroke="#8E98A8" stroke-opacity="0.7" stroke-width="0.258333"/>
<path d="M431.073 503.186H391.885V541.939H431.073V503.186Z" stroke="#8E98A8" stroke-opacity="0.7" stroke-width="0.258333"/>
<path d="M470.261 503.186H431.073V541.939H470.261V503.186Z" stroke="#8E98A8" stroke-opacity="0.7" stroke-width="0.258333"/>
<path d="M509.45 503.186H470.261V541.939H509.45V503.186Z" stroke="#8E98A8" stroke-opacity="0.7" stroke-width="0.258333"/>
<path d="M548.638 503.186H509.45V541.939H548.638V503.186Z" stroke="#8E98A8" stroke-opacity="0.7" stroke-width="0.258333"/>
<path d="M587.827 503.186H548.638V541.939H587.827V503.186Z" stroke="#8E98A8" stroke-opacity="0.7" stroke-width="0.258333"/>
<path d="M627.015 503.186H587.827V541.939H627.015V503.186Z" stroke="#8E98A8" stroke-opacity="0.7" stroke-width="0.258333"/>
<path d="M666.203 503.186H627.015V541.939H666.203V503.186Z" stroke="#8E98A8" stroke-opacity="0.7" stroke-width="0.258333"/>
<path d="M705.392 503.186H666.204V541.939H705.392V503.186Z" stroke="#8E98A8" stroke-opacity="0.7" stroke-width="0.258333"/>
<path d="M744.581 503.186H705.392V541.939H744.581V503.186Z" stroke="#8E98A8" stroke-opacity="0.7" stroke-width="0.258333"/>
<path d="M39.1885 541.939H0V580.692H39.1885V541.939Z" stroke="#8E98A8" stroke-opacity="0.7" stroke-width="0.258333"/>
<path d="M78.3767 541.939H39.1882V580.692H78.3767V541.939Z" stroke="#8E98A8" stroke-opacity="0.7" stroke-width="0.258333"/>
<path d="M117.565 541.939H78.377V580.692H117.565V541.939Z" stroke="#8E98A8" stroke-opacity="0.7" stroke-width="0.258333"/>
<path d="M156.754 541.939H117.565V580.692H156.754V541.939Z" stroke="#8E98A8" stroke-opacity="0.7" stroke-width="0.258333"/>
<path d="M195.942 541.939H156.754V580.692H195.942V541.939Z" stroke="#8E98A8" stroke-opacity="0.7" stroke-width="0.258333"/>
<path d="M235.131 541.939H195.942V580.692H235.131V541.939Z" stroke="#8E98A8" stroke-opacity="0.7" stroke-width="0.258333"/>
<path d="M274.319 541.939H235.131V580.692H274.319V541.939Z" stroke="#8E98A8" stroke-opacity="0.7" stroke-width="0.258333"/>
<path d="M313.508 541.939H274.319V580.692H313.508V541.939Z" stroke="#8E98A8" stroke-opacity="0.7" stroke-width="0.258333"/>
<path d="M352.696 541.939H313.508V580.692H352.696V541.939Z" stroke="#8E98A8" stroke-opacity="0.7" stroke-width="0.258333"/>
<path d="M391.885 541.939H352.696V580.692H391.885V541.939Z" stroke="#8E98A8" stroke-opacity="0.7" stroke-width="0.258333"/>
<path d="M431.073 541.939H391.885V580.692H431.073V541.939Z" stroke="#8E98A8" stroke-opacity="0.7" stroke-width="0.258333"/>
<path d="M470.261 541.939H431.073V580.692H470.261V541.939Z" stroke="#8E98A8" stroke-opacity="0.7" stroke-width="0.258333"/>
<path d="M509.45 541.939H470.261V580.692H509.45V541.939Z" stroke="#8E98A8" stroke-opacity="0.7" stroke-width="0.258333"/>
<path d="M548.638 541.939H509.45V580.692H548.638V541.939Z" stroke="#8E98A8" stroke-opacity="0.7" stroke-width="0.258333"/>
<path d="M587.827 541.939H548.638V580.692H587.827V541.939Z" stroke="#8E98A8" stroke-opacity="0.7" stroke-width="0.258333"/>
<path d="M627.015 541.939H587.827V580.692H627.015V541.939Z" stroke="#8E98A8" stroke-opacity="0.7" stroke-width="0.258333"/>
<path d="M666.203 541.939H627.015V580.692H666.203V541.939Z" stroke="#8E98A8" stroke-opacity="0.7" stroke-width="0.258333"/>
<path d="M705.392 541.939H666.204V580.692H705.392V541.939Z" stroke="#8E98A8" stroke-opacity="0.7" stroke-width="0.258333"/>
<path d="M744.581 541.939H705.392V580.692H744.581V541.939Z" stroke="#8E98A8" stroke-opacity="0.7" stroke-width="0.258333"/>
<path d="M39.1885 580.692H0V619.445H39.1885V580.692Z" stroke="#8E98A8" stroke-opacity="0.7" stroke-width="0.258333"/>
<path d="M78.3767 580.692H39.1882V619.445H78.3767V580.692Z" stroke="#8E98A8" stroke-opacity="0.7" stroke-width="0.258333"/>
<path d="M117.565 580.692H78.377V619.445H117.565V580.692Z" stroke="#8E98A8" stroke-opacity="0.7" stroke-width="0.258333"/>
<path d="M156.754 580.692H117.565V619.445H156.754V580.692Z" stroke="#8E98A8" stroke-opacity="0.7" stroke-width="0.258333"/>
<path d="M195.942 580.692H156.754V619.445H195.942V580.692Z" stroke="#8E98A8" stroke-opacity="0.7" stroke-width="0.258333"/>
<path d="M235.131 580.692H195.942V619.445H235.131V580.692Z" stroke="#8E98A8" stroke-opacity="0.7" stroke-width="0.258333"/>
<path d="M274.319 580.692H235.131V619.445H274.319V580.692Z" stroke="#8E98A8" stroke-opacity="0.7" stroke-width="0.258333"/>
<path d="M313.508 580.692H274.319V619.445H313.508V580.692Z" stroke="#8E98A8" stroke-opacity="0.7" stroke-width="0.258333"/>
<path d="M352.696 580.692H313.508V619.445H352.696V580.692Z" stroke="#8E98A8" stroke-opacity="0.7" stroke-width="0.258333"/>
<path d="M391.885 580.692H352.696V619.445H391.885V580.692Z" stroke="#8E98A8" stroke-opacity="0.7" stroke-width="0.258333"/>
<path d="M431.073 580.692H391.885V619.445H431.073V580.692Z" stroke="#8E98A8" stroke-opacity="0.7" stroke-width="0.258333"/>
<path d="M470.261 580.692H431.073V619.445H470.261V580.692Z" stroke="#8E98A8" stroke-opacity="0.7" stroke-width="0.258333"/>
<path d="M509.45 580.692H470.261V619.445H509.45V580.692Z" stroke="#8E98A8" stroke-opacity="0.7" stroke-width="0.258333"/>
<path d="M548.638 580.692H509.45V619.445H548.638V580.692Z" stroke="#8E98A8" stroke-opacity="0.7" stroke-width="0.258333"/>
<path d="M587.827 580.692H548.638V619.445H587.827V580.692Z" stroke="#8E98A8" stroke-opacity="0.7" stroke-width="0.258333"/>
<path d="M627.015 580.692H587.827V619.445H627.015V580.692Z" stroke="#8E98A8" stroke-opacity="0.7" stroke-width="0.258333"/>
<path d="M666.203 580.692H627.015V619.445H666.203V580.692Z" stroke="#8E98A8" stroke-opacity="0.7" stroke-width="0.258333"/>
<path d="M705.392 580.692H666.204V619.445H705.392V580.692Z" stroke="#8E98A8" stroke-opacity="0.7" stroke-width="0.258333"/>
<path d="M744.581 580.692H705.392V619.445H744.581V580.692Z" stroke="#8E98A8" stroke-opacity="0.7" stroke-width="0.258333"/>
<path d="M39.1885 619.445H0V658.198H39.1885V619.445Z" stroke="#8E98A8" stroke-opacity="0.7" stroke-width="0.258333"/>
<path d="M78.3767 619.445H39.1882V658.198H78.3767V619.445Z" stroke="#8E98A8" stroke-opacity="0.7" stroke-width="0.258333"/>
<path d="M117.565 619.445H78.377V658.198H117.565V619.445Z" stroke="#8E98A8" stroke-opacity="0.7" stroke-width="0.258333"/>
<path d="M156.754 619.445H117.565V658.198H156.754V619.445Z" stroke="#8E98A8" stroke-opacity="0.7" stroke-width="0.258333"/>
<path d="M195.942 619.445H156.754V658.198H195.942V619.445Z" stroke="#8E98A8" stroke-opacity="0.7" stroke-width="0.258333"/>
<path d="M235.131 619.445H195.942V658.198H235.131V619.445Z" stroke="#8E98A8" stroke-opacity="0.7" stroke-width="0.258333"/>
<path d="M274.319 619.445H235.131V658.198H274.319V619.445Z" stroke="#8E98A8" stroke-opacity="0.7" stroke-width="0.258333"/>
<path d="M313.508 619.445H274.319V658.198H313.508V619.445Z" stroke="#8E98A8" stroke-opacity="0.7" stroke-width="0.258333"/>
<path d="M352.696 619.445H313.508V658.198H352.696V619.445Z" stroke="#8E98A8" stroke-opacity="0.7" stroke-width="0.258333"/>
<path d="M391.885 619.445H352.696V658.198H391.885V619.445Z" stroke="#8E98A8" stroke-opacity="0.7" stroke-width="0.258333"/>
<path d="M431.073 619.445H391.885V658.198H431.073V619.445Z" stroke="#8E98A8" stroke-opacity="0.7" stroke-width="0.258333"/>
<path d="M470.261 619.445H431.073V658.198H470.261V619.445Z" stroke="#8E98A8" stroke-opacity="0.7" stroke-width="0.258333"/>
<path d="M509.45 619.445H470.261V658.198H509.45V619.445Z" stroke="#8E98A8" stroke-opacity="0.7" stroke-width="0.258333"/>
<path d="M548.638 619.445H509.45V658.198H548.638V619.445Z" stroke="#8E98A8" stroke-opacity="0.7" stroke-width="0.258333"/>
<path d="M587.827 619.445H548.638V658.198H587.827V619.445Z" stroke="#8E98A8" stroke-opacity="0.7" stroke-width="0.258333"/>
<path d="M627.015 619.445H587.827V658.198H627.015V619.445Z" stroke="#8E98A8" stroke-opacity="0.7" stroke-width="0.258333"/>
<path d="M666.203 619.445H627.015V658.198H666.203V619.445Z" stroke="#8E98A8" stroke-opacity="0.7" stroke-width="0.258333"/>
<path d="M705.392 619.445H666.204V658.198H705.392V619.445Z" stroke="#8E98A8" stroke-opacity="0.7" stroke-width="0.258333"/>
<path d="M744.581 619.445H705.392V658.198H744.581V619.445Z" stroke="#8E98A8" stroke-opacity="0.7" stroke-width="0.258333"/>
<path d="M39.1885 658.198H0V696.951H39.1885V658.198Z" stroke="#8E98A8" stroke-opacity="0.7" stroke-width="0.258333"/>
<path d="M78.3767 658.198H39.1882V696.951H78.3767V658.198Z" stroke="#8E98A8" stroke-opacity="0.7" stroke-width="0.258333"/>
<path d="M117.565 658.198H78.377V696.951H117.565V658.198Z" stroke="#8E98A8" stroke-opacity="0.7" stroke-width="0.258333"/>
<path d="M156.754 658.198H117.565V696.951H156.754V658.198Z" stroke="#8E98A8" stroke-opacity="0.7" stroke-width="0.258333"/>
<path d="M195.942 658.198H156.754V696.951H195.942V658.198Z" stroke="#8E98A8" stroke-opacity="0.7" stroke-width="0.258333"/>
<path d="M235.131 658.198H195.942V696.951H235.131V658.198Z" stroke="#8E98A8" stroke-opacity="0.7" stroke-width="0.258333"/>
<path d="M274.319 658.198H235.131V696.951H274.319V658.198Z" stroke="#8E98A8" stroke-opacity="0.7" stroke-width="0.258333"/>
<path d="M313.508 658.198H274.319V696.951H313.508V658.198Z" stroke="#8E98A8" stroke-opacity="0.7" stroke-width="0.258333"/>
<path d="M352.696 658.198H313.508V696.951H352.696V658.198Z" stroke="#8E98A8" stroke-opacity="0.7" stroke-width="0.258333"/>
<path d="M391.885 658.198H352.696V696.951H391.885V658.198Z" stroke="#8E98A8" stroke-opacity="0.7" stroke-width="0.258333"/>
<path d="M431.073 658.198H391.885V696.951H431.073V658.198Z" stroke="#8E98A8" stroke-opacity="0.7" stroke-width="0.258333"/>
<path d="M470.261 658.198H431.073V696.951H470.261V658.198Z" stroke="#8E98A8" stroke-opacity="0.7" stroke-width="0.258333"/>
<path d="M509.45 658.198H470.261V696.951H509.45V658.198Z" stroke="#8E98A8" stroke-opacity="0.7" stroke-width="0.258333"/>
<path d="M548.638 658.198H509.45V696.951H548.638V658.198Z" stroke="#8E98A8" stroke-opacity="0.7" stroke-width="0.258333"/>
<path d="M587.827 658.198H548.638V696.951H587.827V658.198Z" stroke="#8E98A8" stroke-opacity="0.7" stroke-width="0.258333"/>
<path d="M627.015 658.198H587.827V696.951H627.015V658.198Z" stroke="#8E98A8" stroke-opacity="0.7" stroke-width="0.258333"/>
<path d="M666.203 658.198H627.015V696.951H666.203V658.198Z" stroke="#8E98A8" stroke-opacity="0.7" stroke-width="0.258333"/>
<path d="M705.392 658.198H666.204V696.951H705.392V658.198Z" stroke="#8E98A8" stroke-opacity="0.7" stroke-width="0.258333"/>
<path d="M744.581 658.198H705.392V696.951H744.581V658.198Z" stroke="#8E98A8" stroke-opacity="0.7" stroke-width="0.258333"/>
<path d="M39.1885 696.951H0V735.704H39.1885V696.951Z" stroke="#8E98A8" stroke-opacity="0.7" stroke-width="0.258333"/>
<path d="M78.3767 696.951H39.1882V735.704H78.3767V696.951Z" stroke="#8E98A8" stroke-opacity="0.7" stroke-width="0.258333"/>
<path d="M117.565 696.951H78.377V735.704H117.565V696.951Z" stroke="#8E98A8" stroke-opacity="0.7" stroke-width="0.258333"/>
<path d="M156.754 696.951H117.565V735.704H156.754V696.951Z" stroke="#8E98A8" stroke-opacity="0.7" stroke-width="0.258333"/>
<path d="M195.942 696.951H156.754V735.704H195.942V696.951Z" stroke="#8E98A8" stroke-opacity="0.7" stroke-width="0.258333"/>
<path d="M235.131 696.951H195.942V735.704H235.131V696.951Z" stroke="#8E98A8" stroke-opacity="0.7" stroke-width="0.258333"/>
<path d="M274.319 696.951H235.131V735.704H274.319V696.951Z" stroke="#8E98A8" stroke-opacity="0.7" stroke-width="0.258333"/>
<path d="M313.508 696.951H274.319V735.704H313.508V696.951Z" stroke="#8E98A8" stroke-opacity="0.7" stroke-width="0.258333"/>
<path d="M352.696 696.951H313.508V735.704H352.696V696.951Z" stroke="#8E98A8" stroke-opacity="0.7" stroke-width="0.258333"/>
<path d="M391.885 696.951H352.696V735.704H391.885V696.951Z" stroke="#8E98A8" stroke-opacity="0.7" stroke-width="0.258333"/>
<path d="M431.073 696.951H391.885V735.704H431.073V696.951Z" stroke="#8E98A8" stroke-opacity="0.7" stroke-width="0.258333"/>
<path d="M470.261 696.951H431.073V735.704H470.261V696.951Z" stroke="#8E98A8" stroke-opacity="0.7" stroke-width="0.258333"/>
<path d="M509.45 696.951H470.261V735.704H509.45V696.951Z" stroke="#8E98A8" stroke-opacity="0.7" stroke-width="0.258333"/>
<path d="M548.638 696.951H509.45V735.704H548.638V696.951Z" stroke="#8E98A8" stroke-opacity="0.7" stroke-width="0.258333"/>
<path d="M587.827 696.951H548.638V735.704H587.827V696.951Z" stroke="#8E98A8" stroke-opacity="0.7" stroke-width="0.258333"/>
<path d="M627.015 696.951H587.827V735.704H627.015V696.951Z" stroke="#8E98A8" stroke-opacity="0.7" stroke-width="0.258333"/>
<path d="M666.203 696.951H627.015V735.704H666.203V696.951Z" stroke="#8E98A8" stroke-opacity="0.7" stroke-width="0.258333"/>
<path d="M705.392 696.951H666.204V735.704H705.392V696.951Z" stroke="#8E98A8" stroke-opacity="0.7" stroke-width="0.258333"/>
<path d="M744.581 696.951H705.392V735.704H744.581V696.951Z" stroke="#8E98A8" stroke-opacity="0.7" stroke-width="0.258333"/>
</g>
</mask>
<g mask="url(#mask0_1275_9)">
<rect x="-17" y="77" width="851" height="258" fill="url(#paint18_linear_1275_9)"/>
</g>
<defs>
<linearGradient id="paint0_linear_1275_9" x1="19.5942" y1="38.1499" x2="19.6333" y2="76.8999" gradientUnits="userSpaceOnUse">
<stop stop-color="white" stop-opacity="0"/>
<stop offset="1" stop-color="#08074E"/>
</linearGradient>
<linearGradient id="paint1_linear_1275_9" x1="97.9712" y1="38.1499" x2="97.9712" y2="76.9029" gradientUnits="userSpaceOnUse">
<stop stop-color="white" stop-opacity="0"/>
<stop offset="1" stop-color="#08074E"/>
</linearGradient>
<linearGradient id="paint2_linear_1275_9" x1="137.16" y1="38.1499" x2="137.16" y2="76.9029" gradientUnits="userSpaceOnUse">
<stop stop-color="white" stop-opacity="0"/>
<stop offset="0.551032" stop-color="#08074E"/>
</linearGradient>
<linearGradient id="paint3_linear_1275_9" x1="176.348" y1="38.1499" x2="176.348" y2="76.9029" gradientUnits="userSpaceOnUse">
<stop stop-color="white" stop-opacity="0"/>
<stop offset="1" stop-color="#08074E"/>
</linearGradient>
<linearGradient id="paint4_linear_1275_9" x1="215.537" y1="38.1499" x2="215.537" y2="76.9029" gradientUnits="userSpaceOnUse">
<stop stop-color="white" stop-opacity="0"/>
<stop offset="1" stop-color="#08074E"/>
</linearGradient>
<linearGradient id="paint5_linear_1275_9" x1="254.725" y1="38.1499" x2="254.725" y2="76.9029" gradientUnits="userSpaceOnUse">
<stop stop-color="white" stop-opacity="0"/>
<stop offset="1" stop-color="#08074E"/>
</linearGradient>
<linearGradient id="paint6_linear_1275_9" x1="293.914" y1="38.1499" x2="293.914" y2="76.9029" gradientUnits="userSpaceOnUse">
<stop stop-color="white" stop-opacity="0"/>
<stop offset="1" stop-color="#08074E"/>
</linearGradient>
<linearGradient id="paint7_linear_1275_9" x1="333.102" y1="38.1499" x2="333.102" y2="76.9029" gradientUnits="userSpaceOnUse">
<stop stop-color="white" stop-opacity="0"/>
<stop offset="1" stop-color="#08074E"/>
</linearGradient>
<linearGradient id="paint8_linear_1275_9" x1="372.29" y1="38.1499" x2="372.29" y2="76.9029" gradientUnits="userSpaceOnUse">
<stop stop-color="white" stop-opacity="0"/>
<stop offset="1" stop-color="#08074E"/>
</linearGradient>
<linearGradient id="paint9_linear_1275_9" x1="411.479" y1="38.1499" x2="411.479" y2="76.9029" gradientUnits="userSpaceOnUse">
<stop stop-color="white" stop-opacity="0"/>
<stop offset="1" stop-color="#08074E"/>
</linearGradient>
<linearGradient id="paint10_linear_1275_9" x1="450.667" y1="38.1499" x2="450.667" y2="76.9029" gradientUnits="userSpaceOnUse">
<stop stop-color="white" stop-opacity="0"/>
<stop offset="1" stop-color="#08074E"/>
</linearGradient>
<linearGradient id="paint11_linear_1275_9" x1="489.855" y1="38.1499" x2="489.855" y2="76.9029" gradientUnits="userSpaceOnUse">
<stop stop-color="white" stop-opacity="0"/>
<stop offset="1" stop-color="#08074E"/>
</linearGradient>
<linearGradient id="paint12_linear_1275_9" x1="529.044" y1="38.1499" x2="529.044" y2="76.9029" gradientUnits="userSpaceOnUse">
<stop stop-color="white" stop-opacity="0"/>
<stop offset="1" stop-color="#08074E"/>
</linearGradient>
<linearGradient id="paint13_linear_1275_9" x1="568.232" y1="38.1499" x2="568.232" y2="76.9029" gradientUnits="userSpaceOnUse">
<stop stop-color="white" stop-opacity="0"/>
<stop offset="1" stop-color="#08074E"/>
</linearGradient>
<linearGradient id="paint14_linear_1275_9" x1="607.421" y1="38.1499" x2="607.421" y2="76.9029" gradientUnits="userSpaceOnUse">
<stop stop-color="white" stop-opacity="0"/>
<stop offset="1" stop-color="#08074E"/>
</linearGradient>
<linearGradient id="paint15_linear_1275_9" x1="646.609" y1="38.1499" x2="646.609" y2="76.9029" gradientUnits="userSpaceOnUse">
<stop stop-color="white" stop-opacity="0"/>
<stop offset="1" stop-color="#08074E"/>
</linearGradient>
<linearGradient id="paint16_linear_1275_9" x1="685.798" y1="38.1499" x2="685.798" y2="76.9029" gradientUnits="userSpaceOnUse">
<stop stop-color="white" stop-opacity="0"/>
<stop offset="1" stop-color="#08074E"/>
</linearGradient>
<linearGradient id="paint17_linear_1275_9" x1="724.986" y1="38.1499" x2="724.986" y2="76.9029" gradientUnits="userSpaceOnUse">
<stop stop-color="white" stop-opacity="0"/>
<stop offset="1" stop-color="#08074E"/>
</linearGradient>
<linearGradient id="paint18_linear_1275_9" x1="-17" y1="206" x2="881.817" y2="206" gradientUnits="userSpaceOnUse">
<stop offset="0.0615314" stop-color="#F3F5FA" stop-opacity="0"/>
<stop offset="0.491141" stop-color="#08074E"/>
<stop offset="0.982693" stop-color="#F3F5FA" stop-opacity="0"/>
</linearGradient>
<clipPath id="clip0_1275_9">
<rect width="744" height="722.733" fill="white"/>
</clipPath>
</defs>
</svg>
