<svg width="1440" height="1325" viewBox="0 0 1440 1325" fill="none" xmlns="http://www.w3.org/2000/svg">
<g clip-path="url(#clip0_810_2410)">
<path d="M75.8486 0H0V75.0059H75.8486V0Z" stroke="url(#paint0_linear_810_2410)" stroke-opacity="0.07" stroke-width="0.5"/>
<path d="M227.546 0H151.697V75.0059H227.546V0Z" stroke="url(#paint1_linear_810_2410)" stroke-opacity="0.07" stroke-width="0.5"/>
<path d="M303.395 0H227.547V75.0059H303.395V0Z" stroke="url(#paint2_linear_810_2410)" stroke-opacity="0.07" stroke-width="0.5"/>
<path d="M379.243 0H303.395V75.0059H379.243V0Z" stroke="url(#paint3_linear_810_2410)" stroke-opacity="0.07" stroke-width="0.5"/>
<path d="M455.093 0H379.244V75.0059H455.093V0Z" stroke="url(#paint4_linear_810_2410)" stroke-opacity="0.07" stroke-width="0.5"/>
<path d="M530.94 0H455.092V75.0059H530.94V0Z" stroke="url(#paint5_linear_810_2410)" stroke-opacity="0.07" stroke-width="0.5"/>
<path d="M606.79 0H530.941V75.0059H606.79V0Z" stroke="url(#paint6_linear_810_2410)" stroke-opacity="0.07" stroke-width="0.5"/>
<path d="M682.638 0H606.789V75.0059H682.638V0Z" stroke="url(#paint7_linear_810_2410)" stroke-opacity="0.07" stroke-width="0.5"/>
<path d="M758.485 0H682.637V75.0059H758.485V0Z" stroke="url(#paint8_linear_810_2410)" stroke-opacity="0.07" stroke-width="0.5"/>
<path d="M834.335 0H758.486V75.0059H834.335V0Z" stroke="url(#paint9_linear_810_2410)" stroke-opacity="0.07" stroke-width="0.5"/>
<path d="M910.183 0H834.334V75.0059H910.183V0Z" stroke="url(#paint10_linear_810_2410)" stroke-opacity="0.07" stroke-width="0.5"/>
<path d="M986.032 0H910.184V75.0059H986.032V0Z" stroke="url(#paint11_linear_810_2410)" stroke-opacity="0.07" stroke-width="0.5"/>
<path d="M1061.88 0H986.031V75.0059H1061.88V0Z" stroke="url(#paint12_linear_810_2410)" stroke-opacity="0.07" stroke-width="0.5"/>
<path d="M1137.73 0H1061.88V75.0059H1137.73V0Z" stroke="url(#paint13_linear_810_2410)" stroke-opacity="0.07" stroke-width="0.5"/>
<path d="M1213.58 0H1137.73V75.0059H1213.58V0Z" stroke="url(#paint14_linear_810_2410)" stroke-opacity="0.07" stroke-width="0.5"/>
<path d="M1289.43 0H1213.58V75.0059H1289.43V0Z" stroke="url(#paint15_linear_810_2410)" stroke-opacity="0.07" stroke-width="0.5"/>
<path opacity="0.33" d="M1365.27 0H1289.43V75.0059H1365.27V0Z" stroke="url(#paint16_linear_810_2410)" stroke-opacity="0.07" stroke-width="0.5"/>
<path d="M1441.12 0H1365.28V75.0059H1441.12V0Z" stroke="url(#paint17_linear_810_2410)" stroke-opacity="0.07" stroke-width="0.5"/>
<path d="M75.8486 75.0059H0V150.012H75.8486V75.0059Z" stroke="white" stroke-opacity="0.07" stroke-width="0.5"/>
<path d="M151.696 75.0059H75.8477V150.012H151.696V75.0059Z" stroke="white" stroke-opacity="0.07" stroke-width="0.5"/>
<path d="M227.546 75.0059H151.697V150.012H227.546V75.0059Z" stroke="white" stroke-opacity="0.07" stroke-width="0.5"/>
<path d="M303.395 75.0059H227.547V150.012H303.395V75.0059Z" stroke="white" stroke-opacity="0.07" stroke-width="0.5"/>
<path d="M379.243 75.0059H303.395V150.012H379.243V75.0059Z" stroke="white" stroke-opacity="0.07" stroke-width="0.5"/>
<path d="M455.093 75.0059H379.244V150.012H455.093V75.0059Z" stroke="white" stroke-opacity="0.07" stroke-width="0.5"/>
<path d="M530.94 75.0059H455.092V150.012H530.94V75.0059Z" stroke="white" stroke-opacity="0.07" stroke-width="0.5"/>
<path d="M606.79 75.0059H530.941V150.012H606.79V75.0059Z" stroke="white" stroke-opacity="0.07" stroke-width="0.5"/>
<path d="M682.638 75.0059H606.789V150.012H682.638V75.0059Z" stroke="white" stroke-opacity="0.07" stroke-width="0.5"/>
<path d="M758.485 75.0059H682.637V150.012H758.485V75.0059Z" stroke="white" stroke-opacity="0.07" stroke-width="0.5"/>
<path d="M834.335 75.0059H758.486V150.012H834.335V75.0059Z" stroke="white" stroke-opacity="0.07" stroke-width="0.5"/>
<path d="M910.183 75.0059H834.334V150.012H910.183V75.0059Z" stroke="white" stroke-opacity="0.07" stroke-width="0.5"/>
<path d="M986.032 75.0059H910.184V150.012H986.032V75.0059Z" stroke="white" stroke-opacity="0.07" stroke-width="0.5"/>
<path d="M1061.88 75.0059H986.031V150.012H1061.88V75.0059Z" stroke="white" stroke-opacity="0.07" stroke-width="0.5"/>
<path d="M1137.73 75.0059H1061.88V150.012H1137.73V75.0059Z" stroke="white" stroke-opacity="0.07" stroke-width="0.5"/>
<path d="M1213.58 75.0059H1137.73V150.012H1213.58V75.0059Z" stroke="white" stroke-opacity="0.07" stroke-width="0.5"/>
<path d="M1289.43 75.0059H1213.58V150.012H1289.43V75.0059Z" stroke="white" stroke-opacity="0.07" stroke-width="0.5"/>
<path d="M1365.27 75.0059H1289.43V150.012H1365.27V75.0059Z" stroke="white" stroke-opacity="0.07" stroke-width="0.5"/>
<path d="M1441.12 75.0059H1365.28V150.012H1441.12V75.0059Z" stroke="white" stroke-opacity="0.07" stroke-width="0.5"/>
<path d="M75.8486 150.012H0V225.018H75.8486V150.012Z" stroke="white" stroke-opacity="0.07" stroke-width="0.5"/>
<path d="M151.696 150.012H75.8477V225.018H151.696V150.012Z" stroke="white" stroke-opacity="0.07" stroke-width="0.5"/>
<path d="M227.546 150.012H151.697V225.018H227.546V150.012Z" stroke="white" stroke-opacity="0.07" stroke-width="0.5"/>
<path d="M303.395 150.012H227.547V225.018H303.395V150.012Z" stroke="white" stroke-opacity="0.07" stroke-width="0.5"/>
<path d="M379.243 150.012H303.395V225.018H379.243V150.012Z" stroke="white" stroke-opacity="0.07" stroke-width="0.5"/>
<path d="M455.093 150.012H379.244V225.018H455.093V150.012Z" stroke="white" stroke-opacity="0.07" stroke-width="0.5"/>
<path d="M530.94 150.012H455.092V225.018H530.94V150.012Z" stroke="white" stroke-opacity="0.07" stroke-width="0.5"/>
<path d="M606.79 150.012H530.941V225.018H606.79V150.012Z" stroke="white" stroke-opacity="0.07" stroke-width="0.5"/>
<path d="M682.638 150.012H606.789V225.018H682.638V150.012Z" stroke="white" stroke-opacity="0.07" stroke-width="0.5"/>
<path d="M758.485 150.012H682.637V225.018H758.485V150.012Z" stroke="white" stroke-opacity="0.07" stroke-width="0.5"/>
<path d="M834.335 150.012H758.486V225.018H834.335V150.012Z" stroke="white" stroke-opacity="0.07" stroke-width="0.5"/>
<path d="M910.183 150.012H834.334V225.018H910.183V150.012Z" stroke="white" stroke-opacity="0.07" stroke-width="0.5"/>
<path d="M986.032 150.012H910.184V225.018H986.032V150.012Z" stroke="white" stroke-opacity="0.07" stroke-width="0.5"/>
<path d="M1061.88 150.012H986.031V225.018H1061.88V150.012Z" stroke="white" stroke-opacity="0.07" stroke-width="0.5"/>
<path d="M1137.73 150.012H1061.88V225.018H1137.73V150.012Z" stroke="white" stroke-opacity="0.07" stroke-width="0.5"/>
<path d="M1213.58 150.012H1137.73V225.018H1213.58V150.012Z" stroke="white" stroke-opacity="0.07" stroke-width="0.5"/>
<path d="M1289.43 150.012H1213.58V225.018H1289.43V150.012Z" stroke="white" stroke-opacity="0.07" stroke-width="0.5"/>
<path d="M1365.27 150.012H1289.43V225.018H1365.27V150.012Z" stroke="white" stroke-opacity="0.07" stroke-width="0.5"/>
<path d="M1441.12 150.012H1365.28V225.018H1441.12V150.012Z" stroke="white" stroke-opacity="0.07" stroke-width="0.5"/>
<path d="M75.8486 225.018H0V300.023H75.8486V225.018Z" stroke="white" stroke-opacity="0.07" stroke-width="0.5"/>
<path d="M151.696 225.018H75.8477V300.023H151.696V225.018Z" stroke="white" stroke-opacity="0.07" stroke-width="0.5"/>
<path d="M227.546 225.018H151.697V300.023H227.546V225.018Z" stroke="white" stroke-opacity="0.07" stroke-width="0.5"/>
<path d="M303.395 225.018H227.547V300.023H303.395V225.018Z" stroke="white" stroke-opacity="0.07" stroke-width="0.5"/>
<path d="M379.243 225.018H303.395V300.023H379.243V225.018Z" stroke="white" stroke-opacity="0.07" stroke-width="0.5"/>
<path d="M455.093 225.018H379.244V300.023H455.093V225.018Z" stroke="white" stroke-opacity="0.07" stroke-width="0.5"/>
<path d="M530.94 225.018H455.092V300.023H530.94V225.018Z" stroke="white" stroke-opacity="0.07" stroke-width="0.5"/>
<path d="M606.79 225.018H530.941V300.023H606.79V225.018Z" stroke="white" stroke-opacity="0.07" stroke-width="0.5"/>
<path d="M682.638 225.018H606.789V300.023H682.638V225.018Z" stroke="white" stroke-opacity="0.07" stroke-width="0.5"/>
<path d="M758.485 225.018H682.637V300.023H758.485V225.018Z" stroke="white" stroke-opacity="0.07" stroke-width="0.5"/>
<path d="M834.335 225.018H758.486V300.023H834.335V225.018Z" stroke="white" stroke-opacity="0.07" stroke-width="0.5"/>
<path d="M910.183 225.018H834.334V300.023H910.183V225.018Z" stroke="white" stroke-opacity="0.07" stroke-width="0.5"/>
<path d="M986.032 225.018H910.184V300.023H986.032V225.018Z" stroke="white" stroke-opacity="0.07" stroke-width="0.5"/>
<path d="M1061.88 225.018H986.031V300.023H1061.88V225.018Z" stroke="white" stroke-opacity="0.07" stroke-width="0.5"/>
<path d="M1137.73 225.018H1061.88V300.023H1137.73V225.018Z" stroke="white" stroke-opacity="0.07" stroke-width="0.5"/>
<path d="M1213.58 225.018H1137.73V300.023H1213.58V225.018Z" stroke="white" stroke-opacity="0.07" stroke-width="0.5"/>
<path d="M1289.43 225.018H1213.58V300.023H1289.43V225.018Z" stroke="white" stroke-opacity="0.07" stroke-width="0.5"/>
<path d="M1365.27 225.018H1289.43V300.023H1365.27V225.018Z" stroke="white" stroke-opacity="0.07" stroke-width="0.5"/>
<path d="M1441.12 225.018H1365.28V300.023H1441.12V225.018Z" stroke="white" stroke-opacity="0.07" stroke-width="0.5"/>
<path d="M75.8486 300.023H0V375.029H75.8486V300.023Z" stroke="white" stroke-opacity="0.07" stroke-width="0.5"/>
<path d="M151.696 300.023H75.8477V375.029H151.696V300.023Z" stroke="white" stroke-opacity="0.07" stroke-width="0.5"/>
<path d="M227.546 300.023H151.697V375.029H227.546V300.023Z" stroke="white" stroke-opacity="0.07" stroke-width="0.5"/>
<path d="M303.395 300.023H227.547V375.029H303.395V300.023Z" stroke="white" stroke-opacity="0.07" stroke-width="0.5"/>
<path d="M379.243 300.023H303.395V375.029H379.243V300.023Z" stroke="white" stroke-opacity="0.07" stroke-width="0.5"/>
<path d="M455.093 300.023H379.244V375.029H455.093V300.023Z" stroke="white" stroke-opacity="0.07" stroke-width="0.5"/>
<path d="M530.94 300.023H455.092V375.029H530.94V300.023Z" stroke="white" stroke-opacity="0.07" stroke-width="0.5"/>
<path d="M606.79 300.023H530.941V375.029H606.79V300.023Z" stroke="white" stroke-opacity="0.07" stroke-width="0.5"/>
<path d="M682.638 300.023H606.789V375.029H682.638V300.023Z" stroke="white" stroke-opacity="0.07" stroke-width="0.5"/>
<path d="M758.485 300.023H682.637V375.029H758.485V300.023Z" stroke="white" stroke-opacity="0.07" stroke-width="0.5"/>
<path d="M834.335 300.023H758.486V375.029H834.335V300.023Z" stroke="white" stroke-opacity="0.07" stroke-width="0.5"/>
<path d="M910.183 300.023H834.334V375.029H910.183V300.023Z" stroke="white" stroke-opacity="0.07" stroke-width="0.5"/>
<path d="M986.032 300.023H910.184V375.029H986.032V300.023Z" stroke="white" stroke-opacity="0.07" stroke-width="0.5"/>
<path d="M1061.88 300.023H986.031V375.029H1061.88V300.023Z" stroke="white" stroke-opacity="0.07" stroke-width="0.5"/>
<path d="M1137.73 300.023H1061.88V375.029H1137.73V300.023Z" stroke="white" stroke-opacity="0.07" stroke-width="0.5"/>
<path d="M1213.58 300.023H1137.73V375.029H1213.58V300.023Z" stroke="white" stroke-opacity="0.07" stroke-width="0.5"/>
<path d="M1289.43 300.023H1213.58V375.029H1289.43V300.023Z" stroke="white" stroke-opacity="0.07" stroke-width="0.5"/>
<path d="M1365.27 300.023H1289.43V375.029H1365.27V300.023Z" stroke="white" stroke-opacity="0.07" stroke-width="0.5"/>
<path d="M1441.12 300.023H1365.28V375.029H1441.12V300.023Z" stroke="white" stroke-opacity="0.07" stroke-width="0.5"/>
<path d="M75.8486 375.029H0V450.035H75.8486V375.029Z" stroke="white" stroke-opacity="0.07" stroke-width="0.5"/>
<path d="M151.696 375.029H75.8477V450.035H151.696V375.029Z" stroke="white" stroke-opacity="0.07" stroke-width="0.5"/>
<path d="M227.546 375.029H151.697V450.035H227.546V375.029Z" stroke="white" stroke-opacity="0.07" stroke-width="0.5"/>
<path d="M303.395 375.029H227.547V450.035H303.395V375.029Z" stroke="white" stroke-opacity="0.07" stroke-width="0.5"/>
<path d="M379.243 375.029H303.395V450.035H379.243V375.029Z" stroke="white" stroke-opacity="0.07" stroke-width="0.5"/>
<path d="M455.093 375.029H379.244V450.035H455.093V375.029Z" stroke="white" stroke-opacity="0.07" stroke-width="0.5"/>
<path d="M530.94 375.029H455.092V450.035H530.94V375.029Z" stroke="white" stroke-opacity="0.07" stroke-width="0.5"/>
<path d="M606.79 375.029H530.941V450.035H606.79V375.029Z" stroke="white" stroke-opacity="0.07" stroke-width="0.5"/>
<path d="M682.638 375.029H606.789V450.035H682.638V375.029Z" stroke="white" stroke-opacity="0.07" stroke-width="0.5"/>
<path d="M758.485 375.029H682.637V450.035H758.485V375.029Z" stroke="white" stroke-opacity="0.07" stroke-width="0.5"/>
<path d="M834.335 375.029H758.486V450.035H834.335V375.029Z" stroke="white" stroke-opacity="0.07" stroke-width="0.5"/>
<path d="M910.183 375.029H834.334V450.035H910.183V375.029Z" stroke="white" stroke-opacity="0.07" stroke-width="0.5"/>
<path d="M986.032 375.029H910.184V450.035H986.032V375.029Z" stroke="white" stroke-opacity="0.07" stroke-width="0.5"/>
<path d="M1061.88 375.029H986.031V450.035H1061.88V375.029Z" stroke="white" stroke-opacity="0.07" stroke-width="0.5"/>
<path d="M1137.73 375.029H1061.88V450.035H1137.73V375.029Z" stroke="white" stroke-opacity="0.07" stroke-width="0.5"/>
<path d="M1213.58 375.029H1137.73V450.035H1213.58V375.029Z" stroke="white" stroke-opacity="0.07" stroke-width="0.5"/>
<path d="M1289.43 375.029H1213.58V450.035H1289.43V375.029Z" stroke="white" stroke-opacity="0.07" stroke-width="0.5"/>
<path d="M1365.27 375.029H1289.43V450.035H1365.27V375.029Z" stroke="white" stroke-opacity="0.07" stroke-width="0.5"/>
<path d="M1441.12 375.029H1365.28V450.035H1441.12V375.029Z" stroke="white" stroke-opacity="0.07" stroke-width="0.5"/>
<path d="M75.8486 450.035H0V525.041H75.8486V450.035Z" stroke="white" stroke-opacity="0.07" stroke-width="0.5"/>
<path d="M151.696 450.035H75.8477V525.041H151.696V450.035Z" stroke="white" stroke-opacity="0.07" stroke-width="0.5"/>
<path d="M227.546 450.035H151.697V525.041H227.546V450.035Z" stroke="white" stroke-opacity="0.07" stroke-width="0.5"/>
<path d="M303.395 450.035H227.547V525.041H303.395V450.035Z" stroke="white" stroke-opacity="0.07" stroke-width="0.5"/>
<path d="M379.243 450.035H303.395V525.041H379.243V450.035Z" stroke="white" stroke-opacity="0.07" stroke-width="0.5"/>
<path d="M455.093 450.035H379.244V525.041H455.093V450.035Z" stroke="white" stroke-opacity="0.07" stroke-width="0.5"/>
<path d="M530.94 450.035H455.092V525.041H530.94V450.035Z" stroke="white" stroke-opacity="0.07" stroke-width="0.5"/>
<path d="M606.79 450.035H530.941V525.041H606.79V450.035Z" stroke="white" stroke-opacity="0.07" stroke-width="0.5"/>
<path d="M682.638 450.035H606.789V525.041H682.638V450.035Z" stroke="white" stroke-opacity="0.07" stroke-width="0.5"/>
<path d="M758.485 450.035H682.637V525.041H758.485V450.035Z" stroke="white" stroke-opacity="0.07" stroke-width="0.5"/>
<path d="M834.335 450.035H758.486V525.041H834.335V450.035Z" stroke="white" stroke-opacity="0.07" stroke-width="0.5"/>
<path d="M910.183 450.035H834.334V525.041H910.183V450.035Z" stroke="white" stroke-opacity="0.07" stroke-width="0.5"/>
<path d="M986.032 450.035H910.184V525.041H986.032V450.035Z" stroke="white" stroke-opacity="0.07" stroke-width="0.5"/>
<path d="M1061.88 450.035H986.031V525.041H1061.88V450.035Z" stroke="white" stroke-opacity="0.07" stroke-width="0.5"/>
<path d="M1137.73 450.035H1061.88V525.041H1137.73V450.035Z" stroke="white" stroke-opacity="0.07" stroke-width="0.5"/>
<path d="M1213.58 450.035H1137.73V525.041H1213.58V450.035Z" stroke="white" stroke-opacity="0.07" stroke-width="0.5"/>
<path d="M1289.43 450.035H1213.58V525.041H1289.43V450.035Z" stroke="white" stroke-opacity="0.07" stroke-width="0.5"/>
<path d="M1365.27 450.035H1289.43V525.041H1365.27V450.035Z" stroke="white" stroke-opacity="0.07" stroke-width="0.5"/>
<path d="M1441.12 450.035H1365.28V525.041H1441.12V450.035Z" stroke="white" stroke-opacity="0.07" stroke-width="0.5"/>
<path d="M75.8486 525.041H0V600.047H75.8486V525.041Z" stroke="white" stroke-opacity="0.07" stroke-width="0.5"/>
<path d="M151.696 525.041H75.8477V600.047H151.696V525.041Z" stroke="white" stroke-opacity="0.07" stroke-width="0.5"/>
<path d="M227.546 525.041H151.697V600.047H227.546V525.041Z" stroke="white" stroke-opacity="0.07" stroke-width="0.5"/>
<path d="M303.395 525.041H227.547V600.047H303.395V525.041Z" stroke="white" stroke-opacity="0.07" stroke-width="0.5"/>
<path d="M379.243 525.041H303.395V600.047H379.243V525.041Z" stroke="white" stroke-opacity="0.07" stroke-width="0.5"/>
<path d="M455.093 525.041H379.244V600.047H455.093V525.041Z" stroke="white" stroke-opacity="0.07" stroke-width="0.5"/>
<path d="M530.94 525.041H455.092V600.047H530.94V525.041Z" stroke="white" stroke-opacity="0.07" stroke-width="0.5"/>
<path d="M606.79 525.041H530.941V600.047H606.79V525.041Z" stroke="white" stroke-opacity="0.07" stroke-width="0.5"/>
<path d="M682.638 525.041H606.789V600.047H682.638V525.041Z" stroke="white" stroke-opacity="0.07" stroke-width="0.5"/>
<path d="M758.485 525.041H682.637V600.047H758.485V525.041Z" stroke="white" stroke-opacity="0.07" stroke-width="0.5"/>
<path d="M834.335 525.041H758.486V600.047H834.335V525.041Z" stroke="white" stroke-opacity="0.07" stroke-width="0.5"/>
<path d="M910.183 525.041H834.334V600.047H910.183V525.041Z" stroke="white" stroke-opacity="0.07" stroke-width="0.5"/>
<path d="M986.032 525.041H910.184V600.047H986.032V525.041Z" stroke="white" stroke-opacity="0.07" stroke-width="0.5"/>
<path d="M1061.88 525.041H986.031V600.047H1061.88V525.041Z" stroke="white" stroke-opacity="0.07" stroke-width="0.5"/>
<path d="M1137.73 525.041H1061.88V600.047H1137.73V525.041Z" stroke="white" stroke-opacity="0.07" stroke-width="0.5"/>
<path d="M1213.58 525.041H1137.73V600.047H1213.58V525.041Z" stroke="white" stroke-opacity="0.07" stroke-width="0.5"/>
<path d="M1289.43 525.041H1213.58V600.047H1289.43V525.041Z" stroke="white" stroke-opacity="0.07" stroke-width="0.5"/>
<path d="M1365.27 525.041H1289.43V600.047H1365.27V525.041Z" stroke="white" stroke-opacity="0.07" stroke-width="0.5"/>
<path d="M1441.12 525.041H1365.28V600.047H1441.12V525.041Z" stroke="white" stroke-opacity="0.07" stroke-width="0.5"/>
<path d="M75.8486 600.047H0V675.053H75.8486V600.047Z" stroke="white" stroke-opacity="0.07" stroke-width="0.5"/>
<path d="M151.696 600.047H75.8477V675.053H151.696V600.047Z" stroke="white" stroke-opacity="0.07" stroke-width="0.5"/>
<path d="M227.546 600.047H151.697V675.053H227.546V600.047Z" stroke="white" stroke-opacity="0.07" stroke-width="0.5"/>
<path d="M303.395 600.047H227.547V675.053H303.395V600.047Z" stroke="white" stroke-opacity="0.07" stroke-width="0.5"/>
<path d="M379.243 600.047H303.395V675.053H379.243V600.047Z" stroke="white" stroke-opacity="0.07" stroke-width="0.5"/>
<path d="M455.093 600.047H379.244V675.053H455.093V600.047Z" stroke="white" stroke-opacity="0.07" stroke-width="0.5"/>
<path d="M530.94 600.047H455.092V675.053H530.94V600.047Z" stroke="white" stroke-opacity="0.07" stroke-width="0.5"/>
<path d="M606.79 600.047H530.941V675.053H606.79V600.047Z" stroke="white" stroke-opacity="0.07" stroke-width="0.5"/>
<path d="M682.638 600.047H606.789V675.053H682.638V600.047Z" stroke="white" stroke-opacity="0.07" stroke-width="0.5"/>
<path d="M758.485 600.047H682.637V675.053H758.485V600.047Z" stroke="white" stroke-opacity="0.07" stroke-width="0.5"/>
<path d="M834.335 600.047H758.486V675.053H834.335V600.047Z" stroke="white" stroke-opacity="0.07" stroke-width="0.5"/>
<path d="M910.183 600.047H834.334V675.053H910.183V600.047Z" stroke="white" stroke-opacity="0.07" stroke-width="0.5"/>
<path d="M986.032 600.047H910.184V675.053H986.032V600.047Z" stroke="white" stroke-opacity="0.07" stroke-width="0.5"/>
<path d="M1061.88 600.047H986.031V675.053H1061.88V600.047Z" stroke="white" stroke-opacity="0.07" stroke-width="0.5"/>
<path d="M1137.73 600.047H1061.88V675.053H1137.73V600.047Z" stroke="white" stroke-opacity="0.07" stroke-width="0.5"/>
<path d="M1213.58 600.047H1137.73V675.053H1213.58V600.047Z" stroke="white" stroke-opacity="0.07" stroke-width="0.5"/>
<path d="M1289.43 600.047H1213.58V675.053H1289.43V600.047Z" stroke="white" stroke-opacity="0.07" stroke-width="0.5"/>
<path d="M1365.27 600.047H1289.43V675.053H1365.27V600.047Z" stroke="white" stroke-opacity="0.07" stroke-width="0.5"/>
<path d="M1441.12 600.047H1365.28V675.053H1441.12V600.047Z" stroke="white" stroke-opacity="0.07" stroke-width="0.5"/>
<path d="M75.8486 675.053H0V750.059H75.8486V675.053Z" stroke="white" stroke-opacity="0.07" stroke-width="0.5"/>
<path d="M151.696 675.053H75.8477V750.059H151.696V675.053Z" stroke="white" stroke-opacity="0.07" stroke-width="0.5"/>
<path d="M227.546 675.053H151.697V750.059H227.546V675.053Z" stroke="white" stroke-opacity="0.07" stroke-width="0.5"/>
<path d="M303.395 675.053H227.547V750.059H303.395V675.053Z" stroke="white" stroke-opacity="0.07" stroke-width="0.5"/>
<path d="M379.243 675.053H303.395V750.059H379.243V675.053Z" stroke="white" stroke-opacity="0.07" stroke-width="0.5"/>
<path d="M455.093 675.053H379.244V750.059H455.093V675.053Z" stroke="white" stroke-opacity="0.07" stroke-width="0.5"/>
<path d="M530.94 675.053H455.092V750.059H530.94V675.053Z" stroke="white" stroke-opacity="0.07" stroke-width="0.5"/>
<path d="M606.79 675.053H530.941V750.059H606.79V675.053Z" stroke="white" stroke-opacity="0.07" stroke-width="0.5"/>
<path d="M682.638 675.053H606.789V750.059H682.638V675.053Z" stroke="white" stroke-opacity="0.07" stroke-width="0.5"/>
<path d="M758.485 675.053H682.637V750.059H758.485V675.053Z" stroke="white" stroke-opacity="0.07" stroke-width="0.5"/>
<path d="M834.335 675.053H758.486V750.059H834.335V675.053Z" stroke="white" stroke-opacity="0.07" stroke-width="0.5"/>
<path d="M910.183 675.053H834.334V750.059H910.183V675.053Z" stroke="white" stroke-opacity="0.07" stroke-width="0.5"/>
<path d="M986.032 675.053H910.184V750.059H986.032V675.053Z" stroke="white" stroke-opacity="0.07" stroke-width="0.5"/>
<path d="M1061.88 675.053H986.031V750.059H1061.88V675.053Z" stroke="white" stroke-opacity="0.07" stroke-width="0.5"/>
<path d="M1137.73 675.053H1061.88V750.059H1137.73V675.053Z" stroke="white" stroke-opacity="0.07" stroke-width="0.5"/>
<path d="M1213.58 675.053H1137.73V750.059H1213.58V675.053Z" stroke="white" stroke-opacity="0.07" stroke-width="0.5"/>
<path d="M1289.43 675.053H1213.58V750.059H1289.43V675.053Z" stroke="white" stroke-opacity="0.07" stroke-width="0.5"/>
<path d="M1365.27 675.053H1289.43V750.059H1365.27V675.053Z" stroke="white" stroke-opacity="0.07" stroke-width="0.5"/>
<path d="M1441.12 675.053H1365.28V750.059H1441.12V675.053Z" stroke="white" stroke-opacity="0.07" stroke-width="0.5"/>
<path d="M75.8486 750.059H0V825.064H75.8486V750.059Z" stroke="white" stroke-opacity="0.07" stroke-width="0.5"/>
<path d="M151.696 750.059H75.8477V825.064H151.696V750.059Z" stroke="white" stroke-opacity="0.07" stroke-width="0.5"/>
<path d="M227.546 750.059H151.697V825.064H227.546V750.059Z" stroke="white" stroke-opacity="0.07" stroke-width="0.5"/>
<path d="M303.395 750.059H227.547V825.064H303.395V750.059Z" stroke="white" stroke-opacity="0.07" stroke-width="0.5"/>
<path d="M379.243 750.059H303.395V825.064H379.243V750.059Z" stroke="white" stroke-opacity="0.07" stroke-width="0.5"/>
<path d="M455.093 750.059H379.244V825.064H455.093V750.059Z" stroke="white" stroke-opacity="0.07" stroke-width="0.5"/>
<path d="M530.94 750.059H455.092V825.064H530.94V750.059Z" stroke="white" stroke-opacity="0.07" stroke-width="0.5"/>
<path d="M606.79 750.059H530.941V825.064H606.79V750.059Z" stroke="white" stroke-opacity="0.07" stroke-width="0.5"/>
<path d="M682.638 750.059H606.789V825.064H682.638V750.059Z" stroke="white" stroke-opacity="0.07" stroke-width="0.5"/>
<path d="M758.485 750.059H682.637V825.064H758.485V750.059Z" stroke="white" stroke-opacity="0.07" stroke-width="0.5"/>
<path d="M834.335 750.059H758.486V825.064H834.335V750.059Z" stroke="white" stroke-opacity="0.07" stroke-width="0.5"/>
<path d="M910.183 750.059H834.334V825.064H910.183V750.059Z" stroke="white" stroke-opacity="0.07" stroke-width="0.5"/>
<path d="M986.032 750.059H910.184V825.064H986.032V750.059Z" stroke="white" stroke-opacity="0.07" stroke-width="0.5"/>
<path d="M1061.88 750.059H986.031V825.064H1061.88V750.059Z" stroke="white" stroke-opacity="0.07" stroke-width="0.5"/>
<path d="M1137.73 750.059H1061.88V825.064H1137.73V750.059Z" stroke="white" stroke-opacity="0.07" stroke-width="0.5"/>
<path d="M1213.58 750.059H1137.73V825.064H1213.58V750.059Z" stroke="white" stroke-opacity="0.07" stroke-width="0.5"/>
<path d="M1289.43 750.059H1213.58V825.064H1289.43V750.059Z" stroke="white" stroke-opacity="0.07" stroke-width="0.5"/>
<path d="M1365.27 750.059H1289.43V825.064H1365.27V750.059Z" stroke="white" stroke-opacity="0.07" stroke-width="0.5"/>
<path d="M1441.12 750.059H1365.28V825.064H1441.12V750.059Z" stroke="white" stroke-opacity="0.07" stroke-width="0.5"/>
<path d="M75.8486 825.064H0V900.07H75.8486V825.064Z" stroke="white" stroke-opacity="0.07" stroke-width="0.5"/>
<path d="M151.696 825.064H75.8477V900.07H151.696V825.064Z" stroke="white" stroke-opacity="0.07" stroke-width="0.5"/>
<path d="M227.546 825.064H151.697V900.07H227.546V825.064Z" stroke="white" stroke-opacity="0.07" stroke-width="0.5"/>
<path d="M303.395 825.064H227.547V900.07H303.395V825.064Z" stroke="white" stroke-opacity="0.07" stroke-width="0.5"/>
<path d="M379.243 825.064H303.395V900.07H379.243V825.064Z" stroke="white" stroke-opacity="0.07" stroke-width="0.5"/>
<path d="M455.093 825.064H379.244V900.07H455.093V825.064Z" stroke="white" stroke-opacity="0.07" stroke-width="0.5"/>
<path d="M530.94 825.064H455.092V900.07H530.94V825.064Z" stroke="white" stroke-opacity="0.07" stroke-width="0.5"/>
<path d="M606.79 825.064H530.941V900.07H606.79V825.064Z" stroke="white" stroke-opacity="0.07" stroke-width="0.5"/>
<path d="M682.638 825.064H606.789V900.07H682.638V825.064Z" stroke="white" stroke-opacity="0.07" stroke-width="0.5"/>
<path d="M758.485 825.064H682.637V900.07H758.485V825.064Z" stroke="white" stroke-opacity="0.07" stroke-width="0.5"/>
<path d="M834.335 825.064H758.486V900.07H834.335V825.064Z" stroke="white" stroke-opacity="0.07" stroke-width="0.5"/>
<path d="M910.183 825.064H834.334V900.07H910.183V825.064Z" stroke="white" stroke-opacity="0.07" stroke-width="0.5"/>
<path d="M986.032 825.064H910.184V900.07H986.032V825.064Z" stroke="white" stroke-opacity="0.07" stroke-width="0.5"/>
<path d="M1061.88 825.064H986.031V900.07H1061.88V825.064Z" stroke="white" stroke-opacity="0.07" stroke-width="0.5"/>
<path d="M1137.73 825.064H1061.88V900.07H1137.73V825.064Z" stroke="white" stroke-opacity="0.07" stroke-width="0.5"/>
<path d="M1213.58 825.064H1137.73V900.07H1213.58V825.064Z" stroke="white" stroke-opacity="0.07" stroke-width="0.5"/>
<path d="M1289.43 825.064H1213.58V900.07H1289.43V825.064Z" stroke="white" stroke-opacity="0.07" stroke-width="0.5"/>
<path d="M1365.27 825.064H1289.43V900.07H1365.27V825.064Z" stroke="white" stroke-opacity="0.07" stroke-width="0.5"/>
<path d="M1441.12 825.064H1365.28V900.07H1441.12V825.064Z" stroke="white" stroke-opacity="0.07" stroke-width="0.5"/>
<path d="M75.8486 900.07H0V975.076H75.8486V900.07Z" stroke="white" stroke-opacity="0.07" stroke-width="0.5"/>
<path d="M151.696 900.07H75.8477V975.076H151.696V900.07Z" stroke="white" stroke-opacity="0.07" stroke-width="0.5"/>
<path d="M227.546 900.07H151.697V975.076H227.546V900.07Z" stroke="white" stroke-opacity="0.07" stroke-width="0.5"/>
<path d="M303.395 900.07H227.547V975.076H303.395V900.07Z" stroke="white" stroke-opacity="0.07" stroke-width="0.5"/>
<path d="M379.243 900.07H303.395V975.076H379.243V900.07Z" stroke="white" stroke-opacity="0.07" stroke-width="0.5"/>
<path d="M455.093 900.07H379.244V975.076H455.093V900.07Z" stroke="white" stroke-opacity="0.07" stroke-width="0.5"/>
<path d="M530.94 900.07H455.092V975.076H530.94V900.07Z" stroke="white" stroke-opacity="0.07" stroke-width="0.5"/>
<path d="M606.79 900.07H530.941V975.076H606.79V900.07Z" stroke="white" stroke-opacity="0.07" stroke-width="0.5"/>
<path d="M682.638 900.07H606.789V975.076H682.638V900.07Z" stroke="white" stroke-opacity="0.07" stroke-width="0.5"/>
<path d="M758.485 900.07H682.637V975.076H758.485V900.07Z" stroke="white" stroke-opacity="0.07" stroke-width="0.5"/>
<path d="M834.335 900.07H758.486V975.076H834.335V900.07Z" stroke="white" stroke-opacity="0.07" stroke-width="0.5"/>
<path d="M910.183 900.07H834.334V975.076H910.183V900.07Z" stroke="white" stroke-opacity="0.07" stroke-width="0.5"/>
<path d="M986.032 900.07H910.184V975.076H986.032V900.07Z" stroke="white" stroke-opacity="0.07" stroke-width="0.5"/>
<path d="M1061.88 900.07H986.031V975.076H1061.88V900.07Z" stroke="white" stroke-opacity="0.07" stroke-width="0.5"/>
<path d="M1137.73 900.07H1061.88V975.076H1137.73V900.07Z" stroke="white" stroke-opacity="0.07" stroke-width="0.5"/>
<path d="M1213.58 900.07H1137.73V975.076H1213.58V900.07Z" stroke="white" stroke-opacity="0.07" stroke-width="0.5"/>
<path d="M1289.43 900.07H1213.58V975.076H1289.43V900.07Z" stroke="white" stroke-opacity="0.07" stroke-width="0.5"/>
<path d="M1365.27 900.07H1289.43V975.076H1365.27V900.07Z" stroke="white" stroke-opacity="0.07" stroke-width="0.5"/>
<path d="M1441.12 900.07H1365.28V975.076H1441.12V900.07Z" stroke="white" stroke-opacity="0.07" stroke-width="0.5"/>
<path d="M75.8486 975.076H0V1050.08H75.8486V975.076Z" stroke="white" stroke-opacity="0.07" stroke-width="0.5"/>
<path d="M151.696 975.076H75.8477V1050.08H151.696V975.076Z" stroke="white" stroke-opacity="0.07" stroke-width="0.5"/>
<path d="M227.546 975.076H151.697V1050.08H227.546V975.076Z" stroke="white" stroke-opacity="0.07" stroke-width="0.5"/>
<path d="M303.395 975.076H227.547V1050.08H303.395V975.076Z" stroke="white" stroke-opacity="0.07" stroke-width="0.5"/>
<path d="M379.243 975.076H303.395V1050.08H379.243V975.076Z" stroke="white" stroke-opacity="0.07" stroke-width="0.5"/>
<path d="M455.093 975.076H379.244V1050.08H455.093V975.076Z" stroke="white" stroke-opacity="0.07" stroke-width="0.5"/>
<path d="M530.94 975.076H455.092V1050.08H530.94V975.076Z" stroke="white" stroke-opacity="0.07" stroke-width="0.5"/>
<path d="M606.79 975.076H530.941V1050.08H606.79V975.076Z" stroke="white" stroke-opacity="0.07" stroke-width="0.5"/>
<path d="M682.638 975.076H606.789V1050.08H682.638V975.076Z" stroke="white" stroke-opacity="0.07" stroke-width="0.5"/>
<path d="M758.485 975.076H682.637V1050.08H758.485V975.076Z" stroke="white" stroke-opacity="0.07" stroke-width="0.5"/>
<path d="M834.335 975.076H758.486V1050.08H834.335V975.076Z" stroke="white" stroke-opacity="0.07" stroke-width="0.5"/>
<path d="M910.183 975.076H834.334V1050.08H910.183V975.076Z" stroke="white" stroke-opacity="0.07" stroke-width="0.5"/>
<path d="M986.032 975.076H910.184V1050.08H986.032V975.076Z" stroke="white" stroke-opacity="0.07" stroke-width="0.5"/>
<path d="M1061.88 975.076H986.031V1050.08H1061.88V975.076Z" stroke="white" stroke-opacity="0.07" stroke-width="0.5"/>
<path d="M1137.73 975.076H1061.88V1050.08H1137.73V975.076Z" stroke="white" stroke-opacity="0.07" stroke-width="0.5"/>
<path d="M1213.58 975.076H1137.73V1050.08H1213.58V975.076Z" stroke="white" stroke-opacity="0.07" stroke-width="0.5"/>
<path d="M1289.43 975.076H1213.58V1050.08H1289.43V975.076Z" stroke="white" stroke-opacity="0.07" stroke-width="0.5"/>
<path d="M1365.27 975.076H1289.43V1050.08H1365.27V975.076Z" stroke="white" stroke-opacity="0.07" stroke-width="0.5"/>
<path d="M1441.12 975.076H1365.28V1050.08H1441.12V975.076Z" stroke="white" stroke-opacity="0.07" stroke-width="0.5"/>
<path d="M75.8486 1050.08H0V1125.09H75.8486V1050.08Z" stroke="white" stroke-opacity="0.07" stroke-width="0.5"/>
<path d="M151.696 1050.08H75.8477V1125.09H151.696V1050.08Z" stroke="white" stroke-opacity="0.07" stroke-width="0.5"/>
<path d="M227.546 1050.08H151.697V1125.09H227.546V1050.08Z" stroke="white" stroke-opacity="0.07" stroke-width="0.5"/>
<path d="M303.395 1050.08H227.547V1125.09H303.395V1050.08Z" stroke="white" stroke-opacity="0.07" stroke-width="0.5"/>
<path d="M379.243 1050.08H303.395V1125.09H379.243V1050.08Z" stroke="white" stroke-opacity="0.07" stroke-width="0.5"/>
<path d="M455.093 1050.08H379.244V1125.09H455.093V1050.08Z" stroke="white" stroke-opacity="0.07" stroke-width="0.5"/>
<path d="M530.94 1050.08H455.092V1125.09H530.94V1050.08Z" stroke="white" stroke-opacity="0.07" stroke-width="0.5"/>
<path d="M606.79 1050.08H530.941V1125.09H606.79V1050.08Z" stroke="white" stroke-opacity="0.07" stroke-width="0.5"/>
<path d="M682.638 1050.08H606.789V1125.09H682.638V1050.08Z" stroke="white" stroke-opacity="0.07" stroke-width="0.5"/>
<path d="M758.485 1050.08H682.637V1125.09H758.485V1050.08Z" stroke="white" stroke-opacity="0.07" stroke-width="0.5"/>
<path d="M834.335 1050.08H758.486V1125.09H834.335V1050.08Z" stroke="white" stroke-opacity="0.07" stroke-width="0.5"/>
<path d="M910.183 1050.08H834.334V1125.09H910.183V1050.08Z" stroke="white" stroke-opacity="0.07" stroke-width="0.5"/>
<path d="M986.032 1050.08H910.184V1125.09H986.032V1050.08Z" stroke="white" stroke-opacity="0.07" stroke-width="0.5"/>
<path d="M1061.88 1050.08H986.031V1125.09H1061.88V1050.08Z" stroke="white" stroke-opacity="0.07" stroke-width="0.5"/>
<path d="M1137.73 1050.08H1061.88V1125.09H1137.73V1050.08Z" stroke="white" stroke-opacity="0.07" stroke-width="0.5"/>
<path d="M1213.58 1050.08H1137.73V1125.09H1213.58V1050.08Z" stroke="white" stroke-opacity="0.07" stroke-width="0.5"/>
<path d="M1289.43 1050.08H1213.58V1125.09H1289.43V1050.08Z" stroke="white" stroke-opacity="0.07" stroke-width="0.5"/>
<path d="M1365.27 1050.08H1289.43V1125.09H1365.27V1050.08Z" stroke="white" stroke-opacity="0.07" stroke-width="0.5"/>
<path d="M1441.12 1050.08H1365.28V1125.09H1441.12V1050.08Z" stroke="white" stroke-opacity="0.07" stroke-width="0.5"/>
<path d="M75.8486 1125.09H0V1200.09H75.8486V1125.09Z" stroke="white" stroke-opacity="0.07" stroke-width="0.5"/>
<path d="M151.696 1125.09H75.8477V1200.09H151.696V1125.09Z" stroke="white" stroke-opacity="0.07" stroke-width="0.5"/>
<path d="M227.546 1125.09H151.697V1200.09H227.546V1125.09Z" stroke="white" stroke-opacity="0.07" stroke-width="0.5"/>
<path d="M303.395 1125.09H227.547V1200.09H303.395V1125.09Z" stroke="white" stroke-opacity="0.07" stroke-width="0.5"/>
<path d="M379.243 1125.09H303.395V1200.09H379.243V1125.09Z" stroke="white" stroke-opacity="0.07" stroke-width="0.5"/>
<path d="M455.093 1125.09H379.244V1200.09H455.093V1125.09Z" stroke="white" stroke-opacity="0.07" stroke-width="0.5"/>
<path d="M530.94 1125.09H455.092V1200.09H530.94V1125.09Z" stroke="white" stroke-opacity="0.07" stroke-width="0.5"/>
<path d="M606.79 1125.09H530.941V1200.09H606.79V1125.09Z" stroke="white" stroke-opacity="0.07" stroke-width="0.5"/>
<path d="M682.638 1125.09H606.789V1200.09H682.638V1125.09Z" stroke="white" stroke-opacity="0.07" stroke-width="0.5"/>
<path d="M758.485 1125.09H682.637V1200.09H758.485V1125.09Z" stroke="white" stroke-opacity="0.07" stroke-width="0.5"/>
<path d="M834.335 1125.09H758.486V1200.09H834.335V1125.09Z" stroke="white" stroke-opacity="0.07" stroke-width="0.5"/>
<path d="M910.183 1125.09H834.334V1200.09H910.183V1125.09Z" stroke="white" stroke-opacity="0.07" stroke-width="0.5"/>
<path d="M986.032 1125.09H910.184V1200.09H986.032V1125.09Z" stroke="white" stroke-opacity="0.07" stroke-width="0.5"/>
<path d="M1061.88 1125.09H986.031V1200.09H1061.88V1125.09Z" stroke="white" stroke-opacity="0.07" stroke-width="0.5"/>
<path d="M1137.73 1125.09H1061.88V1200.09H1137.73V1125.09Z" stroke="white" stroke-opacity="0.07" stroke-width="0.5"/>
<path d="M1213.58 1125.09H1137.73V1200.09H1213.58V1125.09Z" stroke="white" stroke-opacity="0.07" stroke-width="0.5"/>
<path d="M1289.43 1125.09H1213.58V1200.09H1289.43V1125.09Z" stroke="white" stroke-opacity="0.07" stroke-width="0.5"/>
<path d="M1365.27 1125.09H1289.43V1200.09H1365.27V1125.09Z" stroke="white" stroke-opacity="0.07" stroke-width="0.5"/>
<path d="M1441.12 1125.09H1365.28V1200.09H1441.12V1125.09Z" stroke="white" stroke-opacity="0.07" stroke-width="0.5"/>
<path d="M75.8486 1200.09H0V1275.1H75.8486V1200.09Z" stroke="white" stroke-opacity="0.07" stroke-width="0.5"/>
<path d="M151.696 1200.09H75.8477V1275.1H151.696V1200.09Z" stroke="white" stroke-opacity="0.07" stroke-width="0.5"/>
<path d="M227.546 1200.09H151.697V1275.1H227.546V1200.09Z" stroke="white" stroke-opacity="0.07" stroke-width="0.5"/>
<path d="M303.395 1200.09H227.547V1275.1H303.395V1200.09Z" stroke="white" stroke-opacity="0.07" stroke-width="0.5"/>
<path d="M379.243 1200.09H303.395V1275.1H379.243V1200.09Z" stroke="white" stroke-opacity="0.07" stroke-width="0.5"/>
<path d="M455.093 1200.09H379.244V1275.1H455.093V1200.09Z" stroke="white" stroke-opacity="0.07" stroke-width="0.5"/>
<path d="M530.94 1200.09H455.092V1275.1H530.94V1200.09Z" stroke="white" stroke-opacity="0.07" stroke-width="0.5"/>
<path d="M606.79 1200.09H530.941V1275.1H606.79V1200.09Z" stroke="white" stroke-opacity="0.07" stroke-width="0.5"/>
<path d="M682.638 1200.09H606.789V1275.1H682.638V1200.09Z" stroke="white" stroke-opacity="0.07" stroke-width="0.5"/>
<path d="M758.485 1200.09H682.637V1275.1H758.485V1200.09Z" stroke="white" stroke-opacity="0.07" stroke-width="0.5"/>
<path d="M834.335 1200.09H758.486V1275.1H834.335V1200.09Z" stroke="white" stroke-opacity="0.07" stroke-width="0.5"/>
<path d="M910.183 1200.09H834.334V1275.1H910.183V1200.09Z" stroke="white" stroke-opacity="0.07" stroke-width="0.5"/>
<path d="M986.032 1200.09H910.184V1275.1H986.032V1200.09Z" stroke="white" stroke-opacity="0.07" stroke-width="0.5"/>
<path d="M1061.88 1200.09H986.031V1275.1H1061.88V1200.09Z" stroke="white" stroke-opacity="0.07" stroke-width="0.5"/>
<path d="M1137.73 1200.09H1061.88V1275.1H1137.73V1200.09Z" stroke="white" stroke-opacity="0.07" stroke-width="0.5"/>
<path d="M1213.58 1200.09H1137.73V1275.1H1213.58V1200.09Z" stroke="white" stroke-opacity="0.07" stroke-width="0.5"/>
<path d="M1289.43 1200.09H1213.58V1275.1H1289.43V1200.09Z" stroke="white" stroke-opacity="0.07" stroke-width="0.5"/>
<path d="M1365.27 1200.09H1289.43V1275.1H1365.27V1200.09Z" stroke="white" stroke-opacity="0.07" stroke-width="0.5"/>
<path d="M1441.12 1200.09H1365.28V1275.1H1441.12V1200.09Z" stroke="white" stroke-opacity="0.07" stroke-width="0.5"/>
<path d="M75.8486 1275.1H0V1350.11H75.8486V1275.1Z" stroke="white" stroke-opacity="0.07" stroke-width="0.5"/>
<path d="M151.696 1275.1H75.8477V1350.11H151.696V1275.1Z" stroke="white" stroke-opacity="0.07" stroke-width="0.5"/>
<path d="M227.546 1275.1H151.697V1350.11H227.546V1275.1Z" stroke="white" stroke-opacity="0.07" stroke-width="0.5"/>
<path d="M303.395 1275.1H227.547V1350.11H303.395V1275.1Z" stroke="white" stroke-opacity="0.07" stroke-width="0.5"/>
<path d="M379.243 1275.1H303.395V1350.11H379.243V1275.1Z" stroke="white" stroke-opacity="0.07" stroke-width="0.5"/>
<path d="M455.093 1275.1H379.244V1350.11H455.093V1275.1Z" stroke="white" stroke-opacity="0.07" stroke-width="0.5"/>
<path d="M530.94 1275.1H455.092V1350.11H530.94V1275.1Z" stroke="white" stroke-opacity="0.07" stroke-width="0.5"/>
<path d="M606.79 1275.1H530.941V1350.11H606.79V1275.1Z" stroke="white" stroke-opacity="0.07" stroke-width="0.5"/>
<path d="M682.638 1275.1H606.789V1350.11H682.638V1275.1Z" stroke="white" stroke-opacity="0.07" stroke-width="0.5"/>
<path d="M758.485 1275.1H682.637V1350.11H758.485V1275.1Z" stroke="white" stroke-opacity="0.07" stroke-width="0.5"/>
<path d="M834.335 1275.1H758.486V1350.11H834.335V1275.1Z" stroke="white" stroke-opacity="0.07" stroke-width="0.5"/>
<path d="M910.183 1275.1H834.334V1350.11H910.183V1275.1Z" stroke="white" stroke-opacity="0.07" stroke-width="0.5"/>
<path d="M986.032 1275.1H910.184V1350.11H986.032V1275.1Z" stroke="white" stroke-opacity="0.07" stroke-width="0.5"/>
<path d="M1061.88 1275.1H986.031V1350.11H1061.88V1275.1Z" stroke="white" stroke-opacity="0.07" stroke-width="0.5"/>
<path d="M1137.73 1275.1H1061.88V1350.11H1137.73V1275.1Z" stroke="white" stroke-opacity="0.07" stroke-width="0.5"/>
<path d="M1213.58 1275.1H1137.73V1350.11H1213.58V1275.1Z" stroke="white" stroke-opacity="0.07" stroke-width="0.5"/>
<path d="M1289.43 1275.1H1213.58V1350.11H1289.43V1275.1Z" stroke="white" stroke-opacity="0.07" stroke-width="0.5"/>
<path d="M1365.27 1275.1H1289.43V1350.11H1365.27V1275.1Z" stroke="white" stroke-opacity="0.07" stroke-width="0.5"/>
<path d="M1441.12 1275.1H1365.28V1350.11H1441.12V1275.1Z" stroke="white" stroke-opacity="0.07" stroke-width="0.5"/>
</g>
<defs>
<linearGradient id="paint0_linear_810_2410" x1="37.9243" y1="0" x2="38" y2="75" gradientUnits="userSpaceOnUse">
<stop stop-color="white" stop-opacity="0"/>
<stop offset="1" stop-color="white"/>
</linearGradient>
<linearGradient id="paint1_linear_810_2410" x1="189.622" y1="0" x2="189.622" y2="75.0059" gradientUnits="userSpaceOnUse">
<stop stop-color="white" stop-opacity="0"/>
<stop offset="1" stop-color="white"/>
</linearGradient>
<linearGradient id="paint2_linear_810_2410" x1="265.471" y1="0" x2="265.471" y2="75.0059" gradientUnits="userSpaceOnUse">
<stop stop-color="white" stop-opacity="0"/>
<stop offset="0.551032" stop-color="white"/>
</linearGradient>
<linearGradient id="paint3_linear_810_2410" x1="341.319" y1="0" x2="341.319" y2="75.0059" gradientUnits="userSpaceOnUse">
<stop stop-color="white" stop-opacity="0"/>
<stop offset="1" stop-color="white"/>
</linearGradient>
<linearGradient id="paint4_linear_810_2410" x1="417.168" y1="0" x2="417.168" y2="75.0059" gradientUnits="userSpaceOnUse">
<stop stop-color="white" stop-opacity="0"/>
<stop offset="1" stop-color="white"/>
</linearGradient>
<linearGradient id="paint5_linear_810_2410" x1="493.016" y1="0" x2="493.016" y2="75.0059" gradientUnits="userSpaceOnUse">
<stop stop-color="white" stop-opacity="0"/>
<stop offset="1" stop-color="white"/>
</linearGradient>
<linearGradient id="paint6_linear_810_2410" x1="568.866" y1="0" x2="568.866" y2="75.0059" gradientUnits="userSpaceOnUse">
<stop stop-color="white" stop-opacity="0"/>
<stop offset="1" stop-color="white"/>
</linearGradient>
<linearGradient id="paint7_linear_810_2410" x1="644.713" y1="0" x2="644.713" y2="75.0059" gradientUnits="userSpaceOnUse">
<stop stop-color="white" stop-opacity="0"/>
<stop offset="1" stop-color="white"/>
</linearGradient>
<linearGradient id="paint8_linear_810_2410" x1="720.561" y1="0" x2="720.561" y2="75.0059" gradientUnits="userSpaceOnUse">
<stop stop-color="white" stop-opacity="0"/>
<stop offset="1" stop-color="white"/>
</linearGradient>
<linearGradient id="paint9_linear_810_2410" x1="796.411" y1="0" x2="796.411" y2="75.0059" gradientUnits="userSpaceOnUse">
<stop stop-color="white" stop-opacity="0"/>
<stop offset="1" stop-color="white"/>
</linearGradient>
<linearGradient id="paint10_linear_810_2410" x1="872.258" y1="0" x2="872.258" y2="75.0059" gradientUnits="userSpaceOnUse">
<stop stop-color="white" stop-opacity="0"/>
<stop offset="1" stop-color="white"/>
</linearGradient>
<linearGradient id="paint11_linear_810_2410" x1="948.108" y1="0" x2="948.108" y2="75.0059" gradientUnits="userSpaceOnUse">
<stop stop-color="white" stop-opacity="0"/>
<stop offset="1" stop-color="white"/>
</linearGradient>
<linearGradient id="paint12_linear_810_2410" x1="1023.96" y1="0" x2="1023.96" y2="75.0059" gradientUnits="userSpaceOnUse">
<stop stop-color="white" stop-opacity="0"/>
<stop offset="1" stop-color="white"/>
</linearGradient>
<linearGradient id="paint13_linear_810_2410" x1="1099.81" y1="0" x2="1099.81" y2="75.0059" gradientUnits="userSpaceOnUse">
<stop stop-color="white" stop-opacity="0"/>
<stop offset="1" stop-color="white"/>
</linearGradient>
<linearGradient id="paint14_linear_810_2410" x1="1175.65" y1="0" x2="1175.65" y2="75.0059" gradientUnits="userSpaceOnUse">
<stop stop-color="white" stop-opacity="0"/>
<stop offset="1" stop-color="white"/>
</linearGradient>
<linearGradient id="paint15_linear_810_2410" x1="1251.5" y1="0" x2="1251.5" y2="75.0059" gradientUnits="userSpaceOnUse">
<stop stop-color="white" stop-opacity="0"/>
<stop offset="1" stop-color="white"/>
</linearGradient>
<linearGradient id="paint16_linear_810_2410" x1="1327.35" y1="0" x2="1327.35" y2="75.0059" gradientUnits="userSpaceOnUse">
<stop stop-color="white" stop-opacity="0"/>
<stop offset="1" stop-color="white"/>
</linearGradient>
<linearGradient id="paint17_linear_810_2410" x1="1403.2" y1="0" x2="1403.2" y2="75.0059" gradientUnits="userSpaceOnUse">
<stop stop-color="white" stop-opacity="0"/>
<stop offset="1" stop-color="white"/>
</linearGradient>
<clipPath id="clip0_810_2410">
<rect width="1440" height="1325" fill="white"/>
</clipPath>
</defs>
</svg>
