<svg width="18" height="18" viewBox="0 0 18 18" fill="none" xmlns="http://www.w3.org/2000/svg">
<path d="M15.75 0H12.9375V2.25H18C18 1.65326 17.7629 1.08097 17.341 0.65901C16.919 0.237053 16.3467 0 15.75 0Z" fill="#08074E"/>
<path d="M11.25 3.9375V0H6.75V6.1875H12.9375V10.125H18V3.9375H11.25Z" fill="#08074E"/>
<path d="M5.0625 0H2.25C1.65326 0 1.08097 0.237053 0.65901 0.65901C0.237053 1.08097 0 1.65326 0 2.25V10.125H5.0625V0Z" fill="#08074E"/>
<path d="M11.25 7.875H6.75V14.0625H11.25V7.875Z" fill="#08074E"/>
<path d="M5.0625 11.8125H0V14.0625H5.0625V11.8125Z" fill="#08074E"/>
<path d="M18 11.8125H12.9375V14.0625H18V11.8125Z" fill="#08074E"/>
<path d="M12.9375 18H15.75C16.3467 18 16.919 17.7629 17.341 17.341C17.7629 16.919 18 16.3467 18 15.75H12.9375V18Z" fill="#08074E"/>
<path d="M11.25 18V15.75H0C0 16.3467 0.237053 16.919 0.65901 17.341C1.08097 17.7629 1.65326 18 2.25 18H11.25Z" fill="#08074E"/>
</svg>
