<svg width="14" height="14" viewBox="0 0 14 14" fill="none" xmlns="http://www.w3.org/2000/svg">
<g clip-path="url(#clip0_140_218)">
<path d="M11.1399 1.44619H10.6092V0.915479C10.6092 0.774725 10.5533 0.639736 10.4538 0.540208C10.3542 0.44068 10.2192 0.384766 10.0785 0.384766C9.93773 0.384766 9.80274 0.44068 9.70321 0.540208C9.60368 0.639736 9.54777 0.774725 9.54777 0.915479V1.44619H4.24063V0.915479C4.24063 0.774725 4.18472 0.639736 4.08519 0.540208C3.98566 0.44068 3.85067 0.384766 3.70992 0.384766C3.56916 0.384766 3.43417 0.44068 3.33465 0.540208C3.23512 0.639736 3.1792 0.774725 3.1792 0.915479V1.44619H2.64849C2.08547 1.44619 1.54552 1.66985 1.1474 2.06796C0.749292 2.46607 0.525635 3.00603 0.525635 3.56905L0.525635 10.999C0.525635 11.5621 0.749292 12.102 1.1474 12.5001C1.54552 12.8982 2.08547 13.1219 2.64849 13.1219H11.1399C11.7029 13.1219 12.2429 12.8982 12.641 12.5001C13.0391 12.102 13.2628 11.5621 13.2628 10.999V3.56905C13.2628 3.00603 13.0391 2.46607 12.641 2.06796C12.2429 1.66985 11.7029 1.44619 11.1399 1.44619ZM12.2013 10.999C12.2013 11.2805 12.0895 11.5505 11.8904 11.7496C11.6914 11.9486 11.4214 12.0605 11.1399 12.0605H2.64849C2.36698 12.0605 2.097 11.9486 1.89795 11.7496C1.69889 11.5505 1.58706 11.2805 1.58706 10.999V3.56905C1.58706 3.28754 1.69889 3.01756 1.89795 2.8185C2.097 2.61945 2.36698 2.50762 2.64849 2.50762H3.1792V3.03833C3.1792 3.17909 3.23512 3.31408 3.33465 3.4136C3.43417 3.51313 3.56916 3.56905 3.70992 3.56905C3.85067 3.56905 3.98566 3.51313 4.08519 3.4136C4.18472 3.31408 4.24063 3.17909 4.24063 3.03833V2.50762H9.54777V3.03833C9.54777 3.17909 9.60368 3.31408 9.70321 3.4136C9.80274 3.51313 9.93773 3.56905 10.0785 3.56905C10.2192 3.56905 10.3542 3.51313 10.4538 3.4136C10.5533 3.31408 10.6092 3.17909 10.6092 3.03833V2.50762H11.1399C11.4214 2.50762 11.6914 2.61945 11.8904 2.8185C12.0895 3.01756 12.2013 3.28754 12.2013 3.56905V10.999Z" fill="#08074E"/>
<path d="M10.6091 4.09961H3.17915C3.0384 4.09961 2.90341 4.15552 2.80388 4.25505C2.70435 4.35458 2.64844 4.48957 2.64844 4.63032C2.64844 4.77108 2.70435 4.90607 2.80388 5.00559C2.90341 5.10512 3.0384 5.16104 3.17915 5.16104H10.6091C10.7499 5.16104 10.8849 5.10512 10.9844 5.00559C11.0839 4.90607 11.1399 4.77108 11.1399 4.63032C11.1399 4.48957 11.0839 4.35458 10.9844 4.25505C10.8849 4.15552 10.7499 4.09961 10.6091 4.09961Z" fill="#08074E"/>
<path d="M4.24058 6.75391H3.17915C3.0384 6.75391 2.90341 6.80982 2.80388 6.90935C2.70435 7.00888 2.64844 7.14387 2.64844 7.28462C2.64844 7.42537 2.70435 7.56036 2.80388 7.65989C2.90341 7.75942 3.0384 7.81533 3.17915 7.81533H4.24058C4.38133 7.81533 4.51632 7.75942 4.61585 7.65989C4.71538 7.56036 4.77129 7.42537 4.77129 7.28462C4.77129 7.14387 4.71538 7.00888 4.61585 6.90935C4.51632 6.80982 4.38133 6.75391 4.24058 6.75391Z" fill="#08074E"/>
<path d="M4.24058 9.40625H3.17915C3.0384 9.40625 2.90341 9.46216 2.80388 9.56169C2.70435 9.66122 2.64844 9.79621 2.64844 9.93696C2.64844 10.0777 2.70435 10.2127 2.80388 10.3122C2.90341 10.4118 3.0384 10.4677 3.17915 10.4677H4.24058C4.38133 10.4677 4.51632 10.4118 4.61585 10.3122C4.71538 10.2127 4.77129 10.0777 4.77129 9.93696C4.77129 9.79621 4.71538 9.66122 4.61585 9.56169C4.51632 9.46216 4.38133 9.40625 4.24058 9.40625Z" fill="#08074E"/>
<path d="M7.4249 6.75391H6.36348C6.22272 6.75391 6.08773 6.80982 5.98821 6.90935C5.88868 7.00888 5.83276 7.14387 5.83276 7.28462C5.83276 7.42537 5.88868 7.56036 5.98821 7.65989C6.08773 7.75942 6.22272 7.81533 6.36348 7.81533H7.4249C7.56566 7.81533 7.70065 7.75942 7.80018 7.65989C7.8997 7.56036 7.95562 7.42537 7.95562 7.28462C7.95562 7.14387 7.8997 7.00888 7.80018 6.90935C7.70065 6.80982 7.56566 6.75391 7.4249 6.75391Z" fill="#08074E"/>
<path d="M7.4249 9.40625H6.36348C6.22272 9.40625 6.08773 9.46216 5.98821 9.56169C5.88868 9.66122 5.83276 9.79621 5.83276 9.93696C5.83276 10.0777 5.88868 10.2127 5.98821 10.3122C6.08773 10.4118 6.22272 10.4677 6.36348 10.4677H7.4249C7.56566 10.4677 7.70065 10.4118 7.80018 10.3122C7.8997 10.2127 7.95562 10.0777 7.95562 9.93696C7.95562 9.79621 7.8997 9.66122 7.80018 9.56169C7.70065 9.46216 7.56566 9.40625 7.4249 9.40625Z" fill="#08074E"/>
<path d="M10.6092 6.75391H9.5478C9.40705 6.75391 9.27206 6.80982 9.17253 6.90935C9.073 7.00888 9.01709 7.14387 9.01709 7.28462C9.01709 7.42537 9.073 7.56036 9.17253 7.65989C9.27206 7.75942 9.40705 7.81533 9.5478 7.81533H10.6092C10.75 7.81533 10.885 7.75942 10.9845 7.65989C11.084 7.56036 11.1399 7.42537 11.1399 7.28462C11.1399 7.14387 11.084 7.00888 10.9845 6.90935C10.885 6.80982 10.75 6.75391 10.6092 6.75391Z" fill="#08074E"/>
<path d="M10.6092 9.40625H9.5478C9.40705 9.40625 9.27206 9.46216 9.17253 9.56169C9.073 9.66122 9.01709 9.79621 9.01709 9.93696C9.01709 10.0777 9.073 10.2127 9.17253 10.3122C9.27206 10.4118 9.40705 10.4677 9.5478 10.4677H10.6092C10.75 10.4677 10.885 10.4118 10.9845 10.3122C11.084 10.2127 11.1399 10.0777 11.1399 9.93696C11.1399 9.79621 11.084 9.66122 10.9845 9.56169C10.885 9.46216 10.75 9.40625 10.6092 9.40625Z" fill="#08074E"/>
</g>
<defs>
<clipPath id="clip0_140_218">
<rect width="12.7371" height="12.7371" fill="white" transform="translate(0.525635 0.384766)"/>
</clipPath>
</defs>
</svg>
