<?xml version="1.0" encoding="utf-8"?>
<!-- Generator: Adobe Illustrator 23.0.5, SVG Export Plug-In . SVG Version: 6.00 Build 0)  -->
<svg version="1.1" id="Layer_1" xmlns="http://www.w3.org/2000/svg" xmlns:xlink="http://www.w3.org/1999/xlink" x="0px" y="0px"
	 viewBox="0 0 1920 1080" style="enable-background:new 0 0 1920 1080;" xml:space="preserve">
<style type="text/css">
	.st0{fill:#FFFFFF;}
</style>
<path class="st0" d="M978.1,324.7L870.7,676.4c-0.5,1.8-1.4,3.5-2.5,4.9l-8.8,34.9c-11.2,47.9-34.5,71.8-70.2,71.8
	s-59.8-23.1-73.4-68.6L607.4,352.6c-2.4-6.4-2.4-12.7-4.9-18.3c-2.1-10-3.1-20.2-2.9-30.5c0-34.5,12.7-62.2,47.9-71.7
	c6.6-2.4,13.7-3.6,20.7-3.3c32.7,0,55,24.7,67.7,74.3l52,204.6l70.8-231.2l1.3,0.7c3.3,1.6,6.8,2.4,10.5,2.6h1.2L830,416l9,29
	l23.9-78.2c1.9,0.9,4,1.4,6.1,1.5h0.6l-26.9,88.3l10.2,32.8l44.4-146c3.3,1.6,6.9,2.5,10.6,2.6h1.2l-50.1,163.6l12.1,39.1
	l42.9-140.4l0,0c1.5,0.8,3.2,1.2,4.9,1.2h0.5c0,0.2,0,0.5,0,0.7l-45.5,148.4L884,591l82.2-268.5c3.3,1.6,6.9,2.5,10.5,2.6
	L978.1,324.7z"/>
<path class="st0" d="M1187.7,259.6h1.1c6.4,0,12.6-2.5,17.2-7.1c5-4.7,8-11.2,8.3-18.1c0.3-6.8-2.2-13.5-6.9-18.5
	c-4.5-5.1-11-8.1-17.8-8.2c-6.7-0.1-13.3,2.4-18.2,7.1c-3.3,3.1-5.7,7.1-7.1,11.4c-0.6,2.2-1,4.4-1.2,6.7
	c-0.3,6.9,2.2,13.6,6.9,18.7c2,2.3,4.5,4.2,7.2,5.5C1180.6,258.6,1184.1,259.5,1187.7,259.6z M1178.7,243.2
	c-5.2-5.7-4.9-14.5,0.8-19.7c2.7-2.5,6.2-3.9,9.9-3.7c3.6,0.1,7,1.7,9.5,4.3c2.4,2.7,3.7,6.2,3.6,9.9c0,1.2-0.2,2.4-0.6,3.6
	c-0.7,2.3-2,4.4-3.7,6.1c-2.7,2.5-6.2,3.9-9.9,3.8C1184.6,247.4,1181.1,245.9,1178.7,243.2z"/>
<path class="st0" d="M1097.6,512.6l79.6-260.2c0.7-3.6,4.3-6,7.9-5.2c3.6,0.7,6,4.3,5.2,7.9c-0.1,0.4-0.2,0.8-0.4,1.2l-79.6,260.2
	c-0.7,3.6-4.3,6-7.9,5.2c-3.6-0.7-6-4.3-5.2-7.9C1097.3,513.4,1097.4,513,1097.6,512.6z"/>
<path class="st0" d="M1225.2,325.9h1.1c6.4,0,12.6-2.5,17.2-7c10.5-9.7,11.1-26.1,1.4-36.6c-4.5-5.1-10.9-8-17.7-8.2
	c-6.8-0.2-13.3,2.3-18.3,6.8c-3.3,3.1-5.7,7.1-7.1,11.4c-0.7,2.2-1.1,4.4-1.2,6.7c-0.3,6.9,2.1,13.6,6.8,18.7
	c2.1,2.3,4.5,4.1,7.2,5.5C1217.9,324.8,1221.5,325.8,1225.2,325.9z M1216.2,309.5c-5.2-5.7-4.8-14.5,0.9-19.7
	c2.6-2.4,6.1-3.7,9.6-3.7c3.6,0.1,7,1.7,9.5,4.3c2.5,2.7,3.8,6.2,3.7,9.9c-0.1,1.2-0.3,2.4-0.6,3.6c-0.7,2.3-2,4.4-3.7,6.1
	c-2.7,2.5-6.2,3.9-9.9,3.8C1222,313.7,1218.6,312.2,1216.2,309.5z"/>
<path class="st0" d="M1144.7,552l71.6-234.1c0.6-3.2,3.8-5.3,7-4.7c3.2,0.6,5.3,3.8,4.7,7c-0.1,0.4-0.2,0.8-0.4,1.2L1156,555.5
	c-0.8,3.2-4,5.1-7.2,4.3c-3.2-0.8-5.1-4-4.3-7.2C1144.5,552.4,1144.6,552.2,1144.7,552L1144.7,552z"/>
<path class="st0" d="M1236.6,389.3h0.5c3.1,0,6.1-1.2,8.3-3.4c2.4-2.3,3.9-5.4,4-8.7c0.1-3.3-1.1-6.6-3.4-9c-2.2-2.5-5.3-3.9-8.6-4
	c-3.3-0.1-6.5,1.1-8.8,3.4c-1.6,1.5-2.8,3.4-3.5,5.5c-0.3,1.1-0.5,2.2-0.6,3.3c-0.1,3.3,1.1,6.6,3.3,9c1,1.1,2.2,2,3.6,2.7
	C1233.1,388.8,1234.8,389.3,1236.6,389.3z M1232.2,381.3c-2.5-2.7-2.3-6.9,0.4-9.5c1.3-1.3,3.1-1.9,4.9-1.8c1.7,0,3.4,0.8,4.6,2.1
	c2.5,2.7,2.4,7-0.3,9.5c-1.3,1.3-3.1,2-4.9,1.9C1235,383.4,1233.3,382.6,1232.2,381.3L1232.2,381.3z"/>
<path class="st0" d="M1164.6,606.6l66.9-218.4c0.9-3.2,3-5.3,4.5-4.9s2,3.4,1,6.5l-66.8,218.4c-1,3.1-3,5.3-4.5,4.9
	C1164.1,612.8,1163.6,609.7,1164.6,606.6z"/>
<path class="st0" d="M1182.1,360.1h0.6c3.1,0,6.1-1.2,8.3-3.4c5.1-4.7,5.4-12.6,0.7-17.8c-2.2-2.4-5.3-3.8-8.6-3.9
	c-3.3-0.1-6.5,1.1-8.9,3.4c-1.6,1.5-2.8,3.4-3.5,5.5c-0.3,1.1-0.5,2.2-0.5,3.3c-0.2,3.3,1,6.6,3.3,9c1,1.1,2.2,2,3.5,2.7
	C1178.6,359.6,1180.3,360,1182.1,360.1z M1177.7,352.1c-2.5-2.7-2.3-7,0.4-9.5c2.5-2.6,6.6-2.6,9.2-0.1c0,0,0,0,0.1,0.1
	c1.3,1.3,1.9,3.1,1.8,4.9c0,0.6-0.1,1.2-0.3,1.7c-0.3,1.1-0.9,2.1-1.8,3c-1.3,1.2-3.1,1.9-4.9,1.9
	C1180.5,354.1,1178.9,353.3,1177.7,352.1z"/>
<path class="st0" d="M1125.8,526.4l51.6-168.6c0.7-2.5,2.6-4,4.1-3.6s2.2,2.8,1.4,5.2L1131.2,528c-0.7,2.4-2.6,4-4.1,3.6
	C1125.6,531.2,1125,528.8,1125.8,526.4z"/>
<path class="st0" d="M1294.3,304.7h1.1c6.4,0,12.6-2.5,17.2-7c5-4.7,8-11.2,8.3-18.1c0.3-6.9-2.2-13.5-6.9-18.5
	c-4.5-5.1-10.9-8-17.7-8.2c-6.8-0.1-13.4,2.4-18.3,7.1c-3.3,3.1-5.7,7-7.1,11.4c-0.7,2.2-1.1,4.4-1.2,6.7
	c-0.3,6.9,2.1,13.6,6.8,18.7c2.1,2.3,4.5,4.1,7.3,5.5C1287,303.8,1290.6,304.6,1294.3,304.7z M1285.2,288.3
	c-5.2-5.7-4.9-14.5,0.8-19.7c5.4-5.2,13.9-5,19.1,0.4c0,0,0.1,0.1,0.1,0.1c2.4,2.7,3.8,6.2,3.6,9.9c-0.1,1.2-0.3,2.5-0.6,3.6
	c-0.7,2.3-2,4.4-3.7,6.1c-2.7,2.5-6.2,3.9-9.9,3.8C1291.1,292.5,1287.7,291,1285.2,288.3z"/>
<path class="st0" d="M1176.5,652.8L1284.4,300c1.5-4.9,5.3-8.4,8.5-7.4c3.2,1,4.4,5.8,2.9,10.9l-107.9,352.8
	c-1.5,4.9-5.3,8.4-8.5,7.4C1176.2,662.8,1174.9,657.9,1176.5,652.8z"/>
<path class="st0" d="M1118.7,442.1c-22.6,74-45.7,148.8-46.1,148.8c-9.7,31.4-38.9,52.5-71.7,51.8c-18.6-0.3-36.7-6.1-51.9-16.8
	l25.5,76.6c19.1,56.6,51.9,85.3,98.9,85.3c47,0,79.7-28.7,98.9-85.3l14.2-42.5L1118.7,442.1z M1016,401.9l-31.1-102.1
	c-10.4-31.9-27.9-71.7-68.6-71.7s-66.9,34.5-66.9,73.4v14.3c1.9,15,5.7,29.7,11.1,43.8l71.8,217c9.6,28.7,31.1,42.3,52.7,42.3
	c47.9,0,63.8-49.3,70.2-88.8C1048.7,512.6,1033.5,455.3,1016,401.9L1016,401.9z"/>
</svg>
