<svg width="130" height="39" viewBox="0 0 130 39" fill="none" xmlns="http://www.w3.org/2000/svg">
<g clip-path="url(#clip0_1428_1042)">
<path d="M25.0414 7.72741L17.9333 31.0081C17.9007 31.1385 17.8355 31.2363 17.7703 31.3341L17.1833 33.6492C16.4334 36.8119 14.9009 38.4096 12.5533 38.4096C10.2057 38.4096 8.60798 36.8772 7.69501 33.8774L0.521695 9.61856C0.358666 9.19468 0.358666 8.7708 0.195636 8.41214C0.0652119 7.76002 0 7.07529 0 6.39057C0 4.10815 0.847755 2.28222 3.16278 1.6301C3.58666 1.46707 4.07575 1.40186 4.53223 1.40186C6.68422 1.40186 8.1841 3.03215 8.99925 6.32536L12.4555 19.8568L17.1507 4.56463L17.2486 4.59724C17.4768 4.69506 17.705 4.76027 17.9333 4.76027H17.9985L15.2596 13.7595L15.8465 15.6833L17.4116 10.5315C17.542 10.5967 17.6724 10.6293 17.8029 10.6293H17.8355L16.0421 16.4658L16.7269 18.6504L19.6614 8.99905C19.8896 9.09686 20.1179 9.16208 20.3461 9.16208H20.4113L17.1507 19.9547L17.9659 22.5305L20.8026 13.2378C20.9004 13.303 21.0308 13.303 21.1287 13.3356H21.1613V13.3682L18.1615 23.1826L18.8462 25.3346L24.2914 7.56438C24.5197 7.6622 24.7479 7.72741 24.9762 7.72741H25.0414Z" fill="#08074E"/>
<path d="M38.8992 3.42352H38.9644C39.3882 3.42352 39.8121 3.26049 40.1056 2.96703C40.4316 2.64097 40.6273 2.2171 40.6599 1.76061C40.6925 1.30413 40.5294 0.880252 40.2034 0.521587C39.9099 0.195527 39.4861 -0.000108872 39.0296 -0.0327148C38.5731 -0.0327148 38.1492 0.130315 37.8232 0.423769C37.5949 0.619405 37.4319 0.880252 37.3667 1.17371C37.3341 1.30413 37.3015 1.46716 37.3015 1.63019C37.2689 2.08667 37.4319 2.54316 37.7579 2.86922C37.8884 3.03225 38.0514 3.13006 38.247 3.22788C38.4427 3.35831 38.6709 3.42352 38.8992 3.42352ZM38.3122 2.34752C37.9536 1.95625 37.9862 1.40195 38.3775 1.04328C38.5405 0.880252 38.8013 0.782434 39.0296 0.782434C39.2578 0.782434 39.4861 0.880252 39.6491 1.07589C39.8121 1.23892 39.9099 1.49977 39.8773 1.72801C39.8773 1.79322 39.8773 1.89104 39.8447 1.95625C39.8121 2.11928 39.7143 2.2497 39.5839 2.34752C39.4208 2.51055 39.16 2.60837 38.9318 2.60837C38.7035 2.64097 38.4753 2.51055 38.3122 2.34752Z" fill="#08074E"/>
<path d="M32.9664 20.1505L38.216 2.9346C38.2812 2.70636 38.5095 2.54333 38.7377 2.57593C38.9659 2.64114 39.129 2.86939 39.0964 3.09763C39.0964 3.13023 39.0964 3.16284 39.0638 3.16284L33.8142 20.3788C33.749 20.607 33.5207 20.7701 33.2925 20.7375C33.0643 20.6722 32.9012 20.444 32.9338 20.2158C32.9338 20.2158 32.9338 20.1832 32.9664 20.1505Z" fill="#08074E"/>
<path d="M41.3782 7.82548H41.4434C41.8672 7.82548 42.2585 7.66245 42.5846 7.369C43.2693 6.71688 43.3345 5.64088 42.6824 4.95616C42.3889 4.6301 41.9651 4.43446 41.5086 4.40186C41.0521 4.40186 40.6282 4.56489 40.3022 4.85834C40.0739 5.05397 39.9109 5.31482 39.8457 5.60828C39.8131 5.7387 39.7805 5.90173 39.7805 6.06476C39.7479 6.52124 39.9109 6.97773 40.2369 7.30379C40.3674 7.46682 40.5304 7.56463 40.726 7.66245C40.9217 7.76027 41.1499 7.79288 41.3782 7.82548ZM40.7912 6.71688C40.4326 6.32561 40.4652 5.77131 40.8565 5.41264C41.0195 5.24961 41.2477 5.15179 41.5086 5.1844C41.7368 5.1844 41.9651 5.28222 42.1281 5.47785C42.2911 5.64088 42.3889 5.90173 42.3889 6.12997C42.3889 6.19518 42.3563 6.293 42.3563 6.35821C42.3237 6.52124 42.2259 6.65167 42.0955 6.74949C41.9325 6.91252 41.6716 7.01033 41.4434 7.01033C41.1825 7.01033 40.9543 6.91252 40.7912 6.71688Z" fill="#08074E"/>
<path d="M36.0638 22.7593L40.7916 7.27145C40.8242 7.04321 41.0525 6.91278 41.2481 6.94539C41.4764 6.97799 41.6068 7.20624 41.5742 7.40187C41.5742 7.43448 41.5742 7.46708 41.5416 7.46708L36.8137 22.9549C36.7485 23.1506 36.5529 23.281 36.3246 23.2484C36.0964 23.2158 35.9986 22.9875 36.0638 22.7593C36.0638 22.7919 36.0638 22.7919 36.0638 22.7593Z" fill="#08074E"/>
<path d="M42.1282 11.9988H42.1609C42.3565 11.9988 42.5521 11.9336 42.7152 11.7706C42.8782 11.6076 42.976 11.4119 42.976 11.1837C42.976 10.9555 42.9108 10.7598 42.7478 10.5968C42.6173 10.4338 42.3891 10.3359 42.1935 10.3359C41.9652 10.3359 41.7696 10.4011 41.6065 10.5642C41.5087 10.662 41.4109 10.7924 41.3783 10.9228C41.3457 10.9881 41.3457 11.0533 41.3457 11.1511C41.3457 11.3793 41.4109 11.575 41.5739 11.738C41.6392 11.8032 41.7044 11.8684 41.8022 11.901C41.9 11.9662 42.0304 11.9988 42.1282 11.9988ZM41.8674 11.4771C41.7044 11.2815 41.7044 11.0207 41.9 10.8576C41.9978 10.7598 42.0956 10.7272 42.2261 10.7272C42.3565 10.7272 42.4543 10.7924 42.5195 10.8576C42.6825 11.0533 42.6825 11.3141 42.4869 11.4771C42.3891 11.575 42.2913 11.6076 42.1609 11.6076C42.0304 11.6076 41.9326 11.575 41.8674 11.4771Z" fill="#08074E"/>
<path d="M37.3669 26.3787L41.8013 11.9342C41.8666 11.7386 41.997 11.5756 42.0948 11.6082C42.1926 11.6408 42.2252 11.8364 42.16 12.0321L37.7256 26.4765C37.6604 26.6721 37.53 26.8352 37.4321 26.8026C37.3343 26.77 37.3017 26.5743 37.3669 26.3787Z" fill="#08074E"/>
<path d="M38.5418 10.075C38.7701 10.075 38.9657 10.0098 39.1287 9.84677C39.4548 9.52071 39.4874 8.99902 39.1613 8.67296C39.0309 8.50993 38.8027 8.41211 38.607 8.41211C38.3788 8.41211 38.1832 8.47732 38.0201 8.64035C37.9223 8.73817 37.8245 8.86859 37.7919 8.99902C37.7593 9.06423 37.7593 9.12944 37.7593 9.22726C37.7593 9.4555 37.8245 9.65114 37.9875 9.81417C38.0527 9.87938 38.1179 9.94459 38.2158 9.9772C38.3136 10.0424 38.4114 10.075 38.5418 10.075ZM38.2484 9.55332C38.0853 9.35768 38.0853 9.09683 38.281 8.9338C38.444 8.77078 38.7049 8.77078 38.9005 8.9338C38.9983 9.03162 39.0309 9.12944 39.0309 9.25986C39.0309 9.29247 39.0309 9.32508 38.9983 9.35768C38.9657 9.42289 38.9331 9.48811 38.8679 9.55332C38.7701 9.61853 38.6722 9.68374 38.5418 9.68374C38.444 9.68374 38.3136 9.61853 38.2484 9.55332Z" fill="#08074E"/>
<path d="M34.8236 21.0635L38.2472 9.91222C38.2798 9.74919 38.4103 9.65138 38.5081 9.68398C38.6059 9.71659 38.6385 9.87962 38.6059 10.0426L35.1823 21.1939C35.1497 21.3569 35.0192 21.4547 34.9214 21.4221C34.8236 21.3895 34.7584 21.2265 34.8236 21.0635Z" fill="#08074E"/>
<path d="M45.9411 6.42303H46.0064C46.4302 6.42303 46.8215 6.26 47.1476 5.96655C47.4736 5.64049 47.6693 5.21661 47.7019 4.76013C47.7345 4.30364 47.5714 3.87976 47.2454 3.5211C46.9519 3.19504 46.5281 2.9994 46.0716 2.9668C45.6151 2.9668 45.1912 3.12983 44.8651 3.42328C44.6369 3.61892 44.4739 3.87976 44.4087 4.17322C44.3761 4.30364 44.3435 4.46667 44.3435 4.6297C44.3108 5.08618 44.4739 5.54267 44.7999 5.86873C44.9304 6.03176 45.0934 6.12958 45.289 6.22739C45.4847 6.35782 45.7129 6.42303 45.9411 6.42303ZM45.3542 5.31443C44.9956 4.92315 45.0282 4.36885 45.4194 4.01019C45.7781 3.68413 46.3324 3.68413 46.6911 4.04279C46.8541 4.20582 46.9519 4.46667 46.9193 4.69491C46.9193 4.79273 46.8867 4.85794 46.8867 4.92316C46.8541 5.08618 46.7563 5.21661 46.6259 5.31443C46.4628 5.47746 46.202 5.57527 45.9737 5.57527C45.7455 5.60788 45.5173 5.51006 45.3542 5.31443Z" fill="#08074E"/>
<path d="M38.1809 29.4429L45.3216 6.12964C45.4194 5.80358 45.6803 5.57534 45.8759 5.64055C46.0716 5.70576 46.1694 6.03182 46.0716 6.35788L38.9309 29.6711C38.833 29.9972 38.5722 30.2254 38.3766 30.1602C38.1809 30.095 38.0505 29.769 38.1809 29.4429Z" fill="#08074E"/>
<path d="M34.3336 15.4879C32.8337 20.3788 31.3013 25.3349 31.3013 25.3349C30.6491 27.4217 28.7254 28.7911 26.5408 28.7585C25.3018 28.7259 24.128 28.3673 23.1172 27.6499L24.8127 32.7039C26.0843 36.4535 28.2363 38.3447 31.3665 38.3447C34.4967 38.3447 36.6486 36.4535 37.9203 32.7039L38.8659 29.8997L34.3336 15.4879ZM27.5516 12.8468L25.4974 6.09739C24.8127 3.978 23.6389 1.33691 20.9652 1.33691C18.2915 1.33691 16.5308 3.61933 16.5308 6.1952V7.14078C16.6612 8.11896 16.8894 9.09713 17.2807 10.0427L22.0412 24.3893C22.6607 26.2805 24.0953 27.1934 25.53 27.1934C28.6928 27.1934 29.7362 23.9329 30.1601 21.3244C29.7362 20.1506 28.7254 16.3683 27.5516 12.8468Z" fill="#08074E"/>
<path d="M59.3169 23.2582V22.1585H63.4252V23.2679C63.4252 23.3809 63.3849 23.4778 63.3041 23.5586C63.2234 23.6361 63.1281 23.6749 63.0183 23.6749C62.9052 23.6749 62.8067 23.6345 62.7227 23.5537C62.642 23.473 62.6016 23.3777 62.6016 23.2679V22.9724H61.778V28.1804C61.778 28.2935 61.7376 28.3904 61.6569 28.4711C61.5762 28.5486 61.4809 28.5874 61.3711 28.5874C61.2548 28.5874 61.1563 28.5486 61.0755 28.4711C60.9948 28.3904 60.9544 28.2935 60.9544 28.1804V22.9724H60.1308V23.2582C60.1308 23.3712 60.0904 23.4681 60.0097 23.5489C59.9322 23.6264 59.8369 23.6652 59.7239 23.6652C59.6108 23.6652 59.5139 23.6264 59.4332 23.5489C59.3557 23.4681 59.3169 23.3712 59.3169 23.2582ZM69.423 25.4432V26.4267C69.423 26.5365 69.3826 26.6317 69.3019 26.7125C69.2211 26.7932 69.1259 26.8336 69.016 26.8336H66.1383V27.071C66.1383 27.2099 66.198 27.3278 66.3175 27.4247L66.5549 27.6233C66.6841 27.7234 66.8068 27.7735 66.9231 27.7735H69.016C69.1259 27.7735 69.2211 27.8139 69.3019 27.8946C69.3826 27.9721 69.423 28.0674 69.423 28.1804C69.423 28.2903 69.381 28.3855 69.297 28.4663C69.2163 28.547 69.1226 28.5874 69.016 28.5874H66.8698C66.7277 28.5874 66.5775 28.5583 66.4193 28.5002C66.2642 28.4388 66.1496 28.3758 66.0753 28.3113L65.7119 27.9915C65.5989 27.9011 65.5036 27.7751 65.4261 27.6136C65.3518 27.4521 65.3147 27.3036 65.3147 27.1679V25.3027C65.3147 25.1961 65.355 25.0524 65.4358 24.8715C65.5198 24.6906 65.6247 24.5501 65.7507 24.45L66.0898 24.1835C66.3127 24.0027 66.5598 23.9122 66.8311 23.9122H67.9744C68.2619 23.9122 68.5332 24.0317 68.7883 24.2708L69.0936 24.5614C69.3132 24.7585 69.423 25.0524 69.423 25.4432ZM66.148 25.3802V26.01H68.6188V25.4432C68.6188 25.2914 68.5719 25.1751 68.4783 25.0944L68.2409 24.886C68.1181 24.7859 68.0083 24.7358 67.9114 24.7358H66.8892C66.7632 24.7358 66.6486 24.7794 66.5452 24.8667L66.3078 25.0653C66.2013 25.146 66.148 25.251 66.148 25.3802ZM75.0235 28.5874H73.2842C72.9774 28.5874 72.7158 28.4954 72.4994 28.3113L71.7097 27.6233C71.4578 27.4134 71.3318 27.1291 71.3318 26.7706V25.7096C71.3189 25.364 71.461 25.0637 71.7582 24.8085L72.4703 24.1932C72.6996 24.0059 72.9451 23.9122 73.2067 23.9122H75.0332C75.1462 23.9122 75.2415 23.9526 75.319 24.0334C75.3998 24.1109 75.4401 24.2062 75.4401 24.3192C75.4401 24.4355 75.3998 24.5324 75.319 24.6099C75.2415 24.6874 75.1462 24.7262 75.0332 24.7262H73.2842C73.1744 24.7262 73.0695 24.7698 72.9693 24.857L72.3153 25.4141C72.2087 25.5045 72.1554 25.6257 72.1554 25.7775V26.7706C72.1554 26.8772 72.1974 26.9676 72.2814 27.0419L72.9984 27.6524C73.0888 27.7331 73.2083 27.7735 73.3569 27.7735H75.0235C75.1333 27.7735 75.2286 27.8139 75.3093 27.8946C75.3901 27.9721 75.4305 28.0674 75.4305 28.1804C75.4305 28.2935 75.3901 28.3904 75.3093 28.4711C75.2318 28.5486 75.1365 28.5874 75.0235 28.5874ZM77.3102 28.1804V22.5557C77.3102 22.4459 77.349 22.3522 77.4265 22.2747C77.5072 22.1972 77.6041 22.1585 77.7172 22.1585C77.8302 22.1585 77.9255 22.1988 78.003 22.2796C78.0837 22.3571 78.1241 22.4524 78.1241 22.5654V24.6196L78.7782 24.1932C79.0753 24.0059 79.3401 23.9122 79.5727 23.9122H80.0765C80.4092 23.9122 80.6951 24.0317 80.9341 24.2708C81.1731 24.5065 81.2974 24.794 81.3071 25.1331L81.4088 28.1804C81.4121 28.2935 81.3733 28.3904 81.2926 28.4711C81.2118 28.5486 81.1149 28.5874 81.0019 28.5874C80.8888 28.5874 80.7936 28.547 80.716 28.4663C80.6385 28.3823 80.5982 28.287 80.5949 28.1804L80.4932 25.1234C80.49 25.0136 80.448 24.9183 80.3672 24.8376C80.2865 24.7568 80.1896 24.7165 80.0765 24.7165H79.6211C79.5178 24.7165 79.4047 24.7568 79.282 24.8376L78.1241 25.5934V28.1804C78.1241 28.2935 78.0837 28.3904 78.003 28.4711C77.9255 28.5486 77.8302 28.5874 77.7172 28.5874C77.6041 28.5874 77.5072 28.5486 77.4265 28.4711C77.349 28.3904 77.3102 28.2935 77.3102 28.1804ZM85.241 24.857L84.1316 25.5788V28.1804C84.1316 28.2903 84.0912 28.3855 84.0105 28.4663C83.9297 28.547 83.8344 28.5874 83.7246 28.5874C83.6148 28.5874 83.5195 28.547 83.4388 28.4663C83.358 28.3855 83.3177 28.2903 83.3177 28.1804V24.3192C83.3177 24.2062 83.3564 24.1093 83.4339 24.0285C83.5147 23.9445 83.6116 23.9026 83.7246 23.9026C83.8344 23.9026 83.9297 23.9445 84.0105 24.0285C84.0912 24.1093 84.1316 24.2062 84.1316 24.3192V24.5905L84.8728 24.1399C85.1215 23.9817 85.4025 23.9026 85.7158 23.9026H86.0937C86.4167 23.9026 86.6961 24.0172 86.9318 24.2465C87.1676 24.4758 87.292 24.7585 87.3049 25.0944L87.4163 28.1804C87.4195 28.2903 87.3808 28.3855 87.3 28.4663C87.2193 28.547 87.1224 28.5874 87.0093 28.5874C86.9028 28.5874 86.8091 28.5519 86.7284 28.4808C86.6476 28.4065 86.6056 28.3064 86.6024 28.1804L86.4813 25.1428C86.4716 24.8586 86.323 24.7165 86.0356 24.7165H85.6383C85.5156 24.7165 85.3831 24.7633 85.241 24.857ZM93.4141 25.3802V27.1001C93.4141 27.465 93.2413 27.8026 92.8957 28.1126C92.5533 28.4227 92.1997 28.5777 91.8347 28.5777H90.8803C90.5089 28.5777 90.1536 28.4211 89.8144 28.1078C89.4753 27.7913 89.3057 27.4554 89.3057 27.1001V25.3802C89.3057 25.0249 89.4705 24.6906 89.7999 24.3773C90.1326 24.0608 90.4927 23.9026 90.8803 23.9026H91.8347C92.1997 23.8961 92.5533 24.0479 92.8957 24.358C93.2413 24.668 93.4141 25.0088 93.4141 25.3802ZM90.1294 25.4141V27.0613C90.1294 27.2099 90.1826 27.3278 90.2892 27.415L90.5944 27.6766C90.6623 27.7347 90.7576 27.7638 90.8803 27.7638H91.825C91.9639 27.7638 92.0899 27.7137 92.2029 27.6136L92.45 27.3956C92.5501 27.3181 92.6002 27.2099 92.6002 27.071V25.4238C92.6002 25.2623 92.5501 25.1428 92.45 25.0653L92.1641 24.8376C92.0672 24.7568 91.9542 24.7165 91.825 24.7165H90.982C90.7979 24.7165 90.6558 24.7601 90.5557 24.8473L90.2795 25.0847C90.1794 25.1686 90.1294 25.2785 90.1294 25.4141ZM98.5979 28.5874H96.1368C96.0238 28.5874 95.9269 28.547 95.8461 28.4663C95.7686 28.3823 95.7299 28.2838 95.7299 28.1708C95.7299 28.0609 95.7686 27.9657 95.8461 27.8849C95.9269 27.8042 96.0238 27.7638 96.1368 27.7638H96.9507V22.9627H96.1271C96.0141 22.9627 95.9172 22.9239 95.8364 22.8464C95.7589 22.7657 95.7202 22.6688 95.7202 22.5557C95.7202 22.4427 95.7589 22.3474 95.8364 22.2699C95.9172 22.1891 96.0141 22.1488 96.1271 22.1488H97.3674C97.4772 22.1488 97.5725 22.1891 97.6532 22.2699C97.734 22.3506 97.7743 22.4459 97.7743 22.5557V27.7638H98.5979C98.7077 27.7638 98.803 27.8042 98.8838 27.8849C98.9645 27.9657 99.0049 28.0609 99.0049 28.1708C99.0049 28.2838 98.9645 28.3823 98.8838 28.4663C98.8063 28.547 98.711 28.5874 98.5979 28.5874ZM105.41 25.3802V27.1001C105.41 27.465 105.237 27.8026 104.891 28.1126C104.549 28.4227 104.195 28.5777 103.83 28.5777H102.876C102.504 28.5777 102.149 28.4211 101.81 28.1078C101.471 27.7913 101.301 27.4554 101.301 27.1001V25.3802C101.301 25.0249 101.466 24.6906 101.795 24.3773C102.128 24.0608 102.488 23.9026 102.876 23.9026H103.83C104.195 23.8961 104.549 24.0479 104.891 24.358C105.237 24.668 105.41 25.0088 105.41 25.3802ZM102.125 25.4141V27.0613C102.125 27.2099 102.178 27.3278 102.285 27.415L102.59 27.6766C102.658 27.7347 102.753 27.7638 102.876 27.7638H103.821C103.959 27.7638 104.085 27.7137 104.198 27.6136L104.446 27.3956C104.546 27.3181 104.596 27.2099 104.596 27.071V25.4238C104.596 25.2623 104.546 25.1428 104.446 25.0653L104.16 24.8376C104.063 24.7568 103.95 24.7165 103.821 24.7165H102.978C102.793 24.7165 102.651 24.7601 102.551 24.8473L102.275 25.0847C102.175 25.1686 102.125 25.2785 102.125 25.4141ZM109.867 30.3315H108.103C107.99 30.3315 107.893 30.2927 107.813 30.2152C107.735 30.1377 107.696 30.0408 107.696 29.9245C107.696 29.8115 107.735 29.7162 107.813 29.6387C107.893 29.5612 107.99 29.5224 108.103 29.5224H109.867C109.973 29.5224 110.073 29.4821 110.167 29.4013L110.443 29.1639C110.537 29.0929 110.584 28.9992 110.584 28.8829V27.6427C110.203 28.027 109.831 28.2192 109.469 28.2192H108.845C108.522 28.2192 108.231 28.1078 107.972 27.8849L107.667 27.6136C107.567 27.5296 107.48 27.4069 107.406 27.2454C107.335 27.0839 107.299 26.9257 107.299 26.7706V25.4238C107.299 25.2332 107.335 25.0524 107.406 24.8812C107.48 24.71 107.567 24.5824 107.667 24.4985L108.002 24.2126C108.241 24.0059 108.522 23.9026 108.845 23.9026H109.431C109.75 23.9026 110.041 24.0156 110.303 24.2417L110.584 24.4791L110.574 24.3192C110.574 24.2094 110.614 24.1141 110.695 24.0334C110.776 23.9526 110.871 23.9122 110.981 23.9122C111.094 23.9122 111.191 23.9526 111.272 24.0334C111.356 24.1109 111.398 24.2062 111.398 24.3192V28.8829C111.398 29.2285 111.259 29.524 110.981 29.7695L110.652 30.0554C110.568 30.1296 110.448 30.1942 110.293 30.2491C110.141 30.304 109.999 30.3315 109.867 30.3315ZM109.402 24.7165H108.854C108.735 24.7165 108.62 24.7633 108.51 24.857L108.258 25.0653C108.161 25.146 108.113 25.2558 108.113 25.3947V26.7513C108.113 26.8611 108.166 26.9644 108.273 27.0613L108.539 27.2987C108.623 27.3698 108.712 27.4053 108.806 27.4053H109.469C109.566 27.4053 109.673 27.3568 109.789 27.2599L110.434 26.7125C110.534 26.6253 110.584 26.5187 110.584 26.3927V25.7775C110.584 25.6289 110.527 25.5078 110.414 25.4141L109.75 24.8473C109.657 24.7601 109.541 24.7165 109.402 24.7165ZM114.934 21.7903H115.361C115.474 21.7903 115.569 21.8306 115.647 21.9114C115.727 21.9889 115.768 22.0842 115.768 22.1972V22.546C115.768 22.6591 115.727 22.7576 115.647 22.8416C115.569 22.9223 115.474 22.9627 115.361 22.9627H114.925C114.808 22.9627 114.71 22.9207 114.629 22.8367C114.552 22.7527 114.514 22.6591 114.518 22.5557L114.527 22.1972C114.527 22.0842 114.566 21.9889 114.644 21.9114C114.724 21.8306 114.821 21.7903 114.934 21.7903ZM116.591 28.5777H114.111C113.998 28.5777 113.901 28.539 113.82 28.4614C113.743 28.3807 113.704 28.2838 113.704 28.1708C113.704 28.0609 113.743 27.9657 113.82 27.8849C113.901 27.8042 113.998 27.7638 114.111 27.7638H114.944V24.7262H114.12C114.007 24.7262 113.91 24.6858 113.83 24.605C113.752 24.5243 113.713 24.429 113.713 24.3192C113.713 24.2062 113.752 24.1093 113.83 24.0285C113.91 23.9445 114.007 23.9026 114.12 23.9026H115.361C115.474 23.9026 115.569 23.9445 115.647 24.0285C115.727 24.1093 115.768 24.2062 115.768 24.3192V27.7638H116.582C116.695 27.7638 116.791 27.8042 116.872 27.8849C116.956 27.9624 116.998 28.0577 116.998 28.1708C116.998 28.2838 116.958 28.3807 116.877 28.4614C116.796 28.539 116.701 28.5777 116.591 28.5777ZM123.403 25.4432V26.4267C123.403 26.5365 123.363 26.6317 123.282 26.7125C123.201 26.7932 123.106 26.8336 122.996 26.8336H120.118V27.071C120.118 27.2099 120.178 27.3278 120.297 27.4247L120.535 27.6233C120.664 27.7234 120.787 27.7735 120.903 27.7735H122.996C123.106 27.7735 123.201 27.8139 123.282 27.8946C123.363 27.9721 123.403 28.0674 123.403 28.1804C123.403 28.2903 123.361 28.3855 123.277 28.4663C123.196 28.547 123.103 28.5874 122.996 28.5874H120.85C120.708 28.5874 120.557 28.5583 120.399 28.5002C120.244 28.4388 120.13 28.3758 120.055 28.3113L119.692 27.9915C119.579 27.9011 119.484 27.7751 119.406 27.6136C119.332 27.4521 119.295 27.3036 119.295 27.1679V25.3027C119.295 25.1961 119.335 25.0524 119.416 24.8715C119.5 24.6906 119.605 24.5501 119.731 24.45L120.07 24.1835C120.293 24.0027 120.54 23.9122 120.811 23.9122H121.954C122.242 23.9122 122.513 24.0317 122.768 24.2708L123.073 24.5614C123.293 24.7585 123.403 25.0524 123.403 25.4432ZM120.128 25.3802V26.01H122.599V25.4432C122.599 25.2914 122.552 25.1751 122.458 25.0944L122.221 24.886C122.098 24.7859 121.988 24.7358 121.891 24.7358H120.869C120.743 24.7358 120.629 24.7794 120.525 24.8667L120.288 25.0653C120.181 25.146 120.128 25.251 120.128 25.3802ZM126.441 23.9122H128.306C128.596 23.9122 128.853 23.9994 129.076 24.1739C129.299 24.345 129.41 24.513 129.41 24.6777C129.41 24.794 129.368 24.8893 129.284 24.9635C129.204 25.0378 129.113 25.075 129.013 25.075C128.884 25.075 128.766 25.0168 128.659 24.9006C128.553 24.7843 128.441 24.7262 128.325 24.7262H126.484C126.303 24.7262 126.213 24.8021 126.213 24.9539C126.213 25.0604 126.273 25.1412 126.392 25.1961L128.558 26.1554C128.777 26.2522 128.957 26.4089 129.095 26.6253C129.238 26.8385 129.309 27.0758 129.309 27.3375C129.309 27.6863 129.184 27.9818 128.936 28.224C128.69 28.4663 128.411 28.5874 128.097 28.5874H126.45C126.166 28.5874 125.901 28.5018 125.656 28.3306C125.413 28.1595 125.292 27.9931 125.292 27.8316C125.292 27.725 125.331 27.6314 125.409 27.5506C125.489 27.4667 125.593 27.4247 125.719 27.4247C125.822 27.4247 125.932 27.4828 126.048 27.5991C126.168 27.7154 126.339 27.7735 126.562 27.7735H128.078C128.198 27.7735 128.298 27.7283 128.378 27.6378C128.459 27.5442 128.5 27.4376 128.5 27.3181C128.5 27.134 128.409 27.0016 128.228 26.9208L126.043 25.9373C125.833 25.8437 125.672 25.708 125.559 25.5304C125.446 25.3527 125.389 25.1719 125.389 24.9878C125.389 24.6971 125.489 24.4452 125.69 24.232C125.893 24.0188 126.143 23.9122 126.441 23.9122Z" fill="#08074E"/>
<path d="M71.3105 18.2596V14.0209C71.3105 13.1079 71.6692 12.4884 72.6148 12.4884C73.5604 12.4884 73.919 13.1079 73.919 14.0209V18.2596C73.919 19.1726 73.5604 19.7921 72.6148 19.7921C71.6692 19.7921 71.3105 19.1726 71.3105 18.2596ZM71.3432 10.4016C71.4084 9.71688 71.9953 9.19518 72.7126 9.26039C73.4299 9.3256 73.919 9.91251 73.8538 10.6298C73.7886 11.282 73.2669 11.7711 72.6148 11.7711C71.8648 11.7384 71.3105 11.1189 71.3432 10.4016Z" fill="#08074E"/>
<path d="M75.8411 17.6725C76.4932 17.7703 77.1127 17.8355 77.7648 17.9007C78.2539 17.9007 78.6778 17.8029 78.6778 17.4768C78.6778 17.3464 78.58 17.2486 78.4495 17.216C77.9604 17.0203 76.9497 16.9225 76.1345 16.5313C76.2323 16.14 76.428 15.7813 76.7214 15.5205C77.1127 15.1292 77.667 14.9988 78.2213 15.1292C79.3299 15.39 81.2863 15.7161 81.2863 17.6725C81.2863 19.2702 79.9168 19.8897 78.4821 20.0201C77.6018 20.0853 76.7214 20.0201 75.9063 19.7592C75.2868 19.5636 74.9933 19.2049 74.9281 18.9115C74.7651 18.3898 75.0585 17.8681 75.5476 17.7051C75.6128 17.7051 75.7106 17.6725 75.8411 17.6725ZM74.8955 14.6075C74.8955 12.8142 76.4932 12.2925 77.9931 12.2925C78.58 12.2925 80.4059 12.4229 80.732 13.0098C80.8298 13.1728 80.895 13.3685 80.9276 13.5967C80.9276 14.1836 80.4711 14.6401 79.8842 14.6401H79.8516C79.5255 14.6401 78.4495 14.3467 77.83 14.4445C76.9497 14.5749 75.9715 15.3574 75.8737 16.4334C75.2542 16.0422 74.8629 15.3248 74.8955 14.6075Z" fill="#08074E"/>
<path d="M83.2748 13.4666C83.9922 12.684 85.0356 12.2602 86.1116 12.2928C88.1657 12.2928 89.633 13.6296 89.633 15.586C89.633 16.662 89.1765 17.1837 88.2636 17.1837H84.9051C84.9051 17.8032 85.9159 17.9662 86.3724 17.9662C86.8289 17.9662 87.2854 17.901 87.7419 17.8032C87.9375 17.738 88.1331 17.738 88.3614 17.738C88.9483 17.738 89.2091 18.1292 89.2091 18.6835C89.2091 19.8247 87.0571 20.053 86.242 20.053C85.0682 20.053 83.927 19.6943 83.2422 18.8466C82.6879 18.1618 82.6553 17.2163 83.1118 16.4989C83.5683 15.8142 84.3835 15.4229 85.1986 15.4555H87.2854C87.2854 14.9012 86.9267 14.4448 86.1116 14.3795C84.6117 14.3143 82.6553 15.3251 82.4923 17.4119C82.101 16.0098 82.3945 14.5426 83.2748 13.4666Z" fill="#08074E"/>
<path d="M98.5015 18.2596V14.0209C98.5015 13.1079 98.8601 12.4884 99.8057 12.4884C100.751 12.4884 101.11 13.1079 101.11 14.0209V18.2596C101.11 19.1726 100.751 19.7921 99.8057 19.7921C98.8601 19.7921 98.5015 19.1726 98.5015 18.2596ZM98.5341 10.4016C98.5993 9.71688 99.1862 9.19518 99.9035 9.26039C100.621 9.3256 101.11 9.91251 101.045 10.6298C100.98 11.282 100.458 11.7711 99.8057 11.7711C99.0884 11.7384 98.5341 11.1189 98.5341 10.4016Z" fill="#08074E"/>
<path d="M103.036 17.6725C103.688 17.7703 104.308 17.8355 104.96 17.9007C105.449 17.9007 105.873 17.8029 105.873 17.4768C105.873 17.3464 105.775 17.2486 105.644 17.216C105.155 17.0203 104.144 16.9225 103.329 16.5313C103.427 16.14 103.623 15.7813 103.916 15.5205C104.308 15.1292 104.862 14.9988 105.416 15.1292C106.525 15.39 108.481 15.7161 108.481 17.6725C108.481 19.2702 107.112 19.8897 105.677 20.0201C104.797 20.0853 103.916 20.0201 103.101 19.7592C102.482 19.5636 102.188 19.2049 102.123 18.9115C101.96 18.4224 102.253 17.8681 102.742 17.7051C102.84 17.7051 102.938 17.6725 103.036 17.6725ZM102.123 14.6075C102.123 12.8142 103.721 12.2925 105.22 12.2925C105.807 12.2925 107.633 12.4229 107.959 13.0098C108.057 13.1728 108.122 13.3685 108.155 13.5967C108.155 14.1836 107.699 14.6401 107.112 14.6401H107.079C106.753 14.6401 105.677 14.3467 105.057 14.4445C104.177 14.5749 103.199 15.3574 103.101 16.4334C102.449 16.0422 102.058 15.3248 102.123 14.6075Z" fill="#08074E"/>
<path d="M109.361 18.2596V14.0209C109.361 13.1079 109.72 12.4884 110.665 12.4884C111.611 12.4884 111.969 13.1079 111.969 14.0209V18.2596C111.969 19.1726 111.611 19.7921 110.665 19.7921C109.72 19.7921 109.361 19.1726 109.361 18.2596ZM109.393 10.4016C109.459 9.71688 110.046 9.19518 110.763 9.26039C111.48 9.3256 111.969 9.91251 111.904 10.6298C111.839 11.282 111.317 11.8037 110.632 11.8037C109.915 11.7384 109.361 11.1189 109.393 10.4016Z" fill="#08074E"/>
<path d="M112.947 16.1399C112.947 16.0421 112.947 15.9116 112.947 15.8138C113.012 14.3792 113.828 13.0097 115.458 13.0097C116.338 13.0097 117.153 13.4988 117.545 14.3139L117.61 14.4444C117.447 14.4118 117.284 14.3792 117.088 14.3792C116.045 14.3792 115.491 15.0965 115.491 16.1399C115.491 17.1833 116.077 17.9006 117.088 17.9006C117.969 17.9006 118.653 17.2811 118.653 16.1399C118.653 15.7486 118.784 12.6836 115.067 12.6184C115.719 12.3902 116.404 12.2598 117.088 12.2598C119.729 12.2598 121.229 13.8901 121.229 16.1073C121.229 18.3897 119.697 19.9548 117.088 19.9548C114.415 20.02 112.947 18.3245 112.947 16.1399Z" fill="#08074E"/>
<path d="M123.545 12.4878C124.523 12.4878 124.784 13.3355 124.849 14.1833V18.259C124.882 18.6503 124.751 19.0742 124.523 19.4002C124.295 19.6611 123.936 19.8241 123.545 19.7915C122.599 19.7915 122.241 19.1394 122.241 18.259V14.0203C122.241 13.1399 122.599 12.4878 123.545 12.4878ZM126.643 12.2921C128.762 12.2921 129.642 13.8246 129.642 15.781V18.259C129.642 19.1068 129.284 19.7915 128.338 19.7915C127.392 19.7915 127.066 19.1068 127.066 18.259V15.7484C127.066 14.9984 126.806 14.3789 125.958 14.3789C125.762 14.3789 125.567 14.4115 125.371 14.5093C125.338 14.542 125.273 14.542 125.24 14.5746C125.306 13.9877 125.24 13.4334 125.077 12.8791C125.501 12.4878 126.056 12.2595 126.643 12.2921Z" fill="#08074E"/>
<path d="M64.3968 10.9883L62.31 17.8356C62.31 17.8682 62.2774 17.9008 62.2774 17.9334L62.1144 18.6181C61.8861 19.5637 61.4296 20.0202 60.7449 20.0202C60.0602 20.0202 59.5711 19.5637 59.3102 18.6833L57.1909 11.51C57.1583 11.3796 57.1583 11.2492 57.093 11.1513C57.0604 10.9557 57.0278 10.7601 57.0278 10.5644C57.0278 9.91232 57.2887 9.35802 57.9734 9.16238C58.1038 9.12977 58.2343 9.09717 58.3647 9.09717C59.0168 9.09717 59.4407 9.58626 59.7015 10.5318L60.7123 14.5098L62.0818 10.0427H62.1144C62.1796 10.0753 62.2448 10.108 62.31 10.108H62.3426L61.5275 12.7816L61.6905 13.3359L62.147 11.8035C62.1796 11.8035 62.2122 11.8361 62.2774 11.8361L61.7557 13.5642L61.9513 14.2163L62.8317 11.3796C62.8969 11.4122 62.9621 11.4448 63.0273 11.4448H63.0599L62.0818 14.6402L62.31 15.3901L63.1578 12.6512C63.1904 12.6838 63.223 12.6838 63.2556 12.6838L62.3752 15.5858L62.5708 16.2053L64.1685 10.9557C64.2338 10.9883 64.299 10.9883 64.3642 11.0209L64.3968 10.9883Z" fill="#08074E"/>
<path d="M61.919 10.7926V10.4991C61.8538 9.74918 62.4407 9.09706 63.1907 9.06445H63.2233C64.0058 9.06445 64.3645 9.847 64.5601 10.4665L65.1796 12.4555C65.5383 13.4989 65.8317 14.6401 65.9622 14.9661C65.8317 15.7161 65.5383 16.6943 64.5927 16.6943C64.1036 16.6943 63.6797 16.3356 63.5493 15.8791L62.1473 11.6403C62.0168 11.3795 61.9516 11.086 61.919 10.7926ZM64.8536 17.1833C65.5057 17.1833 66.06 16.7921 66.2556 16.1726L68.0163 10.4665C68.3098 9.52094 68.7337 9.06445 69.3532 9.06445C70.1031 9.06445 70.69 9.68397 70.69 10.4339C70.69 10.4665 70.69 10.4665 70.69 10.4991C70.69 10.76 70.6574 11.0208 70.5922 11.2491C70.5596 11.3795 70.527 11.5099 70.4944 11.6403L68.2446 18.3572C67.8859 19.4658 67.2338 20.0201 66.3208 20.0201C65.4079 20.0201 64.7557 19.4658 64.3971 18.3572L63.908 16.8573C64.1362 17.0855 64.4949 17.1833 64.8536 17.1833Z" fill="#08074E"/>
<path d="M95.8613 9.8145C95.9917 9.8145 96.1221 9.78189 96.2199 9.68407C96.3178 9.58625 96.383 9.45583 96.383 9.32541C96.383 9.19498 96.3504 9.06456 96.2525 8.96674C96.1547 8.86892 96.0569 8.80371 95.9265 8.80371C95.7961 8.80371 95.6656 8.83632 95.5678 8.93413C95.5026 8.99935 95.47 9.06456 95.4374 9.16238C95.4374 9.19498 95.4048 9.26019 95.4048 9.2928C95.4048 9.42322 95.4374 9.55365 95.5352 9.65147C95.5678 9.68407 95.633 9.71668 95.6656 9.74928C95.6982 9.78189 95.7961 9.8145 95.8613 9.8145ZM95.6982 9.48844C95.6004 9.39062 95.6004 9.22759 95.6982 9.09716C95.7634 9.06456 95.8287 9.03195 95.8939 9.03195C95.9591 9.03195 96.0243 9.06456 96.0895 9.12977C96.1221 9.19498 96.1547 9.26019 96.1547 9.32541C96.1547 9.35801 96.1547 9.35801 96.1547 9.39062C96.1221 9.52104 96.0243 9.58625 95.8939 9.58625C95.7961 9.55365 95.7308 9.55365 95.6982 9.48844Z" fill="#08074E"/>
<path d="M94.1353 14.6724L95.6677 9.65104C95.7004 9.58583 95.7656 9.55322 95.8308 9.55322C95.896 9.58583 95.9286 9.65104 95.9286 9.71625L94.3961 14.7376C94.3635 14.8028 94.2983 14.8354 94.2331 14.8354C94.1353 14.8354 94.1027 14.7376 94.1353 14.6724Z" fill="#08074E"/>
<path d="M96.5786 11.086C96.709 11.086 96.8394 11.0208 96.9372 10.9556C97.035 10.8577 97.1002 10.7273 97.1002 10.5969C97.1002 10.4665 97.0676 10.336 96.9698 10.2382C96.872 10.1404 96.7742 10.0752 96.6438 10.0752C96.5133 10.0752 96.3829 10.1078 96.2851 10.2056C96.2199 10.2708 96.1873 10.336 96.1547 10.4339C96.1547 10.4665 96.1221 10.5317 96.1221 10.5643C96.1221 10.7599 96.2199 10.9556 96.3829 11.0208C96.4481 11.0534 96.5133 11.086 96.5786 11.086ZM96.4155 10.7599C96.3177 10.6621 96.3177 10.4665 96.4155 10.3686C96.4807 10.336 96.5459 10.3034 96.6112 10.3034C96.6764 10.3034 96.7416 10.336 96.8068 10.4013C96.8394 10.4665 96.872 10.5317 96.872 10.5969C96.872 10.6295 96.872 10.6295 96.872 10.6621C96.8394 10.7599 96.7416 10.8577 96.6112 10.8577C96.5133 10.8577 96.4481 10.8251 96.4155 10.7599Z" fill="#08074E"/>
<path d="M95.0142 15.4549L96.3836 10.9552C96.4162 10.89 96.4488 10.8574 96.514 10.8574C96.5792 10.89 96.6119 10.9552 96.5793 11.0205L95.2098 15.5201C95.2098 15.5853 95.1446 15.6179 95.0794 15.6179C95.0468 15.5853 95.0142 15.5201 95.0142 15.4549Z" fill="#08074E"/>
<path d="M96.8083 12.2924C96.8735 12.2924 96.9387 12.2598 96.9713 12.2272C97.0039 12.1946 97.0366 12.1294 97.0366 12.0642C97.0366 11.999 97.0039 11.9338 96.9713 11.9011C96.9387 11.8685 96.8735 11.8359 96.8083 11.8359C96.7431 11.8359 96.6779 11.8685 96.6453 11.9011C96.6127 11.9338 96.5801 11.9664 96.5801 11.999C96.5801 12.0316 96.5801 12.0316 96.5801 12.0642C96.5801 12.1294 96.6127 12.1946 96.6453 12.2272C96.6779 12.2598 96.6779 12.2598 96.7105 12.2924C96.7431 12.2924 96.7757 12.2924 96.8083 12.2924ZM96.7105 12.162C96.6453 12.0968 96.6453 12.0316 96.7105 11.9664C96.7431 11.9338 96.7757 11.9338 96.8083 11.9338C96.8409 11.9338 96.8735 11.9338 96.9061 11.9664C96.9387 11.999 96.9387 12.0316 96.9387 12.0642V12.0968C96.9387 12.1294 96.9061 12.1294 96.9061 12.162C96.8735 12.1946 96.8409 12.1946 96.8083 12.1946C96.7757 12.1946 96.7431 12.162 96.7105 12.162Z" fill="#08074E"/>
<path d="M95.4048 16.4988L96.709 12.2926C96.7416 12.2274 96.7742 12.1948 96.8068 12.1948C96.8394 12.1948 96.8394 12.26 96.8394 12.3252L95.5352 16.5314C95.5026 16.5966 95.47 16.6292 95.4374 16.6292C95.4048 16.6292 95.4048 16.564 95.4048 16.4988Z" fill="#08074E"/>
<path d="M95.7644 11.7382C95.8948 11.7382 95.9926 11.6404 95.9926 11.51C95.9926 11.4448 95.96 11.3796 95.9274 11.347C95.8948 11.3143 95.8296 11.2817 95.7644 11.2817C95.6992 11.2817 95.634 11.3143 95.6013 11.347C95.5687 11.3796 95.5361 11.4122 95.5361 11.4448C95.5361 11.4774 95.5361 11.4774 95.5361 11.51C95.5361 11.5752 95.5687 11.6404 95.6013 11.673C95.634 11.7056 95.6339 11.7056 95.6666 11.7382C95.6992 11.7382 95.7318 11.7382 95.7644 11.7382ZM95.6666 11.6078C95.6013 11.5426 95.6013 11.4774 95.6666 11.4122C95.6992 11.3796 95.7318 11.3796 95.7644 11.3796C95.797 11.3796 95.8296 11.3796 95.8622 11.4122C95.8948 11.4448 95.8948 11.4774 95.8948 11.51V11.5426C95.8948 11.5752 95.8622 11.5752 95.8622 11.6078C95.8296 11.6404 95.797 11.6404 95.7644 11.6404C95.7318 11.6404 95.6992 11.6078 95.6666 11.6078Z" fill="#08074E"/>
<path d="M94.6558 14.9337L95.6339 11.6731C95.6339 11.6405 95.6666 11.6079 95.6992 11.6079C95.7318 11.6079 95.7318 11.6731 95.7318 11.7057L94.7536 14.9337C94.7536 14.9663 94.6884 14.9989 94.6884 14.9989C94.6884 14.9989 94.6558 14.9989 94.6558 14.9337Z" fill="#08074E"/>
<path d="M97.914 10.6945C98.0444 10.6945 98.1749 10.6293 98.2727 10.5641C98.4683 10.3684 98.5009 10.075 98.3053 9.87934C98.2075 9.78152 98.1096 9.71631 97.9792 9.71631C97.751 9.71631 97.5553 9.84673 97.4901 10.075C97.4901 10.1076 97.4575 10.1728 97.4575 10.2054C97.4575 10.3358 97.4901 10.4662 97.5879 10.5641C97.6205 10.5967 97.6858 10.6293 97.7184 10.6619C97.751 10.6619 97.8488 10.6619 97.914 10.6945ZM97.751 10.3684C97.6532 10.2706 97.6532 10.1076 97.751 9.97716C97.8162 9.94455 97.8814 9.91194 97.9466 9.91194C98.077 9.91194 98.2075 10.0424 98.2075 10.1728C98.2075 10.2054 98.2075 10.2054 98.2075 10.238C98.2075 10.2706 98.1749 10.3358 98.1422 10.3358C98.077 10.401 98.0118 10.401 97.9466 10.401C97.8488 10.4336 97.7836 10.4336 97.751 10.3684Z" fill="#08074E"/>
<path d="M95.6344 17.379L97.7212 10.5969C97.7538 10.4991 97.819 10.4339 97.8842 10.4665C97.9494 10.4991 97.982 10.5643 97.9494 10.6947L95.8626 17.4442C95.83 17.542 95.7648 17.6072 95.6996 17.5746C95.6344 17.542 95.6018 17.4768 95.6344 17.379Z" fill="#08074E"/>
<path d="M94.5237 13.3033C94.0998 14.7379 93.6433 16.1726 93.6433 16.1726C93.4477 16.7921 92.8934 17.1834 92.2739 17.1834C91.9152 17.1834 91.5566 17.053 91.2631 16.8573L91.7522 18.3246C92.1109 19.4006 92.763 19.9549 93.6433 19.9549C94.5237 19.9549 95.1758 19.4006 95.5345 18.3246L95.7953 17.5095L94.5237 13.3033ZM92.5347 12.5533L91.9478 10.597C91.7522 9.97748 91.4261 9.22754 90.6436 9.22754C89.9263 9.26015 89.3394 9.84705 89.3394 10.597C89.3394 10.6296 89.3394 10.6296 89.3394 10.6296V10.8904C89.372 11.1839 89.4372 11.4774 89.535 11.7382L90.9044 15.9118C91.0349 16.3682 91.4261 16.6943 91.9152 16.7269C92.8282 16.7269 93.1543 15.7813 93.2521 15.0314C93.1869 14.6727 92.8934 13.5641 92.5347 12.5533Z" fill="#08074E"/>
</g>
<defs>
<clipPath id="clip0_1428_1042">
<rect width="130" height="38.3772" fill="white"/>
</clipPath>
</defs>
</svg>
