<svg width="219" height="67" viewBox="0 0 219 67" fill="none" xmlns="http://www.w3.org/2000/svg">
<g clip-path="url(#clip0_302_502)">
<path d="M6.67467 45.521V42.196H19.096V45.5503C19.096 45.8921 18.9739 46.185 18.7298 46.4292C18.4856 46.6635 18.1976 46.7807 17.8656 46.7807C17.5238 46.7807 17.2259 46.6586 16.972 46.4145C16.7279 46.1704 16.6058 45.8823 16.6058 45.5503V44.6568H14.1157V60.4031C14.1157 60.7449 13.9937 61.0379 13.7495 61.282C13.5054 61.5164 13.2173 61.6335 12.8853 61.6335C12.5338 61.6335 12.2359 61.5164 11.9918 61.282C11.7477 61.0379 11.6256 60.7449 11.6256 60.4031V44.6568H9.13549V45.521C9.13549 45.8628 9.01343 46.1557 8.7693 46.3999C8.53493 46.6342 8.24686 46.7514 7.90508 46.7514C7.5633 46.7514 7.27034 46.6342 7.02621 46.3999C6.79185 46.1557 6.67467 45.8628 6.67467 45.521ZM37.2299 52.1271V55.1006C37.2299 55.4327 37.1078 55.7207 36.8637 55.9649C36.6196 56.209 36.3315 56.3311 35.9995 56.3311H27.2987V57.0488C27.2987 57.4687 27.4794 57.8251 27.8407 58.1181L28.5584 58.7186C28.949 59.0214 29.3201 59.1727 29.6717 59.1727H35.9995C36.3315 59.1727 36.6196 59.2948 36.8637 59.5389C37.1078 59.7733 37.2299 60.0614 37.2299 60.4031C37.2299 60.7351 37.103 61.0232 36.8491 61.2674C36.6049 61.5115 36.3217 61.6335 35.9995 61.6335H29.5105C29.0809 61.6335 28.6268 61.5457 28.1483 61.3699C27.6796 61.1843 27.3329 60.9939 27.1083 60.7986L26.0097 59.8319C25.6679 59.5584 25.3799 59.1776 25.1455 58.6893C24.9209 58.2011 24.8086 57.7519 24.8086 57.3418V51.7024C24.8086 51.3801 24.9307 50.9456 25.1748 50.3987C25.4287 49.8519 25.7461 49.4271 26.1269 49.1244L27.1522 48.3187C27.826 47.7719 28.5731 47.4985 29.3933 47.4985H32.8502C33.7193 47.4985 34.5396 47.8598 35.311 48.5824L36.2339 49.4613C36.8979 50.0569 37.2299 50.9456 37.2299 52.1271ZM27.328 51.9367V53.8409H34.7984V52.1271C34.7984 51.6682 34.6568 51.3166 34.3736 51.0725L33.6558 50.4427C33.2848 50.1399 32.9528 49.9886 32.6598 49.9886H29.5691C29.1883 49.9886 28.8416 50.1204 28.5291 50.3841L27.8114 50.9846C27.4891 51.2288 27.328 51.5461 27.328 51.9367ZM54.1627 61.6335H48.9042C47.9765 61.6335 47.1855 61.3552 46.5312 60.7986L44.1436 58.7186C43.382 58.0839 43.0011 57.2246 43.0011 56.1406V52.9328C42.9621 51.8879 43.3917 50.9797 44.2901 50.2083L46.4433 48.348C47.1367 47.7816 47.8788 47.4985 48.6698 47.4985H54.192C54.5338 47.4985 54.8219 47.6205 55.0562 47.8646C55.3004 48.099 55.4224 48.3871 55.4224 48.7289C55.4224 49.0804 55.3004 49.3734 55.0562 49.6077C54.8219 49.8421 54.5338 49.9593 54.192 49.9593H48.9042C48.5722 49.9593 48.2548 50.0911 47.9521 50.3548L45.9746 52.0393C45.6524 52.3127 45.4912 52.6789 45.4912 53.1378V56.1406C45.4912 56.4629 45.6182 56.7363 45.8721 56.9609L48.0399 58.8065C48.3134 59.0507 48.6747 59.1727 49.1239 59.1727H54.1627C54.4947 59.1727 54.7828 59.2948 55.0269 59.5389C55.2711 59.7733 55.3931 60.0614 55.3931 60.4031C55.3931 60.7449 55.2711 61.0379 55.0269 61.282C54.7926 61.5164 54.5045 61.6335 54.1627 61.6335ZM61.0765 60.4031V43.3971C61.0765 43.0651 61.1936 42.7819 61.428 42.5475C61.6721 42.3131 61.9651 42.196 62.3069 42.196C62.6487 42.196 62.9367 42.318 63.1711 42.5622C63.4152 42.7965 63.5373 43.0846 63.5373 43.4264V49.637L65.5147 48.348C66.4131 47.7816 67.2139 47.4985 67.917 47.4985H69.4403C70.4461 47.4985 71.3104 47.8598 72.033 48.5824C72.7556 49.2952 73.1316 50.1643 73.1609 51.1897L73.4685 60.4031C73.4782 60.7449 73.361 61.0379 73.1169 61.282C72.8728 61.5164 72.5798 61.6335 72.2381 61.6335C71.8963 61.6335 71.6082 61.5115 71.3738 61.2674C71.1395 61.0135 71.0174 60.7254 71.0076 60.4031L70.7 51.1604C70.6903 50.8284 70.5633 50.5403 70.3192 50.2962C70.0751 50.052 69.7821 49.93 69.4403 49.93H68.0634C67.751 49.93 67.4092 50.052 67.0381 50.2962L63.5373 52.5812V60.4031C63.5373 60.7449 63.4152 61.0379 63.1711 61.282C62.9367 61.5164 62.6487 61.6335 62.3069 61.6335C61.9651 61.6335 61.6721 61.5164 61.428 61.282C61.1936 61.0379 61.0765 60.7449 61.0765 60.4031ZM85.0548 50.3548L81.7005 52.5373V60.4031C81.7005 60.7351 81.5784 61.0232 81.3343 61.2674C81.0902 61.5115 80.8021 61.6335 80.4701 61.6335C80.1381 61.6335 79.85 61.5115 79.6059 61.2674C79.3617 61.0232 79.2397 60.7351 79.2397 60.4031V48.7289C79.2397 48.3871 79.3569 48.0941 79.5912 47.85C79.8354 47.5961 80.1283 47.4692 80.4701 47.4692C80.8021 47.4692 81.0902 47.5961 81.3343 47.85C81.5784 48.0941 81.7005 48.3871 81.7005 48.7289V49.5491L83.9416 48.1869C84.6935 47.7084 85.5431 47.4692 86.4903 47.4692H87.6329C88.6094 47.4692 89.4541 47.8158 90.1669 48.5091C90.8798 49.2025 91.2557 50.0569 91.2948 51.0725L91.6317 60.4031C91.6415 60.7351 91.5243 61.0232 91.2801 61.2674C91.036 61.5115 90.7431 61.6335 90.4013 61.6335C90.079 61.6335 89.7958 61.5261 89.5517 61.3113C89.3076 61.0867 89.1806 60.784 89.1709 60.4031L88.8047 51.219C88.7754 50.3596 88.3262 49.93 87.4571 49.93H86.256C85.8849 49.93 85.4845 50.0716 85.0548 50.3548ZM109.766 51.9367V57.1367C109.766 58.2401 109.243 59.2606 108.198 60.1981C107.163 61.1355 106.094 61.6042 104.99 61.6042H102.105C100.982 61.6042 99.9077 61.1306 98.8823 60.1834C97.857 59.2264 97.3443 58.2109 97.3443 57.1367V51.9367C97.3443 50.8626 97.8423 49.8519 98.8384 48.9046C99.8442 47.9477 100.933 47.4692 102.105 47.4692H104.99C106.094 47.4496 107.163 47.9086 108.198 48.846C109.243 49.7835 109.766 50.8137 109.766 51.9367ZM99.8344 52.0393V57.0195C99.8344 57.4687 99.9956 57.8251 100.318 58.0888L101.241 58.8798C101.446 59.0555 101.734 59.1434 102.105 59.1434H104.961C105.381 59.1434 105.762 58.9921 106.104 58.6893L106.851 58.0302C107.153 57.7958 107.305 57.4687 107.305 57.0488V52.0686C107.305 51.5803 107.153 51.219 106.851 50.9846L105.986 50.2962C105.694 50.052 105.352 49.93 104.961 49.93H102.412C101.856 49.93 101.426 50.0618 101.123 50.3255L100.289 51.0432C99.9858 51.2971 99.8344 51.6291 99.8344 52.0393ZM125.439 61.6335H117.998C117.656 61.6335 117.363 61.5115 117.119 61.2674C116.884 61.0135 116.767 60.7156 116.767 60.3738C116.767 60.0418 116.884 59.7537 117.119 59.5096C117.363 59.2655 117.656 59.1434 117.998 59.1434H120.458V44.6275H117.968C117.627 44.6275 117.334 44.5103 117.09 44.2759C116.855 44.0318 116.738 43.7389 116.738 43.3971C116.738 43.0553 116.855 42.7672 117.09 42.5329C117.334 42.2887 117.627 42.1667 117.968 42.1667H121.718C122.05 42.1667 122.338 42.2887 122.582 42.5329C122.827 42.777 122.949 43.0651 122.949 43.3971V59.1434H125.439C125.771 59.1434 126.059 59.2655 126.303 59.5096C126.547 59.7537 126.669 60.0418 126.669 60.3738C126.669 60.7156 126.547 61.0135 126.303 61.2674C126.069 61.5115 125.781 61.6335 125.439 61.6335ZM146.033 51.9367V57.1367C146.033 58.2401 145.511 59.2606 144.466 60.1981C143.431 61.1355 142.362 61.6042 141.258 61.6042H138.373C137.25 61.6042 136.176 61.1306 135.15 60.1834C134.125 59.2264 133.612 58.2109 133.612 57.1367V51.9367C133.612 50.8626 134.11 49.8519 135.106 48.9046C136.112 47.9477 137.201 47.4692 138.373 47.4692H141.258C142.362 47.4496 143.431 47.9086 144.466 48.846C145.511 49.7835 146.033 50.8137 146.033 51.9367ZM136.102 52.0393V57.0195C136.102 57.4687 136.263 57.8251 136.586 58.0888L137.508 58.8798C137.714 59.0555 138.002 59.1434 138.373 59.1434H141.229C141.649 59.1434 142.03 58.9921 142.372 58.6893L143.119 58.0302C143.421 57.7958 143.573 57.4687 143.573 57.0488V52.0686C143.573 51.5803 143.421 51.219 143.119 50.9846L142.254 50.2962C141.961 50.052 141.62 49.93 141.229 49.93H138.68C138.124 49.93 137.694 50.0618 137.391 50.3255L136.556 51.0432C136.254 51.2971 136.102 51.6291 136.102 52.0393ZM159.509 66.9067H154.178C153.836 66.9067 153.543 66.7896 153.299 66.5552C153.064 66.3208 152.947 66.0279 152.947 65.6763C152.947 65.3345 153.064 65.0465 153.299 64.8121C153.543 64.5777 153.836 64.4606 154.178 64.4606H159.509C159.832 64.4606 160.134 64.3385 160.418 64.0944L161.253 63.3766C161.536 63.1618 161.677 62.8786 161.677 62.5271V58.7772C160.525 59.9393 159.402 60.5203 158.308 60.5203H156.419C155.442 60.5203 154.563 60.1834 153.782 59.5096L152.859 58.6893C152.557 58.4354 152.293 58.0644 152.068 57.5761C151.854 57.0879 151.746 56.6094 151.746 56.1406V52.0686C151.746 51.4924 151.854 50.9456 152.068 50.428C152.293 49.9105 152.557 49.5247 152.859 49.2708L153.87 48.4066C154.593 47.7816 155.442 47.4692 156.419 47.4692H158.191C159.158 47.4692 160.037 47.8109 160.828 48.4945L161.677 49.2122L161.648 48.7289C161.648 48.3968 161.77 48.1088 162.014 47.8646C162.258 47.6205 162.546 47.4985 162.878 47.4985C163.22 47.4985 163.513 47.6205 163.757 47.8646C164.011 48.099 164.138 48.3871 164.138 48.7289V62.5271C164.138 63.5719 163.718 64.4654 162.878 65.2076L161.882 66.0718C161.628 66.2964 161.267 66.4917 160.798 66.6577C160.339 66.8237 159.91 66.9067 159.509 66.9067ZM158.103 49.93H156.448C156.087 49.93 155.74 50.0716 155.408 50.3548L154.646 50.9846C154.353 51.2288 154.207 51.5608 154.207 51.9807V56.082C154.207 56.4141 154.368 56.7265 154.69 57.0195L155.496 57.7372C155.75 57.9521 156.018 58.0595 156.302 58.0595H158.308C158.601 58.0595 158.924 57.913 159.275 57.6201L161.223 55.9649C161.526 55.7012 161.677 55.379 161.677 54.9981V53.1378C161.677 52.6886 161.506 52.3225 161.165 52.0393L159.158 50.3255C158.875 50.0618 158.523 49.93 158.103 49.93ZM174.831 41.0827H176.12C176.462 41.0827 176.75 41.2048 176.984 41.4489C177.228 41.6833 177.35 41.9714 177.35 42.3131V43.3678C177.35 43.7096 177.228 44.0074 176.984 44.2613C176.75 44.5054 176.462 44.6275 176.12 44.6275H174.802C174.45 44.6275 174.152 44.5005 173.908 44.2466C173.674 43.9928 173.562 43.7096 173.571 43.3971L173.601 42.3131C173.601 41.9714 173.718 41.6833 173.952 41.4489C174.196 41.2048 174.489 41.0827 174.831 41.0827ZM179.841 61.6042H172.341C171.999 61.6042 171.706 61.4871 171.462 61.2527C171.228 61.0086 171.11 60.7156 171.11 60.3738C171.11 60.0418 171.228 59.7537 171.462 59.5096C171.706 59.2655 171.999 59.1434 172.341 59.1434H174.86V49.9593H172.37C172.028 49.9593 171.735 49.8372 171.491 49.5931C171.257 49.349 171.14 49.0609 171.14 48.7289C171.14 48.3871 171.257 48.0941 171.491 47.85C171.735 47.5961 172.028 47.4692 172.37 47.4692H176.12C176.462 47.4692 176.75 47.5961 176.984 47.85C177.228 48.0941 177.35 48.3871 177.35 48.7289V59.1434H179.811C180.153 59.1434 180.446 59.2655 180.69 59.5096C180.944 59.744 181.071 60.0321 181.071 60.3738C181.071 60.7156 180.949 61.0086 180.705 61.2527C180.461 61.4871 180.173 61.6042 179.841 61.6042ZM200.435 52.1271V55.1006C200.435 55.4327 200.313 55.7207 200.069 55.9649C199.825 56.209 199.537 56.3311 199.205 56.3311H190.504V57.0488C190.504 57.4687 190.685 57.8251 191.046 58.1181L191.764 58.7186C192.154 59.0214 192.525 59.1727 192.877 59.1727H199.205C199.537 59.1727 199.825 59.2948 200.069 59.5389C200.313 59.7733 200.435 60.0614 200.435 60.4031C200.435 60.7351 200.308 61.0232 200.054 61.2674C199.81 61.5115 199.527 61.6335 199.205 61.6335H192.716C192.286 61.6335 191.832 61.5457 191.354 61.3699C190.885 61.1843 190.538 60.9939 190.314 60.7986L189.215 59.8319C188.873 59.5584 188.585 59.1776 188.351 58.6893C188.126 58.2011 188.014 57.7519 188.014 57.3418V51.7024C188.014 51.3801 188.136 50.9456 188.38 50.3987C188.634 49.8519 188.951 49.4271 189.332 49.1244L190.358 48.3187C191.031 47.7719 191.778 47.4985 192.599 47.4985H196.056C196.925 47.4985 197.745 47.8598 198.516 48.5824L199.439 49.4613C200.103 50.0569 200.435 50.9456 200.435 52.1271ZM190.533 51.9367V53.8409H198.004V52.1271C198.004 51.6682 197.862 51.3166 197.579 51.0725L196.861 50.4427C196.49 50.1399 196.158 49.9886 195.865 49.9886H192.774C192.394 49.9886 192.047 50.1204 191.734 50.3841L191.017 50.9846C190.695 51.2288 190.533 51.5461 190.533 51.9367ZM209.619 47.4985H215.259C216.138 47.4985 216.914 47.7621 217.588 48.2894C218.262 48.807 218.599 49.3148 218.599 49.8128C218.599 50.1643 218.472 50.4524 218.218 50.677C217.974 50.9016 217.7 51.0139 217.397 51.0139C217.007 51.0139 216.65 50.8381 216.328 50.4866C216.006 50.1351 215.669 49.9593 215.317 49.9593H209.751C209.204 49.9593 208.931 50.1888 208.931 50.6477C208.931 50.97 209.112 51.2141 209.473 51.3801L216.02 54.2804C216.685 54.5733 217.226 55.0469 217.646 55.7012C218.076 56.3457 218.291 57.0634 218.291 57.8544C218.291 58.9091 217.915 59.8026 217.163 60.535C216.421 61.2674 215.576 61.6335 214.629 61.6335H209.649C208.789 61.6335 207.989 61.3748 207.246 60.8572C206.514 60.3397 206.148 59.8368 206.148 59.3485C206.148 59.0262 206.265 58.7431 206.499 58.4989C206.744 58.245 207.056 58.1181 207.437 58.1181C207.749 58.1181 208.081 58.2939 208.433 58.6454C208.794 58.9969 209.312 59.1727 209.986 59.1727H214.57C214.932 59.1727 215.234 59.036 215.479 58.7626C215.723 58.4794 215.845 58.1571 215.845 57.7958C215.845 57.2392 215.571 56.8388 215.024 56.5947L208.418 53.6212C207.784 53.338 207.295 52.9279 206.954 52.3908C206.612 51.8537 206.441 51.3069 206.441 50.7503C206.441 49.8714 206.744 49.1097 207.349 48.4652C207.964 47.8207 208.721 47.4985 209.619 47.4985Z" fill="white"/>
<path d="M42.9084 28.6296V15.826C42.9084 13.0577 44.0252 11.1859 46.8093 11.1859C49.5934 11.1859 50.7101 13.0577 50.7101 15.826V28.6453C50.7101 31.4136 49.6248 33.2854 46.8093 33.2854C43.9938 33.2854 42.9084 31.3822 42.9084 28.6296ZM43.0028 4.86281C43.1758 2.77083 45.0162 1.21364 47.1081 1.38667C49.2001 1.55969 50.7573 3.39999 50.5843 5.49197C50.427 7.45812 48.7754 8.98385 46.7936 8.98385C44.6387 8.85802 42.9556 7.03343 43.0028 4.86281Z" fill="white"/>
<path d="M56.6086 26.8679C58.5276 27.1825 60.478 27.4027 62.4284 27.5128C63.9227 27.5128 65.1496 27.1825 65.1496 26.2545C65.1338 25.8612 64.8664 25.5309 64.4889 25.4523C62.9947 24.8388 59.9904 24.6029 57.458 23.3446C57.7254 22.1806 58.3231 21.1268 59.1882 20.2931C60.3679 19.1291 62.0824 18.673 63.6867 19.0662C67.0213 19.8212 72.9355 20.7964 72.9355 26.805C72.9355 31.6338 68.7987 33.5056 64.4417 33.8831C61.815 34.1033 59.1567 33.8516 56.6086 33.1281C54.784 32.5619 53.856 31.4923 53.6987 30.5957C53.2268 29.07 54.092 27.4499 55.6177 26.978C55.9323 26.8836 56.2626 26.8522 56.6086 26.8679ZM53.7931 17.5248C53.7931 12.0825 58.5748 10.4938 63.1205 10.4938C64.8979 10.4938 70.4346 10.9028 71.4255 12.6487C71.7558 13.1678 71.9603 13.7655 71.9917 14.3789C72.0075 16.1249 70.6076 17.5562 68.8616 17.572C68.8302 17.572 68.7987 17.572 68.7673 17.572C67.8235 17.572 64.5047 16.7226 62.6801 16.9585C60.0533 17.336 57.049 19.7269 56.7659 22.9671C54.8155 21.8503 53.6673 19.7426 53.7931 17.5248Z" fill="white"/>
<path d="M79.1641 14.0487C81.3504 11.6578 84.4805 10.368 87.705 10.5253C93.9023 10.5253 98.3851 14.5992 98.3851 20.4662C98.3851 23.7064 97.0324 25.295 94.2641 25.295H84.0873C84.0873 27.1668 87.1387 27.6859 88.5072 27.6859C89.8914 27.6544 91.2755 27.4814 92.6282 27.1668C93.2259 27.0252 93.8394 26.9308 94.4685 26.9308C96.1988 26.9308 97.0481 28.1105 97.0481 29.7464C97.0481 33.2225 90.5834 33.9146 88.0982 33.9146C84.5749 33.9146 81.0673 32.845 79.0068 30.2497C77.3395 28.2049 77.1979 25.3265 78.6293 23.1244C80.0449 21.0324 82.4357 19.837 84.9524 19.9314H91.2755C91.2755 18.2484 90.1587 16.8327 87.7207 16.6912C83.2222 16.4552 77.308 19.5539 76.789 25.8455C75.5778 21.7874 76.4744 17.3675 79.1641 14.0487Z" fill="white"/>
<path d="M125.156 28.6296V15.826C125.156 13.0577 126.273 11.1859 129.057 11.1859C131.825 11.1859 132.958 13.0577 132.958 15.826V28.6453C132.958 31.4136 131.873 33.2854 129.057 33.2854C126.242 33.2854 125.156 31.3822 125.156 28.6296ZM125.251 4.86281C125.424 2.77083 127.264 1.21364 129.356 1.38667C131.448 1.55969 133.005 3.39999 132.832 5.49197C132.675 7.45812 131.023 8.98385 129.041 8.98385C126.871 8.85802 125.203 7.03343 125.251 4.86281Z" fill="white"/>
<path d="M138.903 26.8679C140.822 27.1825 142.773 27.4027 144.723 27.5128C146.218 27.5128 147.444 27.1825 147.444 26.2545C147.429 25.8612 147.161 25.5309 146.784 25.4523C145.29 24.8388 142.285 24.6029 139.753 23.3446C140.02 22.1806 140.618 21.1268 141.483 20.2931C142.663 19.1291 144.377 18.673 145.982 19.0662C149.316 19.8212 155.215 20.7964 155.215 26.805C155.215 31.6338 151.094 33.5056 146.721 33.8831C144.094 34.1033 141.436 33.8516 138.888 33.1281C137.047 32.5619 136.119 31.4923 135.978 30.5957C135.506 29.07 136.355 27.4499 137.865 26.978C138.211 26.8836 138.557 26.8364 138.903 26.8679ZM136.072 17.5248C136.072 12.0825 140.87 10.4938 145.415 10.4938C147.193 10.4938 152.729 10.9028 153.72 12.6487C154.051 13.1678 154.255 13.7655 154.287 14.3789C154.302 16.1249 152.902 17.5562 151.156 17.572C151.125 17.572 151.094 17.572 151.062 17.572C150.118 17.572 146.8 16.7226 144.975 16.9585C142.348 17.336 139.344 19.7269 139.108 22.9671C137.142 21.8818 135.946 19.774 136.056 17.5248H136.072Z" fill="white"/>
<path d="M157.967 28.6296V15.826C157.967 13.0577 159.1 11.1859 161.868 11.1859C164.636 11.1859 165.769 13.0577 165.769 15.826V28.6453C165.769 31.4136 164.699 33.2854 161.868 33.2854C159.053 33.2854 157.967 31.3822 157.967 28.6296ZM158.077 4.86279C158.25 2.75508 160.091 1.1979 162.183 1.37092C164.29 1.54394 165.848 3.38425 165.675 5.47623C165.517 7.4581 163.85 8.98383 161.868 8.98383C159.698 8.858 158.014 7.03341 158.077 4.86279Z" fill="white"/>
<path d="M168.805 22.2121C168.789 21.8818 168.82 21.5515 168.852 21.2211C169.088 16.8484 171.526 12.7903 176.402 12.7903C179.107 12.7589 181.577 14.3003 182.725 16.7383L182.914 17.1158C182.41 16.9743 181.891 16.8956 181.372 16.8799C178.195 16.8799 176.591 19.0348 176.591 22.1806C176.591 25.3265 178.321 27.4814 181.372 27.4814C184.046 27.4814 186.107 25.5624 186.107 22.1806C186.107 21.0009 186.516 11.7207 175.269 11.532C177.22 10.8242 179.28 10.4781 181.357 10.4939C189.331 10.4939 193.877 15.4171 193.877 22.1806C193.877 29.0857 189.237 33.8517 181.357 33.8517C173.256 33.8831 168.805 28.8341 168.805 22.2121Z" fill="white"/>
<path d="M200.829 11.1388C203.786 11.1388 204.573 13.6712 204.73 16.2979V28.6296C204.809 29.8565 204.463 31.0676 203.739 32.0586C203 32.8922 201.93 33.3326 200.829 33.2697C198.014 33.2697 196.928 31.3036 196.928 28.6296V15.8261C196.944 13.1678 198.045 11.1388 200.829 11.1388ZM210.22 10.5411C216.606 10.5411 219.264 15.1812 219.264 21.0482V28.6453C219.264 31.2249 218.194 33.2854 215.363 33.2854C212.548 33.2854 211.478 31.2249 211.478 28.6453V21.0482C211.478 18.7517 210.676 16.9114 208.096 16.9114C207.498 16.9114 206.901 17.0372 206.366 17.2889C206.224 17.3361 206.083 17.399 205.941 17.4776C206.114 15.7474 205.957 14.0015 205.485 12.3185C206.759 11.1231 208.458 10.4782 210.22 10.5411Z" fill="white"/>
<path d="M22.0359 6.62447L15.697 27.324C15.6655 27.4184 15.6184 27.5128 15.5554 27.6072L15.0364 29.6677C14.3758 32.4832 13.023 33.9146 10.8996 33.9146C8.77617 33.9146 7.37627 32.5461 6.57409 29.8565L0.172314 8.16593C0.030752 7.78843 0.0307539 7.41093 -0.110809 7.08061C-0.236642 6.49864 -0.299561 5.90093 -0.299561 5.30322C-0.299561 3.33707 0.455438 1.63832 2.51596 1.05635C2.90919 0.914783 3.31815 0.851865 3.74284 0.867594C5.70898 0.867594 6.99877 2.33041 7.73804 5.2403L10.821 17.3046L14.9892 3.76176H15.0678C15.2566 3.85613 15.4768 3.90333 15.6813 3.90333H15.7442L13.2747 11.9409L13.8095 13.6397L15.2251 9.03103C15.3352 9.07822 15.4611 9.10968 15.5869 9.10968L13.9825 14.3318L14.5802 16.2979L17.2227 7.67833C17.4115 7.7727 17.6317 7.83562 17.8362 7.83562H17.8991L14.942 17.4933L15.6655 19.8055L18.1979 11.532C18.2923 11.5792 18.3867 11.6106 18.4968 11.6106L15.8386 20.3875L16.4363 22.3065L21.2809 6.46718C21.4696 6.56155 21.6898 6.60874 21.8943 6.60874L22.0359 6.62447Z" fill="white"/>
<path d="M14.4858 6.01104V5.16167C14.3442 2.9124 16.043 0.96198 18.2922 0.820418C18.3394 0.820418 18.3866 0.820418 18.4338 0.820418C20.8404 0.820418 21.8785 3.17979 22.4919 5.06729L24.3322 11.1073C25.3704 14.2689 26.2984 17.6664 26.6444 18.7045C26.2669 21.0167 25.3232 23.9423 22.4919 23.9423C21.0134 23.9108 19.7393 22.8884 19.3776 21.4414L15.1307 8.62209C14.8004 7.78844 14.5959 6.90761 14.4858 6.01104ZM23.4514 25.3579C25.4018 25.4051 27.132 24.1468 27.6983 22.2907C27.7455 22.2907 32.999 5.05156 33.0305 5.05156C33.8956 2.22031 35.2168 0.804688 37.0414 0.804688C39.3064 0.836146 41.0995 2.70792 41.0681 4.97292C41.0681 5.03583 41.0681 5.09875 41.0681 5.16167C41.0838 5.94813 40.9737 6.71885 40.7378 7.47385C40.6591 7.86708 40.549 8.24458 40.4075 8.60636L33.6124 28.897C32.4799 32.2473 30.5453 33.9618 27.7612 33.9618C24.9771 33.9618 23.0424 32.263 21.9099 28.897L20.3999 24.367C21.2808 24.9961 22.3504 25.3422 23.4514 25.3579Z" fill="white"/>
<path d="M117.15 3.05397H117.213C117.575 3.05397 117.937 2.91241 118.204 2.64502C118.503 2.37762 118.676 1.98439 118.692 1.59116C118.707 1.19793 118.566 0.804706 118.283 0.521581C118.015 0.222727 117.638 0.0497055 117.245 0.0339764C116.851 0.0182472 116.474 0.17554 116.175 0.442936C115.986 0.631686 115.845 0.851891 115.766 1.10356C115.735 1.22939 115.703 1.37095 115.703 1.49679C115.687 1.89002 115.829 2.28324 116.096 2.5821C116.222 2.70793 116.364 2.81804 116.521 2.89668C116.71 3.00679 116.93 3.05397 117.15 3.05397ZM116.631 2.06304C116.317 1.74845 116.317 1.22939 116.631 0.914811C116.788 0.773248 116.993 0.694598 117.197 0.694598C117.402 0.694598 117.606 0.788974 117.748 0.946266C117.889 1.10356 117.968 1.30804 117.952 1.52825C117.968 1.59116 117.968 1.66981 117.952 1.73272C117.842 2.07877 117.528 2.31471 117.15 2.31471C116.946 2.31471 116.757 2.23606 116.615 2.0945V2.06304H116.631Z" fill="white"/>
<path d="M111.912 17.7608L116.552 2.61357C116.615 2.40909 116.836 2.29899 117.04 2.3619C117.244 2.42482 117.355 2.64503 117.292 2.84951L112.652 17.9967C112.589 18.2012 112.384 18.327 112.164 18.2798C112.164 18.2798 112.164 18.2798 112.148 18.2798C111.944 18.2169 111.834 17.9967 111.897 17.7922C111.897 17.7765 111.897 17.7608 111.912 17.7608Z" fill="white"/>
<path d="M119.336 6.90757H119.399C119.761 6.90757 120.123 6.75028 120.39 6.49862C120.689 6.23122 120.862 5.85372 120.878 5.44476C120.894 5.05153 120.752 4.6583 120.485 4.37518C120.217 4.07632 119.84 3.9033 119.447 3.88757C119.053 3.88757 118.676 4.02914 118.377 4.29653C118.188 4.48528 118.047 4.70549 117.968 4.95715C117.937 5.08299 117.905 5.22455 117.905 5.35038C117.874 5.93236 118.204 6.48288 118.723 6.76601C118.896 6.84465 119.116 6.90757 119.336 6.90757ZM118.802 5.91663C118.503 5.58632 118.519 5.08299 118.849 4.76841C119.006 4.62685 119.195 4.5482 119.415 4.5482C119.62 4.5482 119.824 4.64257 119.966 4.79986C120.107 4.95715 120.186 5.16164 120.186 5.38184C120.202 5.46049 120.202 5.52341 120.186 5.60205C120.076 5.94809 119.761 6.1683 119.399 6.1683C119.179 6.18403 118.959 6.10539 118.802 5.9481V5.91663Z" fill="white"/>
<path d="M114.649 20.0729L118.817 6.45147C118.865 6.26272 119.069 6.15262 119.258 6.1998C119.447 6.26272 119.557 6.4672 119.478 6.65595L115.31 20.2774C115.263 20.4662 115.074 20.5763 114.885 20.5291C114.696 20.4819 114.586 20.2931 114.633 20.1044C114.633 20.1044 114.649 20.0887 114.649 20.0729Z" fill="white"/>
<path d="M119.997 10.5882C120.17 10.5882 120.343 10.5096 120.485 10.3838C120.626 10.2579 120.705 10.0692 120.705 9.88043C120.721 9.69168 120.642 9.50293 120.516 9.36136C120.39 9.2198 120.202 9.12543 120.013 9.12543C119.824 9.12543 119.635 9.18835 119.494 9.32991C119.399 9.42428 119.337 9.53438 119.289 9.66022C119.289 9.72313 119.289 9.78605 119.289 9.84897C119.274 10.0377 119.352 10.2265 119.494 10.368C119.541 10.4309 119.62 10.4939 119.698 10.5253C119.777 10.5568 119.887 10.5882 119.997 10.5882ZM119.745 10.1321C119.588 9.9748 119.588 9.72314 119.745 9.56585C119.824 9.50293 119.919 9.45574 120.029 9.47147C120.123 9.47147 120.217 9.51866 120.296 9.5973C120.375 9.67595 120.406 9.78606 120.39 9.88043C120.39 9.91189 120.39 9.94334 120.39 9.9748C120.375 10.0377 120.343 10.1006 120.296 10.1478C120.217 10.2265 120.123 10.2579 120.013 10.2579C119.903 10.2422 119.808 10.2107 119.745 10.1321Z" fill="white"/>
<path d="M115.797 23.2502L119.698 10.5253C119.761 10.3523 119.871 10.2264 119.95 10.2422C120.044 10.2736 120.076 10.4467 120.013 10.6197L116.128 23.3446C116.065 23.5176 115.955 23.6434 115.86 23.6277C115.766 23.5805 115.75 23.4232 115.797 23.2502Z" fill="white"/>
<path d="M116.82 8.90519C117.213 8.88946 117.528 8.59061 117.543 8.19738C117.543 8.00863 117.48 7.81988 117.339 7.67832C117.213 7.53676 117.024 7.44238 116.836 7.44238C116.647 7.44238 116.458 7.5053 116.317 7.64686C116.222 7.74124 116.159 7.85134 116.112 7.97717C116.112 8.04009 116.112 8.103 116.112 8.16592C116.112 8.35467 116.175 8.54342 116.317 8.70072C116.379 8.76363 116.442 8.81082 116.521 8.84228C116.631 8.85801 116.725 8.88946 116.82 8.90519ZM116.568 8.43332C116.411 8.27603 116.411 8.04009 116.568 7.8828C116.647 7.81988 116.741 7.77269 116.851 7.77269C116.946 7.77269 117.056 7.81988 117.119 7.89853C117.182 7.97717 117.229 8.07155 117.229 8.18165C117.229 8.21311 117.229 8.24457 117.229 8.27603C117.213 8.33894 117.166 8.40186 117.119 8.44905C117.04 8.52769 116.946 8.55915 116.836 8.55915C116.741 8.55915 116.631 8.51196 116.568 8.43332Z" fill="white"/>
<path d="M113.548 18.5629L116.552 8.70072C116.552 8.55915 116.694 8.46478 116.788 8.49624C116.883 8.52769 116.914 8.66925 116.867 8.79509L113.91 18.6101C113.863 18.7517 113.753 18.846 113.674 18.8146C113.595 18.7988 113.501 18.7202 113.548 18.5629Z" fill="white"/>
<path d="M123.347 5.68073H123.41C123.772 5.68073 124.134 5.52343 124.401 5.27177C125.015 4.70552 125.046 3.76177 124.496 3.14833C124.496 3.14833 124.496 3.1326 124.48 3.1326C124.212 2.83375 123.835 2.66073 123.442 2.645C122.765 2.62927 122.168 3.06969 121.979 3.71458C121.947 3.84042 121.916 3.98198 121.916 4.10781C121.9 4.50104 122.042 4.89427 122.309 5.19312C122.435 5.31896 122.577 5.42906 122.734 5.52344C122.923 5.61781 123.127 5.665 123.347 5.68073ZM122.828 4.68979C122.529 4.35948 122.545 3.85614 122.86 3.54156C123.017 3.4 123.221 3.32135 123.426 3.32135C123.851 3.33708 124.197 3.68312 124.181 4.12354C124.181 4.13927 124.181 4.13927 124.181 4.155C124.197 4.23364 124.197 4.29656 124.181 4.37521C124.134 4.50104 124.055 4.62687 123.961 4.72125C123.803 4.87854 123.599 4.95718 123.379 4.94145C123.174 4.95718 122.97 4.89427 122.813 4.76844V4.68979H122.828Z" fill="white"/>
<path d="M116.489 25.9399L122.781 5.39758C122.875 5.09873 123.08 4.90997 123.269 4.95716C123.457 5.00435 123.52 5.3032 123.442 5.60206L117.15 26.1286C117.056 26.4275 116.851 26.6162 116.662 26.569C116.474 26.5218 116.395 26.223 116.489 25.9399Z" fill="white"/>
<path d="M113.139 13.6397C111.818 17.9338 110.481 22.2908 110.465 22.2908C109.899 24.1153 108.2 25.3422 106.281 25.3107C105.196 25.295 104.142 24.949 103.261 24.3198L104.756 28.7712C105.872 32.0743 107.776 33.6944 110.497 33.6944C113.234 33.6944 115.137 32.0271 116.254 28.7712L117.087 26.3017L113.139 13.6397ZM107.162 11.2961L105.353 5.3819C104.756 3.52585 103.733 1.19794 101.358 1.19794C99.1402 1.26085 97.3943 3.10117 97.4572 5.31898C97.4572 5.36617 97.4572 5.41336 97.4572 5.46054V6.29419C97.5673 7.17502 97.7875 8.0244 98.1021 8.84231L102.286 21.5043C102.648 22.9199 103.89 23.9109 105.353 23.958C108.137 23.958 109.065 21.0796 109.427 18.7989C109.065 17.7608 108.169 14.4104 107.146 11.2961H107.162Z" fill="white"/>
</g>
<defs>
<clipPath id="clip0_302_502">
<rect width="219" height="67" fill="white"/>
</clipPath>
</defs>
</svg>
