<svg width="130" height="39" viewBox="0 0 130 39" fill="none" xmlns="http://www.w3.org/2000/svg">
<g clip-path="url(#clip0_1428_1042)">
<path d="M25.0414 7.72741L17.9333 31.0081C17.9007 31.1385 17.8355 31.2363 17.7703 31.3341L17.1833 33.6492C16.4334 36.8119 14.9009 38.4096 12.5533 38.4096C10.2057 38.4096 8.60798 36.8772 7.69501 33.8774L0.521695 9.61856C0.358666 9.19468 0.358666 8.7708 0.195636 8.41214C0.0652119 7.76002 0 7.07529 0 6.39057C0 4.10815 0.847755 2.28222 3.16278 1.6301C3.58666 1.46707 4.07575 1.40186 4.53223 1.40186C6.68422 1.40186 8.1841 3.03215 8.99925 6.32536L12.4555 19.8568L17.1507 4.56463L17.2486 4.59724C17.4768 4.69506 17.705 4.76027 17.9333 4.76027H17.9985L15.2596 13.7595L15.8465 15.6833L17.4116 10.5315C17.542 10.5967 17.6724 10.6293 17.8029 10.6293H17.8355L16.0421 16.4658L16.7269 18.6504L19.6614 8.99905C19.8896 9.09686 20.1179 9.16208 20.3461 9.16208H20.4113L17.1507 19.9547L17.9659 22.5305L20.8026 13.2378C20.9004 13.303 21.0308 13.303 21.1287 13.3356H21.1613V13.3682L18.1615 23.1826L18.8462 25.3346L24.2914 7.56438C24.5197 7.6622 24.7479 7.72741 24.9762 7.72741H25.0414Z" fill="#08074E"/>
<path d="M38.8987 3.42352H38.9639C39.3878 3.42352 39.8116 3.26049 40.1051 2.96703C40.4311 2.64097 40.6268 2.2171 40.6594 1.76061C40.692 1.30413 40.529 0.880252 40.2029 0.521587C39.9094 0.195527 39.4856 -0.000108872 39.0291 -0.0327148C38.5726 -0.0327148 38.1487 0.130315 37.8227 0.423769C37.5944 0.619405 37.4314 0.880252 37.3662 1.17371C37.3336 1.30413 37.301 1.46716 37.301 1.63019C37.2684 2.08667 37.4314 2.54316 37.7575 2.86922C37.8879 3.03225 38.0509 3.13006 38.2465 3.22788C38.4422 3.35831 38.6704 3.42352 38.8987 3.42352ZM38.3118 2.34752C37.9531 1.95625 37.9857 1.40195 38.377 1.04328C38.54 0.880252 38.8008 0.782434 39.0291 0.782434C39.2573 0.782434 39.4856 0.880252 39.6486 1.07589C39.8116 1.23892 39.9094 1.49977 39.8768 1.72801C39.8768 1.79322 39.8768 1.89104 39.8442 1.95625C39.8116 2.11928 39.7138 2.2497 39.5834 2.34752C39.4204 2.51055 39.1595 2.60837 38.9313 2.60837C38.703 2.64097 38.4748 2.51055 38.3118 2.34752Z" fill="#08074E"/>
<path d="M32.9664 20.1505L38.216 2.9346C38.2812 2.70636 38.5095 2.54333 38.7377 2.57593C38.9659 2.64114 39.129 2.86939 39.0964 3.09763C39.0964 3.13023 39.0964 3.16284 39.0638 3.16284L33.8142 20.3788C33.749 20.607 33.5207 20.7701 33.2925 20.7375C33.0643 20.6722 32.9012 20.444 32.9338 20.2158C32.9338 20.2158 32.9338 20.1832 32.9664 20.1505Z" fill="#08074E"/>
<path d="M41.3791 7.82548H41.4443C41.8682 7.82548 42.2595 7.66245 42.5856 7.369C43.2703 6.71688 43.3355 5.64088 42.6834 4.95616C42.3899 4.6301 41.966 4.43446 41.5096 4.40186C41.0531 4.40186 40.6292 4.56489 40.3031 4.85834C40.0749 5.05397 39.9119 5.31482 39.8466 5.60828C39.814 5.7387 39.7814 5.90173 39.7814 6.06476C39.7488 6.52124 39.9119 6.97773 40.2379 7.30379C40.3683 7.46682 40.5314 7.56463 40.727 7.66245C40.9226 7.76027 41.1509 7.79288 41.3791 7.82548ZM40.7922 6.71688C40.4336 6.32561 40.4662 5.77131 40.8574 5.41264C41.0205 5.24961 41.2487 5.15179 41.5096 5.1844C41.7378 5.1844 41.966 5.28222 42.1291 5.47785C42.2921 5.64088 42.3899 5.90173 42.3899 6.12997C42.3899 6.19518 42.3573 6.293 42.3573 6.35821C42.3247 6.52124 42.2269 6.65167 42.0965 6.74949C41.9334 6.91252 41.6726 7.01033 41.4443 7.01033C41.1835 7.01033 40.9553 6.91252 40.7922 6.71688Z" fill="#08074E"/>
<path d="M36.0628 22.7593L40.7907 7.27145C40.8233 7.04321 41.0515 6.91278 41.2472 6.94539C41.4754 6.97799 41.6058 7.20624 41.5732 7.40187C41.5732 7.43448 41.5732 7.46708 41.5406 7.46708L36.8127 22.9549C36.7475 23.1506 36.5519 23.281 36.3236 23.2484C36.0954 23.2158 35.9976 22.9875 36.0628 22.7593C36.0628 22.7919 36.0628 22.7919 36.0628 22.7593Z" fill="#08074E"/>
<path d="M42.1302 11.9988H42.1628C42.3584 11.9988 42.5541 11.9336 42.7171 11.7706C42.8801 11.6076 42.978 11.4119 42.978 11.1837C42.978 10.9555 42.9127 10.7598 42.7497 10.5968C42.6193 10.4338 42.391 10.3359 42.1954 10.3359C41.9672 10.3359 41.7715 10.4011 41.6085 10.5642C41.5107 10.662 41.4129 10.7924 41.3803 10.9228C41.3477 10.9881 41.3477 11.0533 41.3477 11.1511C41.3477 11.3793 41.4129 11.575 41.5759 11.738C41.6411 11.8032 41.7063 11.8684 41.8041 11.901C41.902 11.9662 42.0324 11.9988 42.1302 11.9988ZM41.8693 11.4771C41.7063 11.2815 41.7063 11.0207 41.902 10.8576C41.9998 10.7598 42.0976 10.7272 42.228 10.7272C42.3584 10.7272 42.4563 10.7924 42.5215 10.8576C42.6845 11.0533 42.6845 11.3141 42.4889 11.4771C42.391 11.575 42.2932 11.6076 42.1628 11.6076C42.0324 11.6076 41.9346 11.575 41.8693 11.4771Z" fill="#08074E"/>
<path d="M37.366 26.3787L41.8004 11.9342C41.8656 11.7386 41.996 11.5756 42.0938 11.6082C42.1916 11.6408 42.2242 11.8364 42.159 12.0321L37.7246 26.4765C37.6594 26.6721 37.529 26.8352 37.4312 26.8026C37.3334 26.77 37.3007 26.5743 37.366 26.3787Z" fill="#08074E"/>
<path d="M38.5404 10.075C38.7686 10.075 38.9642 10.0098 39.1273 9.84677C39.4533 9.52071 39.4859 8.99902 39.1599 8.67296C39.0294 8.50993 38.8012 8.41211 38.6056 8.41211C38.3773 8.41211 38.1817 8.47732 38.0187 8.64035C37.9208 8.73817 37.823 8.86859 37.7904 8.99902C37.7578 9.06423 37.7578 9.12944 37.7578 9.22726C37.7578 9.4555 37.823 9.65114 37.9861 9.81417C38.0513 9.87938 38.1165 9.94459 38.2143 9.9772C38.3121 10.0424 38.4099 10.075 38.5404 10.075ZM38.2469 9.55332C38.0839 9.35768 38.0839 9.09683 38.2795 8.9338C38.4425 8.77078 38.7034 8.77078 38.899 8.9338C38.9968 9.03162 39.0294 9.12944 39.0294 9.25986C39.0294 9.29247 39.0294 9.32508 38.9968 9.35768C38.9642 9.42289 38.9316 9.48811 38.8664 9.55332C38.7686 9.61853 38.6708 9.68374 38.5404 9.68374C38.4425 9.68374 38.3121 9.61853 38.2469 9.55332Z" fill="#08074E"/>
<path d="M34.8231 21.0635L38.2468 9.91222C38.2794 9.74919 38.4098 9.65138 38.5076 9.68398C38.6054 9.71659 38.638 9.87962 38.6054 10.0426L35.1818 21.1939C35.1492 21.3569 35.0188 21.4547 34.9209 21.4221C34.8231 21.3895 34.7579 21.2265 34.8231 21.0635Z" fill="#08074E"/>
<path d="M45.9416 6.42303H46.0068C46.4307 6.42303 46.822 6.26 47.1481 5.96655C47.4741 5.64049 47.6697 5.21661 47.7024 4.76013C47.735 4.30364 47.5719 3.87976 47.2459 3.5211C46.9524 3.19504 46.5285 2.9994 46.0721 2.9668C45.6156 2.9668 45.1917 3.12983 44.8656 3.42328C44.6374 3.61892 44.4744 3.87976 44.4091 4.17322C44.3765 4.30364 44.3439 4.46667 44.3439 4.6297C44.3113 5.08618 44.4744 5.54267 44.8004 5.86873C44.9308 6.03176 45.0939 6.12958 45.2895 6.22739C45.4851 6.35782 45.7134 6.42303 45.9416 6.42303ZM45.3547 5.31443C44.9961 4.92315 45.0287 4.36885 45.4199 4.01019C45.7786 3.68413 46.3329 3.68413 46.6916 4.04279C46.8546 4.20582 46.9524 4.46667 46.9198 4.69491C46.9198 4.79273 46.8872 4.85794 46.8872 4.92316C46.8546 5.08618 46.7568 5.21661 46.6264 5.31443C46.4633 5.47746 46.2025 5.57527 45.9742 5.57527C45.746 5.60788 45.5178 5.51006 45.3547 5.31443Z" fill="#08074E"/>
<path d="M38.1814 29.4429L45.3221 6.12964C45.4199 5.80358 45.6808 5.57534 45.8764 5.64055C46.072 5.70576 46.1699 6.03182 46.0721 6.35788L38.9313 29.6711C38.8335 29.9972 38.5727 30.2254 38.377 30.1602C38.1814 30.095 38.051 29.769 38.1814 29.4429Z" fill="#08074E"/>
<path d="M34.3341 15.4879C32.8342 20.3788 31.3018 25.3349 31.3018 25.3349C30.6496 27.4217 28.7259 28.7911 26.5413 28.7585C25.3023 28.7259 24.1284 28.3673 23.1177 27.6499L24.8132 32.7039C26.0848 36.4535 28.2368 38.3447 31.367 38.3447C34.4971 38.3447 36.6491 36.4535 37.9208 32.7039L38.8663 29.8997L34.3341 15.4879ZM27.5521 12.8468L25.4979 6.09739C24.8132 3.978 23.6394 1.33691 20.9657 1.33691C18.292 1.33691 16.5312 3.61933 16.5312 6.1952V7.14078C16.6617 8.11896 16.8899 9.09713 17.2812 10.0427L22.0417 24.3893C22.6612 26.2805 24.0958 27.1934 25.5305 27.1934C28.6933 27.1934 29.7367 23.9329 30.1605 21.3244C29.7367 20.1506 28.7259 16.3683 27.5521 12.8468Z" fill="#08074E"/>
<path d="M59.3174 23.2582V22.1585H63.4257V23.2679C63.4257 23.3809 63.3853 23.4778 63.3046 23.5586C63.2239 23.6361 63.1286 23.6749 63.0188 23.6749C62.9057 23.6749 62.8072 23.6345 62.7232 23.5537C62.6425 23.473 62.6021 23.3777 62.6021 23.2679V22.9724H61.7785V28.1804C61.7785 28.2935 61.7381 28.3904 61.6574 28.4711C61.5766 28.5486 61.4814 28.5874 61.3716 28.5874C61.2553 28.5874 61.1568 28.5486 61.076 28.4711C60.9953 28.3904 60.9549 28.2935 60.9549 28.1804V22.9724H60.1313V23.2582C60.1313 23.3712 60.0909 23.4681 60.0102 23.5489C59.9327 23.6264 59.8374 23.6652 59.7243 23.6652C59.6113 23.6652 59.5144 23.6264 59.4337 23.5489C59.3561 23.4681 59.3174 23.3712 59.3174 23.2582ZM69.4235 25.4432V26.4267C69.4235 26.5365 69.3831 26.6317 69.3024 26.7125C69.2216 26.7932 69.1263 26.8336 69.0165 26.8336H66.1388V27.071C66.1388 27.2099 66.1985 27.3278 66.318 27.4247L66.5554 27.6233C66.6846 27.7234 66.8073 27.7735 66.9236 27.7735H69.0165C69.1263 27.7735 69.2216 27.8139 69.3024 27.8946C69.3831 27.9721 69.4235 28.0674 69.4235 28.1804C69.4235 28.2903 69.3815 28.3855 69.2975 28.4663C69.2168 28.547 69.1231 28.5874 69.0165 28.5874H66.8703C66.7282 28.5874 66.578 28.5583 66.4198 28.5002C66.2647 28.4388 66.1501 28.3758 66.0758 28.3113L65.7124 27.9915C65.5994 27.9011 65.5041 27.7751 65.4266 27.6136C65.3523 27.4521 65.3152 27.3036 65.3152 27.1679V25.3027C65.3152 25.1961 65.3555 25.0524 65.4363 24.8715C65.5203 24.6906 65.6252 24.5501 65.7512 24.45L66.0903 24.1835C66.3132 24.0027 66.5603 23.9122 66.8316 23.9122H67.9749C68.2624 23.9122 68.5337 24.0317 68.7888 24.2708L69.094 24.5614C69.3137 24.7585 69.4235 25.0524 69.4235 25.4432ZM66.1484 25.3802V26.01H68.6193V25.4432C68.6193 25.2914 68.5724 25.1751 68.4788 25.0944L68.2414 24.886C68.1186 24.7859 68.0088 24.7358 67.9119 24.7358H66.8897C66.7637 24.7358 66.6491 24.7794 66.5457 24.8667L66.3083 25.0653C66.2017 25.146 66.1484 25.251 66.1484 25.3802ZM75.024 28.5874H73.2847C72.9779 28.5874 72.7163 28.4954 72.4999 28.3113L71.7102 27.6233C71.4583 27.4134 71.3323 27.1291 71.3323 26.7706V25.7096C71.3194 25.364 71.4615 25.0637 71.7586 24.8085L72.4708 24.1932C72.7001 24.0059 72.9456 23.9122 73.2072 23.9122H75.0337C75.1467 23.9122 75.242 23.9526 75.3195 24.0334C75.4003 24.1109 75.4406 24.2062 75.4406 24.3192C75.4406 24.4355 75.4003 24.5324 75.3195 24.6099C75.242 24.6874 75.1467 24.7262 75.0337 24.7262H73.2847C73.1749 24.7262 73.0699 24.7698 72.9698 24.857L72.3158 25.4141C72.2092 25.5045 72.1559 25.6257 72.1559 25.7775V26.7706C72.1559 26.8772 72.1979 26.9676 72.2819 27.0419L72.9989 27.6524C73.0893 27.7331 73.2088 27.7735 73.3574 27.7735H75.024C75.1338 27.7735 75.2291 27.8139 75.3098 27.8946C75.3906 27.9721 75.4309 28.0674 75.4309 28.1804C75.4309 28.2935 75.3906 28.3904 75.3098 28.4711C75.2323 28.5486 75.137 28.5874 75.024 28.5874ZM77.3107 28.1804V22.5557C77.3107 22.4459 77.3495 22.3522 77.427 22.2747C77.5077 22.1972 77.6046 22.1585 77.7177 22.1585C77.8307 22.1585 77.926 22.1988 78.0035 22.2796C78.0842 22.3571 78.1246 22.4524 78.1246 22.5654V24.6196L78.7786 24.1932C79.0758 24.0059 79.3406 23.9122 79.5732 23.9122H80.077C80.4097 23.9122 80.6955 24.0317 80.9346 24.2708C81.1736 24.5065 81.2979 24.794 81.3076 25.1331L81.4093 28.1804C81.4126 28.2935 81.3738 28.3904 81.2931 28.4711C81.2123 28.5486 81.1154 28.5874 81.0024 28.5874C80.8893 28.5874 80.7941 28.547 80.7165 28.4663C80.639 28.3823 80.5986 28.287 80.5954 28.1804L80.4937 25.1234C80.4905 25.0136 80.4485 24.9183 80.3677 24.8376C80.287 24.7568 80.1901 24.7165 80.077 24.7165H79.6216C79.5183 24.7165 79.4052 24.7568 79.2825 24.8376L78.1246 25.5934V28.1804C78.1246 28.2935 78.0842 28.3904 78.0035 28.4711C77.926 28.5486 77.8307 28.5874 77.7177 28.5874C77.6046 28.5874 77.5077 28.5486 77.427 28.4711C77.3495 28.3904 77.3107 28.2935 77.3107 28.1804ZM85.2415 24.857L84.1321 25.5788V28.1804C84.1321 28.2903 84.0917 28.3855 84.011 28.4663C83.9302 28.547 83.8349 28.5874 83.7251 28.5874C83.6153 28.5874 83.52 28.547 83.4393 28.4663C83.3585 28.3855 83.3182 28.2903 83.3182 28.1804V24.3192C83.3182 24.2062 83.3569 24.1093 83.4344 24.0285C83.5152 23.9445 83.6121 23.9026 83.7251 23.9026C83.8349 23.9026 83.9302 23.9445 84.011 24.0285C84.0917 24.1093 84.1321 24.2062 84.1321 24.3192V24.5905L84.8733 24.1399C85.122 23.9817 85.403 23.9026 85.7163 23.9026H86.0942C86.4172 23.9026 86.6965 24.0172 86.9323 24.2465C87.1681 24.4758 87.2924 24.7585 87.3054 25.0944L87.4168 28.1804C87.42 28.2903 87.3813 28.3855 87.3005 28.4663C87.2198 28.547 87.1229 28.5874 87.0098 28.5874C86.9033 28.5874 86.8096 28.5519 86.7288 28.4808C86.6481 28.4065 86.6061 28.3064 86.6029 28.1804L86.4818 25.1428C86.4721 24.8586 86.3235 24.7165 86.036 24.7165H85.6388C85.516 24.7165 85.3836 24.7633 85.2415 24.857ZM93.4146 25.3802V27.1001C93.4146 27.465 93.2418 27.8026 92.8962 28.1126C92.5538 28.4227 92.2002 28.5777 91.8352 28.5777H90.8808C90.5093 28.5777 90.1541 28.4211 89.8149 28.1078C89.4758 27.7913 89.3062 27.4554 89.3062 27.1001V25.3802C89.3062 25.0249 89.471 24.6906 89.8004 24.3773C90.1331 24.0608 90.4932 23.9026 90.8808 23.9026H91.8352C92.2002 23.8961 92.5538 24.0479 92.8962 24.358C93.2418 24.668 93.4146 25.0088 93.4146 25.3802ZM90.1298 25.4141V27.0613C90.1298 27.2099 90.1831 27.3278 90.2897 27.415L90.5949 27.6766C90.6628 27.7347 90.758 27.7638 90.8808 27.7638H91.8255C91.9644 27.7638 92.0903 27.7137 92.2034 27.6136L92.4505 27.3956C92.5506 27.3181 92.6007 27.2099 92.6007 27.071V25.4238C92.6007 25.2623 92.5506 25.1428 92.4505 25.0653L92.1646 24.8376C92.0677 24.7568 91.9547 24.7165 91.8255 24.7165H90.9825C90.7984 24.7165 90.6563 24.7601 90.5562 24.8473L90.28 25.0847C90.1799 25.1686 90.1298 25.2785 90.1298 25.4141ZM98.5984 28.5874H96.1373C96.0243 28.5874 95.9274 28.547 95.8466 28.4663C95.7691 28.3823 95.7303 28.2838 95.7303 28.1708C95.7303 28.0609 95.7691 27.9657 95.8466 27.8849C95.9274 27.8042 96.0243 27.7638 96.1373 27.7638H96.9512V22.9627H96.1276C96.0146 22.9627 95.9177 22.9239 95.8369 22.8464C95.7594 22.7657 95.7207 22.6688 95.7207 22.5557C95.7207 22.4427 95.7594 22.3474 95.8369 22.2699C95.9177 22.1891 96.0146 22.1488 96.1276 22.1488H97.3679C97.4777 22.1488 97.573 22.1891 97.6537 22.2699C97.7344 22.3506 97.7748 22.4459 97.7748 22.5557V27.7638H98.5984C98.7082 27.7638 98.8035 27.8042 98.8843 27.8849C98.965 27.9657 99.0054 28.0609 99.0054 28.1708C99.0054 28.2838 98.965 28.3823 98.8843 28.4663C98.8067 28.547 98.7115 28.5874 98.5984 28.5874ZM105.41 25.3802V27.1001C105.41 27.465 105.237 27.8026 104.892 28.1126C104.549 28.4227 104.196 28.5777 103.831 28.5777H102.876C102.505 28.5777 102.15 28.4211 101.81 28.1078C101.471 27.7913 101.302 27.4554 101.302 27.1001V25.3802C101.302 25.0249 101.466 24.6906 101.796 24.3773C102.129 24.0608 102.489 23.9026 102.876 23.9026H103.831C104.196 23.8961 104.549 24.0479 104.892 24.358C105.237 24.668 105.41 25.0088 105.41 25.3802ZM102.125 25.4141V27.0613C102.125 27.2099 102.179 27.3278 102.285 27.415L102.59 27.6766C102.658 27.7347 102.754 27.7638 102.876 27.7638H103.821C103.96 27.7638 104.086 27.7137 104.199 27.6136L104.446 27.3956C104.546 27.3181 104.596 27.2099 104.596 27.071V25.4238C104.596 25.2623 104.546 25.1428 104.446 25.0653L104.16 24.8376C104.063 24.7568 103.95 24.7165 103.821 24.7165H102.978C102.794 24.7165 102.652 24.7601 102.552 24.8473L102.276 25.0847C102.175 25.1686 102.125 25.2785 102.125 25.4141ZM109.867 30.3315H108.104C107.991 30.3315 107.894 30.2927 107.813 30.2152C107.736 30.1377 107.697 30.0408 107.697 29.9245C107.697 29.8115 107.736 29.7162 107.813 29.6387C107.894 29.5612 107.991 29.5224 108.104 29.5224H109.867C109.974 29.5224 110.074 29.4821 110.168 29.4013L110.444 29.1639C110.537 29.0929 110.584 28.9992 110.584 28.8829V27.6427C110.203 28.027 109.832 28.2192 109.47 28.2192H108.845C108.522 28.2192 108.231 28.1078 107.973 27.8849L107.668 27.6136C107.568 27.5296 107.48 27.4069 107.406 27.2454C107.335 27.0839 107.3 26.9257 107.3 26.7706V25.4238C107.3 25.2332 107.335 25.0524 107.406 24.8812C107.48 24.71 107.568 24.5824 107.668 24.4985L108.002 24.2126C108.241 24.0059 108.522 23.9026 108.845 23.9026H109.431C109.751 23.9026 110.042 24.0156 110.303 24.2417L110.584 24.4791L110.575 24.3192C110.575 24.2094 110.615 24.1141 110.696 24.0334C110.776 23.9526 110.872 23.9122 110.982 23.9122C111.095 23.9122 111.191 23.9526 111.272 24.0334C111.356 24.1109 111.398 24.2062 111.398 24.3192V28.8829C111.398 29.2285 111.259 29.524 110.982 29.7695L110.652 30.0554C110.568 30.1296 110.449 30.1942 110.294 30.2491C110.142 30.304 110 30.3315 109.867 30.3315ZM109.402 24.7165H108.855C108.735 24.7165 108.621 24.7633 108.511 24.857L108.259 25.0653C108.162 25.146 108.113 25.2558 108.113 25.3947V26.7513C108.113 26.8611 108.167 26.9644 108.273 27.0613L108.54 27.2987C108.624 27.3698 108.713 27.4053 108.806 27.4053H109.47C109.567 27.4053 109.673 27.3568 109.79 27.2599L110.434 26.7125C110.534 26.6253 110.584 26.5187 110.584 26.3927V25.7775C110.584 25.6289 110.528 25.5078 110.415 25.4141L109.751 24.8473C109.657 24.7601 109.541 24.7165 109.402 24.7165ZM114.935 21.7903H115.361C115.474 21.7903 115.569 21.8306 115.647 21.9114C115.728 21.9889 115.768 22.0842 115.768 22.1972V22.546C115.768 22.6591 115.728 22.7576 115.647 22.8416C115.569 22.9223 115.474 22.9627 115.361 22.9627H114.925C114.809 22.9627 114.71 22.9207 114.63 22.8367C114.552 22.7527 114.515 22.6591 114.518 22.5557L114.528 22.1972C114.528 22.0842 114.567 21.9889 114.644 21.9114C114.725 21.8306 114.822 21.7903 114.935 21.7903ZM116.592 28.5777H114.111C113.998 28.5777 113.901 28.539 113.821 28.4614C113.743 28.3807 113.704 28.2838 113.704 28.1708C113.704 28.0609 113.743 27.9657 113.821 27.8849C113.901 27.8042 113.998 27.7638 114.111 27.7638H114.945V24.7262H114.121C114.008 24.7262 113.911 24.6858 113.83 24.605C113.753 24.5243 113.714 24.429 113.714 24.3192C113.714 24.2062 113.753 24.1093 113.83 24.0285C113.911 23.9445 114.008 23.9026 114.121 23.9026H115.361C115.474 23.9026 115.569 23.9445 115.647 24.0285C115.728 24.1093 115.768 24.2062 115.768 24.3192V27.7638H116.582C116.695 27.7638 116.792 27.8042 116.873 27.8849C116.957 27.9624 116.999 28.0577 116.999 28.1708C116.999 28.2838 116.958 28.3807 116.878 28.4614C116.797 28.539 116.702 28.5777 116.592 28.5777ZM123.403 25.4432V26.4267C123.403 26.5365 123.363 26.6317 123.282 26.7125C123.202 26.7932 123.106 26.8336 122.996 26.8336H120.119V27.071C120.119 27.2099 120.178 27.3278 120.298 27.4247L120.535 27.6233C120.665 27.7234 120.787 27.7735 120.904 27.7735H122.996C123.106 27.7735 123.202 27.8139 123.282 27.8946C123.363 27.9721 123.403 28.0674 123.403 28.1804C123.403 28.2903 123.361 28.3855 123.277 28.4663C123.197 28.547 123.103 28.5874 122.996 28.5874H120.85C120.708 28.5874 120.558 28.5583 120.4 28.5002C120.245 28.4388 120.13 28.3758 120.056 28.3113L119.692 27.9915C119.579 27.9011 119.484 27.7751 119.407 27.6136C119.332 27.4521 119.295 27.3036 119.295 27.1679V25.3027C119.295 25.1961 119.335 25.0524 119.416 24.8715C119.5 24.6906 119.605 24.5501 119.731 24.45L120.07 24.1835C120.293 24.0027 120.54 23.9122 120.811 23.9122H121.955C122.242 23.9122 122.514 24.0317 122.769 24.2708L123.074 24.5614C123.294 24.7585 123.403 25.0524 123.403 25.4432ZM120.128 25.3802V26.01H122.599V25.4432C122.599 25.2914 122.552 25.1751 122.459 25.0944L122.221 24.886C122.099 24.7859 121.989 24.7358 121.892 24.7358H120.87C120.744 24.7358 120.629 24.7794 120.526 24.8667L120.288 25.0653C120.182 25.146 120.128 25.251 120.128 25.3802ZM126.441 23.9122H128.306C128.597 23.9122 128.854 23.9994 129.077 24.1739C129.299 24.345 129.411 24.513 129.411 24.6777C129.411 24.794 129.369 24.8893 129.285 24.9635C129.204 25.0378 129.114 25.075 129.014 25.075C128.884 25.075 128.767 25.0168 128.66 24.9006C128.553 24.7843 128.442 24.7262 128.326 24.7262H126.485C126.304 24.7262 126.213 24.8021 126.213 24.9539C126.213 25.0604 126.273 25.1412 126.393 25.1961L128.558 26.1554C128.778 26.2522 128.957 26.4089 129.096 26.6253C129.238 26.8385 129.309 27.0758 129.309 27.3375C129.309 27.6863 129.185 27.9818 128.936 28.224C128.691 28.4663 128.411 28.5874 128.098 28.5874H126.451C126.167 28.5874 125.902 28.5018 125.656 28.3306C125.414 28.1595 125.293 27.9931 125.293 27.8316C125.293 27.725 125.332 27.6314 125.409 27.5506C125.49 27.4667 125.593 27.4247 125.719 27.4247C125.823 27.4247 125.932 27.4828 126.049 27.5991C126.168 27.7154 126.339 27.7735 126.562 27.7735H128.079C128.198 27.7735 128.298 27.7283 128.379 27.6378C128.46 27.5442 128.5 27.4376 128.5 27.3181C128.5 27.134 128.41 27.0016 128.229 26.9208L126.044 25.9373C125.834 25.8437 125.672 25.708 125.559 25.5304C125.446 25.3527 125.39 25.1719 125.39 24.9878C125.39 24.6971 125.49 24.4452 125.69 24.232C125.894 24.0188 126.144 23.9122 126.441 23.9122Z" fill="#08074E"/>
<path d="M71.3086 18.2596V14.0209C71.3086 13.1079 71.6673 12.4884 72.6128 12.4884C73.5584 12.4884 73.9171 13.1079 73.9171 14.0209V18.2596C73.9171 19.1726 73.5584 19.7921 72.6128 19.7921C71.6673 19.7921 71.3086 19.1726 71.3086 18.2596ZM71.3412 10.4016C71.4064 9.71688 71.9933 9.19518 72.7107 9.26039C73.428 9.3256 73.9171 9.91251 73.8519 10.6298C73.7866 11.282 73.265 11.7711 72.6128 11.7711C71.8629 11.7384 71.3086 11.1189 71.3412 10.4016Z" fill="#08074E"/>
<path d="M75.8411 17.6725C76.4932 17.7703 77.1127 17.8355 77.7648 17.9007C78.2539 17.9007 78.6778 17.8029 78.6778 17.4768C78.6778 17.3464 78.58 17.2486 78.4495 17.216C77.9604 17.0203 76.9497 16.9225 76.1345 16.5313C76.2323 16.14 76.428 15.7813 76.7214 15.5205C77.1127 15.1292 77.667 14.9988 78.2213 15.1292C79.3299 15.39 81.2863 15.7161 81.2863 17.6725C81.2863 19.2702 79.9168 19.8897 78.4821 20.0201C77.6018 20.0853 76.7214 20.0201 75.9063 19.7592C75.2868 19.5636 74.9933 19.2049 74.9281 18.9115C74.7651 18.3898 75.0585 17.8681 75.5476 17.7051C75.6128 17.7051 75.7106 17.6725 75.8411 17.6725ZM74.8955 14.6075C74.8955 12.8142 76.4932 12.2925 77.9931 12.2925C78.58 12.2925 80.4059 12.4229 80.732 13.0098C80.8298 13.1728 80.895 13.3685 80.9276 13.5967C80.9276 14.1836 80.4711 14.6401 79.8842 14.6401H79.8516C79.5255 14.6401 78.4495 14.3467 77.83 14.4445C76.9497 14.5749 75.9715 15.3574 75.8737 16.4334C75.2542 16.0422 74.8629 15.3248 74.8955 14.6075Z" fill="#08074E"/>
<path d="M83.2768 13.4666C83.9941 12.684 85.0375 12.2602 86.1135 12.2928C88.1677 12.2928 89.635 13.6296 89.635 15.586C89.635 16.662 89.1785 17.1837 88.2655 17.1837H84.9071C84.9071 17.8032 85.9179 17.9662 86.3744 17.9662C86.8309 17.9662 87.2873 17.901 87.7438 17.8032C87.9395 17.738 88.1351 17.738 88.3633 17.738C88.9502 17.738 89.2111 18.1292 89.2111 18.6835C89.2111 19.8247 87.0591 20.053 86.2439 20.053C85.0701 20.053 83.9289 19.6943 83.2442 18.8466C82.6899 18.1618 82.6573 17.2163 83.1138 16.4989C83.5703 15.8142 84.3854 15.4229 85.2006 15.4555H87.2873C87.2873 14.9012 86.9287 14.4448 86.1135 14.3795C84.6137 14.3143 82.6573 15.3251 82.4943 17.4119C82.103 16.0098 82.3964 14.5426 83.2768 13.4666Z" fill="#08074E"/>
<path d="M98.5 18.2596V14.0209C98.5 13.1079 98.8587 12.4884 99.8042 12.4884C100.75 12.4884 101.108 13.1079 101.108 14.0209V18.2596C101.108 19.1726 100.75 19.7921 99.8042 19.7921C98.8587 19.7921 98.5 19.1726 98.5 18.2596ZM98.5326 10.4016C98.5978 9.71688 99.1847 9.19518 99.9021 9.26039C100.619 9.3256 101.108 9.91251 101.043 10.6298C100.978 11.282 100.456 11.7711 99.8042 11.7711C99.0869 11.7384 98.5326 11.1189 98.5326 10.4016Z" fill="#08074E"/>
<path d="M103.036 17.6725C103.688 17.7703 104.308 17.8355 104.96 17.9007C105.449 17.9007 105.873 17.8029 105.873 17.4768C105.873 17.3464 105.775 17.2486 105.645 17.216C105.156 17.0203 104.145 16.9225 103.33 16.5313C103.428 16.14 103.623 15.7813 103.917 15.5205C104.308 15.1292 104.862 14.9988 105.417 15.1292C106.525 15.39 108.482 15.7161 108.482 17.6725C108.482 19.2702 107.112 19.8897 105.677 20.0201C104.797 20.0853 103.917 20.0201 103.102 19.7592C102.482 19.5636 102.189 19.2049 102.123 18.9115C101.96 18.4224 102.254 17.8681 102.743 17.7051C102.841 17.7051 102.939 17.6725 103.036 17.6725ZM102.123 14.6075C102.123 12.8142 103.721 12.2925 105.221 12.2925C105.808 12.2925 107.634 12.4229 107.96 13.0098C108.058 13.1728 108.123 13.3685 108.156 13.5967C108.156 14.1836 107.699 14.6401 107.112 14.6401H107.08C106.753 14.6401 105.677 14.3467 105.058 14.4445C104.178 14.5749 103.199 15.3574 103.102 16.4334C102.449 16.0422 102.058 15.3248 102.123 14.6075Z" fill="#08074E"/>
<path d="M109.359 18.2596V14.0209C109.359 13.1079 109.718 12.4884 110.664 12.4884C111.609 12.4884 111.968 13.1079 111.968 14.0209V18.2596C111.968 19.1726 111.609 19.7921 110.664 19.7921C109.718 19.7921 109.359 19.1726 109.359 18.2596ZM109.392 10.4016C109.457 9.71688 110.044 9.19518 110.761 9.26039C111.479 9.3256 111.968 9.91251 111.903 10.6298C111.837 11.282 111.316 11.8037 110.631 11.8037C109.914 11.7384 109.359 11.1189 109.392 10.4016Z" fill="#08074E"/>
<path d="M112.949 16.1399C112.949 16.0421 112.949 15.9116 112.949 15.8138C113.014 14.3792 113.83 13.0097 115.46 13.0097C116.34 13.0097 117.155 13.4988 117.547 14.3139L117.612 14.4444C117.449 14.4118 117.286 14.3792 117.09 14.3792C116.047 14.3792 115.492 15.0965 115.492 16.1399C115.492 17.1833 116.079 17.9006 117.09 17.9006C117.971 17.9006 118.655 17.2811 118.655 16.1399C118.655 15.7486 118.786 12.6836 115.069 12.6184C115.721 12.3902 116.405 12.2598 117.09 12.2598C119.731 12.2598 121.231 13.8901 121.231 16.1073C121.231 18.3897 119.699 19.9548 117.09 19.9548C114.416 20.02 112.949 18.3245 112.949 16.1399Z" fill="#08074E"/>
<path d="M123.546 12.4878C124.525 12.4878 124.785 13.3355 124.851 14.1833V18.259C124.883 18.6503 124.753 19.0742 124.525 19.4002C124.296 19.6611 123.938 19.8241 123.546 19.7915C122.601 19.7915 122.242 19.1394 122.242 18.259V14.0203C122.242 13.1399 122.601 12.4878 123.546 12.4878ZM126.644 12.2921C128.763 12.2921 129.644 13.8246 129.644 15.781V18.259C129.644 19.1068 129.285 19.7915 128.34 19.7915C127.394 19.7915 127.068 19.1068 127.068 18.259V15.7484C127.068 14.9984 126.807 14.3789 125.959 14.3789C125.764 14.3789 125.568 14.4115 125.372 14.5093C125.34 14.542 125.275 14.542 125.242 14.5746C125.307 13.9877 125.242 13.4334 125.079 12.8791C125.503 12.4878 126.057 12.2595 126.644 12.2921Z" fill="#08074E"/>
<path d="M64.3963 10.9883L62.3095 17.8356C62.3095 17.8682 62.2769 17.9008 62.2769 17.9334L62.1139 18.6181C61.8856 19.5637 61.4292 20.0202 60.7444 20.0202C60.0597 20.0202 59.5706 19.5637 59.3098 18.6833L57.1904 11.51C57.1578 11.3796 57.1578 11.2492 57.0926 11.1513C57.06 10.9557 57.0273 10.7601 57.0273 10.5644C57.0273 9.91232 57.2882 9.35802 57.9729 9.16238C58.1033 9.12977 58.2338 9.09717 58.3642 9.09717C59.0163 9.09717 59.4402 9.58626 59.701 10.5318L60.7118 14.5098L62.0813 10.0427H62.1139C62.1791 10.0753 62.2443 10.108 62.3095 10.108H62.3421L61.527 12.7816L61.69 13.3359L62.1465 11.8035C62.1791 11.8035 62.2117 11.8361 62.2769 11.8361L61.7552 13.5642L61.9508 14.2163L62.8312 11.3796C62.8964 11.4122 62.9616 11.4448 63.0268 11.4448H63.0594L62.0813 14.6402L62.3095 15.3901L63.1573 12.6512C63.1899 12.6838 63.2225 12.6838 63.2551 12.6838L62.3747 15.5858L62.5704 16.2053L64.1681 10.9557C64.2333 10.9883 64.2985 10.9883 64.3637 11.0209L64.3963 10.9883Z" fill="#08074E"/>
<path d="M61.919 10.7926V10.4991C61.8538 9.74918 62.4407 9.09706 63.1907 9.06445H63.2233C64.0058 9.06445 64.3645 9.847 64.5601 10.4665L65.1796 12.4555C65.5383 13.4989 65.8317 14.6401 65.9622 14.9661C65.8317 15.7161 65.5383 16.6943 64.5927 16.6943C64.1036 16.6943 63.6797 16.3356 63.5493 15.8791L62.1473 11.6403C62.0168 11.3795 61.9516 11.086 61.919 10.7926ZM64.8536 17.1833C65.5057 17.1833 66.06 16.7921 66.2556 16.1726L68.0163 10.4665C68.3098 9.52094 68.7337 9.06445 69.3532 9.06445C70.1031 9.06445 70.69 9.68397 70.69 10.4339C70.69 10.4665 70.69 10.4665 70.69 10.4991C70.69 10.76 70.6574 11.0208 70.5922 11.2491C70.5596 11.3795 70.527 11.5099 70.4944 11.6403L68.2446 18.3572C67.8859 19.4658 67.2338 20.0201 66.3208 20.0201C65.4079 20.0201 64.7557 19.4658 64.3971 18.3572L63.908 16.8573C64.1362 17.0855 64.4949 17.1833 64.8536 17.1833Z" fill="#08074E"/>
<path d="M95.8627 9.8145C95.9932 9.8145 96.1236 9.78189 96.2214 9.68407C96.3192 9.58625 96.3844 9.45583 96.3844 9.32541C96.3844 9.19498 96.3518 9.06456 96.254 8.96674C96.1562 8.86892 96.0584 8.80371 95.9279 8.80371C95.7975 8.80371 95.6671 8.83632 95.5693 8.93413C95.5041 8.99935 95.4715 9.06456 95.4389 9.16238C95.4389 9.19498 95.4062 9.26019 95.4062 9.2928C95.4062 9.42322 95.4389 9.55365 95.5367 9.65147C95.5693 9.68407 95.6345 9.71668 95.6671 9.74928C95.6997 9.78189 95.7975 9.8145 95.8627 9.8145ZM95.6997 9.48844C95.6019 9.39062 95.6019 9.22759 95.6997 9.09716C95.7649 9.06456 95.8301 9.03195 95.8953 9.03195C95.9606 9.03195 96.0258 9.06456 96.091 9.12977C96.1236 9.19498 96.1562 9.26019 96.1562 9.32541C96.1562 9.35801 96.1562 9.35801 96.1562 9.39062C96.1236 9.52104 96.0258 9.58625 95.8953 9.58625C95.7975 9.55365 95.7323 9.55365 95.6997 9.48844Z" fill="#08074E"/>
<path d="M94.1333 14.6724L95.6658 9.65104C95.6984 9.58583 95.7636 9.55322 95.8288 9.55322C95.894 9.58583 95.9266 9.65104 95.9266 9.71625L94.3942 14.7376C94.3616 14.8028 94.2963 14.8354 94.2311 14.8354C94.1333 14.8354 94.1007 14.7376 94.1333 14.6724Z" fill="#08074E"/>
<path d="M96.5776 11.086C96.708 11.086 96.8384 11.0208 96.9362 10.9556C97.0341 10.8577 97.0993 10.7273 97.0993 10.5969C97.0993 10.4665 97.0667 10.336 96.9689 10.2382C96.871 10.1404 96.7732 10.0752 96.6428 10.0752C96.5124 10.0752 96.3819 10.1078 96.2841 10.2056C96.2189 10.2708 96.1863 10.336 96.1537 10.4339C96.1537 10.4665 96.1211 10.5317 96.1211 10.5643C96.1211 10.7599 96.2189 10.9556 96.3819 11.0208C96.4472 11.0534 96.5124 11.086 96.5776 11.086ZM96.4146 10.7599C96.3167 10.6621 96.3167 10.4665 96.4146 10.3686C96.4798 10.336 96.545 10.3034 96.6102 10.3034C96.6754 10.3034 96.7406 10.336 96.8058 10.4013C96.8384 10.4665 96.871 10.5317 96.871 10.5969C96.871 10.6295 96.871 10.6295 96.871 10.6621C96.8384 10.7599 96.7406 10.8577 96.6102 10.8577C96.5124 10.8577 96.4472 10.8251 96.4146 10.7599Z" fill="#08074E"/>
<path d="M95.0156 15.4549L96.3851 10.9552C96.4177 10.89 96.4503 10.8574 96.5155 10.8574C96.5807 10.89 96.6133 10.9552 96.5807 11.0205L95.2113 15.5201C95.2113 15.5853 95.1461 15.6179 95.0808 15.6179C95.0482 15.5853 95.0156 15.5201 95.0156 15.4549Z" fill="#08074E"/>
<path d="M96.8103 12.2924C96.8755 12.2924 96.9407 12.2598 96.9733 12.2272C97.0059 12.1946 97.0385 12.1294 97.0385 12.0642C97.0385 11.999 97.0059 11.9338 96.9733 11.9011C96.9407 11.8685 96.8755 11.8359 96.8103 11.8359C96.7451 11.8359 96.6798 11.8685 96.6472 11.9011C96.6146 11.9338 96.582 11.9664 96.582 11.999C96.582 12.0316 96.582 12.0316 96.582 12.0642C96.582 12.1294 96.6146 12.1946 96.6472 12.2272C96.6798 12.2598 96.6798 12.2598 96.7125 12.2924C96.7451 12.2924 96.7777 12.2924 96.8103 12.2924ZM96.7125 12.162C96.6472 12.0968 96.6472 12.0316 96.7125 11.9664C96.7451 11.9338 96.7777 11.9338 96.8103 11.9338C96.8429 11.9338 96.8755 11.9338 96.9081 11.9664C96.9407 11.999 96.9407 12.0316 96.9407 12.0642V12.0968C96.9407 12.1294 96.9081 12.1294 96.9081 12.162C96.8755 12.1946 96.8429 12.1946 96.8103 12.1946C96.7777 12.1946 96.7451 12.162 96.7125 12.162Z" fill="#08074E"/>
<path d="M95.4062 16.4988L96.7105 12.2926C96.7431 12.2274 96.7757 12.1948 96.8083 12.1948C96.8409 12.1948 96.8409 12.26 96.8409 12.3252L95.5367 16.5314C95.5041 16.5966 95.4715 16.6292 95.4389 16.6292C95.4063 16.6292 95.4062 16.564 95.4062 16.4988Z" fill="#08074E"/>
<path d="M95.7634 11.7382C95.8938 11.7382 95.9916 11.6404 95.9916 11.51C95.9916 11.4448 95.959 11.3796 95.9264 11.347C95.8938 11.3143 95.8286 11.2817 95.7634 11.2817C95.6982 11.2817 95.633 11.3143 95.6004 11.347C95.5678 11.3796 95.5352 11.4122 95.5352 11.4448C95.5352 11.4774 95.5352 11.4774 95.5352 11.51C95.5352 11.5752 95.5678 11.6404 95.6004 11.673C95.633 11.7056 95.633 11.7056 95.6656 11.7382C95.6982 11.7382 95.7308 11.7382 95.7634 11.7382ZM95.6656 11.6078C95.6004 11.5426 95.6004 11.4774 95.6656 11.4122C95.6982 11.3796 95.7308 11.3796 95.7634 11.3796C95.796 11.3796 95.8286 11.3796 95.8612 11.4122C95.8938 11.4448 95.8938 11.4774 95.8938 11.51V11.5426C95.8938 11.5752 95.8612 11.5752 95.8612 11.6078C95.8286 11.6404 95.796 11.6404 95.7634 11.6404C95.7308 11.6404 95.6982 11.6078 95.6656 11.6078Z" fill="#08074E"/>
<path d="M94.6562 14.9337L95.6344 11.6731C95.6344 11.6405 95.667 11.6079 95.6996 11.6079C95.7323 11.6079 95.7323 11.6731 95.7323 11.7057L94.7541 14.9337C94.7541 14.9663 94.6889 14.9989 94.6889 14.9989C94.6889 14.9989 94.6562 14.9989 94.6562 14.9337Z" fill="#08074E"/>
<path d="M97.9135 10.6945C98.0439 10.6945 98.1744 10.6293 98.2722 10.5641C98.4678 10.3684 98.5004 10.075 98.3048 9.87934C98.207 9.78152 98.1092 9.71631 97.9787 9.71631C97.7505 9.71631 97.5549 9.84673 97.4896 10.075C97.4896 10.1076 97.457 10.1728 97.457 10.2054C97.457 10.3358 97.4896 10.4662 97.5875 10.5641C97.6201 10.5967 97.6853 10.6293 97.7179 10.6619C97.7505 10.6619 97.8483 10.6619 97.9135 10.6945ZM97.7505 10.3684C97.6527 10.2706 97.6527 10.1076 97.7505 9.97716C97.8157 9.94455 97.8809 9.91194 97.9461 9.91194C98.0765 9.91194 98.207 10.0424 98.207 10.1728C98.207 10.2054 98.207 10.2054 98.207 10.238C98.207 10.2706 98.1744 10.3358 98.1418 10.3358C98.0765 10.401 98.0113 10.401 97.9461 10.401C97.8483 10.4336 97.7831 10.4336 97.7505 10.3684Z" fill="#08074E"/>
<path d="M95.6339 17.379L97.7207 10.5969C97.7533 10.4991 97.8185 10.4339 97.8837 10.4665C97.9489 10.4991 97.9815 10.5643 97.9489 10.6947L95.8621 17.4442C95.8295 17.542 95.7643 17.6072 95.6991 17.5746C95.6339 17.542 95.6013 17.4768 95.6339 17.379Z" fill="#08074E"/>
<path d="M94.5242 13.3033C94.1003 14.7379 93.6438 16.1726 93.6438 16.1726C93.4482 16.7921 92.8939 17.1834 92.2744 17.1834C91.9157 17.1834 91.557 17.053 91.2636 16.8573L91.7527 18.3246C92.1113 19.4006 92.7635 19.9549 93.6438 19.9549C94.5242 19.9549 95.1763 19.4006 95.535 18.3246L95.7958 17.5095L94.5242 13.3033ZM92.5352 12.5533L91.9483 10.597C91.7527 9.97748 91.4266 9.22754 90.6441 9.22754C89.9268 9.26015 89.3398 9.84705 89.3398 10.597C89.3398 10.6296 89.3398 10.6296 89.3398 10.6296V10.8904C89.3724 11.1839 89.4377 11.4774 89.5355 11.7382L90.9049 15.9118C91.0354 16.3682 91.4266 16.6943 91.9157 16.7269C92.8287 16.7269 93.1547 15.7813 93.2526 15.0314C93.1873 14.6727 92.8939 13.5641 92.5352 12.5533Z" fill="#08074E"/>
</g>
<defs>
<clipPath id="clip0_1428_1042">
<rect width="130" height="38.3772" fill="white"/>
</clipPath>
</defs>
</svg>
