<svg width="11" height="14" viewBox="0 0 11 14" fill="none" xmlns="http://www.w3.org/2000/svg">
<path d="M0 6.875C0 7.05734 0.072433 7.2322 0.201364 7.36114C0.330295 7.49007 0.505164 7.5625 0.6875 7.5625H5.90563L4.32438 9.13688C4.25994 9.20079 4.20879 9.27683 4.17389 9.3606C4.13898 9.44438 4.12101 9.53424 4.12101 9.625C4.12101 9.71576 4.13898 9.80562 4.17389 9.8894C4.20879 9.97317 4.25994 10.0492 4.32438 10.1131C4.38829 10.1776 4.46433 10.2287 4.5481 10.2636C4.63188 10.2985 4.72174 10.3165 4.8125 10.3165C4.90326 10.3165 4.99312 10.2985 5.0769 10.2636C5.16067 10.2287 5.23671 10.1776 5.30062 10.1131L8.05062 7.36312C8.11322 7.29774 8.16228 7.22064 8.195 7.13625C8.26376 6.96887 8.26376 6.78113 8.195 6.61375C8.16228 6.52936 8.11322 6.45226 8.05062 6.38688L5.30062 3.63687C5.23652 3.57277 5.16042 3.52193 5.07667 3.48723C4.99292 3.45254 4.90315 3.43469 4.8125 3.43469C4.72185 3.43469 4.63208 3.45254 4.54833 3.48723C4.46458 3.52193 4.38848 3.57277 4.32438 3.63687C4.26027 3.70098 4.20943 3.77708 4.17473 3.86083C4.14004 3.94458 4.12219 4.03435 4.12219 4.125C4.12219 4.21565 4.14004 4.30542 4.17473 4.38917C4.20943 4.47292 4.26027 4.54902 4.32438 4.61312L5.90563 6.1875H0.6875C0.505164 6.1875 0.330295 6.25993 0.201364 6.38886C0.072433 6.5178 0 6.69266 0 6.875ZM8.9375 0H2.0625C1.51549 0 0.990886 0.217299 0.604092 0.604092C0.217299 0.990886 0 1.51549 0 2.0625V4.125C0 4.30734 0.072433 4.4822 0.201364 4.61114C0.330295 4.74007 0.505164 4.8125 0.6875 4.8125C0.869836 4.8125 1.0447 4.74007 1.17364 4.61114C1.30257 4.4822 1.375 4.30734 1.375 4.125V2.0625C1.375 1.88016 1.44743 1.7053 1.57636 1.57636C1.7053 1.44743 1.88016 1.375 2.0625 1.375H8.9375C9.11984 1.375 9.29471 1.44743 9.42364 1.57636C9.55257 1.7053 9.625 1.88016 9.625 2.0625V11.6875C9.625 11.8698 9.55257 12.0447 9.42364 12.1736C9.29471 12.3026 9.11984 12.375 8.9375 12.375H2.0625C1.88016 12.375 1.7053 12.3026 1.57636 12.1736C1.44743 12.0447 1.375 11.8698 1.375 11.6875V9.625C1.375 9.44266 1.30257 9.2678 1.17364 9.13886C1.0447 9.00993 0.869836 8.9375 0.6875 8.9375C0.505164 8.9375 0.330295 9.00993 0.201364 9.13886C0.072433 9.2678 0 9.44266 0 9.625V11.6875C0 12.2345 0.217299 12.7591 0.604092 13.1459C0.990886 13.5327 1.51549 13.75 2.0625 13.75H8.9375C9.48451 13.75 10.0091 13.5327 10.3959 13.1459C10.7827 12.7591 11 12.2345 11 11.6875V2.0625C11 1.51549 10.7827 0.990886 10.3959 0.604092C10.0091 0.217299 9.48451 0 8.9375 0Z" fill="white"/>
</svg>
