<?xml version="1.0" encoding="utf-8"?>
<!-- Generator: Adobe Illustrator 23.0.5, SVG Export Plug-In . SVG Version: 6.00 Build 0)  -->
<svg version="1.1" id="Layer_1" xmlns="http://www.w3.org/2000/svg" xmlns:xlink="http://www.w3.org/1999/xlink" x="0px" y="0px"
	 viewBox="0 0 398.7 117.7" style="enable-background:new 0 0 398.7 117.7;" xml:space="preserve">
<style type="text/css">
	.st0{fill:#FFFFFF;}
	.st1{font-family:'OCRAExtended';}
	.st2{font-size:30.43px;}
</style>
<path class="st0" d="M76.8,23.7L55,95.1c-0.1,0.4-0.3,0.7-0.5,1l-1.8,7.1c-2.3,9.7-7,14.6-14.2,14.6s-12.1-4.7-14.9-13.9l-22-74.4
	c-0.5-1.3-0.5-2.6-1-3.7c-0.4-2-0.6-4.1-0.6-6.2c0-7,2.6-12.6,9.7-14.6c1.3-0.5,2.8-0.7,4.2-0.7c6.6,0,11.2,5,13.7,15.1l10.6,41.5
	l14.4-46.9l0.3,0.1c0.7,0.3,1.4,0.5,2.1,0.5h0.2l-8.4,27.6l1.8,5.9l4.8-15.8c0.4,0.2,0.8,0.3,1.2,0.3h0.1l-5.5,17.9l2.1,6.7l9-29.6
	c0.7,0.3,1.4,0.5,2.1,0.5h0.2L52.6,61.2l2.5,7.9l8.7-28.5l0,0c0.3,0.2,0.7,0.2,1,0.3h0.1c0,0,0,0.1,0,0.1l-9.2,30.1l2.1,6.6
	l16.7-54.5c0.7,0.3,1.4,0.5,2.1,0.5L76.8,23.7z"/>
<path class="st0" d="M119.3,10.5h0.2c1.3,0,2.6-0.5,3.5-1.4c1-1,1.6-2.3,1.7-3.7c0.1-1.4-0.4-2.7-1.4-3.8c-0.9-1-2.2-1.6-3.6-1.7
	c-1.4,0-2.7,0.5-3.7,1.4c-0.7,0.6-1.2,1.4-1.4,2.3c-0.1,0.4-0.2,0.9-0.2,1.4c-0.1,1.4,0.4,2.8,1.4,3.8c0.4,0.5,0.9,0.8,1.5,1.1
	C117.9,10.3,118.6,10.5,119.3,10.5z M117.5,7.2c-1.1-1.2-1-2.9,0.2-4c0.5-0.5,1.3-0.8,2-0.8c0.7,0,1.4,0.3,1.9,0.9
	c0.5,0.5,0.8,1.3,0.7,2c0,0.2,0,0.5-0.1,0.7c-0.1,0.5-0.4,0.9-0.8,1.2c-0.5,0.5-1.3,0.8-2,0.8C118.7,8.1,118,7.7,117.5,7.2z"/>
<path class="st0" d="M101.1,61.8l16.1-52.8c0.2-0.7,0.9-1.2,1.6-1.1c0.7,0.2,1.2,0.9,1.1,1.6c0,0.1,0,0.2-0.1,0.2l-16.1,52.8
	c-0.2,0.7-0.9,1.2-1.6,1.1c-0.7-0.2-1.2-0.9-1.1-1.6C101,62,101,61.9,101.1,61.8z"/>
<path class="st0" d="M126.9,24h0.2c1.3,0,2.5-0.5,3.5-1.4c2.1-2,2.3-5.3,0.3-7.4c-0.9-1-2.2-1.6-3.6-1.7c-1.4,0-2.7,0.5-3.7,1.4
	c-0.7,0.6-1.2,1.4-1.4,2.3c-0.1,0.4-0.2,0.9-0.2,1.4c-0.1,1.4,0.4,2.8,1.4,3.8c0.4,0.5,0.9,0.8,1.5,1.1
	C125.5,23.8,126.2,23.9,126.9,24z M125.1,20.6c-1.1-1.2-1-2.9,0.2-4c0.5-0.5,1.2-0.8,2-0.7c0.7,0,1.4,0.3,1.9,0.9
	c0.5,0.5,0.8,1.3,0.8,2c0,0.2-0.1,0.5-0.1,0.7c-0.1,0.5-0.4,0.9-0.8,1.2c-0.5,0.5-1.3,0.8-2,0.8C126.3,21.5,125.6,21.2,125.1,20.6z"
	/>
<path class="st0" d="M110.6,69.8l14.5-47.5c0.1-0.7,0.8-1.1,1.4-1c0.7,0.1,1.1,0.8,1,1.4c0,0.1,0,0.2-0.1,0.2l-14.5,47.5
	c-0.2,0.6-0.8,1-1.5,0.9s-1-0.8-0.9-1.5C110.6,69.9,110.6,69.9,110.6,69.8L110.6,69.8z"/>
<path class="st0" d="M129.2,36.8h0.1c0.6,0,1.2-0.2,1.7-0.7c0.5-0.5,0.8-1.1,0.8-1.8c0-0.7-0.2-1.3-0.7-1.8
	c-0.4-0.5-1.1-0.8-1.7-0.8c-0.7,0-1.3,0.2-1.8,0.7c-0.3,0.3-0.6,0.7-0.7,1.1c-0.1,0.2-0.1,0.4-0.1,0.7c0,0.7,0.2,1.3,0.7,1.8
	c0.2,0.2,0.4,0.4,0.7,0.5C128.5,36.7,128.9,36.8,129.2,36.8z M128.4,35.2c-0.5-0.6-0.5-1.4,0.1-1.9c0.3-0.3,0.6-0.4,1-0.4
	c0.4,0,0.7,0.2,0.9,0.4c0.5,0.6,0.5,1.4-0.1,1.9c-0.3,0.3-0.6,0.4-1,0.4C128.9,35.6,128.6,35.5,128.4,35.2L128.4,35.2z"/>
<path class="st0" d="M114.6,80.9l13.6-44.3c0.2-0.6,0.6-1.1,0.9-1s0.4,0.7,0.2,1.3l-13.6,44.3c-0.2,0.6-0.6,1.1-0.9,1
	S114.4,81.5,114.6,80.9z"/>
<path class="st0" d="M118.2,30.9h0.1c0.6,0,1.2-0.2,1.7-0.7c1-1,1.1-2.6,0.1-3.6c-0.4-0.5-1.1-0.8-1.7-0.8c-0.7,0-1.3,0.2-1.8,0.7
	c-0.3,0.3-0.6,0.7-0.7,1.1c-0.1,0.2-0.1,0.4-0.1,0.7c0,0.7,0.2,1.3,0.7,1.8c0.2,0.2,0.4,0.4,0.7,0.5
	C117.5,30.8,117.8,30.9,118.2,30.9z M117.3,29.3c-0.5-0.6-0.5-1.4,0.1-1.9c0.5-0.5,1.3-0.5,1.9,0c0,0,0,0,0,0c0.3,0.3,0.4,0.6,0.4,1
	c0,0.1,0,0.2-0.1,0.3c-0.1,0.2-0.2,0.4-0.4,0.6c-0.3,0.2-0.6,0.4-1,0.4C117.9,29.7,117.5,29.5,117.3,29.3z"/>
<path class="st0" d="M106.8,64.6l10.5-34.2c0.1-0.5,0.5-0.8,0.8-0.7s0.4,0.6,0.3,1.1L107.9,65c-0.1,0.5-0.5,0.8-0.8,0.7
	S106.6,65.1,106.8,64.6z"/>
<path class="st0" d="M140.9,19.7h0.2c1.3,0,2.5-0.5,3.5-1.4c1-1,1.6-2.3,1.7-3.7c0.1-1.4-0.4-2.7-1.4-3.8c-0.9-1-2.2-1.6-3.6-1.7
	c-1.4,0-2.7,0.5-3.7,1.4c-0.7,0.6-1.2,1.4-1.4,2.3c-0.1,0.4-0.2,0.9-0.2,1.4c-0.1,1.4,0.4,2.8,1.4,3.8c0.4,0.5,0.9,0.8,1.5,1.1
	C139.5,19.5,140.2,19.7,140.9,19.7z M139.1,16.3c-1.1-1.2-1-2.9,0.2-4c1.1-1,2.8-1,3.9,0.1c0,0,0,0,0,0c0.5,0.5,0.8,1.3,0.7,2
	c0,0.3-0.1,0.5-0.1,0.7c-0.1,0.5-0.4,0.9-0.8,1.2c-0.5,0.5-1.3,0.8-2,0.8C140.3,17.2,139.6,16.9,139.1,16.3z"/>
<path class="st0" d="M117.1,90.3l21.9-71.5c0.3-1,1.1-1.7,1.7-1.5s0.9,1.2,0.6,2.2L119.4,91c-0.3,1-1.1,1.7-1.7,1.5
	S116.7,91.3,117.1,90.3z"/>
<path class="st0" d="M105.3,47.5c-4.6,15-9.3,30.2-9.3,30.2c-2,6.4-7.9,10.6-14.6,10.5c-3.8-0.1-7.4-1.2-10.5-3.4l5.2,15.5
	c3.9,11.5,10.5,17.3,20.1,17.3s16.2-5.8,20.1-17.3l2.9-8.6L105.3,47.5z M84.5,39.4l-6.3-20.7c-2.1-6.5-5.7-14.6-13.9-14.6
	s-13.6,7-13.6,14.9v2.9c0.4,3,1.1,6,2.3,8.9l14.6,44c1.9,5.8,6.3,8.6,10.7,8.6c9.7,0,12.9-10,14.2-18C91.2,61.8,88.1,50.2,84.5,39.4
	L84.5,39.4z"/>
<text transform="matrix(1 0 0 1 178.88 93.57)" class="st0 st1 st2">Technologies</text>
<path class="st0" d="M218.7,56V43c0-2.8,1.1-4.7,4-4.7s4,1.9,4,4.7v13c0,2.8-1.1,4.7-4,4.7S218.7,58.8,218.7,56z M218.8,31.9
	c0.2-2.1,2-3.7,4.2-3.5s3.7,2,3.5,4.2c-0.2,2-1.8,3.5-3.8,3.5C220.4,36,218.7,34.1,218.8,31.9z"/>
<path class="st0" d="M232.6,54.2c2,0.3,3.9,0.5,5.9,0.7c1.5,0,2.8-0.3,2.8-1.3c0-0.4-0.3-0.7-0.7-0.8c-1.5-0.6-4.6-0.9-7.1-2.1
	c0.3-1.2,0.9-2.3,1.8-3.1c1.2-1.2,2.9-1.6,4.6-1.2c3.4,0.8,9.4,1.8,9.4,7.8c0,4.9-4.2,6.8-8.6,7.2c-2.7,0.2-5.4,0-7.9-0.8
	c-1.9-0.6-2.8-1.7-3-2.6c-0.5-1.6,0.4-3.2,1.9-3.7C231.9,54.3,232.2,54.2,232.6,54.2z M229.7,44.8c0-5.5,4.9-7.1,9.5-7.1
	c1.8,0,7.4,0.4,8.4,2.2c0.3,0.5,0.5,1.1,0.6,1.8c0,1.8-1.4,3.2-3.2,3.2c0,0-0.1,0-0.1,0c-1,0-4.3-0.9-6.2-0.6
	c-2.7,0.4-5.7,2.8-6,6.1C230.8,49.2,229.6,47,229.7,44.8L229.7,44.8z"/>
<path class="st0" d="M255.4,41.3c2.2-2.4,5.4-3.7,8.7-3.6c6.3,0,10.8,4.1,10.8,10.1c0,3.3-1.4,4.9-4.2,4.9h-10.3
	c0,1.9,3.1,2.4,4.5,2.4c1.4,0,2.8-0.2,4.2-0.5c0.6-0.2,1.2-0.2,1.9-0.2c1.8,0,2.6,1.2,2.6,2.9c0,3.5-6.6,4.2-9.1,4.2
	c-3.6,0-7.1-1.1-9.2-3.7c-1.7-2.1-1.8-5-0.4-7.2c1.4-2.1,3.9-3.3,6.4-3.2h6.4c0-1.7-1.1-3.1-3.6-3.3c-4.6-0.2-10.6,2.9-11.1,9.3
	C251.8,49.1,252.7,44.6,255.4,41.3z"/>
<path class="st0" d="M302.1,56V43c0-2.8,1.1-4.7,4-4.7s4,1.9,4,4.7v13c0,2.8-1.1,4.7-4,4.7S302.1,58.8,302.1,56z M302.2,31.9
	c0.2-2.1,2-3.7,4.2-3.5s3.7,2,3.5,4.2c-0.2,2-1.8,3.5-3.8,3.5C303.9,36,302.2,34.1,302.2,31.9z"/>
<path class="st0" d="M316,54.2c2,0.3,3.9,0.5,5.9,0.7c1.5,0,2.8-0.3,2.8-1.3c0-0.4-0.3-0.7-0.7-0.8c-1.5-0.6-4.6-0.9-7.1-2.1
	c0.3-1.2,0.9-2.3,1.8-3.1c1.2-1.2,2.9-1.6,4.6-1.2c3.4,0.8,9.4,1.8,9.4,7.8c0,4.9-4.2,6.8-8.6,7.2c-2.7,0.2-5.4,0-7.9-0.8
	c-1.9-0.6-2.8-1.7-3-2.6c-0.5-1.5,0.4-3.2,1.9-3.7C315.4,54.3,315.7,54.2,316,54.2z M313.2,44.8c0-5.5,4.9-7.1,9.5-7.1
	c1.8,0,7.4,0.4,8.4,2.2c0.3,0.5,0.5,1.1,0.6,1.8c0,1.8-1.4,3.2-3.2,3.2c0,0-0.1,0-0.1,0c-1,0-4.3-0.9-6.2-0.6
	c-2.7,0.4-5.7,2.8-6,6.1C314.2,49.2,313,47,313.2,44.8L313.2,44.8z"/>
<path class="st0" d="M335.4,56V43c0-2.8,1.1-4.7,4-4.7s4,1.9,4,4.7v13c0,2.8-1.1,4.7-4,4.7S335.4,58.8,335.4,56z M335.5,31.9
	c0.2-2.1,2-3.7,4.2-3.5s3.7,2,3.5,4.2c-0.2,2-1.8,3.6-3.9,3.6C337.1,36,335.4,34.1,335.5,31.9z"/>
<path class="st0" d="M346.4,49.5c0-0.3,0-0.7,0-1c0.2-4.4,2.7-8.6,7.7-8.6c2.7,0,5.2,1.5,6.4,4l0.2,0.4c-0.5-0.1-1-0.2-1.6-0.2
	c-3.2,0-4.9,2.2-4.9,5.4s1.8,5.4,4.9,5.4c2.7,0,4.8-1.9,4.8-5.4c0-1.2,0.4-10.6-11-10.8c2-0.7,4.1-1.1,6.2-1.1
	c8.1,0,12.7,5,12.7,11.8c0,7-4.7,11.8-12.7,11.8C350.9,61.4,346.4,56.2,346.4,49.5z"/>
<path class="st0" d="M378.9,38.3c3,0,3.8,2.6,4,5.2V56c0.1,1.2-0.3,2.5-1,3.5c-0.7,0.8-1.8,1.3-3,1.2c-2.9,0-4-2-4-4.7V43
	C374.9,40.3,376,38.3,378.9,38.3z M388.4,37.7c6.5,0,9.2,4.7,9.2,10.7V56c0,2.6-1.1,4.7-4,4.7s-3.9-2.1-3.9-4.7v-7.7
	c0-2.3-0.8-4.2-3.4-4.2c-0.6,0-1.2,0.1-1.8,0.4c-0.1,0.1-0.3,0.1-0.4,0.2c0.2-1.8,0-3.5-0.5-5.2C384.9,38.3,386.6,37.6,388.4,37.7z"
	/>
<path class="st0" d="M197.5,33.7l-6.4,21c0,0.1-0.1,0.2-0.1,0.3l-0.5,2.1c-0.7,2.9-2.1,4.3-4.2,4.3s-3.6-1.4-4.4-4.1l-6.5-22
	c-0.1-0.4-0.1-0.8-0.3-1.1c-0.1-0.6-0.2-1.2-0.2-1.8c0-2,0.8-3.7,2.9-4.3c0.4-0.1,0.8-0.2,1.2-0.2c2,0,3.3,1.5,4.1,4.4l3.1,12.2
	l4.2-13.7h0.1c0.2,0.1,0.4,0.2,0.6,0.2h0.1l-2.5,8.2l0.5,1.7l1.4-4.7c0.1,0,0.2,0.1,0.4,0.1l0,0l-1.6,5.3l0.6,2l2.7-8.7
	c0.2,0.1,0.4,0.2,0.6,0.2h0.1l-3,9.8l0.7,2.3l2.6-8.4l0,0c0.1,0.1,0.2,0.1,0.3,0.1l0,0l0,0l-2.7,8.9l0.6,1.9l4.9-16.1
	c0.2,0.1,0.4,0.1,0.6,0.2L197.5,33.7z"/>
<path class="st0" d="M189.9,33.1v-0.9c-0.2-2.3,1.6-4.3,3.9-4.4c0,0,0.1,0,0.1,0c2.4,0,3.5,2.4,4.1,4.3l1.9,6.1
	c1.1,3.2,2,6.7,2.4,7.7c-0.4,2.3-1.3,5.3-4.2,5.3c-1.5,0-2.8-1.1-3.2-2.5l-4.3-13C190.2,34.9,190,34,189.9,33.1z M198.9,52.7
	c2,0,3.7-1.2,4.3-3.1c0,0,5.4-17.5,5.4-17.5c0.9-2.9,2.2-4.3,4.1-4.3c2.3,0,4.1,1.9,4.1,4.2c0,0.1,0,0.1,0,0.2
	c0,0.8-0.1,1.6-0.3,2.3c-0.1,0.4-0.2,0.8-0.3,1.2l-6.9,20.6c-1.1,3.4-3.1,5.1-5.9,5.1s-4.8-1.7-5.9-5.1l-1.5-4.6
	C196.7,52.4,197.8,52.7,198.9,52.7z"/>
<path class="st0" d="M294,30.1L294,30.1c0.4,0,0.8-0.1,1.1-0.4c0.3-0.3,0.5-0.7,0.5-1.1c0-0.4-0.1-0.8-0.4-1.1
	c-0.3-0.3-0.6-0.5-1-0.5c-0.4,0-0.8,0.1-1.1,0.4c-0.2,0.2-0.3,0.4-0.4,0.7c0,0.1-0.1,0.3-0.1,0.4c0,0.4,0.1,0.8,0.4,1.1
	c0.1,0.1,0.3,0.2,0.4,0.3C293.5,30,293.8,30.1,294,30.1z M293.5,29.1c-0.3-0.3-0.3-0.8,0-1.2c0,0,0,0,0,0c0.2-0.1,0.4-0.2,0.6-0.2
	c0.2,0,0.4,0.1,0.6,0.3c0.1,0.2,0.2,0.4,0.2,0.6c0,0.1,0,0.1,0,0.2c-0.1,0.4-0.4,0.6-0.8,0.6C293.8,29.3,293.6,29.3,293.5,29.1
	L293.5,29.1z"/>
<path class="st0" d="M288.7,45l4.7-15.4c0.1-0.2,0.3-0.3,0.5-0.3c0.2,0.1,0.3,0.3,0.3,0.5l-4.7,15.4c-0.1,0.2-0.3,0.3-0.5,0.3
	c0,0,0,0,0,0C288.7,45.5,288.6,45.2,288.7,45C288.7,45,288.7,45,288.7,45z"/>
<path class="st0" d="M296.2,34L296.2,34c0.4,0,0.8-0.2,1.1-0.4c0.3-0.3,0.5-0.7,0.5-1.1c0-0.4-0.1-0.8-0.4-1.1
	c-0.3-0.3-0.6-0.5-1-0.5c-0.4,0-0.8,0.1-1.1,0.4c-0.2,0.2-0.3,0.4-0.4,0.7c0,0.1-0.1,0.3-0.1,0.4c0,0.6,0.3,1.2,0.8,1.4
	C295.8,33.9,296,34,296.2,34z M295.7,33c-0.3-0.3-0.3-0.9,0-1.2c0.2-0.1,0.4-0.2,0.6-0.2c0.2,0,0.4,0.1,0.6,0.3
	c0.1,0.2,0.2,0.4,0.2,0.6c0,0.1,0,0.1,0,0.2c-0.1,0.3-0.4,0.6-0.8,0.6C296,33.3,295.8,33.2,295.7,33L295.7,33z"/>
<path class="st0" d="M291.4,47.4l4.2-13.8c0.1-0.2,0.2-0.3,0.4-0.3c0.2,0.1,0.3,0.3,0.2,0.5v0l-4.2,13.8c0,0.2-0.2,0.3-0.4,0.3
	C291.5,47.8,291.4,47.6,291.4,47.4C291.4,47.4,291.4,47.4,291.4,47.4z"/>
<path class="st0" d="M296.9,37.7L296.9,37.7c0.2,0,0.4-0.1,0.5-0.2c0.1-0.1,0.2-0.3,0.2-0.5c0-0.2-0.1-0.4-0.2-0.5
	c-0.1-0.1-0.3-0.2-0.5-0.2c-0.2,0-0.4,0.1-0.5,0.2c-0.1,0.1-0.2,0.2-0.2,0.3c0,0.1,0,0.1,0,0.2c0,0.2,0.1,0.4,0.2,0.5
	c0.1,0.1,0.1,0.1,0.2,0.2C296.7,37.7,296.8,37.7,296.9,37.7z M296.6,37.3c-0.2-0.2-0.2-0.4,0-0.6c0.1-0.1,0.2-0.1,0.3-0.1
	c0.1,0,0.2,0,0.3,0.1c0.1,0.1,0.1,0.2,0.1,0.3c0,0,0,0.1,0,0.1c0,0.1-0.1,0.1-0.1,0.2c-0.1,0.1-0.2,0.1-0.3,0.1
	C296.8,37.4,296.7,37.3,296.6,37.3z"/>
<path class="st0" d="M292.6,50.6l4-12.9c0.1-0.2,0.2-0.3,0.3-0.3s0.1,0.2,0.1,0.4L293,50.7c-0.1,0.2-0.2,0.3-0.3,0.3
	S292.6,50.8,292.6,50.6z"/>
<path class="st0" d="M293.7,36L293.7,36c0.4,0,0.7-0.3,0.7-0.7c0-0.2-0.1-0.4-0.2-0.5c-0.1-0.1-0.3-0.2-0.5-0.2
	c-0.2,0-0.4,0.1-0.5,0.2c-0.1,0.1-0.2,0.2-0.2,0.3c0,0.1,0,0.1,0,0.2c0,0.2,0.1,0.4,0.2,0.5c0.1,0.1,0.1,0.1,0.2,0.2
	C293.5,36,293.6,36,293.7,36z M293.4,35.6c-0.2-0.2-0.2-0.4,0-0.6c0.1-0.1,0.2-0.1,0.3-0.1c0.1,0,0.2,0,0.3,0.1
	c0.1,0.1,0.1,0.2,0.1,0.3c0,0,0,0.1,0,0.1c0,0.1-0.1,0.1-0.1,0.2c-0.1,0.1-0.2,0.1-0.3,0.1C293.6,35.7,293.5,35.6,293.4,35.6
	L293.4,35.6z"/>
<path class="st0" d="M290.3,45.8l3-10c0-0.1,0.1-0.2,0.2-0.2s0.1,0.2,0.1,0.3l-3,9.9c0,0.1-0.2,0.2-0.2,0.2S290.3,46,290.3,45.8z"/>
<path class="st0" d="M300.3,32.8L300.3,32.8c0.4,0,0.8-0.2,1.1-0.4c0.6-0.6,0.7-1.5,0.1-2.1c0,0,0,0,0,0c-0.3-0.3-0.6-0.5-1-0.5
	c-0.7,0-1.3,0.4-1.5,1.1c0,0.1-0.1,0.3-0.1,0.4c0,0.4,0.1,0.8,0.4,1.1c0.1,0.1,0.3,0.2,0.4,0.3C299.8,32.7,300.1,32.7,300.3,32.8z
	 M299.8,31.8c-0.3-0.3-0.3-0.8,0-1.2c0.2-0.1,0.4-0.2,0.6-0.2c0.4,0,0.8,0.4,0.8,0.8c0,0,0,0,0,0c0,0.1,0,0.1,0,0.2
	c0,0.1-0.1,0.3-0.2,0.3c-0.2,0.2-0.4,0.2-0.6,0.2C300.1,32,299.9,32,299.8,31.8L299.8,31.8z"/>
<path class="st0" d="M293.3,53.3l6.4-20.8c0.1-0.3,0.3-0.5,0.5-0.4s0.3,0.3,0.2,0.7L294,53.5c-0.1,0.3-0.3,0.5-0.5,0.4
	S293.2,53.6,293.3,53.3z"/>
<path class="st0" d="M289.9,40.8c-1.3,4.4-2.7,8.8-2.7,8.8c-0.6,1.9-2.3,3.1-4.2,3.1c-1.1,0-2.2-0.4-3.1-1l1.5,4.5
	c1.1,3.3,3.1,5,5.8,5s4.7-1.7,5.8-5l0.8-2.5L289.9,40.8z M283.8,38.5l-1.8-6c-0.6-1.9-1.6-4.2-4-4.2c-2.2,0.1-4,1.9-4,4.2
	c0,0.1,0,0.1,0,0.1v0.8c0.1,0.9,0.3,1.8,0.6,2.6l4.2,12.8c0.4,1.4,1.6,2.4,3.1,2.5c2.8,0,3.8-2.9,4.1-5.2
	C285.8,45,284.9,41.6,283.8,38.5L283.8,38.5z"/>
</svg>
