<svg width="207" height="68" viewBox="0 0 207 68" fill="none" xmlns="http://www.w3.org/2000/svg">
<path d="M1.30398 41.8036V39.6942H16.0312V41.8036H9.85653V59.3306H7.47869V41.8036H1.30398ZM23.4332 59.6374C22.0142 59.6374 20.7901 59.3242 19.761 58.6978C18.7383 58.0649 17.9489 57.1828 17.3928 56.0514C16.843 54.9137 16.5682 53.5905 16.5682 52.082C16.5682 50.5735 16.843 49.2439 17.3928 48.0934C17.9489 46.9364 18.7223 46.0351 19.7131 45.3895C20.7102 44.7375 21.8736 44.4115 23.2031 44.4115C23.9702 44.4115 24.7276 44.5394 25.4755 44.7951C26.2234 45.0507 26.9041 45.4662 27.5178 46.0415C28.1314 46.6104 28.6204 47.3647 28.9847 48.3043C29.3491 49.2439 29.5312 50.4009 29.5312 51.7752V52.734H18.179V50.778H27.2301C27.2301 49.947 27.0639 49.2056 26.7315 48.5536C26.4055 47.9016 25.9389 47.387 25.3317 47.0099C24.7308 46.6328 24.0213 46.4442 23.2031 46.4442C22.3018 46.4442 21.522 46.6679 20.8636 47.1154C20.2116 47.5564 19.7099 48.1317 19.3583 48.8412C19.0067 49.5507 18.831 50.3114 18.831 51.1232V52.4272C18.831 53.5394 19.0227 54.4822 19.4062 55.2556C19.7962 56.0227 20.3363 56.6076 21.0266 57.0103C21.717 57.4066 22.5192 57.6047 23.4332 57.6047C24.0277 57.6047 24.5646 57.5216 25.044 57.3554C25.5298 57.1828 25.9485 56.9272 26.3001 56.5884C26.6516 56.2432 26.9233 55.8149 27.1151 55.3036L29.3011 55.9172C29.071 56.6587 28.6843 57.3107 28.141 57.8732C27.5977 58.4293 26.9265 58.8639 26.1275 59.1772C25.3285 59.484 24.4304 59.6374 23.4332 59.6374ZM38.9563 59.6374C37.5756 59.6374 36.3867 59.3114 35.3896 58.6594C34.3924 58.0074 33.6254 57.1093 33.0884 55.9652C32.5515 54.821 32.283 53.5138 32.283 52.0436C32.283 50.5479 32.5579 49.2279 33.1076 48.0838C33.6637 46.9332 34.4371 46.0351 35.4279 45.3895C36.4251 44.7375 37.5884 44.4115 38.918 44.4115C39.9535 44.4115 40.8867 44.6033 41.7177 44.9868C42.5486 45.3703 43.2294 45.9073 43.7599 46.5976C44.2905 47.288 44.6197 48.0934 44.7475 49.0138H42.4847C42.3121 48.3426 41.9286 47.7482 41.3342 47.2304C40.7461 46.7063 39.9535 46.4442 38.9563 46.4442C38.0742 46.4442 37.3008 46.6743 36.636 47.1345C35.9776 47.5884 35.4631 48.2308 35.0923 49.0617C34.728 49.8863 34.5458 50.8547 34.5458 51.9669C34.5458 53.1047 34.7248 54.0955 35.0827 54.9392C35.4471 55.783 35.9584 56.4382 36.6168 56.9048C37.2816 57.3714 38.0614 57.6047 38.9563 57.6047C39.5444 57.6047 40.0781 57.5024 40.5575 57.2979C41.0369 57.0934 41.4428 56.7993 41.7752 56.4158C42.1076 56.0323 42.3441 55.572 42.4847 55.0351H44.7475C44.6197 55.9044 44.3033 56.6875 43.7983 57.3842C43.2997 58.0745 42.6381 58.6242 41.8136 59.0333C40.9954 59.436 40.043 59.6374 38.9563 59.6374ZM50.3182 50.4712V59.3306H48.0554V39.6942H50.3182V46.9044H50.5099C50.8551 46.1438 51.3729 45.5397 52.0632 45.0923C52.7599 44.6385 53.6868 44.4115 54.8437 44.4115C55.8473 44.4115 56.7262 44.6129 57.4805 45.0156C58.2347 45.4119 58.8196 46.0223 59.2351 46.8469C59.657 47.6651 59.8679 48.707 59.8679 49.9726V59.3306H57.6051V50.126C57.6051 48.9563 57.3015 48.0518 56.6942 47.4126C56.0934 46.767 55.2592 46.4442 54.1918 46.4442C53.4503 46.4442 52.7855 46.6008 52.1974 46.914C51.6158 47.2272 51.1555 47.6843 50.8168 48.2851C50.4844 48.886 50.3182 49.6147 50.3182 50.4712ZM66.2703 50.4712V59.3306H64.0075V44.6033H66.1936V46.9044H66.3854C66.7306 46.1566 67.2547 45.5557 67.9578 45.1019C68.661 44.6416 69.5686 44.4115 70.6808 44.4115C71.678 44.4115 72.5505 44.6161 73.2984 45.0252C74.0462 45.4279 74.6279 46.0415 75.0434 46.8661C75.4589 47.6843 75.6666 48.7198 75.6666 49.9726V59.3306H73.4038V50.126C73.4038 48.9691 73.1034 48.0678 72.5026 47.4222C71.9017 46.7702 71.0771 46.4442 70.0288 46.4442C69.3065 46.4442 68.661 46.6008 68.0921 46.914C67.5296 47.2272 67.0853 47.6843 66.7593 48.2851C66.4333 48.886 66.2703 49.6147 66.2703 50.4712ZM85.7844 59.6374C84.4549 59.6374 83.2883 59.321 82.2848 58.6882C81.2876 58.0554 80.5078 57.1701 79.9453 56.0323C79.3892 54.8945 79.1111 53.5649 79.1111 52.0436C79.1111 50.5095 79.3892 49.1704 79.9453 48.0262C80.5078 46.8821 81.2876 45.9936 82.2848 45.3608C83.2883 44.7279 84.4549 44.4115 85.7844 44.4115C87.114 44.4115 88.2773 44.7279 89.2745 45.3608C90.278 45.9936 91.0579 46.8821 91.614 48.0262C92.1765 49.1704 92.4577 50.5095 92.4577 52.0436C92.4577 53.5649 92.1765 54.8945 91.614 56.0323C91.0579 57.1701 90.278 58.0554 89.2745 58.6882C88.2773 59.321 87.114 59.6374 85.7844 59.6374ZM85.7844 57.6047C86.7944 57.6047 87.6253 57.3458 88.2773 56.8281C88.9293 56.3103 89.4119 55.6296 89.7251 54.7858C90.0383 53.9421 90.1949 53.028 90.1949 52.0436C90.1949 51.0593 90.0383 50.142 89.7251 49.2919C89.4119 48.4417 88.9293 47.7546 88.2773 47.2304C87.6253 46.7063 86.7944 46.4442 85.7844 46.4442C84.7745 46.4442 83.9435 46.7063 83.2915 47.2304C82.6396 47.7546 82.157 48.4417 81.8437 49.2919C81.5305 50.142 81.3739 51.0593 81.3739 52.0436C81.3739 53.028 81.5305 53.9421 81.8437 54.7858C82.157 55.6296 82.6396 56.3103 83.2915 56.8281C83.9435 57.3458 84.7745 57.6047 85.7844 57.6047ZM98.1746 39.6942V59.3306H95.9118V39.6942H98.1746ZM108.302 59.6374C106.972 59.6374 105.806 59.321 104.802 58.6882C103.805 58.0554 103.025 57.1701 102.463 56.0323C101.907 54.8945 101.629 53.5649 101.629 52.0436C101.629 50.5095 101.907 49.1704 102.463 48.0262C103.025 46.8821 103.805 45.9936 104.802 45.3608C105.806 44.7279 106.972 44.4115 108.302 44.4115C109.632 44.4115 110.795 44.7279 111.792 45.3608C112.796 45.9936 113.575 46.8821 114.132 48.0262C114.694 49.1704 114.975 50.5095 114.975 52.0436C114.975 53.5649 114.694 54.8945 114.132 56.0323C113.575 57.1701 112.796 58.0554 111.792 58.6882C110.795 59.321 109.632 59.6374 108.302 59.6374ZM108.302 57.6047C109.312 57.6047 110.143 57.3458 110.795 56.8281C111.447 56.3103 111.93 55.6296 112.243 54.7858C112.556 53.9421 112.713 53.028 112.713 52.0436C112.713 51.0593 112.556 50.142 112.243 49.2919C111.93 48.4417 111.447 47.7546 110.795 47.2304C110.143 46.7063 109.312 46.4442 108.302 46.4442C107.292 46.4442 106.461 46.7063 105.809 47.2304C105.157 47.7546 104.675 48.4417 104.361 49.2919C104.048 50.142 103.892 51.0593 103.892 52.0436C103.892 53.028 104.048 53.9421 104.361 54.7858C104.675 55.6296 105.157 56.3103 105.809 56.8281C106.461 57.3458 107.292 57.6047 108.302 57.6047ZM124.374 65.1601C123.281 65.1601 122.341 65.0195 121.555 64.7382C120.769 64.4634 120.114 64.099 119.59 63.6452C119.072 63.1978 118.66 62.7184 118.353 62.207L120.155 60.9414C120.36 61.2098 120.619 61.5166 120.932 61.8618C121.245 62.2134 121.673 62.517 122.217 62.7727C122.766 63.0348 123.486 63.1658 124.374 63.1658C125.563 63.1658 126.544 62.8782 127.318 62.3029C128.091 61.7276 128.478 60.8263 128.478 59.599V56.6076H128.286C128.12 56.876 127.883 57.2084 127.576 57.6047C127.276 57.9946 126.841 58.343 126.272 58.6498C125.71 58.9502 124.949 59.1005 123.99 59.1005C122.802 59.1005 121.734 58.8192 120.788 58.2567C119.848 57.6942 119.104 56.876 118.554 55.8022C118.011 54.7283 117.739 53.4243 117.739 51.8902C117.739 50.3817 118.004 49.0681 118.535 47.9495C119.065 46.8245 119.804 45.9552 120.75 45.3416C121.696 44.7215 122.789 44.4115 124.029 44.4115C124.988 44.4115 125.748 44.5713 126.311 44.8909C126.88 45.2041 127.314 45.5621 127.615 45.9648C127.922 46.3611 128.158 46.6871 128.324 46.9428H128.554V44.6033H130.74V59.7524C130.74 61.0181 130.453 62.0472 129.878 62.8398C129.309 63.6388 128.542 64.2237 127.576 64.5944C126.618 64.9715 125.55 65.1601 124.374 65.1601ZM124.297 57.0678C125.205 57.0678 125.972 56.86 126.598 56.4446C127.225 56.0291 127.701 55.4314 128.027 54.6516C128.353 53.8718 128.516 52.9385 128.516 51.8519C128.516 50.7908 128.356 49.8544 128.037 49.0426C127.717 48.2308 127.244 47.5948 126.618 47.1345C125.991 46.6743 125.218 46.4442 124.297 46.4442C123.339 46.4442 122.539 46.6871 121.9 47.1729C121.267 47.6587 120.791 48.3107 120.472 49.1289C120.158 49.947 120.002 50.8547 120.002 51.8519C120.002 52.8746 120.162 53.7791 120.481 54.5653C120.807 55.3451 121.287 55.9588 121.919 56.4062C122.559 56.8473 123.351 57.0678 124.297 57.0678ZM134.883 59.3306V44.6033H137.145V59.3306H134.883ZM136.033 42.1487C135.592 42.1487 135.212 41.9985 134.892 41.6981C134.579 41.3977 134.422 41.0365 134.422 40.6147C134.422 40.1928 134.579 39.8316 134.892 39.5312C135.212 39.2308 135.592 39.0806 136.033 39.0806C136.474 39.0806 136.851 39.2308 137.164 39.5312C137.484 39.8316 137.644 40.1928 137.644 40.6147C137.644 41.0365 137.484 41.3977 137.164 41.6981C136.851 41.9985 136.474 42.1487 136.033 42.1487ZM147.464 59.6374C146.045 59.6374 144.821 59.3242 143.792 58.6978C142.77 58.0649 141.98 57.1828 141.424 56.0514C140.874 54.9137 140.599 53.5905 140.599 52.082C140.599 50.5735 140.874 49.2439 141.424 48.0934C141.98 46.9364 142.754 46.0351 143.744 45.3895C144.741 44.7375 145.905 44.4115 147.234 44.4115C148.001 44.4115 148.759 44.5394 149.507 44.7951C150.255 45.0507 150.935 45.4662 151.549 46.0415C152.163 46.6104 152.652 47.3647 153.016 48.3043C153.38 49.2439 153.562 50.4009 153.562 51.7752V52.734H142.21V50.778H151.261C151.261 49.947 151.095 49.2056 150.763 48.5536C150.437 47.9016 149.97 47.387 149.363 47.0099C148.762 46.6328 148.053 46.4442 147.234 46.4442C146.333 46.4442 145.553 46.6679 144.895 47.1154C144.243 47.5564 143.741 48.1317 143.39 48.8412C143.038 49.5507 142.862 50.3114 142.862 51.1232V52.4272C142.862 53.5394 143.054 54.4822 143.437 55.2556C143.827 56.0227 144.368 56.6076 145.058 57.0103C145.748 57.4066 146.55 57.6047 147.464 57.6047C148.059 57.6047 148.596 57.5216 149.075 57.3554C149.561 57.1828 149.98 56.9272 150.331 56.5884C150.683 56.2432 150.955 55.8149 151.146 55.3036L153.332 55.9172C153.102 56.6587 152.716 57.3107 152.172 57.8732C151.629 58.4293 150.958 58.8639 150.159 59.1772C149.36 59.484 148.462 59.6374 147.464 59.6374ZM167.436 47.9016L165.404 48.4769C165.276 48.1381 165.087 47.8089 164.838 47.4893C164.595 47.1633 164.263 46.8948 163.841 46.6839C163.419 46.473 162.879 46.3675 162.221 46.3675C161.319 46.3675 160.568 46.5752 159.967 46.9907C159.373 47.3998 159.076 47.9208 159.076 48.5536C159.076 49.1161 159.28 49.5603 159.689 49.8863C160.098 50.2123 160.738 50.484 161.607 50.7013L163.793 51.2382C165.11 51.5578 166.091 52.0468 166.736 52.7052C167.382 53.3572 167.705 54.1978 167.705 55.2269C167.705 56.0706 167.462 56.8249 166.976 57.4897C166.497 58.1544 165.826 58.6786 164.963 59.0621C164.1 59.4456 163.096 59.6374 161.952 59.6374C160.45 59.6374 159.207 59.3114 158.222 58.6594C157.238 58.0074 156.615 57.055 156.353 55.8022L158.5 55.2652C158.705 56.0578 159.092 56.6523 159.66 57.0486C160.236 57.4449 160.987 57.6431 161.914 57.6431C162.968 57.6431 163.806 57.4193 164.426 56.9719C165.052 56.5181 165.365 55.9747 165.365 55.3419C165.365 54.8306 165.186 54.4023 164.828 54.0571C164.471 53.7056 163.921 53.4435 163.179 53.2709L160.725 52.6956C159.376 52.376 158.385 51.8806 157.752 51.2095C157.126 50.5319 156.813 49.685 156.813 48.6686C156.813 47.8377 157.046 47.1026 157.513 46.4634C157.986 45.8242 158.628 45.3224 159.44 44.9581C160.258 44.5937 161.185 44.4115 162.221 44.4115C163.678 44.4115 164.822 44.7311 165.653 45.3703C166.49 46.0095 167.085 46.8533 167.436 47.9016Z" fill="#08074E"/>
<path d="M40.752 26.9602V14.8789C40.752 12.2675 41.8114 10.5017 44.4228 10.5017C47.0342 10.5017 48.0937 12.2675 48.0937 14.8789V26.9602C48.0937 29.5717 47.0714 31.3374 44.4228 31.3374C41.7742 31.3374 40.752 29.5531 40.752 26.9602ZM40.8449 4.554C40.9026 3.85971 41.1613 3.19727 41.5893 2.64756C42.0173 2.09786 42.5962 1.68468 43.2551 1.45849C43.914 1.2323 44.6246 1.20288 45.3 1.37383C45.9753 1.54477 46.5864 1.90869 47.0583 2.42113C47.5303 2.93357 47.8429 3.57236 47.9578 4.2595C48.0728 4.94663 47.9852 5.65237 47.7057 6.29053C47.4262 6.92869 46.9669 7.47165 46.3839 7.85312C45.8009 8.23458 45.1195 8.43802 44.4228 8.43861C43.4384 8.38337 42.5143 7.94687 41.8463 7.22166C41.1784 6.49646 40.8192 5.5396 40.8449 4.554Z" fill="#08074E"/>
<path d="M53.6608 25.2873C55.477 25.5836 57.3071 25.7884 59.1439 25.9007C60.5565 25.9007 61.7088 25.594 61.7088 24.7111C61.7045 24.534 61.6408 24.3635 61.5278 24.2269C61.4149 24.0904 61.2594 23.9958 61.0862 23.9584C59.6736 23.3822 56.8484 23.1591 54.4601 21.9696C54.7142 20.8736 55.2826 19.8756 56.0957 19.0979C56.6452 18.5604 57.323 18.1724 58.0647 17.9707C58.8064 17.769 59.5874 17.7604 60.3335 17.9456C63.4746 18.6519 69.0506 19.5812 69.0506 25.2408C69.0506 29.7946 65.1567 31.5603 61.0397 31.9135C58.5577 32.1156 56.0594 31.8765 53.6608 31.2072C51.9415 30.6774 51.0587 29.6645 50.9193 28.8188C50.7905 28.3997 50.7645 27.9558 50.8435 27.5245C50.9224 27.0932 51.104 26.6873 51.3728 26.341C51.6417 25.9947 51.9899 25.7181 52.3882 25.5347C52.7864 25.3514 53.2229 25.2665 53.6608 25.2873ZM51.0122 16.4865C51.0122 11.3566 55.5195 9.86035 59.8037 9.86035C61.4858 9.86035 66.6994 10.2507 67.6287 11.8863C67.9432 12.3768 68.1257 12.9402 68.1584 13.5219C68.1623 13.9216 68.0858 14.3179 67.9335 14.6874C67.7812 15.0569 67.5562 15.392 67.2718 15.6728C66.9875 15.9537 66.6497 16.1746 66.2783 16.3223C65.907 16.4701 65.5098 16.5417 65.1102 16.533C64.2273 16.533 61.0862 15.7337 59.3669 15.9568C56.8856 16.3099 54.0604 18.5682 53.7909 21.6164C52.8992 21.1013 52.1676 20.3494 51.6771 19.4439C51.1867 18.5384 50.9565 17.5148 51.0122 16.4865Z" fill="#08074E"/>
<path d="M74.922 13.2156C75.9366 12.1044 77.1841 11.2308 78.5753 10.6573C79.9665 10.0838 81.4671 9.82451 82.9701 9.89791C88.8063 9.89791 93.0441 13.7454 93.0441 19.2749C93.0441 22.3231 91.7616 23.8286 89.1594 23.8286H79.5594C79.5594 25.5944 82.4404 26.0776 83.7228 26.0776C85.0303 26.043 86.3313 25.8811 87.6074 25.5944C88.1732 25.4542 88.7532 25.3793 89.336 25.3713C90.9717 25.3713 91.7616 26.4772 91.7616 28.0292C91.7616 31.3005 85.6652 31.9603 83.3232 31.9603C80.0055 31.9603 76.6878 30.9473 74.7455 28.5125C73.9809 27.5751 73.5345 26.4187 73.471 25.2106C73.4075 24.0026 73.7302 22.8058 74.3923 21.7934C75.05 20.8269 75.9427 20.0435 76.9863 19.5168C78.03 18.9901 79.1905 18.7373 80.3587 18.7824H86.325C86.325 17.1932 85.2655 15.8642 82.9701 15.7341C78.723 15.5111 73.1563 18.4292 72.6638 24.3584C72.1162 22.4564 72.0356 20.4503 72.4288 18.5105C72.8219 16.5707 73.6772 14.7544 74.922 13.2156Z" fill="#08074E"/>
<path d="M118.287 26.9602V14.8789C118.287 12.2675 119.347 10.5017 121.958 10.5017C124.569 10.5017 125.629 12.2675 125.629 14.8789V26.9602C125.629 29.5717 124.607 31.3374 121.958 31.3374C119.309 31.3374 118.287 29.5531 118.287 26.9602ZM118.38 4.554C118.438 3.85971 118.696 3.19727 119.124 2.64756C119.553 2.09786 120.131 1.68468 120.79 1.45849C121.449 1.2323 122.16 1.20288 122.835 1.37383C123.511 1.54477 124.122 1.90869 124.593 2.42113C125.065 2.93357 125.378 3.57236 125.493 4.2595C125.608 4.94663 125.52 5.65237 125.241 6.29053C124.961 6.92869 124.502 7.47165 123.919 7.85312C123.336 8.23458 122.655 8.43802 121.958 8.43861C120.974 8.38337 120.049 7.94687 119.381 7.22166C118.714 6.49646 118.354 5.5396 118.38 4.554Z" fill="#08074E"/>
<path d="M131.241 25.2873C133.057 25.5836 134.887 25.7884 136.724 25.9007C138.136 25.9007 139.289 25.594 139.289 24.7111C139.284 24.534 139.22 24.3635 139.108 24.2269C138.995 24.0904 138.839 23.9958 138.666 23.9584C137.253 23.3822 134.419 23.1591 132.04 21.9696C132.294 20.8736 132.862 19.8756 133.675 19.0979C134.225 18.5604 134.903 18.1724 135.644 17.9707C136.386 17.769 137.167 17.7604 137.913 17.9456C141.054 18.6519 146.621 19.5812 146.621 25.2408C146.621 29.7946 142.736 31.5603 138.619 31.9135C136.137 32.116 133.639 31.8768 131.241 31.2072C129.512 30.6774 128.629 29.6645 128.499 28.8188C128.368 28.3996 128.34 27.9549 128.418 27.5228C128.496 27.0906 128.678 26.6837 128.947 26.3368C129.216 25.9898 129.566 25.7132 129.965 25.5305C130.364 25.3477 130.802 25.2643 131.241 25.2873ZM128.583 16.4865C128.583 11.3566 133.099 9.86035 137.383 9.86035C139.065 9.86035 144.279 10.2507 145.208 11.8863C145.523 12.3768 145.705 12.9402 145.738 13.5219C145.742 13.9216 145.665 14.3179 145.513 14.6874C145.361 15.0569 145.136 15.392 144.852 15.6728C144.567 15.9537 144.229 16.1746 143.858 16.3223C143.487 16.4701 143.089 16.5417 142.69 16.533C141.807 16.533 138.666 15.7337 136.947 15.9568C134.465 16.3099 131.64 18.5682 131.417 21.6164C130.506 21.1149 129.754 20.3688 129.245 19.4624C128.736 18.5559 128.49 17.5251 128.536 16.4865H128.583Z" fill="#08074E"/>
<path d="M149.225 26.9603V14.8789C149.225 12.2675 150.293 10.5018 152.895 10.5018C155.498 10.5018 156.566 12.2675 156.566 14.8789V26.9603C156.566 29.5717 155.553 31.3374 152.895 31.3374C150.238 31.3374 149.225 29.5531 149.225 26.9603ZM149.318 4.55403C149.374 3.85693 149.632 3.19128 150.06 2.63857C150.489 2.08586 151.069 1.67007 151.73 1.44208C152.391 1.2141 153.104 1.18381 153.783 1.35494C154.461 1.52606 155.074 1.89117 155.548 2.40557C156.022 2.91997 156.335 3.56135 156.45 4.25119C156.565 4.94104 156.476 5.64941 156.195 6.28961C155.913 6.92982 155.451 7.47408 154.865 7.85577C154.279 8.23745 153.595 8.44001 152.895 8.43864C151.911 8.3834 150.987 7.94689 150.319 7.22169C149.651 6.49649 149.292 5.53963 149.318 4.55403Z" fill="#08074E"/>
<path d="M159.436 20.9101C159.428 20.5996 159.443 20.2889 159.482 19.9807C159.705 15.8638 162 12.0256 166.601 12.0256C167.847 12.0087 169.071 12.35 170.129 13.009C171.187 13.668 172.033 14.617 172.567 15.743L172.744 16.0961C172.269 15.9585 171.779 15.8835 171.285 15.8731C168.283 15.8731 166.777 17.9083 166.777 20.8729C166.777 23.8375 168.413 25.8634 171.285 25.8634C173.803 25.8634 175.755 24.0512 175.755 20.8729C175.755 19.767 176.145 11.0127 165.532 10.8361C167.373 10.1702 169.318 9.83966 171.275 9.86028C178.794 9.86028 183.078 14.507 183.078 20.8729C183.078 27.3782 178.701 31.8762 171.275 31.8762C163.636 31.9134 159.436 27.1459 159.436 20.9101Z" fill="#08074E"/>
<path d="M189.63 10.4739C192.418 10.4739 193.161 12.8623 193.301 15.3343V26.9603C193.369 28.1128 193.041 29.2541 192.371 30.1944C192.03 30.5793 191.606 30.8821 191.132 31.08C190.657 31.278 190.143 31.366 189.63 31.3374C186.972 31.3374 185.959 29.4788 185.959 26.9603V14.8789C185.959 12.379 187 10.4739 189.63 10.4739ZM198.468 9.8977C204.481 9.8977 206.999 14.2749 206.999 19.8044V26.9603C206.999 29.3951 205.986 31.3374 203.328 31.3374C200.67 31.3374 199.667 29.3951 199.667 26.9603V19.8044C199.667 17.6391 198.914 15.9105 196.479 15.9105C195.915 15.9077 195.356 16.0282 194.843 16.2636C194.705 16.3106 194.572 16.3697 194.444 16.4402C194.604 14.807 194.456 13.1582 194.007 11.5798C195.215 10.4539 196.817 9.8495 198.468 9.8977Z" fill="#08074E"/>
<path d="M21.0681 6.21757L15.0925 25.7336C15.0594 25.8268 15.0124 25.9146 14.9531 25.9938L14.4606 27.9361C13.8379 30.594 12.5554 31.9322 10.5574 31.9322C8.5593 31.9322 7.23035 30.6405 6.47759 28.1127L0.446206 7.66732C0.316099 7.31418 0.316105 6.95174 0.176705 6.64506C0.0560682 6.09258 -0.00315124 5.52846 0.000129151 4.96297C0.000129151 3.1043 0.706424 1.50584 2.65803 0.966825C3.02749 0.835491 3.41856 0.775575 3.8104 0.790256C5.66907 0.790256 6.87721 2.16567 7.5835 4.9165L10.4923 16.2916L14.4234 3.53179H14.4977C14.6788 3.62472 14.8797 3.67255 15.0832 3.67119H15.1483L12.8249 11.2546L13.3268 12.8623L14.6557 8.52232C14.7646 8.56877 14.8813 8.59399 14.9996 8.59666L13.4941 13.5128L14.061 15.3715L16.5516 7.24913C16.7332 7.34176 16.9332 7.39257 17.1371 7.39782H17.2021L14.4141 16.496L15.0925 18.6706L17.4809 10.8642C17.5663 10.9115 17.6621 10.9371 17.7597 10.9386L15.2319 19.1911L15.7895 20.994L20.3618 6.05958C20.546 6.14403 20.7449 6.1914 20.9473 6.19898L21.0681 6.21757Z" fill="#08074E"/>
<path d="M13.9595 5.63197V4.83274C13.9256 4.31756 13.9957 3.80082 14.1656 3.3133C14.3356 2.82578 14.6019 2.37746 14.9488 1.99504C15.2957 1.61262 15.716 1.30392 16.1846 1.08734C16.6533 0.87076 17.1608 0.750718 17.6768 0.734375C19.9444 0.734375 20.9202 2.96478 21.5057 4.73981L23.2342 10.4366C24.2193 13.4198 25.0929 16.626 25.4182 17.6018C25.065 19.7857 24.1729 22.5366 21.5057 22.5366C20.8267 22.5186 20.1722 22.2792 19.642 21.8547C19.1118 21.4302 18.735 20.8439 18.569 20.1853L14.5636 8.104C14.26 7.30836 14.0571 6.47792 13.9595 5.63197ZM22.4071 23.8748C23.2986 23.8957 24.1724 23.6246 24.8955 23.1028C25.6187 22.581 26.1514 21.8372 26.4126 20.9846C26.459 20.9846 31.4031 4.73981 31.4403 4.73981C32.2488 2.07262 33.4941 0.734375 35.2226 0.734375C35.7438 0.743394 36.2578 0.857969 36.7334 1.07118C37.2091 1.28438 37.6366 1.5918 37.9901 1.97486C38.3436 2.35791 38.6158 2.80865 38.7903 3.29985C38.9647 3.79105 39.0378 4.31252 39.005 4.83274C39.0226 5.56953 38.919 6.30419 38.6984 7.00738C38.6248 7.37225 38.519 7.72989 38.3824 8.07612L31.9793 27.2111C30.9105 30.3708 29.0891 31.9786 26.459 31.9786C23.829 31.9786 22.0075 30.3708 20.9388 27.2111L19.5169 22.9455C20.3663 23.5361 21.3727 23.8597 22.4071 23.8748Z" fill="#08074E"/>
<path d="M110.739 2.84406H110.795C110.967 2.84478 111.138 2.8115 111.298 2.74612C111.457 2.68074 111.602 2.58453 111.724 2.46303C112.001 2.20432 112.165 1.84708 112.18 1.46864C112.186 1.28303 112.155 1.09803 112.09 0.924212C112.025 0.750395 111.926 0.591179 111.799 0.455667C111.676 0.316758 111.526 0.204619 111.358 0.126268C111.19 0.0479162 111.008 0.0050301 110.823 0.00028804C110.45 -0.00724071 110.089 0.13308 109.819 0.390614C109.641 0.562268 109.51 0.776613 109.438 1.01327C109.402 1.13425 109.38 1.25899 109.373 1.385C109.363 1.57167 109.391 1.75847 109.454 1.93416C109.518 2.10985 109.617 2.27079 109.745 2.40727C109.859 2.52943 109.995 2.63015 110.145 2.70465C110.33 2.79573 110.533 2.8434 110.739 2.84406ZM110.247 1.91472C110.176 1.84395 110.12 1.75992 110.081 1.66743C110.043 1.57495 110.023 1.47582 110.023 1.37571C110.023 1.27559 110.043 1.17646 110.081 1.08398C110.12 0.991491 110.176 0.907459 110.247 0.83669C110.318 0.768442 110.403 0.715204 110.496 0.680095C110.588 0.644986 110.687 0.628713 110.786 0.632236C110.983 0.638477 111.17 0.721908 111.306 0.864569C111.438 1.01631 111.508 1.21208 111.501 1.41288C111.51 1.47762 111.51 1.5433 111.501 1.60804C111.453 1.76898 111.353 1.90964 111.217 2.00862C111.081 2.1076 110.917 2.15946 110.749 2.15634C110.56 2.15315 110.38 2.07647 110.247 1.9426V1.91472Z" fill="#08074E"/>
<path d="M105.795 16.71L110.163 2.4261C110.177 2.38033 110.2 2.33778 110.23 2.30087C110.26 2.26396 110.298 2.23341 110.34 2.21097C110.382 2.18854 110.429 2.17465 110.476 2.17011C110.524 2.16556 110.572 2.17044 110.618 2.18448C110.664 2.19851 110.706 2.22142 110.743 2.2519C110.78 2.28238 110.811 2.31983 110.833 2.36212C110.856 2.4044 110.869 2.4507 110.874 2.49835C110.878 2.546 110.874 2.59408 110.86 2.63985L106.492 16.9237C106.479 16.9717 106.457 17.0165 106.426 17.0557C106.396 17.0949 106.358 17.1276 106.314 17.1518C106.271 17.1761 106.223 17.1914 106.174 17.1969C106.125 17.2025 106.075 17.198 106.027 17.1839C105.98 17.1693 105.936 17.1453 105.898 17.1131C105.861 17.081 105.83 17.0415 105.808 16.9971C105.787 16.9527 105.774 16.9044 105.772 16.855C105.77 16.8056 105.777 16.7562 105.795 16.71Z" fill="#08074E"/>
<path d="M112.794 6.47764H112.859C113.207 6.47169 113.54 6.33193 113.788 6.08732C113.928 5.96152 114.04 5.80837 114.119 5.63733C114.197 5.4663 114.239 5.28101 114.243 5.09293C114.251 4.90791 114.223 4.72314 114.159 4.54928C114.095 4.37543 113.997 4.21592 113.872 4.07995C113.748 3.94273 113.597 3.83174 113.43 3.75353C113.262 3.67532 113.081 3.63147 112.896 3.62458C112.524 3.62099 112.164 3.76075 111.892 4.0149C111.712 4.18627 111.577 4.40045 111.502 4.63756C111.467 4.75874 111.445 4.88338 111.437 5.00929C111.426 5.28122 111.492 5.55068 111.629 5.78606C111.766 6.02144 111.966 6.21298 112.208 6.33823C112.392 6.42388 112.591 6.4713 112.794 6.47764ZM112.301 5.5483C112.166 5.39821 112.096 5.20132 112.104 4.99981C112.113 4.79831 112.2 4.60822 112.347 4.47028C112.49 4.33473 112.681 4.26121 112.877 4.26582C113.074 4.27206 113.261 4.35549 113.398 4.49816C113.466 4.57157 113.52 4.6578 113.555 4.7519C113.59 4.846 113.606 4.9461 113.602 5.04646C113.612 5.11427 113.612 5.18311 113.602 5.25091C113.551 5.4078 113.452 5.54446 113.318 5.6413C113.184 5.73814 113.024 5.79018 112.859 5.78993C112.756 5.79595 112.653 5.78 112.557 5.74314C112.461 5.70628 112.373 5.64937 112.301 5.57618V5.5483Z" fill="#08074E"/>
<path d="M108.38 18.8938L112.311 6.05038C112.335 5.96524 112.391 5.89263 112.467 5.84763C112.543 5.80263 112.634 5.7887 112.72 5.80876C112.762 5.8234 112.802 5.84632 112.836 5.8762C112.87 5.90607 112.897 5.94233 112.917 5.98289C112.937 6.02344 112.949 6.06751 112.951 6.11258C112.954 6.15765 112.948 6.20283 112.933 6.24554L109.002 19.0797C108.992 19.1224 108.973 19.1625 108.946 19.1976C108.92 19.2327 108.886 19.2621 108.848 19.2839C108.81 19.3057 108.767 19.3196 108.724 19.3246C108.68 19.3296 108.636 19.3258 108.594 19.3132C108.551 19.3006 108.512 19.2796 108.478 19.2514C108.445 19.2232 108.417 19.1885 108.397 19.1493C108.377 19.1101 108.365 19.0672 108.362 19.0233C108.359 18.9794 108.365 18.9353 108.38 18.8938Z" fill="#08074E"/>
<path d="M113.417 9.94427C113.587 9.94332 113.75 9.87673 113.872 9.7584C114.003 9.63447 114.08 9.46431 114.086 9.28444C114.091 9.19469 114.078 9.10481 114.048 9.02019C114.018 8.93556 113.971 8.85792 113.91 8.7919C113.85 8.72433 113.777 8.66968 113.696 8.63132C113.614 8.59296 113.526 8.5717 113.436 8.56885C113.257 8.56832 113.085 8.63462 112.952 8.75472C112.864 8.84017 112.797 8.94524 112.757 9.0614C112.753 9.12017 112.753 9.1792 112.757 9.23797C112.752 9.32855 112.765 9.41929 112.797 9.5042C112.829 9.58911 112.879 9.66625 112.943 9.73052C112.994 9.79248 113.057 9.84313 113.129 9.87922C113.218 9.92516 113.317 9.94756 113.417 9.94427ZM113.185 9.51678C113.116 9.44572 113.078 9.35075 113.078 9.25191C113.078 9.15307 113.116 9.05811 113.185 8.98706C113.256 8.92293 113.349 8.88952 113.445 8.89412C113.54 8.8979 113.63 8.9378 113.696 9.00564C113.729 9.04164 113.755 9.08419 113.771 9.1306C113.787 9.177 113.793 9.22623 113.789 9.27515C113.793 9.30597 113.793 9.33725 113.789 9.36808C113.773 9.42818 113.741 9.48278 113.696 9.52606C113.662 9.55992 113.621 9.58645 113.576 9.60403C113.532 9.62161 113.484 9.62986 113.436 9.62829C113.388 9.62851 113.342 9.61869 113.298 9.59946C113.255 9.58024 113.216 9.55206 113.185 9.51678Z" fill="#08074E"/>
<path d="M109.466 21.8767L113.137 9.88825C113.193 9.72096 113.295 9.60015 113.379 9.62803C113.462 9.65591 113.49 9.8139 113.435 9.98118L109.773 21.9696C109.717 22.1369 109.606 22.2577 109.522 22.2298C109.438 22.2019 109.42 22.0439 109.466 21.8767Z" fill="#08074E"/>
<path d="M110.433 8.35493C110.61 8.35035 110.779 8.27866 110.904 8.1544C111.03 8.03015 111.104 7.86262 111.111 7.68581C111.115 7.59547 111.1 7.50535 111.068 7.42077C111.036 7.33618 110.988 7.25884 110.926 7.19326C110.866 7.1257 110.793 7.07105 110.712 7.03269C110.63 6.99433 110.542 6.97307 110.452 6.97022C110.273 6.96968 110.101 7.03599 109.968 7.15609C109.886 7.24436 109.823 7.34879 109.783 7.46277C109.778 7.52155 109.778 7.58056 109.783 7.63934C109.782 7.82359 109.848 8.00187 109.968 8.14118C110.025 8.1979 110.091 8.24498 110.164 8.28058C110.247 8.32356 110.339 8.34886 110.433 8.35493ZM110.191 7.91814C110.123 7.84866 110.085 7.75523 110.085 7.65793C110.085 7.56063 110.123 7.46721 110.191 7.39772C110.263 7.33342 110.355 7.29712 110.452 7.29549C110.499 7.29638 110.545 7.3067 110.588 7.32586C110.631 7.34501 110.67 7.37261 110.703 7.40701C110.768 7.48146 110.805 7.57725 110.805 7.67651C110.809 7.70734 110.809 7.73862 110.805 7.76945C110.788 7.83127 110.752 7.88638 110.703 7.92744C110.67 7.96275 110.629 7.99025 110.584 8.00793C110.539 8.02562 110.491 8.03304 110.442 8.02966C110.395 8.02988 110.348 8.02005 110.305 8.00083C110.262 7.98161 110.223 7.95342 110.191 7.91814Z" fill="#08074E"/>
<path d="M107.337 17.472L110.172 8.17864C110.172 8.04853 110.311 7.9556 110.395 7.98348C110.478 8.01136 110.516 8.14146 110.469 8.27157L107.681 17.5185C107.635 17.6486 107.532 17.7415 107.458 17.7136C107.384 17.6857 107.3 17.6114 107.337 17.472Z" fill="#08074E"/>
<path d="M116.587 5.31626H116.643C116.991 5.31031 117.324 5.17056 117.572 4.92594C117.71 4.79958 117.821 4.64718 117.899 4.47756C117.977 4.30794 118.021 4.12447 118.028 3.93778C118.035 3.75109 118.005 3.56488 117.939 3.38993C117.874 3.21498 117.774 3.05477 117.646 2.91858C117.522 2.78135 117.372 2.67037 117.205 2.59215C117.037 2.51394 116.855 2.47009 116.671 2.4632C116.361 2.45668 116.057 2.55233 115.807 2.73539C115.557 2.91846 115.374 3.17877 115.286 3.47618C115.251 3.59736 115.229 3.722 115.221 3.84791C115.211 4.03457 115.238 4.22139 115.302 4.39708C115.366 4.57277 115.465 4.73371 115.593 4.87018C115.707 4.99523 115.842 5.09906 115.992 5.17686C116.179 5.26373 116.381 5.31119 116.587 5.31626ZM116.094 4.38693C115.992 4.27722 115.924 4.13961 115.899 3.9914C115.874 3.84319 115.894 3.69099 115.956 3.55394C116.017 3.41689 116.118 3.30109 116.245 3.22112C116.372 3.14114 116.52 3.10055 116.671 3.10445C116.769 3.10675 116.867 3.12901 116.957 3.16988C117.047 3.21076 117.128 3.26941 117.195 3.34232C117.262 3.41523 117.313 3.50089 117.346 3.59416C117.379 3.68743 117.392 3.78638 117.386 3.88508C117.396 3.95289 117.396 4.02173 117.386 4.08954C117.344 4.21221 117.274 4.3235 117.182 4.4148C117.034 4.55571 116.837 4.63257 116.633 4.62855C116.537 4.63813 116.44 4.62826 116.347 4.59953C116.254 4.57079 116.169 4.52378 116.094 4.46127V4.38693Z" fill="#08074E"/>
<path d="M110.118 24.414L116.047 5.05596C116.131 4.77716 116.335 4.60058 116.512 4.64705C116.689 4.69352 116.754 4.97232 116.67 5.25112L110.741 24.5999C110.657 24.8787 110.453 25.0645 110.276 25.0088C110.1 24.953 110.035 24.6928 110.118 24.414Z" fill="#08074E"/>
<path d="M106.958 12.8254C105.713 16.8773 104.449 20.9849 104.43 20.9849C104.172 21.8228 103.647 22.5537 102.936 23.0668C102.225 23.58 101.367 23.8474 100.49 23.8287C99.4705 23.8095 98.4802 23.4858 97.6461 22.8993L99.0494 27.0999C100.1 30.2132 101.893 31.7466 104.467 31.7466C107.042 31.7466 108.845 30.176 109.895 27.0999L110.675 24.7673L106.958 12.8254ZM101.317 10.6136L99.6163 5.03755C99.0494 3.2904 98.0829 1.09717 95.8525 1.09717C95.3443 1.11111 94.844 1.22739 94.3817 1.43904C93.9194 1.65069 93.5045 1.95338 93.1619 2.32902C92.8192 2.70465 92.5558 3.14552 92.3873 3.62526C92.2189 4.10501 92.149 4.61379 92.1816 5.12119V5.91112C92.2845 6.735 92.4874 7.54328 92.7857 8.3181L96.7261 20.26C96.8926 20.9065 97.2644 21.4815 97.7855 21.8988C98.3067 22.316 98.9491 22.553 99.6163 22.5741C102.237 22.5741 103.12 19.8604 103.464 17.7137C103.12 16.7286 102.283 13.5781 101.317 10.6414V10.6136Z" fill="#08074E"/>
</svg>
