<svg id="Layer_1" data-name="Layer 1" xmlns="http://www.w3.org/2000/svg" viewBox="0 0 398.7 117.66"><defs><style>.cls-1{fill:#010050;}.cls-2{font-size:30.43px;font-family:OCRB10PitchBT-Regular, "OCR-B 10 BT";}</style></defs><path d="M130.78,92.91,109,164.22a3,3,0,0,1-.51,1l-1.79,7.08c-2.27,9.71-7,14.56-14.23,14.56s-12.13-4.68-14.88-13.91l-22-74.4c-.48-1.29-.48-2.58-1-3.71A27.11,27.11,0,0,1,54,88.66c0-7,2.58-12.61,9.71-14.55a10.81,10.81,0,0,1,4.2-.66c6.64,0,11.16,5,13.74,15.06L92.2,130l14.36-46.89.26.14a5.3,5.3,0,0,0,2.12.52h.24l-8.45,27.64,1.82,5.88,4.85-15.85a3.23,3.23,0,0,0,1.23.3h.13l-5.46,17.91,2.07,6.65,9-29.61a5,5,0,0,0,2.14.53h.24l-10.16,33.17,2.46,7.93,8.71-28.47s0,0,0,0a2.24,2.24,0,0,0,1,.25h.1a.68.68,0,0,1,0,.14l-9.23,30.1,2.05,6.57,16.67-54.46a5,5,0,0,0,2.13.52Z" transform="translate(-53.95 -69.17)"/><path class="cls-1" d="M173.28,79.7h.23A5,5,0,0,0,177,78.27a5.28,5.28,0,0,0,1.68-3.67,5.19,5.19,0,0,0-1.39-3.76,5,5,0,0,0-3.6-1.67A5.29,5.29,0,0,0,170,70.6a5.43,5.43,0,0,0-1.44,2.31,6.36,6.36,0,0,0-.24,1.36,5.22,5.22,0,0,0,1.39,3.79,4.87,4.87,0,0,0,1.47,1.12A5.14,5.14,0,0,0,173.28,79.7Zm-1.83-3.33a2.84,2.84,0,0,1,.16-4,2.79,2.79,0,0,1,2-.76,2.76,2.76,0,0,1,1.93.87,2.87,2.87,0,0,1,.74,2,2.59,2.59,0,0,1-.12.73,2.9,2.9,0,0,1-.76,1.23,2.82,2.82,0,0,1-2,.77A2.6,2.6,0,0,1,171.45,76.37Z" transform="translate(-53.95 -69.17)"/><path class="cls-1" d="M155,131l16.15-52.78a1.36,1.36,0,1,1,2.59.79l-16.15,52.78A1.36,1.36,0,1,1,155,131Z" transform="translate(-53.95 -69.17)"/><path class="cls-1" d="M180.89,93.14h.23a5,5,0,0,0,3.48-1.42,5.26,5.26,0,0,0,.28-7.43,5,5,0,0,0-3.59-1.67A5.31,5.31,0,0,0,177.57,84a5.41,5.41,0,0,0-1.43,2.31,5.89,5.89,0,0,0-.24,1.36,5.25,5.25,0,0,0,1.38,3.79,5.13,5.13,0,0,0,1.47,1.12A5.07,5.07,0,0,0,180.89,93.14Zm-1.83-3.33a2.83,2.83,0,0,1,2.13-4.74,2.71,2.71,0,0,1,1.92.88,2.8,2.8,0,0,1,.75,2,2.94,2.94,0,0,1-.13.73,2.79,2.79,0,0,1-.75,1.23,2.89,2.89,0,0,1-2,.78A2.63,2.63,0,0,1,179.06,89.81Z" transform="translate(-53.95 -69.17)"/><path class="cls-1" d="M164.55,139l14.53-47.47a1.21,1.21,0,1,1,2.3.71l-14.52,47.47a1.21,1.21,0,1,1-2.31-.71Z" transform="translate(-53.95 -69.17)"/><path class="cls-1" d="M183.19,106h.11a2.39,2.39,0,0,0,1.69-.69,2.53,2.53,0,0,0,.81-1.77,2.49,2.49,0,0,0-.68-1.82,2.39,2.39,0,0,0-1.74-.81,2.51,2.51,0,0,0-1.79.69,2.65,2.65,0,0,0-.7,1.12,3.06,3.06,0,0,0-.12.66,2.59,2.59,0,0,0,.67,1.83,2.24,2.24,0,0,0,.72.54A2.42,2.42,0,0,0,183.19,106Zm-.89-1.62a1.37,1.37,0,0,1,.08-1.92,1.32,1.32,0,0,1,1-.37,1.3,1.3,0,0,1,.93.42,1.37,1.37,0,0,1-.07,1.93,1.34,1.34,0,0,1-1,.38A1.25,1.25,0,0,1,182.3,104.36Z" transform="translate(-53.95 -69.17)"/><path class="cls-1" d="M168.59,150.07l13.56-44.3c.19-.64.6-1.07.91-1s.4.69.2,1.32l-13.55,44.3c-.2.63-.61,1.07-.91,1S168.4,150.7,168.59,150.07Z" transform="translate(-53.95 -69.17)"/><path class="cls-1" d="M172.14,100.07h.12a2.39,2.39,0,0,0,1.68-.69,2.56,2.56,0,0,0,.14-3.6,2.45,2.45,0,0,0-1.74-.8,2.51,2.51,0,0,0-1.8.69,2.65,2.65,0,0,0-.7,1.12,3.64,3.64,0,0,0-.11.66,2.52,2.52,0,0,0,.67,1.83,2.48,2.48,0,0,0,.71.54A2.44,2.44,0,0,0,172.14,100.07Zm-.88-1.61a1.36,1.36,0,0,1,.08-1.92,1.32,1.32,0,0,1,1.88,0,1.32,1.32,0,0,1,.36,1,1,1,0,0,1-.06.35,1.36,1.36,0,0,1-.36.6,1.45,1.45,0,0,1-1,.38A1.31,1.31,0,0,1,171.26,98.46Z" transform="translate(-53.95 -69.17)"/><path class="cls-1" d="M160.72,133.8l10.46-34.19c.15-.5.52-.82.83-.72s.44.57.29,1.06l-10.47,34.19c-.15.49-.52.81-.83.72S160.57,134.29,160.72,133.8Z" transform="translate(-53.95 -69.17)"/><path class="cls-1" d="M194.89,88.85h.23a5,5,0,0,0,3.48-1.42,5.28,5.28,0,0,0,1.68-3.67,5.16,5.16,0,0,0-1.4-3.76,5,5,0,0,0-3.59-1.67,5.27,5.27,0,0,0-3.72,1.43,5.35,5.35,0,0,0-1.43,2.31,5.8,5.8,0,0,0-.24,1.36,5.27,5.27,0,0,0,1.38,3.79,5,5,0,0,0,1.48,1.11A5.15,5.15,0,0,0,194.89,88.85Zm-1.83-3.33a2.84,2.84,0,0,1,.16-4,2.74,2.74,0,0,1,3.9.11,2.85,2.85,0,0,1,.74,2,3,3,0,0,1-.13.74,2.79,2.79,0,0,1-.75,1.23,2.83,2.83,0,0,1-2,.77A2.59,2.59,0,0,1,193.06,85.52Z" transform="translate(-53.95 -69.17)"/><path class="cls-1" d="M171,159.45,192.89,87.9c.31-1,1.08-1.7,1.72-1.5s.9,1.18.58,2.21L173.3,160.15c-.31,1-1.08,1.7-1.72,1.51S170.68,160.47,171,159.45Z" transform="translate(-53.95 -69.17)"/><path class="cls-1" d="M159.29,116.71c-4.59,15-9.26,30.18-9.34,30.18A14.9,14.9,0,0,1,135.4,157.4a18.81,18.81,0,0,1-10.52-3.4l5.18,15.53c3.88,11.48,10.52,17.3,20.05,17.3s16.17-5.82,20.06-17.3l2.88-8.62Zm-20.83-8.16-6.3-20.7c-2.1-6.47-5.66-14.55-13.92-14.55s-13.57,7-13.57,14.88v2.91a38.31,38.31,0,0,0,2.25,8.89l14.56,44c1.94,5.82,6.31,8.57,10.68,8.57,9.71,0,12.94-10,14.23-18C145.1,131,142,119.39,138.46,108.55Z" transform="translate(-53.95 -69.17)"/><text class="cls-2" transform="translate(178.88 93.57)">Technologies</text><path d="M272.63,125.21v-13c0-2.81,1.14-4.71,3.95-4.71s3.95,1.9,3.95,4.71v13c0,2.81-1.1,4.71-3.95,4.71S272.63,128,272.63,125.21Zm.1-24.11a3.86,3.86,0,1,1,3.85,4.18A4.08,4.08,0,0,1,272.73,101.1Z" transform="translate(-53.95 -69.17)"/><path d="M286.52,123.41a59,59,0,0,0,5.9.66c1.52,0,2.76-.33,2.76-1.28a.85.85,0,0,0-.67-.81c-1.52-.62-4.56-.86-7.13-2.14a6.22,6.22,0,0,1,1.76-3.09,4.85,4.85,0,0,1,4.56-1.24c3.38.76,9.38,1.76,9.38,7.85,0,4.9-4.19,6.8-8.62,7.18a22.69,22.69,0,0,1-7.94-.76c-1.85-.57-2.8-1.66-2.95-2.57A2.94,2.94,0,0,1,286.52,123.41Zm-2.85-9.47c0-5.52,4.85-7.13,9.46-7.13,1.81,0,7.42.42,8.42,2.18a3.64,3.64,0,0,1,.57,1.76,3.21,3.21,0,0,1-3.28,3.24c-.95,0-4.33-.86-6.18-.62-2.67.38-5.71,2.81-6,6.09A6,6,0,0,1,283.67,113.94Z" transform="translate(-53.95 -69.17)"/><path d="M309.4,110.42a11,11,0,0,1,8.66-3.57c6.28,0,10.84,4.14,10.84,10.09,0,3.28-1.38,4.9-4.18,4.9H314.39c0,1.9,3.1,2.42,4.48,2.42a21.69,21.69,0,0,0,4.18-.52,8.2,8.2,0,0,1,1.86-.24c1.76,0,2.61,1.19,2.61,2.86,0,3.52-6.56,4.23-9.08,4.23-3.57,0-7.14-1.09-9.23-3.71a6.13,6.13,0,0,1-.38-7.23,7.42,7.42,0,0,1,6.42-3.24h6.42c0-1.71-1.14-3.14-3.61-3.28-4.57-.24-10.56,2.9-11.09,9.28A13.24,13.24,0,0,1,309.4,110.42Z" transform="translate(-53.95 -69.17)"/><path class="cls-1" d="M356.06,125.21v-13c0-2.81,1.14-4.71,3.95-4.71s3.95,1.9,3.95,4.71v13c0,2.81-1.1,4.71-3.95,4.71S356.06,128,356.06,125.21Zm.1-24.11a3.86,3.86,0,1,1,3.85,4.18A4.08,4.08,0,0,1,356.16,101.1Z" transform="translate(-53.95 -69.17)"/><path class="cls-1" d="M370,123.41a59,59,0,0,0,5.9.66c1.52,0,2.76-.33,2.76-1.28a.85.85,0,0,0-.67-.81c-1.52-.62-4.57-.86-7.13-2.14a6.22,6.22,0,0,1,1.76-3.09,4.85,4.85,0,0,1,4.56-1.24c3.38.76,9.37,1.76,9.37,7.85,0,4.9-4.18,6.8-8.61,7.18a22.67,22.67,0,0,1-7.94-.76c-1.86-.57-2.81-1.66-2.95-2.57A2.93,2.93,0,0,1,370,123.41Zm-2.86-9.47c0-5.52,4.86-7.13,9.47-7.13,1.81,0,7.42.42,8.42,2.18a3.64,3.64,0,0,1,.57,1.76,3.21,3.21,0,0,1-3.28,3.24c-.95,0-4.33-.86-6.18-.62-2.67.38-5.71,2.81-5.95,6.09A6,6,0,0,1,367.09,113.94Z" transform="translate(-53.95 -69.17)"/><path class="cls-1" d="M389.35,125.21v-13c0-2.81,1.15-4.71,3.95-4.71s3.95,1.9,3.95,4.71v13c0,2.81-1.09,4.71-3.95,4.71S389.35,128,389.35,125.21Zm.1-24.11a3.87,3.87,0,1,1,3.85,4.18A4.08,4.08,0,0,1,389.45,101.1Z" transform="translate(-53.95 -69.17)"/><path class="cls-1" d="M400.34,118.7a6.7,6.7,0,0,1,.05-1c.24-4.43,2.71-8.56,7.66-8.56a7,7,0,0,1,6.42,4l.19.38a6.1,6.1,0,0,0-1.57-.24c-3.23,0-4.85,2.19-4.85,5.38s1.76,5.37,4.85,5.37c2.71,0,4.81-1.95,4.81-5.37,0-1.19.42-10.61-11-10.8a17.62,17.62,0,0,1,6.18-1.05c8.09,0,12.7,5,12.7,11.85,0,7-4.71,11.84-12.7,11.84C404.86,130.54,400.34,125.41,400.34,118.7Z" transform="translate(-53.95 -69.17)"/><path class="cls-1" d="M432.83,107.47c3,0,3.8,2.57,3.95,5.23v12.51a5.44,5.44,0,0,1-1,3.48,3.67,3.67,0,0,1-2.95,1.23c-2.86,0-3.95-2-3.95-4.71v-13C428.88,109.52,430,107.47,432.83,107.47Zm9.51-.62c6.47,0,9.18,4.71,9.18,10.66v7.7c0,2.62-1.09,4.71-3.95,4.71s-3.94-2.09-3.94-4.71v-7.7c0-2.33-.81-4.19-3.43-4.19a4.17,4.17,0,0,0-1.76.38,2.66,2.66,0,0,0-.43.19,14.08,14.08,0,0,0-.47-5.23A6.75,6.75,0,0,1,442.34,106.85Z" transform="translate(-53.95 -69.17)"/><path d="M251.45,102.89l-6.43,21a1.06,1.06,0,0,1-.15.28l-.53,2.09c-.67,2.86-2.05,4.3-4.2,4.3s-3.58-1.39-4.39-4.11l-6.49-22c-.14-.38-.14-.77-.29-1.1a8.26,8.26,0,0,1-.19-1.81c0-2,.76-3.72,2.86-4.3a3.33,3.33,0,0,1,1.24-.19c2,0,3.3,1.48,4.06,4.44l3.13,12.24L244.3,100l.08,0a1.36,1.36,0,0,0,.63.15h.07l-2.5,8.16.54,1.73,1.43-4.67a1,1,0,0,0,.37.08h0l-1.62,5.29.61,2,2.68-8.74a1.47,1.47,0,0,0,.63.16h.07l-3,9.79.73,2.34,2.57-8.4v0a.64.64,0,0,0,.3.08h0s0,0,0,0l-2.72,8.88.6,1.94,4.92-16.07a1.66,1.66,0,0,0,.63.15Z" transform="translate(-53.95 -69.17)"/><path d="M243.8,102.26v-.86a4.14,4.14,0,0,1,4-4.41c2.44,0,3.49,2.4,4.12,4.31l1.86,6.13c1.06,3.21,2,6.66,2.35,7.71-.38,2.35-1.34,5.31-4.21,5.31a3.35,3.35,0,0,1-3.16-2.53l-4.31-13A11,11,0,0,1,243.8,102.26Zm9.09,19.63a4.4,4.4,0,0,0,4.31-3.11c.05,0,5.37-17.48,5.41-17.48.87-2.87,2.21-4.31,4.07-4.31a4.15,4.15,0,0,1,4.07,4.41,7.24,7.24,0,0,1-.33,2.34,6.79,6.79,0,0,1-.34,1.15l-6.89,20.59c-1.15,3.4-3.11,5.13-5.94,5.13s-4.79-1.73-5.94-5.13l-1.53-4.59A5.59,5.59,0,0,0,252.89,121.89Z" transform="translate(-53.95 -69.17)"/><path class="cls-1" d="M347.94,99.26H348a1.41,1.41,0,0,0,1-.41,1.55,1.55,0,0,0,.49-1.07,1.52,1.52,0,0,0-.41-1.09,1.45,1.45,0,0,0-1.05-.49,1.52,1.52,0,0,0-1.08.42,1.56,1.56,0,0,0-.41.67,1.76,1.76,0,0,0-.07.4,1.49,1.49,0,0,0,.4,1.1,1.51,1.51,0,0,0,.43.32A1.46,1.46,0,0,0,347.94,99.26Zm-.53-1a.82.82,0,0,1,0-1.16.8.8,0,0,1,.58-.22.81.81,0,0,1,.56.25.86.86,0,0,1,.21.59.76.76,0,0,1,0,.21.83.83,0,0,1-.81.59A.78.78,0,0,1,347.41,98.29Z" transform="translate(-53.95 -69.17)"/><path class="cls-1" d="M342.62,114.18l4.7-15.37a.39.39,0,1,1,.75.23l-4.7,15.37a.4.4,0,0,1-.5.28A.39.39,0,0,1,342.62,114.18Z" transform="translate(-53.95 -69.17)"/><path class="cls-1" d="M350.15,103.17h.07a1.46,1.46,0,0,0,1-.42,1.48,1.48,0,0,0,.49-1.07,1.51,1.51,0,0,0-.4-1.09,1.49,1.49,0,0,0-1.05-.49,1.56,1.56,0,0,0-1.08.42,1.59,1.59,0,0,0-.42.67,1.87,1.87,0,0,0-.07.4,1.54,1.54,0,0,0,.83,1.43A1.61,1.61,0,0,0,350.15,103.17Zm-.53-1a.83.83,0,0,1,.05-1.16.8.8,0,0,1,.57-.22.81.81,0,0,1,.56.25.82.82,0,0,1,.22.59.78.78,0,0,1,0,.22.84.84,0,0,1-.8.58A.78.78,0,0,1,349.62,102.2Z" transform="translate(-53.95 -69.17)"/><path class="cls-1" d="M345.4,116.53l4.23-13.82a.37.37,0,0,1,.44-.26.37.37,0,0,1,.23.47l-4.23,13.81a.35.35,0,1,1-.67-.2Z" transform="translate(-53.95 -69.17)"/><path class="cls-1" d="M350.82,106.9h0a.71.71,0,0,0,.49-.2.74.74,0,0,0,.23-.51.72.72,0,0,0-.19-.53.71.71,0,0,0-.51-.24.77.77,0,0,0-.52.2.84.84,0,0,0-.21.33,1.25,1.25,0,0,0,0,.19.69.69,0,0,0,.2.53.62.62,0,0,0,.2.16A.63.63,0,0,0,350.82,106.9Zm-.25-.46a.41.41,0,0,1,0-.57.39.39,0,0,1,.28-.1.4.4,0,0,1,.27.12.38.38,0,0,1,.1.29.36.36,0,0,1,0,.1.37.37,0,0,1-.1.17.38.38,0,0,1-.28.11A.36.36,0,0,1,350.57,106.44Z" transform="translate(-53.95 -69.17)"/><path class="cls-1" d="M346.57,119.74l3.95-12.9c.06-.18.17-.31.26-.28s.12.2.06.38l-3.94,12.9c-.06.18-.18.31-.27.28S346.52,119.92,346.57,119.74Z" transform="translate(-53.95 -69.17)"/><path class="cls-1" d="M347.61,105.19h0a.75.75,0,0,0,.73-.72.73.73,0,0,0-.2-.53.71.71,0,0,0-.51-.24.77.77,0,0,0-.52.2.94.94,0,0,0-.2.33,1.29,1.29,0,0,0,0,.19.82.82,0,0,0,.2.54.8.8,0,0,0,.21.15A.74.74,0,0,0,347.61,105.19Zm-.26-.47a.4.4,0,0,1,0-.56.43.43,0,0,1,.28-.11.38.38,0,0,1,.27.12.44.44,0,0,1,.11.29.36.36,0,0,1,0,.1.34.34,0,0,1-.11.17.35.35,0,0,1-.28.11A.36.36,0,0,1,347.35,104.72Z" transform="translate(-53.95 -69.17)"/><path class="cls-1" d="M344.28,115l3.05-10c0-.14.15-.24.24-.21s.13.17.08.31l-3,9.95c-.05.14-.16.24-.24.21S344.24,115.15,344.28,115Z" transform="translate(-53.95 -69.17)"/><path class="cls-1" d="M354.23,101.92h.06a1.46,1.46,0,0,0,1-.42,1.52,1.52,0,0,0,.08-2.16,1.49,1.49,0,0,0-1.05-.49,1.52,1.52,0,0,0-1.49,1.09,1.87,1.87,0,0,0-.07.4,1.49,1.49,0,0,0,.4,1.1,1.54,1.54,0,0,0,.43.33A1.61,1.61,0,0,0,354.23,101.92Zm-.53-1a.82.82,0,0,1,.62-1.38.79.79,0,0,1,.77.84.78.78,0,0,1,0,.22.91.91,0,0,1-.22.35.83.83,0,0,1-.59.23A.78.78,0,0,1,353.7,101Z" transform="translate(-53.95 -69.17)"/><path class="cls-1" d="M347.27,122.47l6.38-20.83c.09-.3.31-.49.5-.44s.26.35.17.65l-6.38,20.82c-.09.3-.31.5-.5.44S347.18,122.77,347.27,122.47Z" transform="translate(-53.95 -69.17)"/><path class="cls-1" d="M343.87,110c-1.34,4.36-2.7,8.78-2.72,8.78a4.34,4.34,0,0,1-4.24,3.06,5.5,5.5,0,0,1-3.06-1l1.51,4.52c1.13,3.35,3.06,5,5.83,5s4.71-1.69,5.84-5l.84-2.51Zm-6.07-2.38-1.83-6c-.61-1.88-1.65-4.24-4.05-4.24a4.07,4.07,0,0,0-3.95,4.33v.85a11,11,0,0,0,.65,2.59L332.86,118a3.32,3.32,0,0,0,3.11,2.49c2.82,0,3.77-2.92,4.14-5.23C339.74,114.2,338.84,110.81,337.8,107.65Z" transform="translate(-53.95 -69.17)"/></svg>