<svg width="805" height="759" viewBox="0 0 805 759" fill="none" xmlns="http://www.w3.org/2000/svg">
<mask id="mask0_1437_87" style="mask-type:alpha" maskUnits="userSpaceOnUse" x="0" y="0" width="805" height="761">
<g clip-path="url(#clip0_1437_87)">
<path d="M38.5037 71.5161H0V110.547H38.5037V71.5161Z" stroke="url(#paint0_linear_1437_87)" stroke-opacity="0.07" stroke-width="0.5"/>
<path d="M115.512 71.5161H77.0078V110.547H115.512V71.5161Z" stroke="url(#paint1_linear_1437_87)" stroke-opacity="0.07" stroke-width="0.5"/>
<path d="M154.015 71.5161H115.512V110.547H154.015V71.5161Z" stroke="url(#paint2_linear_1437_87)" stroke-opacity="0.07" stroke-width="0.5"/>
<path d="M192.519 71.5161H154.016V110.547H192.519V71.5161Z" stroke="url(#paint3_linear_1437_87)" stroke-opacity="0.07" stroke-width="0.5"/>
<path d="M231.023 71.5161H192.52V110.547H231.023V71.5161Z" stroke="url(#paint4_linear_1437_87)" stroke-opacity="0.07" stroke-width="0.5"/>
<path d="M269.527 71.5161H231.023V110.547H269.527V71.5161Z" stroke="url(#paint5_linear_1437_87)" stroke-opacity="0.07" stroke-width="0.5"/>
<path d="M308.031 71.5161H269.527V110.547H308.031V71.5161Z" stroke="url(#paint6_linear_1437_87)" stroke-opacity="0.07" stroke-width="0.5"/>
<path d="M346.535 71.5161H308.031V110.547H346.535V71.5161Z" stroke="url(#paint7_linear_1437_87)" stroke-opacity="0.07" stroke-width="0.5"/>
<path d="M385.035 71.5161H346.531V110.547H385.035V71.5161Z" stroke="url(#paint8_linear_1437_87)" stroke-opacity="0.07" stroke-width="0.5"/>
<path d="M423.543 71.5161H385.039V110.547H423.543V71.5161Z" stroke="url(#paint9_linear_1437_87)" stroke-opacity="0.07" stroke-width="0.5"/>
<path d="M462.043 71.5161H423.539V110.547H462.043V71.5161Z" stroke="url(#paint10_linear_1437_87)" stroke-opacity="0.07" stroke-width="0.5"/>
<path d="M500.547 71.5161H462.043V110.547H500.547V71.5161Z" stroke="url(#paint11_linear_1437_87)" stroke-opacity="0.07" stroke-width="0.5"/>
<path d="M539.051 71.5161H500.547V110.547H539.051V71.5161Z" stroke="url(#paint12_linear_1437_87)" stroke-opacity="0.07" stroke-width="0.5"/>
<path d="M577.554 71.5161H539.051V110.547H577.554V71.5161Z" stroke="url(#paint13_linear_1437_87)" stroke-opacity="0.07" stroke-width="0.5"/>
<path d="M616.058 71.5161H577.555V110.547H616.058V71.5161Z" stroke="url(#paint14_linear_1437_87)" stroke-opacity="0.07" stroke-width="0.5"/>
<path d="M654.562 71.5161H616.059V110.547H654.562V71.5161Z" stroke="url(#paint15_linear_1437_87)" stroke-opacity="0.07" stroke-width="0.5"/>
<path opacity="0.33" d="M693.066 71.5161H654.562V110.547H693.066V71.5161Z" stroke="url(#paint16_linear_1437_87)" stroke-opacity="0.07" stroke-width="0.5"/>
<path d="M731.57 71.5161H693.066V110.547H731.57V71.5161Z" stroke="url(#paint17_linear_1437_87)" stroke-opacity="0.07" stroke-width="0.5"/>
<path d="M38.5037 110.546H0V149.577H38.5037V110.546Z" stroke="white" stroke-width="0.5"/>
<path d="M77.0076 110.546H38.5039V149.577H77.0076V110.546Z" stroke="white" stroke-width="0.5"/>
<path d="M115.512 110.546H77.0078V149.577H115.512V110.546Z" stroke="white" stroke-width="0.5"/>
<path d="M154.015 110.546H115.512V149.577H154.015V110.546Z" stroke="white" stroke-width="0.5"/>
<path d="M192.519 110.546H154.016V149.577H192.519V110.546Z" stroke="white" stroke-width="0.5"/>
<path d="M231.023 110.546H192.52V149.577H231.023V110.546Z" stroke="white" stroke-width="0.5"/>
<path d="M269.527 110.546H231.023V149.577H269.527V110.546Z" stroke="white" stroke-width="0.5"/>
<path d="M308.031 110.546H269.527V149.577H308.031V110.546Z" stroke="white" stroke-width="0.5"/>
<path d="M346.535 110.546H308.031V149.577H346.535V110.546Z" stroke="white" stroke-width="0.5"/>
<path d="M385.035 110.546H346.531V149.577H385.035V110.546Z" stroke="white" stroke-width="0.5"/>
<path d="M423.543 110.546H385.039V149.577H423.543V110.546Z" stroke="white" stroke-width="0.5"/>
<path d="M462.043 110.546H423.539V149.577H462.043V110.546Z" stroke="white" stroke-width="0.5"/>
<path d="M500.547 110.546H462.043V149.577H500.547V110.546Z" stroke="white" stroke-width="0.5"/>
<path d="M539.051 110.546H500.547V149.577H539.051V110.546Z" stroke="white" stroke-width="0.5"/>
<path d="M577.554 110.546H539.051V149.577H577.554V110.546Z" stroke="white" stroke-width="0.5"/>
<path d="M616.058 110.546H577.555V149.577H616.058V110.546Z" stroke="white" stroke-width="0.5"/>
<path d="M654.562 110.546H616.059V149.577H654.562V110.546Z" stroke="white" stroke-width="0.5"/>
<path d="M693.066 110.546H654.562V149.577H693.066V110.546Z" stroke="white" stroke-width="0.5"/>
<path d="M731.57 110.546H693.066V149.577H731.57V110.546Z" stroke="url(#paint18_linear_1437_87)" stroke-opacity="0.1" stroke-width="0.5"/>
<path d="M38.5037 149.577H0V188.608H38.5037V149.577Z" stroke="white" stroke-width="0.5"/>
<path d="M77.0076 149.577H38.5039V188.608H77.0076V149.577Z" stroke="white" stroke-width="0.5"/>
<path d="M115.512 149.577H77.0078V188.608H115.512V149.577Z" stroke="white" stroke-width="0.5"/>
<path d="M154.015 149.577H115.512V188.608H154.015V149.577Z" stroke="white" stroke-width="0.5"/>
<path d="M192.519 149.577H154.016V188.608H192.519V149.577Z" stroke="white" stroke-width="0.5"/>
<path d="M231.023 149.577H192.52V188.608H231.023V149.577Z" stroke="white" stroke-width="0.5"/>
<path d="M269.527 149.577H231.023V188.608H269.527V149.577Z" stroke="white" stroke-width="0.5"/>
<path d="M308.031 149.577H269.527V188.608H308.031V149.577Z" stroke="white" stroke-width="0.5"/>
<path d="M346.535 149.577H308.031V188.608H346.535V149.577Z" stroke="white" stroke-width="0.5"/>
<path d="M385.035 149.577H346.531V188.608H385.035V149.577Z" stroke="white" stroke-width="0.5"/>
<path d="M423.543 149.577H385.039V188.608H423.543V149.577Z" stroke="white" stroke-width="0.5"/>
<path d="M462.043 149.577H423.539V188.608H462.043V149.577Z" stroke="white" stroke-width="0.5"/>
<path d="M500.547 149.577H462.043V188.608H500.547V149.577Z" stroke="white" stroke-width="0.5"/>
<path d="M539.051 149.577H500.547V188.608H539.051V149.577Z" stroke="white" stroke-width="0.5"/>
<path d="M577.554 149.577H539.051V188.608H577.554V149.577Z" stroke="white" stroke-width="0.5"/>
<path d="M616.058 149.577H577.555V188.608H616.058V149.577Z" stroke="white" stroke-width="0.5"/>
<path d="M654.562 149.577H616.059V188.608H654.562V149.577Z" stroke="white" stroke-width="0.5"/>
<path d="M693.066 149.577H654.562V188.608H693.066V149.577Z" stroke="white" stroke-width="0.5"/>
<path d="M731.57 149.577H693.066V188.608H731.57V149.577Z" stroke="url(#paint19_linear_1437_87)" stroke-opacity="0.1" stroke-width="0.5"/>
<path d="M38.5037 188.607H0V227.638H38.5037V188.607Z" stroke="white" stroke-width="0.5"/>
<path d="M77.0076 188.607H38.5039V227.638H77.0076V188.607Z" stroke="white" stroke-width="0.5"/>
<path d="M115.512 188.607H77.0078V227.638H115.512V188.607Z" stroke="white" stroke-width="0.5"/>
<path d="M154.015 188.607H115.512V227.638H154.015V188.607Z" stroke="white" stroke-width="0.5"/>
<path d="M192.519 188.607H154.016V227.638H192.519V188.607Z" stroke="white" stroke-width="0.5"/>
<path d="M231.023 188.607H192.52V227.638H231.023V188.607Z" stroke="white" stroke-width="0.5"/>
<path d="M269.527 188.607H231.023V227.638H269.527V188.607Z" stroke="white" stroke-width="0.5"/>
<path d="M308.031 188.607H269.527V227.638H308.031V188.607Z" stroke="white" stroke-width="0.5"/>
<path d="M346.535 188.607H308.031V227.638H346.535V188.607Z" stroke="white" stroke-width="0.5"/>
<path d="M385.035 188.607H346.531V227.638H385.035V188.607Z" stroke="white" stroke-width="0.5"/>
<path d="M423.543 188.607H385.039V227.638H423.543V188.607Z" stroke="white" stroke-width="0.5"/>
<path d="M462.043 188.607H423.539V227.638H462.043V188.607Z" stroke="white" stroke-width="0.5"/>
<path d="M500.547 188.607H462.043V227.638H500.547V188.607Z" stroke="white" stroke-width="0.5"/>
<path d="M539.051 188.607H500.547V227.638H539.051V188.607Z" stroke="white" stroke-width="0.5"/>
<path d="M577.554 188.607H539.051V227.638H577.554V188.607Z" stroke="white" stroke-width="0.5"/>
<path d="M616.058 188.607H577.555V227.638H616.058V188.607Z" stroke="white" stroke-width="0.5"/>
<path d="M654.562 188.607H616.059V227.638H654.562V188.607Z" stroke="white" stroke-width="0.5"/>
<path d="M693.066 188.607H654.562V227.638H693.066V188.607Z" stroke="white" stroke-width="0.5"/>
<path d="M731.57 188.607H693.066V227.638H731.57V188.607Z" stroke="url(#paint20_linear_1437_87)" stroke-opacity="0.1" stroke-width="0.5"/>
<path d="M38.5037 227.638H0V266.668H38.5037V227.638Z" stroke="white" stroke-width="0.5"/>
<path d="M77.0076 227.638H38.5039V266.668H77.0076V227.638Z" stroke="white" stroke-width="0.5"/>
<path d="M115.512 227.638H77.0078V266.668H115.512V227.638Z" stroke="white" stroke-width="0.5"/>
<path d="M154.015 227.638H115.512V266.668H154.015V227.638Z" stroke="white" stroke-width="0.5"/>
<path d="M192.519 227.638H154.016V266.668H192.519V227.638Z" stroke="white" stroke-width="0.5"/>
<path d="M231.023 227.638H192.52V266.668H231.023V227.638Z" stroke="white" stroke-width="0.5"/>
<path d="M269.527 227.638H231.023V266.668H269.527V227.638Z" stroke="white" stroke-width="0.5"/>
<path d="M308.031 227.638H269.527V266.668H308.031V227.638Z" stroke="white" stroke-width="0.5"/>
<path d="M346.535 227.638H308.031V266.668H346.535V227.638Z" stroke="white" stroke-width="0.5"/>
<path d="M385.035 227.638H346.531V266.668H385.035V227.638Z" stroke="white" stroke-width="0.5"/>
<path d="M423.543 227.638H385.039V266.668H423.543V227.638Z" stroke="white" stroke-width="0.5"/>
<path d="M462.043 227.638H423.539V266.668H462.043V227.638Z" stroke="white" stroke-width="0.5"/>
<path d="M500.547 227.638H462.043V266.668H500.547V227.638Z" stroke="white" stroke-width="0.5"/>
<path d="M539.051 227.638H500.547V266.668H539.051V227.638Z" stroke="white" stroke-width="0.5"/>
<path d="M577.554 227.638H539.051V266.668H577.554V227.638Z" stroke="white" stroke-width="0.5"/>
<path d="M616.058 227.638H577.555V266.668H616.058V227.638Z" stroke="white" stroke-width="0.5"/>
<path d="M654.562 227.638H616.059V266.668H654.562V227.638Z" stroke="white" stroke-width="0.5"/>
<path d="M693.066 227.638H654.562V266.668H693.066V227.638Z" stroke="white" stroke-width="0.5"/>
<path d="M731.57 227.638H693.066V266.668H731.57V227.638Z" stroke="url(#paint21_linear_1437_87)" stroke-opacity="0.1" stroke-width="0.5"/>
<path d="M38.5037 266.668H0V305.699H38.5037V266.668Z" stroke="white" stroke-width="0.5"/>
<path d="M77.0076 266.668H38.5039V305.699H77.0076V266.668Z" stroke="white" stroke-width="0.5"/>
<path d="M115.512 266.668H77.0078V305.699H115.512V266.668Z" stroke="white" stroke-width="0.5"/>
<path d="M154.015 266.668H115.512V305.699H154.015V266.668Z" stroke="white" stroke-width="0.5"/>
<path d="M192.519 266.668H154.016V305.699H192.519V266.668Z" stroke="white" stroke-width="0.5"/>
<path d="M231.023 266.668H192.52V305.699H231.023V266.668Z" stroke="white" stroke-width="0.5"/>
<path d="M269.527 266.668H231.023V305.699H269.527V266.668Z" stroke="white" stroke-width="0.5"/>
<path d="M308.031 266.668H269.527V305.699H308.031V266.668Z" stroke="white" stroke-width="0.5"/>
<path d="M346.535 266.668H308.031V305.699H346.535V266.668Z" stroke="white" stroke-width="0.5"/>
<path d="M385.035 266.668H346.531V305.699H385.035V266.668Z" stroke="white" stroke-width="0.5"/>
<path d="M423.543 266.668H385.039V305.699H423.543V266.668Z" stroke="white" stroke-width="0.5"/>
<path d="M462.043 266.668H423.539V305.699H462.043V266.668Z" stroke="white" stroke-width="0.5"/>
<path d="M500.547 266.668H462.043V305.699H500.547V266.668Z" stroke="white" stroke-width="0.5"/>
<path d="M539.051 266.668H500.547V305.699H539.051V266.668Z" stroke="white" stroke-width="0.5"/>
<path d="M577.554 266.668H539.051V305.699H577.554V266.668Z" stroke="white" stroke-width="0.5"/>
<path d="M616.058 266.668H577.555V305.699H616.058V266.668Z" stroke="white" stroke-width="0.5"/>
<path d="M654.562 266.668H616.059V305.699H654.562V266.668Z" stroke="white" stroke-width="0.5"/>
<path d="M693.066 266.668H654.562V305.699H693.066V266.668Z" stroke="white" stroke-width="0.5"/>
<path d="M731.57 266.668H693.066V305.699H731.57V266.668Z" stroke="url(#paint22_linear_1437_87)" stroke-opacity="0.1" stroke-width="0.5"/>
<path d="M38.5037 305.699H0V344.729H38.5037V305.699Z" stroke="white" stroke-width="0.5"/>
<path d="M77.0076 305.699H38.5039V344.729H77.0076V305.699Z" stroke="white" stroke-width="0.5"/>
<path d="M115.512 305.699H77.0078V344.729H115.512V305.699Z" stroke="white" stroke-width="0.5"/>
<path d="M154.015 305.699H115.512V344.729H154.015V305.699Z" stroke="white" stroke-width="0.5"/>
<path d="M192.519 305.699H154.016V344.729H192.519V305.699Z" stroke="white" stroke-width="0.5"/>
<path d="M231.023 305.699H192.52V344.729H231.023V305.699Z" stroke="white" stroke-width="0.5"/>
<path d="M269.527 305.699H231.023V344.729H269.527V305.699Z" stroke="white" stroke-width="0.5"/>
<path d="M308.031 305.699H269.527V344.729H308.031V305.699Z" stroke="white" stroke-width="0.5"/>
<path d="M346.535 305.699H308.031V344.729H346.535V305.699Z" stroke="white" stroke-width="0.5"/>
<path d="M385.035 305.699H346.531V344.729H385.035V305.699Z" stroke="white" stroke-width="0.5"/>
<path d="M423.543 305.699H385.039V344.729H423.543V305.699Z" stroke="white" stroke-width="0.5"/>
<path d="M462.043 305.699H423.539V344.729H462.043V305.699Z" stroke="white" stroke-width="0.5"/>
<path d="M500.547 305.699H462.043V344.729H500.547V305.699Z" stroke="white" stroke-width="0.5"/>
<path d="M539.051 305.699H500.547V344.729H539.051V305.699Z" stroke="white" stroke-width="0.5"/>
<path d="M577.554 305.699H539.051V344.729H577.554V305.699Z" stroke="white" stroke-width="0.5"/>
<path d="M616.058 305.699H577.555V344.729H616.058V305.699Z" stroke="white" stroke-width="0.5"/>
<path d="M654.562 305.699H616.059V344.729H654.562V305.699Z" stroke="white" stroke-width="0.5"/>
<path d="M693.066 305.699H654.562V344.729H693.066V305.699Z" stroke="white" stroke-width="0.5"/>
<path d="M731.57 305.699H693.066V344.729H731.57V305.699Z" stroke="url(#paint23_linear_1437_87)" stroke-opacity="0.1" stroke-width="0.5"/>
<path d="M38.5037 344.729H0V383.759H38.5037V344.729Z" stroke="white" stroke-width="0.5"/>
<path d="M77.0076 344.729H38.5039V383.759H77.0076V344.729Z" stroke="white" stroke-width="0.5"/>
<path d="M115.512 344.729H77.0078V383.759H115.512V344.729Z" stroke="white" stroke-width="0.5"/>
<path d="M154.015 344.729H115.512V383.759H154.015V344.729Z" stroke="white" stroke-width="0.5"/>
<path d="M192.519 344.729H154.016V383.759H192.519V344.729Z" stroke="white" stroke-width="0.5"/>
<path d="M231.023 344.729H192.52V383.759H231.023V344.729Z" stroke="white" stroke-width="0.5"/>
<path d="M269.527 344.729H231.023V383.759H269.527V344.729Z" stroke="white" stroke-width="0.5"/>
<path d="M308.031 344.729H269.527V383.759H308.031V344.729Z" stroke="white" stroke-width="0.5"/>
<path d="M346.535 344.729H308.031V383.759H346.535V344.729Z" stroke="white" stroke-width="0.5"/>
<path d="M385.035 344.729H346.531V383.759H385.035V344.729Z" stroke="white" stroke-width="0.5"/>
<path d="M423.543 344.729H385.039V383.759H423.543V344.729Z" stroke="white" stroke-width="0.5"/>
<path d="M462.043 344.729H423.539V383.759H462.043V344.729Z" stroke="white" stroke-width="0.5"/>
<path d="M500.547 344.729H462.043V383.759H500.547V344.729Z" stroke="white" stroke-width="0.5"/>
<path d="M539.051 344.729H500.547V383.759H539.051V344.729Z" stroke="white" stroke-width="0.5"/>
<path d="M577.554 344.729H539.051V383.759H577.554V344.729Z" stroke="white" stroke-width="0.5"/>
<path d="M616.058 344.729H577.555V383.759H616.058V344.729Z" stroke="white" stroke-width="0.5"/>
<path d="M654.562 344.729H616.059V383.759H654.562V344.729Z" stroke="white" stroke-width="0.5"/>
<path d="M693.066 344.729H654.562V383.759H693.066V344.729Z" stroke="white" stroke-width="0.5"/>
<path d="M731.57 344.729H693.066V383.759H731.57V344.729Z" stroke="url(#paint24_linear_1437_87)" stroke-opacity="0.1" stroke-width="0.5"/>
<path d="M38.5037 383.76H0V422.79H38.5037V383.76Z" stroke="white" stroke-width="0.5"/>
<path d="M77.0076 383.76H38.5039V422.79H77.0076V383.76Z" stroke="white" stroke-width="0.5"/>
<path d="M115.512 383.76H77.0078V422.79H115.512V383.76Z" stroke="white" stroke-width="0.5"/>
<path d="M154.015 383.76H115.512V422.79H154.015V383.76Z" stroke="white" stroke-width="0.5"/>
<path d="M192.519 383.76H154.016V422.79H192.519V383.76Z" stroke="white" stroke-width="0.5"/>
<path d="M231.023 383.76H192.52V422.79H231.023V383.76Z" stroke="white" stroke-width="0.5"/>
<path d="M269.527 383.76H231.023V422.79H269.527V383.76Z" stroke="white" stroke-width="0.5"/>
<path d="M308.031 383.76H269.527V422.79H308.031V383.76Z" stroke="white" stroke-width="0.5"/>
<path d="M346.535 383.76H308.031V422.79H346.535V383.76Z" stroke="white" stroke-width="0.5"/>
<path d="M385.035 383.76H346.531V422.79H385.035V383.76Z" stroke="white" stroke-width="0.5"/>
<path d="M423.543 383.76H385.039V422.79H423.543V383.76Z" stroke="white" stroke-width="0.5"/>
<path d="M462.043 383.76H423.539V422.79H462.043V383.76Z" stroke="white" stroke-width="0.5"/>
<path d="M500.547 383.76H462.043V422.79H500.547V383.76Z" stroke="white" stroke-width="0.5"/>
<path d="M539.051 383.76H500.547V422.79H539.051V383.76Z" stroke="white" stroke-width="0.5"/>
<path d="M577.554 383.76H539.051V422.79H577.554V383.76Z" stroke="white" stroke-width="0.5"/>
<path d="M616.058 383.76H577.555V422.79H616.058V383.76Z" stroke="white" stroke-width="0.5"/>
<path d="M654.562 383.76H616.059V422.79H654.562V383.76Z" stroke="white" stroke-width="0.5"/>
<path d="M693.066 383.76H654.562V422.79H693.066V383.76Z" stroke="white" stroke-width="0.5"/>
<path d="M731.57 383.76H693.066V422.79H731.57V383.76Z" stroke="url(#paint25_linear_1437_87)" stroke-opacity="0.1" stroke-width="0.5"/>
<path d="M38.5037 422.79H0V461.82H38.5037V422.79Z" stroke="white" stroke-width="0.5"/>
<path d="M77.0076 422.79H38.5039V461.82H77.0076V422.79Z" stroke="white" stroke-width="0.5"/>
<path d="M115.512 422.79H77.0078V461.82H115.512V422.79Z" stroke="white" stroke-width="0.5"/>
<path d="M154.015 422.79H115.512V461.82H154.015V422.79Z" stroke="white" stroke-width="0.5"/>
<path d="M192.519 422.79H154.016V461.82H192.519V422.79Z" stroke="white" stroke-width="0.5"/>
<path d="M231.023 422.79H192.52V461.82H231.023V422.79Z" stroke="white" stroke-width="0.5"/>
<path d="M269.527 422.79H231.023V461.82H269.527V422.79Z" stroke="white" stroke-width="0.5"/>
<path d="M308.031 422.79H269.527V461.82H308.031V422.79Z" stroke="white" stroke-width="0.5"/>
<path d="M346.535 422.79H308.031V461.82H346.535V422.79Z" stroke="white" stroke-width="0.5"/>
<path d="M385.035 422.79H346.531V461.82H385.035V422.79Z" stroke="white" stroke-width="0.5"/>
<path d="M423.543 422.79H385.039V461.82H423.543V422.79Z" stroke="white" stroke-width="0.5"/>
<path d="M462.043 422.79H423.539V461.82H462.043V422.79Z" stroke="white" stroke-width="0.5"/>
<path d="M500.547 422.79H462.043V461.82H500.547V422.79Z" stroke="white" stroke-width="0.5"/>
<path d="M539.051 422.79H500.547V461.82H539.051V422.79Z" stroke="white" stroke-width="0.5"/>
<path d="M577.554 422.79H539.051V461.82H577.554V422.79Z" stroke="white" stroke-width="0.5"/>
<path d="M616.058 422.79H577.555V461.82H616.058V422.79Z" stroke="white" stroke-width="0.5"/>
<path d="M654.562 422.79H616.059V461.82H654.562V422.79Z" stroke="white" stroke-width="0.5"/>
<path d="M693.066 422.79H654.562V461.82H693.066V422.79Z" stroke="white" stroke-width="0.5"/>
<path d="M731.57 422.79H693.066V461.82H731.57V422.79Z" stroke="url(#paint26_linear_1437_87)" stroke-opacity="0.1" stroke-width="0.5"/>
<path d="M38.5037 461.82H0V500.851H38.5037V461.82Z" stroke="white" stroke-width="0.5"/>
<path d="M77.0076 461.82H38.5039V500.851H77.0076V461.82Z" stroke="white" stroke-width="0.5"/>
<path d="M115.512 461.82H77.0078V500.851H115.512V461.82Z" stroke="white" stroke-width="0.5"/>
<path d="M154.015 461.82H115.512V500.851H154.015V461.82Z" stroke="white" stroke-width="0.5"/>
<path d="M192.519 461.82H154.016V500.851H192.519V461.82Z" stroke="white" stroke-width="0.5"/>
<path d="M231.023 461.82H192.52V500.851H231.023V461.82Z" stroke="white" stroke-width="0.5"/>
<path d="M269.527 461.82H231.023V500.851H269.527V461.82Z" stroke="white" stroke-width="0.5"/>
<path d="M308.031 461.82H269.527V500.851H308.031V461.82Z" stroke="white" stroke-width="0.5"/>
<path d="M346.535 461.82H308.031V500.851H346.535V461.82Z" stroke="white" stroke-width="0.5"/>
<path d="M385.035 461.82H346.531V500.851H385.035V461.82Z" stroke="white" stroke-width="0.5"/>
<path d="M423.543 461.82H385.039V500.851H423.543V461.82Z" stroke="white" stroke-width="0.5"/>
<path d="M462.043 461.82H423.539V500.851H462.043V461.82Z" stroke="white" stroke-width="0.5"/>
<path d="M500.547 461.82H462.043V500.851H500.547V461.82Z" stroke="white" stroke-width="0.5"/>
<path d="M539.051 461.82H500.547V500.851H539.051V461.82Z" stroke="white" stroke-width="0.5"/>
<path d="M577.554 461.82H539.051V500.851H577.554V461.82Z" stroke="white" stroke-width="0.5"/>
<path d="M616.058 461.82H577.555V500.851H616.058V461.82Z" stroke="white" stroke-width="0.5"/>
<path d="M654.562 461.82H616.059V500.851H654.562V461.82Z" stroke="white" stroke-width="0.5"/>
<path d="M693.066 461.82H654.562V500.851H693.066V461.82Z" stroke="white" stroke-width="0.5"/>
<path d="M731.57 461.82H693.066V500.851H731.57V461.82Z" stroke="url(#paint27_linear_1437_87)" stroke-opacity="0.1" stroke-width="0.5"/>
<path d="M38.5037 500.851H0V539.881H38.5037V500.851Z" stroke="white" stroke-width="0.5"/>
<path d="M77.0076 500.851H38.5039V539.881H77.0076V500.851Z" stroke="white" stroke-width="0.5"/>
<path d="M115.512 500.851H77.0078V539.881H115.512V500.851Z" stroke="white" stroke-width="0.5"/>
<path d="M154.015 500.851H115.512V539.881H154.015V500.851Z" stroke="white" stroke-width="0.5"/>
<path d="M192.519 500.851H154.016V539.881H192.519V500.851Z" stroke="white" stroke-width="0.5"/>
<path d="M231.023 500.851H192.52V539.881H231.023V500.851Z" stroke="white" stroke-width="0.5"/>
<path d="M269.527 500.851H231.023V539.881H269.527V500.851Z" stroke="white" stroke-width="0.5"/>
<path d="M308.031 500.851H269.527V539.881H308.031V500.851Z" stroke="white" stroke-width="0.5"/>
<path d="M346.535 500.851H308.031V539.881H346.535V500.851Z" stroke="white" stroke-width="0.5"/>
<path d="M385.035 500.851H346.531V539.881H385.035V500.851Z" stroke="white" stroke-width="0.5"/>
<path d="M423.543 500.851H385.039V539.881H423.543V500.851Z" stroke="white" stroke-width="0.5"/>
<path d="M462.043 500.851H423.539V539.881H462.043V500.851Z" stroke="white" stroke-width="0.5"/>
<path d="M500.547 500.851H462.043V539.881H500.547V500.851Z" stroke="white" stroke-width="0.5"/>
<path d="M539.051 500.851H500.547V539.881H539.051V500.851Z" stroke="white" stroke-width="0.5"/>
<path d="M577.554 500.851H539.051V539.881H577.554V500.851Z" stroke="white" stroke-width="0.5"/>
<path d="M616.058 500.851H577.555V539.881H616.058V500.851Z" stroke="white" stroke-width="0.5"/>
<path d="M654.562 500.851H616.059V539.881H654.562V500.851Z" stroke="white" stroke-width="0.5"/>
<path d="M693.066 500.851H654.562V539.881H693.066V500.851Z" stroke="white" stroke-width="0.5"/>
<path d="M731.57 500.851H693.066V539.881H731.57V500.851Z" stroke="url(#paint28_linear_1437_87)" stroke-opacity="0.1" stroke-width="0.5"/>
<path d="M38.5037 539.881H0V578.912H38.5037V539.881Z" stroke="white" stroke-width="0.5"/>
<path d="M77.0076 539.881H38.5039V578.912H77.0076V539.881Z" stroke="white" stroke-width="0.5"/>
<path d="M115.512 539.881H77.0078V578.912H115.512V539.881Z" stroke="white" stroke-width="0.5"/>
<path d="M154.015 539.881H115.512V578.912H154.015V539.881Z" stroke="white" stroke-width="0.5"/>
<path d="M192.519 539.881H154.016V578.912H192.519V539.881Z" stroke="white" stroke-width="0.5"/>
<path d="M231.023 539.881H192.52V578.912H231.023V539.881Z" stroke="white" stroke-width="0.5"/>
<path d="M269.527 539.881H231.023V578.912H269.527V539.881Z" stroke="white" stroke-width="0.5"/>
<path d="M308.031 539.881H269.527V578.912H308.031V539.881Z" stroke="white" stroke-width="0.5"/>
<path d="M346.535 539.881H308.031V578.912H346.535V539.881Z" stroke="white" stroke-width="0.5"/>
<path d="M385.035 539.881H346.531V578.912H385.035V539.881Z" stroke="white" stroke-width="0.5"/>
<path d="M423.543 539.881H385.039V578.912H423.543V539.881Z" stroke="white" stroke-width="0.5"/>
<path d="M462.043 539.881H423.539V578.912H462.043V539.881Z" stroke="white" stroke-width="0.5"/>
<path d="M500.547 539.881H462.043V578.912H500.547V539.881Z" stroke="white" stroke-width="0.5"/>
<path d="M539.051 539.881H500.547V578.912H539.051V539.881Z" stroke="white" stroke-width="0.5"/>
<path d="M577.554 539.881H539.051V578.912H577.554V539.881Z" stroke="white" stroke-width="0.5"/>
<path d="M616.058 539.881H577.555V578.912H616.058V539.881Z" stroke="white" stroke-width="0.5"/>
<path d="M654.562 539.881H616.059V578.912H654.562V539.881Z" stroke="white" stroke-width="0.5"/>
<path d="M693.066 539.881H654.562V578.912H693.066V539.881Z" stroke="white" stroke-width="0.5"/>
<path d="M731.57 539.881H693.066V578.912H731.57V539.881Z" stroke="url(#paint29_linear_1437_87)" stroke-opacity="0.1" stroke-width="0.5"/>
<path d="M38.5037 578.912H0V617.942H38.5037V578.912Z" stroke="white" stroke-width="0.5"/>
<path d="M77.0076 578.912H38.5039V617.942H77.0076V578.912Z" stroke="white" stroke-width="0.5"/>
<path d="M115.512 578.912H77.0078V617.942H115.512V578.912Z" stroke="white" stroke-width="0.5"/>
<path d="M154.015 578.912H115.512V617.942H154.015V578.912Z" stroke="white" stroke-width="0.5"/>
<path d="M192.519 578.912H154.016V617.942H192.519V578.912Z" stroke="white" stroke-width="0.5"/>
<path d="M231.023 578.912H192.52V617.942H231.023V578.912Z" stroke="white" stroke-width="0.5"/>
<path d="M269.527 578.912H231.023V617.942H269.527V578.912Z" stroke="white" stroke-width="0.5"/>
<path d="M308.031 578.912H269.527V617.942H308.031V578.912Z" stroke="white" stroke-width="0.5"/>
<path d="M346.535 578.912H308.031V617.942H346.535V578.912Z" stroke="white" stroke-width="0.5"/>
<path d="M385.035 578.912H346.531V617.942H385.035V578.912Z" stroke="white" stroke-width="0.5"/>
<path d="M423.543 578.912H385.039V617.942H423.543V578.912Z" stroke="white" stroke-width="0.5"/>
<path d="M462.043 578.912H423.539V617.942H462.043V578.912Z" stroke="white" stroke-width="0.5"/>
<path d="M500.547 578.912H462.043V617.942H500.547V578.912Z" stroke="white" stroke-width="0.5"/>
<path d="M539.051 578.912H500.547V617.942H539.051V578.912Z" stroke="white" stroke-width="0.5"/>
<path d="M577.554 578.912H539.051V617.942H577.554V578.912Z" stroke="white" stroke-width="0.5"/>
<path d="M616.058 578.912H577.555V617.942H616.058V578.912Z" stroke="white" stroke-width="0.5"/>
<path d="M654.562 578.912H616.059V617.942H654.562V578.912Z" stroke="white" stroke-width="0.5"/>
<path d="M693.066 578.912H654.562V617.942H693.066V578.912Z" stroke="white" stroke-width="0.5"/>
<path d="M731.57 578.912H693.066V617.942H731.57V578.912Z" stroke="url(#paint30_linear_1437_87)" stroke-opacity="0.1" stroke-width="0.5"/>
<path d="M38.5037 617.942H0V656.973H38.5037V617.942Z" stroke="white" stroke-width="0.5"/>
<path d="M77.0076 617.942H38.5039V656.973H77.0076V617.942Z" stroke="white" stroke-width="0.5"/>
<path d="M115.512 617.942H77.0078V656.973H115.512V617.942Z" stroke="white" stroke-width="0.5"/>
<path d="M154.015 617.942H115.512V656.973H154.015V617.942Z" stroke="white" stroke-width="0.5"/>
<path d="M192.519 617.942H154.016V656.973H192.519V617.942Z" stroke="white" stroke-width="0.5"/>
<path d="M231.023 617.942H192.52V656.973H231.023V617.942Z" stroke="white" stroke-width="0.5"/>
<path d="M269.527 617.942H231.023V656.973H269.527V617.942Z" stroke="white" stroke-width="0.5"/>
<path d="M308.031 617.942H269.527V656.973H308.031V617.942Z" stroke="white" stroke-width="0.5"/>
<path d="M346.531 617.942H308.027V656.973H346.531V617.942Z" stroke="white" stroke-width="0.5"/>
<path d="M385.035 617.942H346.531V656.973H385.035V617.942Z" stroke="white" stroke-width="0.5"/>
<path d="M423.539 617.942H385.035V656.973H423.539V617.942Z" stroke="white" stroke-width="0.5"/>
<path d="M462.043 617.942H423.539V656.973H462.043V617.942Z" stroke="white" stroke-width="0.5"/>
<path d="M500.547 617.942H462.043V656.973H500.547V617.942Z" stroke="white" stroke-width="0.5"/>
<path d="M539.051 617.942H500.547V656.973H539.051V617.942Z" stroke="white" stroke-width="0.5"/>
<path d="M577.554 617.942H539.051V656.973H577.554V617.942Z" stroke="white" stroke-width="0.5"/>
<path d="M616.058 617.942H577.555V656.973H616.058V617.942Z" stroke="white" stroke-width="0.5"/>
<path d="M654.562 617.942H616.059V656.973H654.562V617.942Z" stroke="white" stroke-width="0.5"/>
<path d="M693.066 617.942H654.562V656.973H693.066V617.942Z" stroke="white" stroke-width="0.5"/>
<path d="M731.57 617.942H693.066V656.973H731.57V617.942Z" stroke="url(#paint31_linear_1437_87)" stroke-opacity="0.1" stroke-width="0.5"/>
<path d="M38.5037 656.973H0V696.003H38.5037V656.973Z" stroke="white" stroke-width="0.5"/>
<path d="M77.0076 656.973H38.5039V696.003H77.0076V656.973Z" stroke="white" stroke-width="0.5"/>
<path d="M115.512 656.973H77.0078V696.003H115.512V656.973Z" stroke="white" stroke-width="0.5"/>
<path d="M154.015 656.973H115.512V696.003H154.015V656.973Z" stroke="white" stroke-width="0.5"/>
<path d="M192.519 656.973H154.016V696.003H192.519V656.973Z" stroke="white" stroke-width="0.5"/>
<path d="M231.023 656.973H192.52V696.003H231.023V656.973Z" stroke="white" stroke-width="0.5"/>
<path d="M269.527 656.973H231.023V696.003H269.527V656.973Z" stroke="white" stroke-width="0.5"/>
<path d="M308.031 656.973H269.527V696.003H308.031V656.973Z" stroke="white" stroke-width="0.5"/>
<path d="M346.535 656.973H308.031V696.003H346.535V656.973Z" stroke="white" stroke-width="0.5"/>
<path d="M385.035 656.973H346.531V696.003H385.035V656.973Z" stroke="white" stroke-width="0.5"/>
<path d="M423.543 656.973H385.039V696.003H423.543V656.973Z" stroke="white" stroke-width="0.5"/>
<path d="M462.043 656.973H423.539V696.003H462.043V656.973Z" stroke="white" stroke-width="0.5"/>
<path d="M500.547 656.973H462.043V696.003H500.547V656.973Z" stroke="white" stroke-width="0.5"/>
<path d="M539.051 656.973H500.547V696.003H539.051V656.973Z" stroke="white" stroke-width="0.5"/>
<path d="M577.554 656.973H539.051V696.003H577.554V656.973Z" stroke="white" stroke-width="0.5"/>
<path d="M616.058 656.973H577.555V696.003H616.058V656.973Z" stroke="white" stroke-width="0.5"/>
<path d="M654.562 656.973H616.059V696.003H654.562V656.973Z" stroke="white" stroke-width="0.5"/>
<path d="M693.066 656.973H654.562V696.003H693.066V656.973Z" stroke="white" stroke-width="0.5"/>
<path d="M731.57 656.973H693.066V696.003H731.57V656.973Z" stroke="url(#paint32_linear_1437_87)" stroke-opacity="0.1" stroke-width="0.5"/>
<path d="M38.5037 696.003H0V735.033H38.5037V696.003Z" stroke="white" stroke-width="0.5"/>
<path d="M77.0076 696.003H38.5039V735.033H77.0076V696.003Z" stroke="white" stroke-width="0.5"/>
<path d="M115.512 696.003H77.0078V735.033H115.512V696.003Z" stroke="white" stroke-width="0.5"/>
<path d="M154.015 696.003H115.512V735.033H154.015V696.003Z" stroke="white" stroke-width="0.5"/>
<path d="M192.519 696.003H154.016V735.033H192.519V696.003Z" stroke="white" stroke-width="0.5"/>
<path d="M231.023 696.003H192.52V735.033H231.023V696.003Z" stroke="white" stroke-width="0.5"/>
<path d="M269.527 696.003H231.023V735.033H269.527V696.003Z" stroke="white" stroke-width="0.5"/>
<path d="M308.031 696.003H269.527V735.033H308.031V696.003Z" stroke="white" stroke-width="0.5"/>
<path d="M346.535 696.003H308.031V735.033H346.535V696.003Z" stroke="white" stroke-width="0.5"/>
<path d="M385.035 696.003H346.531V735.033H385.035V696.003Z" stroke="white" stroke-width="0.5"/>
<path d="M423.543 696.003H385.039V735.033H423.543V696.003Z" stroke="white" stroke-width="0.5"/>
<path d="M462.043 696.003H423.539V735.033H462.043V696.003Z" stroke="white" stroke-width="0.5"/>
<path d="M500.547 696.003H462.043V735.033H500.547V696.003Z" stroke="white" stroke-width="0.5"/>
<path d="M539.051 696.003H500.547V735.033H539.051V696.003Z" stroke="white" stroke-width="0.5"/>
<path d="M577.554 696.003H539.051V735.033H577.554V696.003Z" stroke="white" stroke-width="0.5"/>
<path d="M616.058 696.003H577.555V735.033H616.058V696.003Z" stroke="white" stroke-width="0.5"/>
<path d="M654.562 696.003H616.059V735.033H654.562V696.003Z" stroke="white" stroke-width="0.5"/>
<path d="M693.066 696.003H654.562V735.033H693.066V696.003Z" stroke="white" stroke-width="0.5"/>
<path d="M731.57 696.003H693.066V735.033H731.57V696.003Z" stroke="url(#paint33_linear_1437_87)" stroke-opacity="0.1" stroke-width="0.5"/>
<path d="M38.5037 735.033H0V774.064H38.5037V735.033Z" stroke="white" stroke-width="0.5"/>
<path d="M77.0076 735.033H38.5039V774.064H77.0076V735.033Z" stroke="white" stroke-width="0.5"/>
<path d="M115.512 735.033H77.0078V774.064H115.512V735.033Z" stroke="white" stroke-width="0.5"/>
<path d="M154.015 735.033H115.512V774.064H154.015V735.033Z" stroke="white" stroke-width="0.5"/>
<path d="M192.519 735.033H154.016V774.064H192.519V735.033Z" stroke="white" stroke-width="0.5"/>
<path d="M231.023 735.033H192.52V774.064H231.023V735.033Z" stroke="white" stroke-width="0.5"/>
<path d="M269.527 735.033H231.023V774.064H269.527V735.033Z" stroke="white" stroke-width="0.5"/>
<path d="M308.031 735.033H269.527V774.064H308.031V735.033Z" stroke="white" stroke-width="0.5"/>
<path d="M346.531 735.033H308.027V774.064H346.531V735.033Z" stroke="white" stroke-width="0.5"/>
<path d="M385.035 735.033H346.531V774.064H385.035V735.033Z" stroke="white" stroke-width="0.5"/>
<path d="M423.539 735.033H385.035V774.064H423.539V735.033Z" stroke="white" stroke-width="0.5"/>
<path d="M462.043 735.033H423.539V774.064H462.043V735.033Z" stroke="white" stroke-width="0.5"/>
<path d="M500.547 735.033H462.043V774.064H500.547V735.033Z" stroke="white" stroke-width="0.5"/>
<path d="M539.051 735.033H500.547V774.064H539.051V735.033Z" stroke="white" stroke-width="0.5"/>
<path d="M577.554 735.033H539.051V774.064H577.554V735.033Z" stroke="white" stroke-width="0.5"/>
<path d="M616.058 735.033H577.555V774.064H616.058V735.033Z" stroke="white" stroke-width="0.5"/>
<path d="M654.562 735.033H616.059V774.064H654.562V735.033Z" stroke="white" stroke-width="0.5"/>
<path d="M693.066 735.033H654.562V774.064H693.066V735.033Z" stroke="white" stroke-width="0.5"/>
<path d="M731.57 735.033H693.066V774.064H731.57V735.033Z" stroke="url(#paint34_linear_1437_87)" stroke-opacity="0.1" stroke-width="0.5"/>
</g>
</mask>
<g mask="url(#mask0_1437_87)">
<rect x="1" y="85" width="750" height="676" fill="url(#paint35_linear_1437_87)"/>
</g>
<defs>
<linearGradient id="paint0_linear_1437_87" x1="19.2519" y1="71.5161" x2="19.2922" y2="110.543" gradientUnits="userSpaceOnUse">
<stop stop-color="white" stop-opacity="0"/>
<stop offset="1" stop-color="#08074E"/>
</linearGradient>
<linearGradient id="paint1_linear_1437_87" x1="96.2597" y1="71.5161" x2="96.2597" y2="110.547" gradientUnits="userSpaceOnUse">
<stop stop-color="white" stop-opacity="0"/>
<stop offset="1" stop-color="#08074E"/>
</linearGradient>
<linearGradient id="paint2_linear_1437_87" x1="134.764" y1="71.5161" x2="134.764" y2="110.547" gradientUnits="userSpaceOnUse">
<stop stop-color="white" stop-opacity="0"/>
<stop offset="0.551032" stop-color="#08074E"/>
</linearGradient>
<linearGradient id="paint3_linear_1437_87" x1="173.267" y1="71.5161" x2="173.267" y2="110.547" gradientUnits="userSpaceOnUse">
<stop stop-color="white" stop-opacity="0"/>
<stop offset="1" stop-color="#08074E"/>
</linearGradient>
<linearGradient id="paint4_linear_1437_87" x1="211.771" y1="71.5161" x2="211.771" y2="110.547" gradientUnits="userSpaceOnUse">
<stop stop-color="white" stop-opacity="0"/>
<stop offset="1" stop-color="#08074E"/>
</linearGradient>
<linearGradient id="paint5_linear_1437_87" x1="250.275" y1="71.5161" x2="250.275" y2="110.547" gradientUnits="userSpaceOnUse">
<stop stop-color="white" stop-opacity="0"/>
<stop offset="1" stop-color="#08074E"/>
</linearGradient>
<linearGradient id="paint6_linear_1437_87" x1="288.779" y1="71.5161" x2="288.779" y2="110.547" gradientUnits="userSpaceOnUse">
<stop stop-color="white" stop-opacity="0"/>
<stop offset="1" stop-color="#08074E"/>
</linearGradient>
<linearGradient id="paint7_linear_1437_87" x1="327.283" y1="71.5161" x2="327.283" y2="110.547" gradientUnits="userSpaceOnUse">
<stop stop-color="white" stop-opacity="0"/>
<stop offset="1" stop-color="#08074E"/>
</linearGradient>
<linearGradient id="paint8_linear_1437_87" x1="365.783" y1="71.5161" x2="365.783" y2="110.547" gradientUnits="userSpaceOnUse">
<stop stop-color="white" stop-opacity="0"/>
<stop offset="1" stop-color="#08074E"/>
</linearGradient>
<linearGradient id="paint9_linear_1437_87" x1="404.291" y1="71.5161" x2="404.291" y2="110.547" gradientUnits="userSpaceOnUse">
<stop stop-color="white" stop-opacity="0"/>
<stop offset="1" stop-color="#08074E"/>
</linearGradient>
<linearGradient id="paint10_linear_1437_87" x1="442.791" y1="71.5161" x2="442.791" y2="110.547" gradientUnits="userSpaceOnUse">
<stop stop-color="white" stop-opacity="0"/>
<stop offset="1" stop-color="#08074E"/>
</linearGradient>
<linearGradient id="paint11_linear_1437_87" x1="481.295" y1="71.5161" x2="481.295" y2="110.547" gradientUnits="userSpaceOnUse">
<stop stop-color="white" stop-opacity="0"/>
<stop offset="1" stop-color="#08074E"/>
</linearGradient>
<linearGradient id="paint12_linear_1437_87" x1="519.799" y1="71.5161" x2="519.799" y2="110.547" gradientUnits="userSpaceOnUse">
<stop stop-color="white" stop-opacity="0"/>
<stop offset="1" stop-color="#08074E"/>
</linearGradient>
<linearGradient id="paint13_linear_1437_87" x1="558.303" y1="71.5161" x2="558.303" y2="110.547" gradientUnits="userSpaceOnUse">
<stop stop-color="white" stop-opacity="0"/>
<stop offset="1" stop-color="#08074E"/>
</linearGradient>
<linearGradient id="paint14_linear_1437_87" x1="596.807" y1="71.5161" x2="596.807" y2="110.547" gradientUnits="userSpaceOnUse">
<stop stop-color="white" stop-opacity="0"/>
<stop offset="1" stop-color="#08074E"/>
</linearGradient>
<linearGradient id="paint15_linear_1437_87" x1="635.31" y1="71.5161" x2="635.31" y2="110.547" gradientUnits="userSpaceOnUse">
<stop stop-color="white" stop-opacity="0"/>
<stop offset="1" stop-color="#08074E"/>
</linearGradient>
<linearGradient id="paint16_linear_1437_87" x1="673.814" y1="71.5161" x2="673.814" y2="110.547" gradientUnits="userSpaceOnUse">
<stop stop-color="white" stop-opacity="0"/>
<stop offset="1" stop-color="#08074E"/>
</linearGradient>
<linearGradient id="paint17_linear_1437_87" x1="712.318" y1="71.5161" x2="712.318" y2="110.547" gradientUnits="userSpaceOnUse">
<stop stop-color="white" stop-opacity="0"/>
<stop offset="1" stop-color="#08074E"/>
</linearGradient>
<linearGradient id="paint18_linear_1437_87" x1="712.318" y1="110.546" x2="712.318" y2="149.577" gradientUnits="userSpaceOnUse">
<stop stop-color="#08074E"/>
<stop offset="1" stop-color="#1210B4" stop-opacity="0"/>
</linearGradient>
<linearGradient id="paint19_linear_1437_87" x1="712.318" y1="149.577" x2="712.318" y2="188.608" gradientUnits="userSpaceOnUse">
<stop stop-color="#08074E"/>
<stop offset="1" stop-color="#1210B4" stop-opacity="0"/>
</linearGradient>
<linearGradient id="paint20_linear_1437_87" x1="712.318" y1="188.607" x2="712.318" y2="227.638" gradientUnits="userSpaceOnUse">
<stop stop-color="#08074E"/>
<stop offset="1" stop-color="#1210B4" stop-opacity="0"/>
</linearGradient>
<linearGradient id="paint21_linear_1437_87" x1="712.318" y1="227.638" x2="712.318" y2="266.668" gradientUnits="userSpaceOnUse">
<stop stop-color="#08074E"/>
<stop offset="1" stop-color="#1210B4" stop-opacity="0"/>
</linearGradient>
<linearGradient id="paint22_linear_1437_87" x1="712.318" y1="266.668" x2="712.318" y2="305.699" gradientUnits="userSpaceOnUse">
<stop stop-color="#08074E"/>
<stop offset="1" stop-color="#1210B4" stop-opacity="0"/>
</linearGradient>
<linearGradient id="paint23_linear_1437_87" x1="712.318" y1="305.699" x2="712.318" y2="344.729" gradientUnits="userSpaceOnUse">
<stop stop-color="#08074E"/>
<stop offset="1" stop-color="#1210B4" stop-opacity="0"/>
</linearGradient>
<linearGradient id="paint24_linear_1437_87" x1="712.318" y1="344.729" x2="712.318" y2="383.759" gradientUnits="userSpaceOnUse">
<stop stop-color="#08074E"/>
<stop offset="1" stop-color="#1210B4" stop-opacity="0"/>
</linearGradient>
<linearGradient id="paint25_linear_1437_87" x1="712.318" y1="383.76" x2="712.318" y2="422.79" gradientUnits="userSpaceOnUse">
<stop stop-color="#08074E"/>
<stop offset="1" stop-color="#1210B4" stop-opacity="0"/>
</linearGradient>
<linearGradient id="paint26_linear_1437_87" x1="712.318" y1="422.79" x2="712.318" y2="461.82" gradientUnits="userSpaceOnUse">
<stop stop-color="#08074E"/>
<stop offset="1" stop-color="#1210B4" stop-opacity="0"/>
</linearGradient>
<linearGradient id="paint27_linear_1437_87" x1="712.318" y1="461.82" x2="712.318" y2="500.851" gradientUnits="userSpaceOnUse">
<stop stop-color="#08074E"/>
<stop offset="1" stop-color="#1210B4" stop-opacity="0"/>
</linearGradient>
<linearGradient id="paint28_linear_1437_87" x1="712.318" y1="500.851" x2="712.318" y2="539.881" gradientUnits="userSpaceOnUse">
<stop stop-color="#08074E"/>
<stop offset="1" stop-color="#1210B4" stop-opacity="0"/>
</linearGradient>
<linearGradient id="paint29_linear_1437_87" x1="712.318" y1="539.881" x2="712.318" y2="578.912" gradientUnits="userSpaceOnUse">
<stop stop-color="#08074E"/>
<stop offset="1" stop-color="#1210B4" stop-opacity="0"/>
</linearGradient>
<linearGradient id="paint30_linear_1437_87" x1="712.318" y1="578.912" x2="712.318" y2="617.942" gradientUnits="userSpaceOnUse">
<stop stop-color="#08074E"/>
<stop offset="1" stop-color="#1210B4" stop-opacity="0"/>
</linearGradient>
<linearGradient id="paint31_linear_1437_87" x1="712.318" y1="617.942" x2="712.318" y2="656.973" gradientUnits="userSpaceOnUse">
<stop stop-color="#08074E"/>
<stop offset="1" stop-color="#1210B4" stop-opacity="0"/>
</linearGradient>
<linearGradient id="paint32_linear_1437_87" x1="712.318" y1="656.973" x2="712.318" y2="696.003" gradientUnits="userSpaceOnUse">
<stop stop-color="#08074E"/>
<stop offset="1" stop-color="#1210B4" stop-opacity="0"/>
</linearGradient>
<linearGradient id="paint33_linear_1437_87" x1="712.318" y1="696.003" x2="712.318" y2="735.033" gradientUnits="userSpaceOnUse">
<stop stop-color="#08074E"/>
<stop offset="1" stop-color="#1210B4" stop-opacity="0"/>
</linearGradient>
<linearGradient id="paint34_linear_1437_87" x1="712.318" y1="735.033" x2="712.318" y2="774.064" gradientUnits="userSpaceOnUse">
<stop stop-color="#08074E"/>
<stop offset="1" stop-color="#1210B4" stop-opacity="0"/>
</linearGradient>
<linearGradient id="paint35_linear_1437_87" x1="1302.36" y1="386.5" x2="150.443" y2="386.5" gradientUnits="userSpaceOnUse">
<stop offset="0.516217" stop-color="#D9D9D9" stop-opacity="0"/>
<stop offset="1" stop-color="#737373"/>
</linearGradient>
<clipPath id="clip0_1437_87">
<rect width="805" height="761" fill="white"/>
</clipPath>
</defs>
</svg>
