<svg width="91" height="42" viewBox="0 0 91 42" fill="none" xmlns="http://www.w3.org/2000/svg">
<g filter="url(#filter0_d_3330_494)">
<path fill-rule="evenodd" clip-rule="evenodd" d="M41.6966 30.1806L45.4937 31.9995L49.2908 30.1806L70.9097 30.1806C76.4824 30.1806 81 25.663 81 20.0903C81 14.5176 76.4824 10.0001 70.9097 10.0001L20.0903 10.0001C14.5176 10.0001 10 14.5176 10 20.0903C10 25.663 14.5176 30.1806 20.0903 30.1806L41.6966 30.1806Z" fill="#08074E"/>
</g>
<path d="M31.0229 23.096C30.5109 23.096 30.0602 22.976 29.6709 22.736C29.2869 22.496 28.9855 22.16 28.7669 21.728C28.5535 21.296 28.4469 20.792 28.4469 20.216C28.4469 19.6347 28.5535 19.128 28.7669 18.696C28.9855 18.264 29.2869 17.928 29.6709 17.688C30.0602 17.448 30.5109 17.328 31.0229 17.328C31.5455 17.328 32.0015 17.448 32.3909 17.688C32.7802 17.928 33.0815 18.264 33.2949 18.696C33.5135 19.128 33.6229 19.6347 33.6229 20.216C33.6229 20.792 33.5135 21.296 33.2949 21.728C33.0762 22.16 32.7722 22.496 32.3829 22.736C31.9935 22.976 31.5402 23.096 31.0229 23.096ZM31.0229 22.424C31.4122 22.424 31.7455 22.3333 32.0229 22.152C32.3055 21.9707 32.5242 21.7147 32.6789 21.384C32.8335 21.0533 32.9109 20.664 32.9109 20.216C32.9109 19.7627 32.8335 19.3707 32.6789 19.04C32.5242 18.7093 32.3055 18.4533 32.0229 18.272C31.7455 18.0907 31.4122 18 31.0229 18C30.6442 18 30.3135 18.0907 30.0309 18.272C29.7482 18.448 29.5295 18.7013 29.3749 19.032C29.2255 19.3627 29.1509 19.7573 29.1509 20.216C29.1509 20.6693 29.2255 21.0613 29.3749 21.392C29.5295 21.7227 29.7482 21.9787 30.0309 22.16C30.3135 22.336 30.6442 22.424 31.0229 22.424ZM35.8313 23L34.2153 19.056H34.9593L36.1113 22.128L37.2713 19.056H38.0073L36.3993 23H35.8313ZM40.3338 23.064C40.0244 23.064 39.7524 23.0133 39.5178 22.912C39.2884 22.8053 39.0964 22.6587 38.9418 22.472C38.7924 22.2853 38.6778 22.072 38.5978 21.832C38.5231 21.5867 38.4858 21.328 38.4858 21.056C38.4858 20.784 38.5231 20.5253 38.5978 20.28C38.6724 20.0293 38.7818 19.808 38.9258 19.616C39.0751 19.424 39.2618 19.272 39.4858 19.16C39.7098 19.048 39.9711 18.992 40.2698 18.992C40.5738 18.992 40.8351 19.0453 41.0538 19.152C41.2778 19.2533 41.4591 19.3947 41.5978 19.576C41.7418 19.7573 41.8484 19.96 41.9178 20.184C41.9871 20.408 42.0218 20.64 42.0218 20.88C42.0218 20.9013 42.0191 20.952 42.0138 21.032C42.0138 21.1067 42.0084 21.1733 41.9978 21.232H39.1578C39.1738 21.616 39.2858 21.9147 39.4938 22.128C39.7018 22.3413 39.9844 22.448 40.3418 22.448C40.5711 22.448 40.7711 22.4107 40.9418 22.336C41.1124 22.2613 41.2724 22.1413 41.4218 21.976L41.8938 22.392C41.7498 22.5467 41.5978 22.6747 41.4378 22.776C41.2778 22.872 41.1071 22.944 40.9258 22.992C40.7498 23.04 40.5524 23.064 40.3338 23.064ZM41.3498 20.888C41.3604 20.8453 41.3658 20.8027 41.3658 20.76C41.3711 20.7173 41.3738 20.6747 41.3738 20.632C41.3738 20.504 41.3498 20.376 41.3018 20.248C41.2591 20.12 41.1924 20.0053 41.1018 19.904C41.0164 19.7973 40.9044 19.7147 40.7658 19.656C40.6324 19.592 40.4724 19.56 40.2858 19.56C40.0564 19.56 39.8591 19.6133 39.6938 19.72C39.5284 19.8267 39.4004 19.968 39.3098 20.144C39.2191 20.32 39.1658 20.5147 39.1497 20.728H41.5738L41.3498 20.888ZM42.9901 23V19.056H43.6701V20.112L43.4941 20.152C43.5314 19.9173 43.6194 19.7147 43.7581 19.544C43.9021 19.368 44.0674 19.232 44.2541 19.136C44.4461 19.04 44.6327 18.992 44.8141 18.992C44.9367 18.992 45.0541 19.0053 45.1661 19.032C45.2781 19.0587 45.3927 19.104 45.5101 19.168L45.1741 19.776C45.1101 19.744 45.0327 19.7173 44.9421 19.696C44.8567 19.6747 44.7741 19.664 44.6941 19.664C44.5661 19.664 44.4381 19.688 44.3101 19.736C44.1874 19.784 44.0754 19.8587 43.9741 19.96C43.8727 20.0613 43.7954 20.1973 43.7421 20.368C43.7207 20.4427 43.7021 20.5413 43.6861 20.664C43.6754 20.7813 43.6701 20.944 43.6701 21.152V23H42.9901ZM47.4719 23L45.8559 19.056H46.5999L47.7519 22.128L48.9119 19.056H49.6479L48.0399 23H47.4719ZM50.4118 23V19.056H51.0838V23H50.4118ZM50.3478 18.344V17.424H51.1478V18.344H50.3478ZM53.8884 23.064C53.5791 23.064 53.3071 23.0133 53.0724 22.912C52.8431 22.8053 52.6511 22.6587 52.4964 22.472C52.3471 22.2853 52.2324 22.072 52.1524 21.832C52.0778 21.5867 52.0404 21.328 52.0404 21.056C52.0404 20.784 52.0778 20.5253 52.1524 20.28C52.2271 20.0293 52.3364 19.808 52.4804 19.616C52.6298 19.424 52.8164 19.272 53.0404 19.16C53.2644 19.048 53.5258 18.992 53.8244 18.992C54.1284 18.992 54.3898 19.0453 54.6084 19.152C54.8324 19.2533 55.0138 19.3947 55.1524 19.576C55.2964 19.7573 55.4031 19.96 55.4724 20.184C55.5418 20.408 55.5764 20.64 55.5764 20.88C55.5764 20.9013 55.5738 20.952 55.5684 21.032C55.5684 21.1067 55.5631 21.1733 55.5524 21.232H52.7124C52.7284 21.616 52.8404 21.9147 53.0484 22.128C53.2564 22.3413 53.5391 22.448 53.8964 22.448C54.1258 22.448 54.3258 22.4107 54.4964 22.336C54.6671 22.2613 54.8271 22.1413 54.9764 21.976L55.4484 22.392C55.3044 22.5467 55.1524 22.6747 54.9924 22.776C54.8324 22.872 54.6618 22.944 54.4804 22.992C54.3044 23.04 54.1071 23.064 53.8884 23.064ZM54.9044 20.888C54.9151 20.8453 54.9204 20.8027 54.9204 20.76C54.9258 20.7173 54.9284 20.6747 54.9284 20.632C54.9284 20.504 54.9044 20.376 54.8564 20.248C54.8138 20.12 54.7471 20.0053 54.6564 19.904C54.5711 19.7973 54.4591 19.7147 54.3204 19.656C54.1871 19.592 54.0271 19.56 53.8404 19.56C53.6111 19.56 53.4138 19.6133 53.2484 19.72C53.0831 19.8267 52.9551 19.968 52.8644 20.144C52.7738 20.32 52.7204 20.5147 52.7044 20.728H55.1284L54.9044 20.888ZM57.3608 23L56.1928 19.056H56.9128L57.7128 21.976L58.6568 19.056H59.2568L60.2008 21.96L61.0088 19.056H61.7288L60.5528 23H59.9288L58.9608 20L57.9928 23H57.3608Z" fill="white"/>
<defs>
<filter id="filter0_d_3330_494" x="0.352942" y="0.352942" width="90.2941" height="41.2936" filterUnits="userSpaceOnUse" color-interpolation-filters="sRGB">
<feFlood flood-opacity="0" result="BackgroundImageFix"/>
<feColorMatrix in="SourceAlpha" type="matrix" values="0 0 0 0 0 0 0 0 0 0 0 0 0 0 0 0 0 0 127 0" result="hardAlpha"/>
<feOffset/>
<feGaussianBlur stdDeviation="4.82353"/>
<feComposite in2="hardAlpha" operator="out"/>
<feColorMatrix type="matrix" values="0 0 0 0 0 0 0 0 0 0 0 0 0 0 0 0 0 0 0.3 0"/>
<feBlend mode="normal" in2="BackgroundImageFix" result="effect1_dropShadow_3330_494"/>
<feBlend mode="normal" in="SourceGraphic" in2="effect1_dropShadow_3330_494" result="shape"/>
</filter>
</defs>
</svg>
