<svg width="50" height="50" viewBox="0 0 50 50" fill="none" xmlns="http://www.w3.org/2000/svg">
<path d="M6.25 35.4167L18.3125 23.3542C18.5062 23.1589 18.7366 23.0039 18.9905 22.8981C19.2443 22.7924 19.5166 22.7379 19.7917 22.7379C20.0667 22.7379 20.339 22.7924 20.5929 22.8981C20.8467 23.0039 21.0772 23.1589 21.2708 23.3542L26.6458 28.7292C26.8395 28.9244 27.0699 29.0794 27.3238 29.1852C27.5777 29.291 27.85 29.3454 28.125 29.3454C28.4 29.3454 28.6723 29.291 28.9262 29.1852C29.1801 29.0794 29.4105 28.9244 29.6042 28.7292L43.75 14.5833" stroke="#149E19" stroke-width="4.16667" stroke-linecap="round" stroke-linejoin="round"/>
<path d="M35.417 14.5833H43.7503V22.9167" stroke="#149E19" stroke-width="4.16667" stroke-linecap="round" stroke-linejoin="round"/>
</svg>
