<svg width="14" height="19" viewBox="0 0 14 19" fill="none" xmlns="http://www.w3.org/2000/svg">
<path fill-rule="evenodd" clip-rule="evenodd" d="M7.20984 13.702C7.18104 13.7519 7.15064 13.8002 7.11944 13.8477C6.98264 14.0575 6.80824 14.2641 6.62024 14.6536C6.52344 14.8547 6.61224 15.0455 6.68424 15.237C6.78264 15.5015 6.90344 15.7643 6.97944 16.0271C7.16504 16.6676 7.15464 17.3104 6.47944 17.9778C6.25944 18.1955 5.92344 18.2493 5.64584 18.11C4.25544 17.4141 2.78504 16.2947 1.83144 14.9592C1.15064 14.0052 0.733043 12.9412 0.741043 11.8519C0.712243 8.82058 2.62984 6.76937 4.20664 5.65312C4.64264 5.34516 4.94344 4.8575 5.16904 4.316C5.55624 3.385 5.70904 2.28854 5.76104 1.43987C5.77544 1.19525 5.91624 0.975954 6.13224 0.857996C6.34904 0.740037 6.61144 0.740829 6.82824 0.859579C9.28584 2.20541 9.95944 4.45216 10.001 6.37275C10.0402 8.21812 9.48664 9.7397 9.48664 9.7397C9.35224 10.1102 8.93944 10.3026 8.56584 10.1704C8.19144 10.0374 7.99704 9.62966 8.13064 9.25916C8.13064 9.25916 8.59464 7.96795 8.56104 6.40283C8.53544 5.19237 8.20664 3.80379 7.06344 2.76512C6.95384 3.461 6.77624 4.19566 6.50024 4.85908C6.16664 5.65945 5.68904 6.35612 5.04504 6.81212C3.76024 7.72175 2.15704 9.37 2.18104 11.8503C2.17464 12.661 2.50744 13.4352 3.00824 14.1374C3.67064 15.066 4.62984 15.868 5.60424 16.457C5.59784 16.4293 5.58984 16.4024 5.58184 16.3755C5.52824 16.206 5.45384 16.0374 5.38584 15.868C5.14984 15.2727 5.01784 14.667 5.32104 14.04C5.50584 13.6553 5.67784 13.4122 5.82584 13.1985C5.96264 13.0006 6.06984 12.8422 6.11464 12.4805C6.14264 12.2469 6.28584 12.0427 6.49624 11.9342C6.70664 11.8257 6.95704 11.8265 7.16664 11.9366C8.91144 12.8533 9.56264 14.4533 9.79544 16.3192C11.2058 15.4057 12.3594 13.9625 12.4082 12.3506C12.4666 10.4166 11.7026 9.45075 10.5586 7.83416C10.3306 7.51195 10.4098 7.06704 10.7354 6.84141C11.061 6.61658 11.5098 6.69495 11.7378 7.01637C13.0922 8.92983 13.9162 10.1047 13.8474 12.3926C13.773 14.8634 11.7402 17.0911 9.46984 18.1219C9.24744 18.2232 8.98744 18.205 8.78104 18.0744C8.57624 17.9437 8.45144 17.7205 8.44984 17.4798C8.37544 15.9994 8.17944 14.6132 7.20984 13.702Z" fill="white"/>
</svg>
