<svg width="50" height="50" viewBox="0 0 50 50" fill="none" xmlns="http://www.w3.org/2000/svg">
<path d="M6.25 14.5833L18.3125 26.6458C18.5062 26.8411 18.7366 26.9961 18.9905 27.1019C19.2443 27.2076 19.5166 27.2621 19.7917 27.2621C20.0667 27.2621 20.339 27.2076 20.5929 27.1019C20.8467 26.9961 21.0772 26.8411 21.2708 26.6458L26.6458 21.2708C26.8395 21.0756 27.0699 20.9206 27.3238 20.8148C27.5777 20.7091 27.85 20.6546 28.125 20.6546C28.4 20.6546 28.6723 20.7091 28.9262 20.8148C29.1801 20.9206 29.4105 21.0756 29.6042 21.2708L43.75 35.4167" stroke="#9E1421" stroke-width="4.16667" stroke-linecap="round" stroke-linejoin="round"/>
<path d="M35.417 35.4167H43.7503V27.0833" stroke="#9E1421" stroke-width="4.16667" stroke-linecap="round" stroke-linejoin="round"/>
</svg>
