<svg width="20" height="19" viewBox="0 0 20 19" fill="none" xmlns="http://www.w3.org/2000/svg">
<path d="M19.375 7.3125C19.3229 7.88542 19.0104 8.19792 18.4375 8.25H14.0625H12.8125C12.2396 8.19792 11.9271 7.88542 11.875 7.3125C11.9271 6.73958 12.2396 6.42708 12.8125 6.375H14.0625H16.1719L14.1406 4.34375C12.9948 3.22396 11.6146 2.65104 10 2.625C8.56771 2.65104 7.29167 3.04167 6.17188 3.79688C5.05208 4.55208 4.21875 5.55469 3.67188 6.80469C3.41146 7.32552 3.00781 7.49479 2.46094 7.3125C1.9401 7.02604 1.77083 6.60938 1.95312 6.0625C2.63021 4.47396 3.6849 3.19792 5.11719 2.23438C6.54948 1.27083 8.17708 0.776042 10 0.75C12.1094 0.776042 13.9323 1.53125 15.4688 3.01562L17.5 5.04688V2.9375V1.6875C17.5521 1.11458 17.8646 0.802083 18.4375 0.75C19.0104 0.802083 19.3229 1.11458 19.375 1.6875V7.3125ZM1.5625 10.75H5.9375C6.51042 10.8021 6.82292 11.1146 6.875 11.6875C6.82292 12.2604 6.51042 12.5729 5.9375 12.625H3.82812L5.85938 14.6562C7.00521 15.776 8.38542 16.349 10 16.375C11.4323 16.349 12.7083 15.9583 13.8281 15.2031C14.9479 14.4479 15.7812 13.4453 16.3281 12.1953C16.5885 11.7005 16.9922 11.5443 17.5391 11.7266C18.0599 11.987 18.2292 12.3906 18.0469 12.9375C17.3438 14.526 16.2891 15.8021 14.8828 16.7656C13.4505 17.7292 11.8229 18.224 10 18.25C7.89062 18.224 6.06771 17.4688 4.53125 15.9844L2.5 13.9531V16.0625C2.44792 16.6354 2.13542 16.9479 1.5625 17C0.989583 16.9479 0.677083 16.6354 0.625 16.0625V11.6875C0.677083 11.1146 0.989583 10.8021 1.5625 10.75Z" fill="#08074E"/>
</svg>
