<svg width="14" height="8" viewBox="0 0 14 8" fill="none" xmlns="http://www.w3.org/2000/svg">
<path d="M6.66756 7.99998C6.4922 8.00099 6.31837 7.96738 6.15603 7.90107C5.99369 7.83477 5.84604 7.73707 5.72154 7.61358L0.391854 2.28389C0.140954 2.03299 0 1.6927 0 1.33787C0 0.983046 0.140954 0.642753 0.391854 0.391853C0.642754 0.140954 0.983047 0 1.33787 0C1.6927 0 2.03299 0.140954 2.28389 0.391853L6.66756 4.78884L11.0512 0.405178C11.3061 0.186892 11.634 0.0728282 11.9693 0.0857809C12.3047 0.0987335 12.6228 0.237749 12.8601 0.475046C13.0974 0.712343 13.2364 1.03044 13.2493 1.36578C13.2623 1.70112 13.1482 2.029 12.9299 2.28389L7.60025 7.61358C7.35207 7.85973 7.0171 7.99851 6.66756 7.99998Z" fill="#08074E"/>
</svg>
