<svg width="46" height="32" viewBox="0 0 46 32" fill="none" xmlns="http://www.w3.org/2000/svg">
<g clip-path="url(#clip0_1278_20993)">
<path d="M13.1689 11.1409C13.1784 10.997 13.1288 10.8552 13.0311 10.747L8.6085 5.8467C8.51079 5.73843 8.37286 5.6724 8.22502 5.6631C8.07657 5.65388 7.93173 5.70212 7.82056 5.79728C5.78837 7.53702 4.10155 9.58874 2.80671 11.8954C2.73576 12.022 2.71915 12.1708 2.76079 12.3091C2.80243 12.4474 2.89879 12.5641 3.02875 12.6332L8.9069 15.7624C8.99191 15.8077 9.08368 15.8292 9.17426 15.8292C9.37171 15.8292 9.56315 15.7269 9.66455 15.5462C10.5204 14.0215 11.636 12.665 12.9803 11.5142C13.0917 11.4192 13.1595 11.2848 13.1689 11.1409Z" fill="#EF1B00"/>
<path d="M15.1426 9.32606C15.2429 9.51017 15.4363 9.61506 15.6363 9.61506C15.7245 9.61506 15.8141 9.59464 15.8973 9.5516C17.4729 8.73781 19.1678 8.20679 20.9352 7.97328C21.2406 7.93294 21.4548 7.65902 21.4134 7.36145L20.513 0.896487C20.4716 0.598992 20.1895 0.39073 19.8848 0.430772C17.2008 0.785292 14.6272 1.59155 12.2352 2.82713C11.9629 2.96783 11.8593 3.2968 12.0036 3.56216L15.1426 9.32606Z" fill="#FF7400"/>
<path d="M7.95116 18.075L1.48583 16.3666C1.34294 16.3289 1.19051 16.3479 1.06206 16.4196C0.933605 16.4914 0.839725 16.6098 0.800866 16.749C0.269536 18.6569 0 20.6344 0 22.6266C0 22.9675 0.00834314 23.3095 0.0257059 23.6722C0.0396111 23.9636 0.286373 24.1907 0.582967 24.1907C0.591686 24.1907 0.600556 24.1905 0.609275 24.1901L7.30115 23.889C7.44899 23.8824 7.58827 23.8187 7.68786 23.7122C7.7876 23.6057 7.83984 23.4648 7.83293 23.3208C7.82128 23.0762 7.81564 22.8491 7.81564 22.6266C7.81564 21.3074 7.9934 20.0006 8.34396 18.742C8.42446 18.4523 8.24866 18.1537 7.95116 18.075Z" fill="#A40800"/>
<path d="M32.9767 2.43889C30.5406 1.2951 27.9378 0.586277 25.2405 0.331679C25.0923 0.317185 24.946 0.361545 24.8317 0.453122C24.7174 0.544771 24.6452 0.676829 24.6309 0.820453L23.9851 7.3144C23.9553 7.61322 24.18 7.87901 24.4869 7.90793C26.2647 8.07564 27.9793 8.54252 29.583 9.29541C29.6593 9.33128 29.7422 9.34944 29.8254 9.34944C29.8875 9.34944 29.9497 9.33926 30.0096 9.31898C30.1493 9.27147 30.264 9.1717 30.3283 9.04184L33.2371 3.16462C33.3711 2.89421 33.2545 2.56919 32.9767 2.43889Z" fill="#ECDC0C"/>
<path d="M42.8158 11.5594C42.8518 11.4195 42.8296 11.2715 42.7535 11.1477C41.3681 8.89046 39.6017 6.90316 37.5035 5.24124C37.3886 5.15032 37.2419 5.10772 37.0941 5.12214C36.9469 5.137 36.8116 5.20808 36.7183 5.31993L32.4913 10.3815C32.398 10.4934 32.3539 10.6368 32.3692 10.7802C32.3843 10.9236 32.4573 11.0553 32.5723 11.1463C33.9605 12.2458 35.129 13.5602 36.0452 15.0531C36.1498 15.2234 36.3349 15.3179 36.525 15.3179C36.6224 15.3179 36.7211 15.2931 36.8108 15.2408L42.5609 11.8934C42.6878 11.8194 42.7795 11.6992 42.8158 11.5594Z" fill="#B8FF3D"/>
<path d="M44.9514 15.9224C44.8591 15.6358 44.5457 15.4761 44.2518 15.5661L37.8593 17.5168C37.565 17.6066 37.4013 17.9116 37.4935 18.198C37.9522 19.6245 38.1849 21.1144 38.1849 22.6264C38.1849 22.849 38.1792 23.0761 38.1676 23.3206C38.1607 23.4646 38.2128 23.6055 38.3127 23.712C38.4124 23.8186 38.5515 23.8822 38.6994 23.8888L45.3912 24.1899C45.4001 24.1903 45.4088 24.1905 45.4175 24.1905C45.714 24.1905 45.9608 23.9633 45.9748 23.672C45.992 23.3093 46.0005 22.9673 46.0005 22.6264C46.0004 20.3414 45.6476 18.0859 44.9514 15.9224Z" fill="#8DFF67"/>
</g>
<defs>
<clipPath id="clip0_1278_20993">
<rect width="46" height="32" fill="white"/>
</clipPath>
</defs>
</svg>
