<svg width="23" height="23" viewBox="0 0 23 23" fill="none" xmlns="http://www.w3.org/2000/svg">
<circle cx="11.25" cy="11.25" r="11.25" fill="#08074E"/>
<path d="M10.5 16.5C10.5 16.9142 10.8358 17.25 11.25 17.25C11.6642 17.25 12 16.9142 12 16.5H10.5ZM11.7803 4.71967C11.4874 4.42678 11.0126 4.42678 10.7197 4.71967L5.9467 9.49264C5.65381 9.78553 5.65381 10.2604 5.9467 10.5533C6.23959 10.8462 6.71447 10.8462 7.00736 10.5533L11.25 6.31066L15.4926 10.5533C15.7855 10.8462 16.2604 10.8462 16.5533 10.5533C16.8462 10.2604 16.8462 9.78553 16.5533 9.49264L11.7803 4.71967ZM12 16.5V5.25H10.5V16.5H12Z" fill="white"/>
</svg>
