<svg width="23" height="24" viewBox="0 0 23 24" fill="none" xmlns="http://www.w3.org/2000/svg">
<path d="M21.5801 11.8946C21.3111 11.8946 21.0531 12.0015 20.8629 12.1917C20.6727 12.3819 20.5659 12.6399 20.5659 12.9088V20.0086C20.5659 20.569 20.112 21.0229 19.5516 21.0229H3.32353C2.76315 21.0229 2.30927 20.569 2.30927 20.0086L2.30927 3.78056C2.30927 3.22018 2.76315 2.7663 3.32353 2.7663L10.4233 2.7663C10.6923 2.7663 10.9503 2.65944 11.1405 2.46923C11.3307 2.27902 11.4376 2.02104 11.4376 1.75205C11.4376 1.48305 11.3307 1.22507 11.1405 1.03486C10.9503 0.844652 10.6923 0.737793 10.4233 0.737793L3.32353 0.737793C1.64316 0.737793 0.280762 2.10019 0.280762 3.78056L0.280762 20.0086C0.280762 21.689 1.64316 23.0514 3.32353 23.0514H19.5516C21.232 23.0514 22.5944 21.689 22.5944 20.0086V12.9088C22.5944 12.6399 22.4875 12.3819 22.2973 12.1917C22.1071 12.0015 21.8491 11.8946 21.5801 11.8946ZM22.5944 1.75205V7.83757C22.5944 8.10657 22.4875 8.36455 22.2973 8.55476C22.1071 8.74497 21.8491 8.85183 21.5801 8.85183C21.3111 8.85183 21.0531 8.74497 20.8629 8.55476C20.6727 8.36455 20.5659 8.10657 20.5659 7.83757V4.20046L12.2563 12.5097C12.0648 12.6931 11.809 12.7941 11.5439 12.7912C11.2787 12.7882 11.0253 12.6816 10.8378 12.4941C10.6503 12.3066 10.5437 12.0531 10.5409 11.788C10.538 11.5228 10.6391 11.2671 10.8224 11.0756L19.1314 2.7663H15.4946C15.2256 2.7663 14.9676 2.65944 14.7774 2.46923C14.5872 2.27902 14.4803 2.02104 14.4803 1.75205C14.4803 1.48305 14.5872 1.22507 14.7774 1.03486C14.9676 0.844652 15.2256 0.737793 15.4946 0.737793L21.5801 0.737793C21.8491 0.737793 22.1071 0.844652 22.2973 1.03486C22.4875 1.22507 22.5944 1.48305 22.5944 1.75205Z" fill="white"/>
</svg>
