<svg width="10" height="7" viewBox="0 0 10 7" fill="none" xmlns="http://www.w3.org/2000/svg">
<path d="M4.968 0.000157739C5.10035 -0.000656945 5.23154 0.0263518 5.35405 0.0796346C5.47657 0.132917 5.588 0.211426 5.68196 0.310659L9.70427 4.59344C9.89362 4.79506 10 5.06851 10 5.35364C10 5.63876 9.89362 5.91221 9.70427 6.11383C9.51491 6.31544 9.2581 6.42871 8.99031 6.42871C8.72252 6.42871 8.4657 6.31544 8.27635 6.11383L4.968 2.58053L1.65966 6.10312C1.46729 6.27853 1.21984 6.37019 0.966764 6.35978C0.713685 6.34937 0.473614 6.23766 0.294526 6.04698C0.115438 5.85629 0.0105257 5.60068 0.000750303 5.33121C-0.00902506 5.06174 0.0770564 4.79827 0.241796 4.59344L4.2641 0.310659C4.4514 0.112855 4.7042 0.00134045 4.968 0.000157739Z" fill="#08074E"/>
</svg>
