<svg width="23" height="24" viewBox="0 0 23 24" fill="none" xmlns="http://www.w3.org/2000/svg">
<path d="M21.4136 11.9996C21.1446 11.9996 20.8866 12.1064 20.6964 12.2966C20.5062 12.4869 20.3993 12.7448 20.3993 13.0138V20.1136C20.3993 20.674 19.9455 21.1279 19.3851 21.1279H3.15702C2.59665 21.1279 2.14277 20.674 2.14277 20.1136L2.14277 3.88554C2.14277 3.32516 2.59665 2.87128 3.15702 2.87128L10.2568 2.87128C10.5258 2.87128 10.7838 2.76442 10.974 2.57421C11.1642 2.384 11.2711 2.12603 11.2711 1.85703C11.2711 1.58803 11.1642 1.33005 10.974 1.13984C10.7838 0.949632 10.5258 0.842773 10.2568 0.842773L3.15702 0.842773C1.47666 0.842773 0.114258 2.20517 0.114258 3.88554L0.114258 20.1136C0.114258 21.794 1.47666 23.1564 3.15702 23.1564H19.3851C21.0655 23.1564 22.4279 21.794 22.4279 20.1136V13.0138C22.4279 12.7448 22.321 12.4869 22.1308 12.2966C21.9406 12.1064 21.6826 11.9996 21.4136 11.9996ZM22.4279 1.85703V7.94256C22.4279 8.21155 22.321 8.46953 22.1308 8.65974C21.9406 8.84995 21.6826 8.95681 21.4136 8.95681C21.1446 8.95681 20.8866 8.84995 20.6964 8.65974C20.5062 8.46953 20.3993 8.21155 20.3993 7.94256V4.30544L12.0898 12.6147C11.8982 12.798 11.6425 12.8991 11.3774 12.8961C11.1122 12.8932 10.8588 12.7866 10.6713 12.5991C10.4838 12.4116 10.3772 12.1581 10.3744 11.893C10.3715 11.6278 10.4726 11.3721 10.6559 11.1806L18.9649 2.87128H15.3281C15.0591 2.87128 14.8011 2.76442 14.6109 2.57421C14.4207 2.384 14.3138 2.12603 14.3138 1.85703C14.3138 1.58803 14.4207 1.33005 14.6109 1.13984C14.8011 0.949632 15.0591 0.842773 15.3281 0.842773L21.4136 0.842773C21.6826 0.842773 21.9406 0.949632 22.1308 1.13984C22.321 1.33005 22.4279 1.58803 22.4279 1.85703Z" fill="#08074E"/>
</svg>
