<svg width="656" height="406" viewBox="0 0 656 406" fill="none" xmlns="http://www.w3.org/2000/svg">
<g clip-path="url(#clip0_251_7683)">
<path d="M354.98 109.208L349.189 111.948L346.619 118.45L349.591 118.62L352.1 115.044L352.719 116.345L353.447 116.004L356.156 111.685L354.98 109.208Z" fill="#E27777"/>
<path d="M347.889 115.4C348.601 114.255 349.127 112.939 350.242 112.119C352.239 110.617 353.772 112.212 354.748 113.945L356.172 111.685L354.995 109.208L349.205 111.948L347.765 115.602C347.78 115.54 347.842 115.478 347.889 115.4Z" fill="#D35B5B"/>
<path d="M407.034 47.4294C407.034 47.4294 389.91 48.6988 390.421 57.8936L379.97 84.534L352.657 109.27L355.661 113.264L388.253 94.9982C388.253 94.9828 413.615 64.875 407.034 47.4294Z" fill="#D3CDCA"/>
<path d="M393.393 48.2498C391.024 50.4943 388.299 57.7388 391.35 60.9586C393.517 63.2341 398.627 61.8873 402.776 57.94C406.926 54.0082 409.186 49.7049 407.034 47.4294C404.866 45.1539 397.543 44.318 393.393 48.2498Z" fill="#D3CDCA"/>
<path d="M411.385 239.02L411.602 242.937L407.251 245.027C407.251 245.027 403.706 247.519 397.373 248.324C397.373 248.324 396.955 244.423 406.322 238.556L411.385 239.02Z" fill="#EBB34B"/>
<path d="M397.404 247.952C403.737 247.147 407.282 244.655 407.282 244.655L411.571 242.581L411.587 242.921L407.236 245.011C407.236 245.011 403.69 247.503 397.357 248.308C397.357 248.308 397.342 248.153 397.388 247.859C397.404 247.921 397.404 247.952 397.404 247.952Z" fill="#D19433"/>
<path d="M405.393 232.983L409.976 234.098V238.819V239.609C409.976 240.042 409.186 240.398 408.196 240.398C407.22 240.398 406.415 240.042 406.415 239.609L405.842 235.909L405.904 235.955L405.393 232.983Z" fill="#E27777"/>
<path d="M425.862 247.364L426.032 251.28L421.666 253.324C421.666 253.324 418.089 255.769 411.741 256.512C411.741 256.512 411.37 252.612 420.799 246.838L425.862 247.364Z" fill="#EBB34B"/>
<path d="M411.788 256.141C418.136 255.398 421.713 252.952 421.713 252.952L426.032 250.924L426.048 251.265L421.682 253.308C421.682 253.308 418.105 255.754 411.757 256.497C411.757 256.497 411.741 256.342 411.788 256.048C411.788 256.11 411.788 256.141 411.788 256.141Z" fill="#D19433"/>
<path d="M419.917 241.188L424.5 242.302V247.023V247.813C424.5 248.246 423.71 248.602 422.719 248.602C421.744 248.602 420.938 248.246 420.938 247.813L420.366 244.113L420.427 244.16L419.917 241.188Z" fill="#E27777"/>
<path d="M396.057 115.818L394.292 129.75L393.394 140.88V174.625L405.13 236.095H410.007L411.447 196.003L408.923 176.638L421.743 115.818H396.057Z" fill="#BC3A17"/>
<path d="M396.939 115.818L402.885 132.397L410.224 140.88V180.074L419.963 244.33H424.84L427.318 199.222L424.794 179.857L432.133 118.62L396.939 115.818Z" fill="#D35A30"/>
<path d="M426.295 242.674L418.012 241.869L418.476 244.376H426.295V242.674Z" fill="#AA3415"/>
<path d="M411.772 234.469L403.504 233.665L403.968 236.172H411.772V234.469Z" fill="#99240D"/>
<path d="M402.714 45.6183C408.923 46.1291 415.132 47.1043 421.201 48.4355C425.8 49.4417 430.445 50.6027 434.718 52.5996C441.051 55.5407 438.326 60.7109 439.564 62.0576C442.522 65.2928 440.261 65.3393 439.704 69.1782C439.007 74.0078 438.295 78.853 437.598 83.6826C436.7 89.8435 435.941 96.0353 434.919 102.165C434.919 102.181 431.869 123.604 431.869 123.604C431.869 123.604 399.958 130.601 396.025 116.267C396.025 116.267 389.6 62.1969 393.533 53.8999C393.517 53.9153 396.877 44.9681 402.714 45.6183Z" fill="#96928E"/>
<path d="M408.428 34.6897L419.746 37.4296V49.0857V51.0361C419.746 52.1197 417.78 52.9866 415.364 52.9866C412.949 52.9866 410.982 52.1197 410.982 51.0361L409.573 41.8877L409.728 41.9806L408.428 34.6897Z" fill="#F3BC97"/>
<path d="M395.824 22.6001C396.196 34.6742 406.012 44.1632 417.749 43.8072C429.485 43.4512 438.697 33.3585 438.326 21.2844C437.954 9.21029 428.138 -0.278704 416.402 0.0773268C404.665 0.433358 395.453 10.5261 395.824 22.6001Z" fill="#392C04"/>
<path d="M404.464 24.5196C403.969 21.6868 401.259 19.7983 398.426 20.3091C395.592 20.8045 393.703 23.5134 394.214 26.3462C394.71 29.1789 397.419 31.0675 400.253 30.5566C403.071 30.0458 404.96 27.3523 404.464 24.5196Z" fill="#F3BC97"/>
<path d="M418.329 43.8698C427.721 41.5269 433.436 32.0153 431.092 22.6251C428.749 13.2349 419.235 7.52192 409.842 9.86488C400.45 12.2078 394.736 21.7195 397.079 31.1097C399.423 40.4999 408.937 46.2128 418.329 43.8698Z" fill="#F3BC97"/>
<path d="M427.549 25.9128C426.032 23.5753 424.066 22.5846 421.356 22.1512C415.039 21.1141 402.343 23.5289 398.271 17.0584C401.692 13.3588 407.684 6.09888 413.119 6.09888C423.477 6.09888 440.834 18.4361 430.785 29.7827C429.717 30.9901 430.553 32.956 430.166 34.4575C428.556 32.1046 429.221 28.4669 427.549 25.9128Z" fill="#392C04"/>
<path d="M434.796 30.8043C434.796 27.5381 432.148 24.8911 428.866 24.8911C425.599 24.8911 422.951 27.5381 422.951 30.8043C422.951 34.0705 425.599 36.7175 428.866 36.7175C432.133 36.7175 434.796 34.0705 434.796 30.8043Z" fill="#F3BC97"/>
<path d="M397.496 125.276L393.409 130.214L386.488 131.097L387.03 128.186L391.117 126.623L390.018 125.71L390.529 125.091L395.375 123.527L397.496 125.276Z" fill="#E27777"/>
<path d="M389.739 130.632C391.025 130.23 392.434 130.029 393.502 129.162C395.437 127.583 394.276 125.725 392.836 124.348L395.375 123.527L397.481 125.276L393.393 130.214L389.492 130.71C389.585 130.694 389.662 130.648 389.739 130.632Z" fill="#D35B5B"/>
<path d="M439.348 56.9648C439.348 56.9648 422.502 60.2775 424.097 69.3485L416.913 97.0415L392.759 124.858L396.227 128.465L426.404 106.438C426.404 106.422 447.972 73.4971 439.348 56.9648Z" fill="#D3CDCA"/>
<path d="M427.627 60.6645C423.988 65.0762 422.982 70.2618 425.413 72.2587C427.828 74.2555 432.752 72.3051 436.39 67.8934C440.029 63.4818 441.035 58.2961 438.605 56.2992C436.189 54.3023 431.265 56.2528 427.627 60.6645Z" fill="#D3CDCA"/>
<path opacity="0.79" d="M662.353 299.391L562.656 262.596L467.016 298.648L167.942 190.972L71.2031 228.881L367.32 336.232L366.778 336.434L462.325 370.674L469.323 373.213L469.37 373.198L469.401 373.213L662.353 299.391Z" fill="url(#paint0_linear_251_7683)"/>
<path d="M467.326 367.888L656.423 298.106V175.152L467.326 247.302V367.888Z" fill="#2E6587"/>
<path opacity="0.52" d="M467.326 367.888L656.423 298.106V203.541L467.326 275.692V367.888Z" fill="url(#paint1_linear_251_7683)"/>
<path d="M172.897 69.1628L78.3101 106.221L467.651 247.379L564.607 210.182L172.897 69.1628Z" fill="#2E6587"/>
<path d="M558.909 139.208L656.423 175.183L467.729 247.379L367.366 211.405L558.909 139.208Z" fill="#2E6587"/>
<path d="M78.3101 106.221V229.377L467.326 367.888V247.101L78.3101 106.221Z" fill="#5E95D7"/>
<path d="M78.3101 127.521V229.377L467.326 367.888V268.385L78.3101 127.521Z" fill="url(#paint2_linear_251_7683)"/>
<path d="M89.2563 174.3V212.287L453.453 343.477V307.858L89.2563 174.3Z" fill="#5E95D7"/>
<path d="M89.2563 174.3V211.606L96.3632 207.024V176.901L89.2563 174.3Z" fill="#2E6587"/>
<path d="M71.2031 102.351V136.36L468.998 277.983V246.404L71.2031 102.351Z" fill="#6CBA9B"/>
<path d="M468.998 277.983L662.353 206.622V172.83L468.998 246.605V277.983Z" fill="#36A877"/>
<path d="M167.942 64.457L71.2031 102.351L469.323 246.683L568.478 208.65L167.942 64.457Z" fill="#97D3B9"/>
<path d="M562.656 136.081L662.353 172.861L469.401 246.683L366.778 209.903L562.656 136.081Z" fill="#97D3B9"/>
<path d="M96.3633 176.901V207.55L453.453 336.186V307.858L96.3633 176.901Z" fill="url(#paint3_linear_251_7683)"/>
<path d="M169.181 82.7539L118.164 102.862L266.276 155.694L318.548 135.508L169.181 82.7539Z" fill="#C9F2E0"/>
<path d="M618.814 173.48L583.156 187.396L548.381 173.573L574.857 165.957L618.814 173.48Z" fill="url(#paint4_linear_251_7683)"/>
<path d="M618.814 173.573V123.558L584.658 111.314V160.616L618.814 173.573Z" fill="#145284"/>
<path d="M618.814 173.573V123.558L584.658 111.314V160.616L618.814 173.573Z" fill="url(#paint5_linear_251_7683)"/>
<path d="M608.084 124.595L618.814 123.62V173.48L608.084 174.594V124.595Z" fill="#2D70B2"/>
<path d="M602.51 129.889L608.084 124.595V174.594L602.51 179.888V129.889Z" fill="#77B6E0"/>
<path d="M584.658 111.314L581.345 116.376V160.663L584.968 158.016L584.658 111.314Z" fill="#2D70B2"/>
<path d="M581.345 116.375L568.37 117.629V159.409L581.345 160.663V116.375Z" fill="#114D7F"/>
<path d="M602.51 179.888V129.889L568.37 117.629V167.582L602.51 179.888Z" fill="#5E95D7"/>
<path d="M590.82 138.511C591.975 138.511 592.91 137.174 592.91 135.524C592.91 133.874 591.975 132.536 590.82 132.536C589.666 132.536 588.73 133.874 588.73 135.524C588.73 137.174 589.666 138.511 590.82 138.511Z" fill="#114D7F"/>
<path d="M575.957 131.344C575.957 133.001 576.886 134.332 578.047 134.332C579.208 134.332 580.137 132.985 580.137 131.344C580.137 129.688 579.208 128.357 578.047 128.357C576.901 128.357 575.957 129.688 575.957 131.344Z" fill="#114D7F"/>
<path d="M590.82 137.706C591.207 147.257 587.259 152.613 583.156 152.613C579.053 152.613 575.724 146.886 575.724 139.827C575.724 136.484 576.22 133.929 577.443 131.638" stroke="#073656" stroke-width="1.5274" stroke-miterlimit="10" stroke-linecap="round" stroke-linejoin="round"/>
<path d="M571.683 191.498L536.025 205.414L501.25 191.575L527.726 183.959L571.683 191.498Z" fill="url(#paint6_linear_251_7683)"/>
<path d="M571.683 191.576V141.576L537.527 129.317V178.619L571.683 191.576Z" fill="#145284"/>
<path d="M571.683 191.576V141.576L537.527 129.317V178.619L571.683 191.576Z" fill="url(#paint7_linear_251_7683)"/>
<path d="M560.953 142.598L571.683 141.623V191.498L560.953 192.613V142.598Z" fill="#2D70B2"/>
<path d="M555.379 147.892L560.953 142.598V192.613L555.379 197.891V147.892Z" fill="#77B6E0"/>
<path d="M537.527 129.317L534.214 134.378V178.681L537.837 176.034L537.527 129.317Z" fill="#2D70B2"/>
<path d="M534.214 134.378L521.239 135.632V177.427L534.214 178.681V134.378Z" fill="#114D7F"/>
<path d="M555.379 197.891V147.892L521.239 135.632V185.585L555.379 197.891Z" fill="#5E95D7"/>
<path d="M541.599 153.542C541.599 155.198 542.528 156.53 543.689 156.53C544.851 156.53 545.78 155.183 545.78 153.542C545.78 151.886 544.851 150.555 543.689 150.555C542.528 150.539 541.599 151.886 541.599 153.542Z" fill="#114D7F"/>
<path d="M528.826 149.363C528.826 151.019 529.755 152.35 530.916 152.35C532.077 152.35 533.006 151.003 533.006 149.363C533.006 147.706 532.077 146.375 530.916 146.375C529.755 146.375 528.826 147.706 528.826 149.363Z" fill="#114D7F"/>
<path d="M543.689 155.725C544.076 165.276 540.128 170.632 536.025 170.632C531.922 170.632 528.593 164.904 528.593 157.845C528.593 154.502 529.089 151.948 530.312 149.657" stroke="#073656" stroke-width="1.5274" stroke-miterlimit="10" stroke-linecap="round" stroke-linejoin="round"/>
<path d="M523.979 209.501L488.321 223.432L453.546 209.594L480.022 201.978L523.979 209.501Z" fill="url(#paint8_linear_251_7683)"/>
<path d="M523.979 209.594V159.595L489.823 147.335V196.637L523.979 209.594Z" fill="#145284"/>
<path d="M523.979 209.594V159.595L489.823 147.335V196.637L523.979 209.594Z" fill="url(#paint9_linear_251_7683)"/>
<path d="M513.249 160.616L523.979 159.641V209.501L513.249 210.615V160.616Z" fill="#2D70B2"/>
<path d="M507.675 165.91L513.249 160.616V210.615L507.675 215.909V165.91Z" fill="#77B6E0"/>
<path d="M489.823 147.335L486.51 152.397V196.684L490.133 194.037L489.823 147.335Z" fill="#2D70B2"/>
<path d="M486.51 152.397L473.535 153.65V195.43L486.51 196.684V152.397Z" fill="#114D7F"/>
<path d="M507.675 215.909V165.91L473.535 153.65V203.603L507.675 215.909Z" fill="#5E95D7"/>
<path d="M495.985 174.532C497.14 174.532 498.076 173.195 498.076 171.545C498.076 169.895 497.14 168.557 495.985 168.557C494.831 168.557 493.895 169.895 493.895 171.545C493.895 173.195 494.831 174.532 495.985 174.532Z" fill="#114D7F"/>
<path d="M483.212 170.353C484.366 170.353 485.302 169.015 485.302 167.365C485.302 165.715 484.366 164.378 483.212 164.378C482.057 164.378 481.122 165.715 481.122 167.365C481.122 169.015 482.057 170.353 483.212 170.353Z" fill="#114D7F"/>
<path d="M495.985 173.727C496.372 183.278 492.424 188.634 488.321 188.634C484.218 188.634 480.889 182.907 480.889 175.848C480.889 172.505 481.385 169.95 482.608 167.659" stroke="#073656" stroke-width="1.5274" stroke-miterlimit="10" stroke-linecap="round" stroke-linejoin="round"/>
<path d="M353.772 173.944L399.509 155.647L320.932 129.224L275.194 147.521L353.772 173.944Z" fill="#EF8F75"/>
<path d="M353.772 173.944V191.188L275.194 163.279V147.521L353.772 173.944Z" fill="#D35A30"/>
<path d="M353.771 191.189L399.509 172.892V155.647L353.771 173.944V191.189Z" fill="#993419"/>
<path d="M353.772 113.791L362.938 110.137L284.36 83.7291L275.194 87.3823L353.772 113.791Z" fill="#EF8F75"/>
<path d="M353.772 113.791V169.873L275.194 141.963V87.3823L353.772 113.791Z" fill="#D35A30"/>
<path d="M353.771 169.873L362.938 166.22V110.137L353.771 113.791V169.873Z" fill="#993419"/>
<path d="M331.445 120.741L337.034 118.512L289.083 102.382L283.493 104.627L331.445 120.741Z" fill="#EF8F75"/>
<path d="M331.445 120.741V154.966L283.493 137.939V104.627L331.445 120.741Z" fill="#9B3115"/>
<path d="M331.445 154.966L337.034 152.737V118.512L331.445 120.741V154.966Z" fill="#BA4C36"/>
<path opacity="0.79" d="M85.0603 273.168C104.275 273.168 119.851 268.192 119.851 262.054C119.851 255.916 104.275 250.94 85.0603 250.94C65.8459 250.94 50.2695 255.916 50.2695 262.054C50.2695 268.192 65.8459 273.168 85.0603 273.168Z" fill="url(#paint10_linear_251_7683)"/>
<path d="M23.7934 160.57C22.6012 156.468 22.3379 152.118 22.8799 147.877C23.2979 144.641 24.0256 139.796 27.7726 138.79C30.637 138.016 33.2227 141.901 34.3839 144.038C37.496 149.75 39.8804 156.715 38.2082 163.248" stroke="#073656" stroke-width="1.5274" stroke-miterlimit="10" stroke-linecap="round" stroke-linejoin="round"/>
<path d="M50.9198 208.201V158.201L16.7793 145.942V195.244L50.9198 208.201Z" fill="#145284"/>
<path d="M50.9198 208.201V158.201L16.7793 145.942V195.244L50.9198 208.201Z" fill="url(#paint11_linear_251_7683)"/>
<path d="M40.2056 159.223L50.92 158.248V208.108L40.2056 209.222V159.223Z" fill="#2D70B2"/>
<path d="M34.6318 164.517L40.2058 159.223V209.222L34.6318 214.516V164.517Z" fill="#77B6E0"/>
<path d="M16.7796 145.942L13.4507 151.003V195.291L17.0738 192.644L16.7796 145.942Z" fill="#2D70B2"/>
<path d="M13.4505 151.003L0.475586 152.257V194.037L13.4505 195.291V151.003Z" fill="#114D7F"/>
<path d="M34.6316 214.516V164.517L0.475586 152.257V202.21L34.6316 214.516Z" fill="#5E95D7"/>
<path d="M20.8359 170.152C20.8359 171.808 21.7649 173.139 22.9262 173.139C24.0874 173.139 25.0164 171.792 25.0164 170.152C25.0164 168.511 24.0874 167.164 22.9262 167.164C21.7649 167.164 20.8359 168.495 20.8359 170.152Z" fill="#114D7F"/>
<path d="M8.0625 165.972C8.0625 167.629 8.99149 168.96 10.1527 168.96C11.314 168.96 12.243 167.613 12.243 165.972C12.243 164.316 11.314 162.985 10.1527 162.985C8.99149 162.985 8.0625 164.316 8.0625 165.972Z" fill="#114D7F"/>
<path d="M10.0135 163.604C9.85864 159.332 10.6638 155.044 12.2121 151.081C13.4043 148.047 18.4363 139.58 22.3072 139.502C25.2799 139.44 26.4876 146.22 27.0915 148.573C28.7172 154.873 26.5805 163.79 23.36 169.718" stroke="#073656" stroke-width="1.5274" stroke-miterlimit="10" stroke-linecap="round" stroke-linejoin="round"/>
<path d="M97.6324 28.5289C97.6324 29.1945 97.0905 29.7518 96.4092 29.7518C95.7434 29.7518 95.186 29.21 95.186 28.5289C95.186 27.8633 95.7279 27.306 96.4092 27.306C97.0905 27.306 97.6324 27.8478 97.6324 28.5289Z" fill="#5E95D7"/>
<path d="M155.695 25.433L158.884 19.8758L165.558 17.8325L165.511 20.8046L161.749 23.0337L162.987 23.7457L162.585 24.4423L158.064 26.8107L155.695 25.433Z" fill="#E27777"/>
<path d="M162.43 18.8542C161.238 19.4733 159.875 19.9068 158.977 20.9439C157.336 22.8324 158.791 24.4733 160.448 25.5723L158.079 26.8107L155.695 25.4485L158.884 19.8913L162.647 18.7303C162.569 18.7613 162.507 18.8077 162.43 18.8542Z" fill="#D35B5B"/>
<path d="M90.0146 72.4754C90.0146 72.4754 92.6313 55.5098 101.751 56.7327L129.125 48.4046L155.927 23.111L159.674 26.4236L138.911 57.4757C138.895 57.4912 106.891 80.4165 90.0146 72.4754Z" fill="#115EAA"/>
<path d="M91.9036 58.9617C94.3345 56.7791 101.766 54.6274 104.724 57.9246C106.829 60.262 105.08 65.2464 100.822 69.0699C96.564 72.8934 92.1049 74.8128 90.0146 72.4909C87.9244 70.1535 87.6457 62.7852 91.9036 58.9617Z" fill="#115EAA"/>
<path d="M84.5337 250.15L84.3169 254.067L88.6677 256.156C88.6677 256.156 92.2133 258.649 98.546 259.454C98.546 259.454 98.964 255.553 89.5967 249.686L84.5337 250.15Z" fill="#D35A30"/>
<path d="M98.5152 259.082C92.1825 258.277 88.6369 255.785 88.6369 255.785L84.348 253.711L84.3325 254.051L88.6833 256.141C88.6833 256.141 92.229 258.633 98.5616 259.438C98.5616 259.438 98.5771 259.283 98.5306 258.989C98.5152 259.051 98.5152 259.082 98.5152 259.082Z" fill="#D19433"/>
<path d="M90.5254 244.113L85.9424 245.228V249.949V250.739C85.9424 251.172 86.732 251.528 87.723 251.528C88.6984 251.528 89.5035 251.172 89.5035 250.739L90.0764 247.039L90.0145 247.085L90.5254 244.113Z" fill="#E27777"/>
<path d="M70.057 258.494L69.8867 262.41L74.253 264.453C74.253 264.453 77.8296 266.899 84.1777 267.642C84.1777 267.642 84.5493 263.741 75.12 257.968L70.057 258.494Z" fill="#D35A30"/>
<path d="M84.1311 267.271C77.783 266.528 74.2064 264.082 74.2064 264.082L69.8866 262.054L69.8711 262.395L74.2374 264.438C74.2374 264.438 77.814 266.884 84.1621 267.627C84.1621 267.627 84.1776 267.472 84.1311 267.178C84.1311 267.24 84.1311 267.271 84.1311 267.271Z" fill="#D19433"/>
<path d="M76.0025 252.318L71.4194 253.432V258.153V258.943C71.4194 259.376 72.2091 259.732 73.2 259.732C74.1755 259.732 74.9806 259.376 74.9806 258.943L75.5535 255.243L75.4915 255.29L76.0025 252.318Z" fill="#E27777"/>
<path d="M99.862 126.933L101.627 140.864L102.525 152.01V185.755L90.7888 247.225H85.9116L84.4716 207.133L86.9954 187.768L74.1753 126.933H99.862Z" fill="#BC7B13"/>
<path d="M98.964 126.933L93.0185 143.527L85.6949 152.01V191.189L75.9405 255.46H71.0787L68.5859 210.337L71.1252 190.987L63.7861 129.75L98.964 126.933Z" fill="#EBB34B"/>
<path d="M69.6235 253.788L77.9071 252.999L77.4271 255.491H69.6235V253.788Z" fill="#9B5E07"/>
<path d="M84.1465 245.584L92.4145 244.794L91.95 247.287H84.1465V245.584Z" fill="#9B5E07"/>
<path d="M93.2042 56.7327C86.9954 57.2436 80.7866 58.2188 74.7172 59.55C70.1187 60.5562 65.4892 61.7791 61.2003 63.714C59.5591 64.4571 57.7476 67.3672 56.5089 68.7294C53.5516 71.9647 55.6728 76.4537 56.2302 80.2927C56.927 85.1223 57.6392 89.9674 58.3359 94.7971C59.234 100.958 59.9926 107.15 61.0145 113.28C61.0145 113.295 64.0647 134.719 64.0647 134.719C64.0647 134.719 95.9757 141.716 99.9084 127.382C99.9084 127.382 106.334 73.3114 102.401 65.0143C102.401 65.0298 99.0259 56.0981 93.2042 56.7327Z" fill="#5E95D7"/>
<path d="M87.4911 45.8196L76.1729 48.5595V60.2156V62.166C76.1729 63.2496 78.1392 64.1165 80.5546 64.1165C82.97 64.1165 84.9364 63.2496 84.9364 62.166L86.3453 53.0176L86.1905 53.1105L87.4911 45.8196Z" fill="#F3BC97"/>
<path d="M91.4549 35.6496C91.9504 32.8168 94.6599 30.9283 97.4934 31.4391C100.327 31.9345 102.216 34.6434 101.705 37.4762C101.209 40.309 98.4998 42.1974 95.6663 41.6866C92.8484 41.1758 90.9594 38.4823 91.4549 35.6496Z" fill="#F3BC97"/>
<path d="M94.2489 50.3751C101.094 43.532 101.094 32.4372 94.2489 25.5942C87.4042 18.7511 76.3069 18.7511 69.4622 25.5942C62.6175 32.4372 62.6175 43.532 69.4622 50.3751C76.3069 57.2181 87.4042 57.2181 94.2489 50.3751Z" fill="#F3BC97"/>
<path d="M61.123 41.9187C61.123 38.6525 63.7707 36.0055 67.0376 36.0055C70.3046 36.0055 72.9522 38.6525 72.9522 41.9187C72.9522 45.1849 70.3046 47.8319 67.0376 47.8319C63.7707 47.8319 61.123 45.2004 61.123 41.9187Z" fill="#F3BC97"/>
<path d="M23.3131 133.512L20.8203 139.425L23.2357 145.973L25.5582 144.131L25.0627 139.781L26.3788 140.338L26.6885 139.595L25.8369 134.58L23.3131 133.512Z" fill="#F3BC97"/>
<path d="M22.1519 142.861C21.9196 141.53 21.4396 140.199 21.7183 138.837C22.2138 136.391 24.4124 136.546 26.2859 137.196L25.8369 134.564L23.3131 133.496L20.8203 139.409L22.1828 143.109C22.1674 143.032 22.1674 142.939 22.1519 142.861Z" fill="#F3BC97"/>
<path d="M65.2879 64.1475C65.2879 64.1475 70.1497 80.6177 61.3552 83.3886L40.1122 102.552L26.6108 136.824L21.811 135.416L27.4005 98.4812C27.4005 98.4967 46.6307 64.132 65.2879 64.1475Z" fill="#115EAA"/>
<path d="M67.4244 76.2525C65.1948 81.5155 61.0608 84.7972 58.1654 83.5898C55.2701 82.3669 54.7281 77.1039 56.9577 71.8408C59.1873 66.5777 63.3213 63.296 66.2167 64.5035C69.0966 65.7263 69.6385 70.9739 67.4244 76.2525Z" fill="#115EAA"/>
<path d="M163.653 42.5534C162.461 38.4513 162.198 34.1015 162.74 29.8601C163.158 26.6248 163.885 21.7797 167.632 20.7735C170.497 19.9996 173.083 23.8849 174.244 26.0211C177.356 31.7331 179.74 38.6989 178.068 45.2313" stroke="#721604" stroke-width="1.5274" stroke-miterlimit="10" stroke-linecap="round" stroke-linejoin="round"/>
<path d="M190.78 90.1841V40.185L156.639 27.9252V77.2277L190.78 90.1841Z" fill="#99280A"/>
<path d="M180.05 41.2066L190.78 40.2314V90.0912L180.05 91.2058V41.2066Z" fill="#D35A30"/>
<path d="M174.476 46.5007L180.05 41.2067V91.2058L174.476 96.4998V46.5007Z" fill="#E5785C"/>
<path d="M156.639 27.9252L153.311 32.987V77.2741L156.934 74.6271L156.639 27.9252Z" fill="#E5785C"/>
<path d="M153.31 32.9869L140.335 34.2408V76.0202L153.31 77.2741V32.9869Z" fill="#99280A"/>
<path d="M174.476 96.4998V46.5007L140.335 34.2408V84.1935L174.476 96.4998Z" fill="#D35A30"/>
<path d="M160.696 52.1353C160.696 53.7916 161.625 55.1228 162.786 55.1228C163.947 55.1228 164.876 53.7761 164.876 52.1353C164.876 50.4944 163.947 49.1477 162.786 49.1477C161.625 49.1477 160.696 50.4789 160.696 52.1353Z" fill="#99280A"/>
<path d="M147.922 47.9557C147.922 49.612 148.851 50.9433 150.013 50.9433C151.174 50.9433 152.103 49.5965 152.103 47.9557C152.103 46.2994 151.174 44.9681 150.013 44.9681C148.867 44.9681 147.922 46.2994 147.922 47.9557Z" fill="#99280A"/>
<path d="M149.873 45.5874C149.719 41.315 150.524 37.0272 152.072 33.0644C153.264 30.0304 158.296 21.563 162.167 21.4857C165.14 21.4237 166.332 28.2038 166.951 30.5412C168.577 36.8414 166.44 45.7577 163.22 51.6863" stroke="#721604" stroke-width="1.5274" stroke-miterlimit="10" stroke-linecap="round" stroke-linejoin="round"/>
<path d="M95.5889 26.4701C95.5889 27.1357 95.047 27.693 94.3658 27.693C93.7 27.693 93.1426 27.1512 93.1426 26.4701C93.1426 25.8045 93.6845 25.2472 94.3658 25.2472C95.0315 25.2472 95.5889 25.789 95.5889 26.4701Z" fill="#5E95D7"/>
<path d="M91.2383 25.9594C91.2383 26.625 90.6964 27.1822 90.0152 27.1822C89.3494 27.1822 88.792 26.6405 88.792 25.9594C88.792 25.2937 89.3339 24.7365 90.0152 24.7365C90.6964 24.7519 91.2383 25.2937 91.2383 25.9594Z" fill="#5E95D7"/>
<path d="M93.1119 23.529C93.1119 24.1947 92.57 24.7519 91.8887 24.7519C91.2229 24.7519 90.6655 24.2101 90.6655 23.529C90.6655 22.8634 91.2074 22.3062 91.8887 22.3062C92.57 22.3216 93.1119 22.8634 93.1119 23.529Z" fill="#5E95D7"/>
<path d="M82.0255 25.9594C82.0255 26.625 81.4835 27.1822 80.8023 27.1822C80.1365 27.1822 79.5791 26.6405 79.5791 25.9594C79.5791 25.2937 80.121 24.7365 80.8023 24.7365C81.4835 24.7519 82.0255 25.2937 82.0255 25.9594Z" fill="#5E95D7"/>
<path d="M78.6041 28.3586C78.6041 29.0243 78.0622 29.5815 77.3809 29.5815C76.7151 29.5815 76.1577 29.0397 76.1577 28.3586C76.1577 27.693 76.6996 27.1357 77.3809 27.1357C78.0622 27.1512 78.6041 27.693 78.6041 28.3586Z" fill="#5E95D7"/>
<path d="M75.7242 25.7272C75.7242 26.3928 75.1823 26.9501 74.501 26.9501C73.8352 26.9501 73.2778 26.4083 73.2778 25.7272C73.2778 25.0615 73.8197 24.5043 74.501 24.5043C75.1823 24.5043 75.7242 25.046 75.7242 25.7272Z" fill="#5E95D7"/>
<path d="M73.1846 30.7425C73.1846 31.4082 72.6427 31.9654 71.9615 31.9654C71.2957 31.9654 70.7383 31.4236 70.7383 30.7425C70.7383 30.0769 71.2802 29.5197 71.9615 29.5197C72.6427 29.5351 73.1846 30.0769 73.1846 30.7425Z" fill="#5E95D7"/>
<path d="M72.4258 34.5814C72.4258 35.247 71.8839 35.8043 71.2027 35.8043C70.5214 35.8043 69.9795 35.2625 69.9795 34.5814C69.9795 33.9158 70.5214 33.3585 71.2027 33.3585C71.8839 33.3585 72.4258 33.9158 72.4258 34.5814Z" fill="#5E95D7"/>
<path d="M72.0079 27.6775C72.0079 28.3431 71.466 28.9004 70.7847 28.9004C70.1034 28.9004 69.5615 28.3586 69.5615 27.6775C69.5615 27.0119 70.1034 26.4546 70.7847 26.4546C71.466 26.4546 72.0079 27.0119 72.0079 27.6775Z" fill="#5E95D7"/>
<path d="M69.4844 32.4607C69.4844 33.1263 68.9425 33.6836 68.2613 33.6836C67.5955 33.6836 67.0381 33.1418 67.0381 32.4607C67.0381 31.7951 67.58 31.2378 68.2613 31.2378C68.9425 31.2533 69.4844 31.7951 69.4844 32.4607Z" fill="#5E95D7"/>
<path d="M67.9825 36.2223C67.9825 36.8879 67.4406 37.4452 66.7593 37.4452C66.0935 37.4452 65.5361 36.9034 65.5361 36.2223C65.5361 35.5566 66.078 34.9994 66.7593 34.9994C67.4406 35.0149 67.9825 35.5566 67.9825 36.2223Z" fill="#5E95D7"/>
<path d="M65.6754 33.0026C65.6754 33.6682 65.1334 34.2254 64.4522 34.2254C63.7864 34.2254 63.229 33.6837 63.229 33.0026C63.229 32.3369 63.7709 31.7797 64.4522 31.7797C65.118 31.7951 65.6754 32.3369 65.6754 33.0026Z" fill="#5E95D7"/>
<path d="M67.0533 30.1233C67.7288 30.1233 68.2764 29.5758 68.2764 28.9004C68.2764 28.225 67.7288 27.6775 67.0533 27.6775C66.3777 27.6775 65.8301 28.225 65.8301 28.9004C65.8301 29.5758 66.3777 30.1233 67.0533 30.1233Z" fill="#5E95D7"/>
<path d="M71.9771 24.5043C71.9771 25.1699 71.4352 25.7272 70.7539 25.7272C70.0882 25.7272 69.5308 25.1854 69.5308 24.5043C69.5308 23.8387 70.0727 23.2814 70.7539 23.2814C71.4352 23.2814 71.9771 23.8387 71.9771 24.5043Z" fill="#5E95D7"/>
<path d="M85.0606 22.8789C85.0606 23.5445 84.5187 24.1018 83.8374 24.1018C83.1716 24.1018 82.6143 23.56 82.6143 22.8789C82.6143 22.2133 83.1562 21.656 83.8374 21.656C84.5032 21.656 85.0606 22.1978 85.0606 22.8789Z" fill="#5E95D7"/>
<path d="M80.0591 23.1266C80.0591 23.7922 79.5172 24.3495 78.836 24.3495C78.1702 24.3495 77.6128 23.8077 77.6128 23.1266C77.6128 22.461 78.1547 21.9037 78.836 21.9037C79.5172 21.9037 80.0591 22.4455 80.0591 23.1266Z" fill="#5E95D7"/>
<path d="M88.6988 21.656C88.6988 22.3216 88.1569 22.8789 87.4756 22.8789C86.8098 22.8789 86.2524 22.3371 86.2524 21.656C86.2524 20.9904 86.7944 20.4331 87.4756 20.4331C88.1569 20.4331 88.6988 20.9904 88.6988 21.656Z" fill="#5E95D7"/>
<path d="M86.5933 25.7272C86.5933 26.3928 86.0514 26.9501 85.3701 26.9501C84.7044 26.9501 84.147 26.4083 84.147 25.7272C84.147 25.0615 84.6889 24.5043 85.3701 24.5043C86.0514 24.5043 86.5933 25.046 86.5933 25.7272Z" fill="#5E95D7"/>
<path d="M81.4063 21.656C82.0818 21.656 82.6294 21.1085 82.6294 20.4331C82.6294 19.7577 82.0818 19.2102 81.4063 19.2102C80.7307 19.2102 80.1831 19.7577 80.1831 20.4331C80.1831 21.1085 80.7307 21.656 81.4063 21.656Z" fill="#5E95D7"/>
<path d="M77.3961 21.0988C77.3961 21.7644 76.8541 22.3216 76.1729 22.3216C75.5071 22.3216 74.9497 21.7799 74.9497 21.0988C74.9497 20.4331 75.4916 19.8759 76.1729 19.8759C76.8387 19.8913 77.3961 20.4331 77.3961 21.0988Z" fill="#5E95D7"/>
<path opacity="0.79" d="M205.783 328.059C224.998 328.059 240.574 323.083 240.574 316.945C240.574 310.806 224.998 305.83 205.783 305.83C186.569 305.83 170.993 310.806 170.993 316.945C170.993 323.083 186.569 328.059 205.783 328.059Z" fill="url(#paint12_linear_251_7683)"/>
<path d="M263.938 174.47L269.729 177.226L272.299 183.712L269.327 183.898L266.818 180.322L266.199 181.607L265.471 181.266L262.762 176.947L263.938 174.47Z" fill="#E27777"/>
<path d="M271.045 180.662C270.333 179.517 269.807 178.201 268.692 177.381C266.694 175.879 265.162 177.473 264.186 179.207L262.762 176.947L263.938 174.47L269.729 177.21L271.169 180.864C271.138 180.802 271.092 180.74 271.045 180.662Z" fill="#D35B5B"/>
<path d="M211.884 112.691C211.884 112.691 229.008 113.961 228.497 123.156L238.948 149.796L266.261 174.532L263.257 178.526L230.665 160.26C230.665 160.245 205.303 130.137 211.884 112.691Z" fill="#DD9F3A"/>
<path d="M225.524 113.512C227.893 115.756 230.618 123.001 227.568 126.22C225.4 128.496 220.291 127.149 216.141 123.202C211.992 119.27 209.731 114.967 211.883 112.691C214.051 110.416 221.375 109.58 225.524 113.512Z" fill="#DD9F3A"/>
<path d="M207.549 304.298L207.332 308.214L211.683 310.304C211.683 310.304 215.228 312.796 221.561 313.601C221.561 313.601 221.979 309.7 212.612 303.833L207.549 304.298Z" fill="#EBB34B"/>
<path d="M221.515 313.23C215.182 312.425 211.636 309.932 211.636 309.932L207.348 307.858L207.332 308.199L211.683 310.288C211.683 310.288 215.228 312.781 221.561 313.586C221.561 313.586 221.577 313.431 221.53 313.137C221.515 313.199 221.515 313.23 221.515 313.23Z" fill="#D19433"/>
<path d="M213.525 298.245L208.942 299.36V304.081V304.871C208.942 305.304 209.732 305.66 210.723 305.66C211.714 305.66 212.504 305.304 212.504 304.871L213.076 301.171L213.014 301.217L213.525 298.245Z" fill="#E27777"/>
<path d="M193.057 312.641L192.886 316.558L197.252 318.601C197.252 318.601 200.829 321.047 207.177 321.79C207.177 321.79 207.549 317.889 198.12 312.115L193.057 312.641Z" fill="#EBB34B"/>
<path d="M207.131 321.403C200.783 320.66 197.206 318.214 197.206 318.214L192.886 316.186L192.871 316.527L197.237 318.57C197.237 318.57 200.814 321.016 207.162 321.759C207.162 321.759 207.177 321.604 207.131 321.31C207.131 321.387 207.131 321.403 207.131 321.403Z" fill="#D19433"/>
<path d="M199.002 306.45L194.419 307.564V312.285V313.075C194.419 313.508 195.209 313.864 196.2 313.864C197.175 313.864 197.98 313.508 197.98 313.075L198.553 309.375L198.491 309.422L199.002 306.45Z" fill="#E27777"/>
<path d="M222.862 181.08L224.627 195.012L225.525 206.142V239.887L213.788 301.372H208.927L207.471 261.265L209.995 241.915L197.19 181.08H222.862Z" fill="#479E79"/>
<path d="M221.979 181.08L216.033 197.659L208.694 206.142V245.336L198.955 309.592H194.078L191.601 264.484L194.125 245.119L186.786 183.898L221.979 181.08Z" fill="#6CBA9B"/>
<path d="M192.623 307.936L200.907 307.131L200.442 309.638H192.623V307.936Z" fill="#479E79"/>
<path d="M207.146 299.731L215.414 298.927L214.95 301.434H207.146V299.731Z" fill="#31845E"/>
<path d="M216.204 110.88C209.995 111.391 203.786 112.366 197.717 113.698C193.118 114.704 188.489 115.927 184.2 117.862C182.559 118.605 180.747 121.515 179.508 122.877C176.551 126.112 178.672 130.601 179.23 134.44C179.926 139.27 180.639 144.115 181.335 148.945C182.233 155.105 182.992 161.297 184.014 167.427C184.014 167.443 187.064 188.866 187.064 188.866C187.064 188.866 218.975 195.863 222.908 181.529C222.908 181.529 229.333 127.459 225.401 119.162C225.401 119.177 222.041 110.23 216.204 110.88Z" fill="#EBB34B"/>
<path d="M210.49 99.9672L199.172 102.707V114.363V116.314C199.172 117.397 201.138 118.264 203.554 118.264C205.969 118.264 207.935 117.397 207.935 116.314L209.344 107.165L209.19 107.258L210.49 99.9672Z" fill="#F3BC97"/>
<path d="M224.564 81.5155C225.849 95.3852 215.956 107.63 202.485 108.883C188.999 110.122 177.046 99.8898 175.761 86.0355C174.476 72.1658 184.37 59.9214 197.84 58.6676C211.311 57.4137 223.279 67.6458 224.564 81.5155Z" fill="#392C04"/>
<path d="M214.872 89.797C215.367 86.9643 218.077 85.0758 220.91 85.5866C223.744 86.0819 225.633 88.7909 225.122 91.6236C224.626 94.4564 221.917 96.3449 219.083 95.8341C216.25 95.3233 214.361 92.6143 214.872 89.797Z" fill="#F3BC97"/>
<path d="M221.918 96.1811C224.153 86.7647 218.33 77.3198 208.911 75.0852C199.493 72.8507 190.046 78.6727 187.811 88.089C185.576 97.5053 191.399 106.95 200.817 109.185C210.236 111.419 219.683 105.597 221.918 96.1811Z" fill="#F3BC97"/>
<path d="M191.369 91.1747C192.886 88.8373 194.852 87.8466 197.562 87.4132C203.879 86.376 216.575 88.7908 220.647 82.3204C217.226 78.6207 211.234 71.3608 205.799 71.3608C195.441 71.3608 178.084 83.6981 188.133 95.0446C189.201 96.252 188.365 98.2179 188.752 99.7194C190.362 97.3666 189.696 93.7443 191.369 91.1747Z" fill="#392C04"/>
<path d="M184.138 96.0663C184.138 92.8001 186.785 90.1531 190.052 90.1531C193.319 90.1531 195.967 92.8001 195.967 96.0663C195.967 99.3325 193.319 101.979 190.052 101.979C186.785 101.979 184.138 99.3325 184.138 96.0663Z" fill="#F3BC97"/>
<path d="M173.021 225.646C171.829 221.544 171.565 217.194 172.107 212.953C172.525 209.718 173.253 204.872 177 203.866C179.864 203.092 182.45 206.978 183.611 209.114C186.724 214.826 189.108 221.792 187.436 228.324" stroke="#073656" stroke-width="1.5274" stroke-miterlimit="10" stroke-linecap="round" stroke-linejoin="round"/>
<path d="M200.147 273.277V223.278L166.007 211.018V260.32L200.147 273.277Z" fill="#145284"/>
<path d="M200.147 273.277V223.278L166.007 211.018V260.32L200.147 273.277Z" fill="url(#paint13_linear_251_7683)"/>
<path d="M189.417 224.299L200.147 223.324V273.199L189.417 274.314V224.299Z" fill="#2D70B2"/>
<path d="M183.859 229.593L189.418 224.299V274.314L183.859 279.608V229.593Z" fill="#77B6E0"/>
<path d="M166.007 211.018L162.678 216.095V260.382L166.301 257.735L166.007 211.018Z" fill="#2D70B2"/>
<path d="M162.678 216.095L149.703 217.349V259.128L162.678 260.382V216.095Z" fill="#114D7F"/>
<path d="M183.859 279.608V229.593L149.703 217.349V267.286L183.859 279.608Z" fill="#5E95D7"/>
<path d="M170.063 235.243C170.063 236.9 170.992 238.231 172.154 238.231C173.315 238.231 174.244 236.884 174.244 235.243C174.244 233.587 173.315 232.256 172.154 232.256C170.992 232.256 170.063 233.587 170.063 235.243Z" fill="#114D7F"/>
<path d="M157.29 231.064C157.29 232.72 158.219 234.051 159.38 234.051C160.542 234.051 161.471 232.705 161.471 231.064C161.471 229.423 160.542 228.076 159.38 228.076C158.235 228.061 157.29 229.408 157.29 231.064Z" fill="#114D7F"/>
<path d="M159.241 228.696C159.086 224.423 159.891 220.135 161.44 216.173C162.632 213.139 167.664 204.671 171.535 204.594C174.507 204.532 175.715 211.312 176.319 213.665C177.945 219.965 175.808 228.881 172.588 234.81" stroke="#073656" stroke-width="1.5274" stroke-miterlimit="10" stroke-linecap="round" stroke-linejoin="round"/>
<path d="M172.479 198.077V204.501L177.248 209.594L178.688 206.993L176.536 203.185H177.96V202.38L175.22 198.077H172.479Z" fill="#E27777"/>
<path d="M175.049 207.148C174.322 206.018 173.362 204.965 173.083 203.619C172.587 201.173 174.678 200.461 176.659 200.337L175.22 198.092H172.479V204.501L175.173 207.38C175.127 207.303 175.096 207.225 175.049 207.148Z" fill="#D35B5B"/>
<path d="M184.2 117.862C184.2 117.862 195.069 131.159 188.055 137.118L175.947 163.031L176.83 199.857L171.86 200.43L162.663 164.223C162.647 164.223 167.013 125.106 184.2 117.862Z" fill="#DD9F3A"/>
<path d="M190.873 128.186C190.873 133.898 188.334 138.542 185.191 138.542C182.048 138.542 179.508 133.914 179.508 128.186C179.508 122.474 182.048 117.831 185.191 117.831C188.334 117.831 190.873 122.459 190.873 128.186Z" fill="#DD9F3A"/>
<path d="M267.081 200.693C265.889 196.591 265.626 192.241 266.168 188C266.586 184.764 267.314 179.919 271.061 178.913C273.925 178.139 276.511 182.024 277.672 184.161C280.784 189.873 283.169 196.838 281.496 203.371" stroke="#073656" stroke-width="1.5274" stroke-miterlimit="10" stroke-linecap="round" stroke-linejoin="round"/>
<path d="M294.223 248.324V198.325L260.067 186.065V235.367L294.223 248.324Z" fill="#145284"/>
<path d="M294.223 248.324V198.325L260.067 186.065V235.367L294.223 248.324Z" fill="url(#paint14_linear_251_7683)"/>
<path d="M283.494 199.346L294.224 198.371V248.231L283.494 249.345V199.346Z" fill="#2D70B2"/>
<path d="M277.919 204.64L283.493 199.346V249.345L277.919 254.639V204.64Z" fill="#77B6E0"/>
<path d="M260.068 186.065L256.739 191.127V235.414L260.362 232.767L260.068 186.065Z" fill="#2D70B2"/>
<path d="M256.739 191.126L243.764 192.38V234.16L256.739 235.414V191.126Z" fill="#114D7F"/>
<path d="M277.92 254.639V204.64L243.764 192.38V242.333L277.92 254.639Z" fill="#5E95D7"/>
<path d="M264.124 210.275C264.124 211.931 265.053 213.262 266.214 213.262C267.376 213.262 268.304 211.916 268.304 210.275C268.304 208.618 267.376 207.287 266.214 207.287C265.069 207.287 264.124 208.618 264.124 210.275Z" fill="#114D7F"/>
<path d="M253.456 209.083C254.61 209.083 255.546 207.745 255.546 206.095C255.546 204.445 254.61 203.108 253.456 203.108C252.302 203.108 251.366 204.445 251.366 206.095C251.366 207.745 252.302 209.083 253.456 209.083Z" fill="#114D7F"/>
<path d="M253.301 203.727C253.146 199.455 253.951 195.167 255.5 191.204C256.692 188.17 261.724 179.703 265.595 179.625C268.568 179.563 269.76 186.343 270.379 188.696C272.005 194.996 269.868 203.913 266.648 209.841" stroke="#073656" stroke-width="1.5274" stroke-miterlimit="10" stroke-linecap="round" stroke-linejoin="round"/>
</g>
<defs>
<linearGradient id="paint0_linear_251_7683" x1="279.3" y1="328.39" x2="380.441" y2="254.065" gradientUnits="userSpaceOnUse">
<stop stop-color="#93CAF2"/>
<stop offset="1" stop-color="#96CCF2" stop-opacity="0.9685"/>
</linearGradient>
<linearGradient id="paint1_linear_251_7683" x1="542.904" y1="250.695" x2="567.478" y2="296.073" gradientUnits="userSpaceOnUse">
<stop offset="0.0436" stop-color="#2E6587"/>
<stop offset="0.9952" stop-color="#2E6587"/>
<stop offset="0.9953" stop-color="#6A1BBF" stop-opacity="0"/>
</linearGradient>
<linearGradient id="paint2_linear_251_7683" x1="285.57" y1="204.361" x2="269.811" y2="257.954" gradientUnits="userSpaceOnUse">
<stop stop-color="#2E6587"/>
<stop offset="0.1253" stop-color="#2E6587"/>
<stop offset="0.9953" stop-color="#2E6587"/>
</linearGradient>
<linearGradient id="paint3_linear_251_7683" x1="96.3633" y1="256.543" x2="453.458" y2="256.543" gradientUnits="userSpaceOnUse">
<stop offset="0.0046875" stop-color="#2E6587"/>
<stop offset="0.0273" stop-color="#2E6587"/>
<stop offset="0.8" stop-color="#2E6587"/>
<stop offset="1" stop-color="#2E6587"/>
</linearGradient>
<linearGradient id="paint4_linear_251_7683" x1="605.838" y1="164.398" x2="568.353" y2="179.786" gradientUnits="userSpaceOnUse">
<stop stop-color="#6CBA9B"/>
<stop offset="0.9765" stop-color="#6CBA9B" stop-opacity="0"/>
</linearGradient>
<linearGradient id="paint5_linear_251_7683" x1="618.816" y1="142.437" x2="584.665" y2="142.437" gradientUnits="userSpaceOnUse">
<stop stop-color="#145284" stop-opacity="0.4"/>
<stop offset="1" stop-color="#145284" stop-opacity="0"/>
</linearGradient>
<linearGradient id="paint6_linear_251_7683" x1="558.706" y1="182.41" x2="521.222" y2="197.797" gradientUnits="userSpaceOnUse">
<stop stop-color="#6CBA9B"/>
<stop offset="0.9765" stop-color="#6CBA9B" stop-opacity="0"/>
</linearGradient>
<linearGradient id="paint7_linear_251_7683" x1="571.684" y1="160.448" x2="537.533" y2="160.448" gradientUnits="userSpaceOnUse">
<stop stop-color="#145284" stop-opacity="0.4"/>
<stop offset="1" stop-color="#145284" stop-opacity="0"/>
</linearGradient>
<linearGradient id="paint8_linear_251_7683" x1="511.003" y1="200.421" x2="473.518" y2="215.809" gradientUnits="userSpaceOnUse">
<stop stop-color="#6CBA9B"/>
<stop offset="0.9765" stop-color="#6CBA9B" stop-opacity="0"/>
</linearGradient>
<linearGradient id="paint9_linear_251_7683" x1="523.981" y1="178.46" x2="489.83" y2="178.46" gradientUnits="userSpaceOnUse">
<stop stop-color="#145284" stop-opacity="0.4"/>
<stop offset="1" stop-color="#145284" stop-opacity="0"/>
</linearGradient>
<linearGradient id="paint10_linear_251_7683" x1="50.2689" y1="262.058" x2="119.841" y2="262.058" gradientUnits="userSpaceOnUse">
<stop stop-color="#93CAF2"/>
<stop offset="0.3012" stop-color="#96CBF2" stop-opacity="0.6988"/>
<stop offset="0.4805" stop-color="#9ECFF3" stop-opacity="0.5195"/>
<stop offset="0.6278" stop-color="#ACD6F5" stop-opacity="0.3722"/>
<stop offset="0.7578" stop-color="#C0E0F7" stop-opacity="0.2422"/>
<stop offset="0.8764" stop-color="#DAEDFB" stop-opacity="0.1236"/>
<stop offset="0.9851" stop-color="#FAFDFE" stop-opacity="0.0149"/>
<stop offset="1" stop-color="white" stop-opacity="0"/>
</linearGradient>
<linearGradient id="paint11_linear_251_7683" x1="50.9252" y1="177.068" x2="16.774" y2="177.068" gradientUnits="userSpaceOnUse">
<stop stop-color="#145284" stop-opacity="0.4"/>
<stop offset="1" stop-color="#145284" stop-opacity="0"/>
</linearGradient>
<linearGradient id="paint12_linear_251_7683" x1="171.004" y1="316.948" x2="240.576" y2="316.948" gradientUnits="userSpaceOnUse">
<stop stop-color="#93CAF2"/>
<stop offset="0.3012" stop-color="#96CBF2" stop-opacity="0.6988"/>
<stop offset="0.4805" stop-color="#9ECFF3" stop-opacity="0.5195"/>
<stop offset="0.6278" stop-color="#ACD6F5" stop-opacity="0.3722"/>
<stop offset="0.7578" stop-color="#C0E0F7" stop-opacity="0.2422"/>
<stop offset="0.8764" stop-color="#DAEDFB" stop-opacity="0.1236"/>
<stop offset="0.9851" stop-color="#FAFDFE" stop-opacity="0.0149"/>
<stop offset="1" stop-color="white" stop-opacity="0"/>
</linearGradient>
<linearGradient id="paint13_linear_251_7683" x1="200.152" y1="242.151" x2="166.001" y2="242.151" gradientUnits="userSpaceOnUse">
<stop stop-color="#145284" stop-opacity="0.4"/>
<stop offset="1" stop-color="#145284" stop-opacity="0"/>
</linearGradient>
<linearGradient id="paint14_linear_251_7683" x1="294.22" y1="217.191" x2="260.069" y2="217.191" gradientUnits="userSpaceOnUse">
<stop stop-color="#145284" stop-opacity="0.4"/>
<stop offset="1" stop-color="#145284" stop-opacity="0"/>
</linearGradient>
<clipPath id="clip0_251_7683">
<rect width="656" height="406" fill="white"/>
</clipPath>
</defs>
</svg>
