<svg width="1622" height="1603" viewBox="0 0 1622 1603" fill="none" xmlns="http://www.w3.org/2000/svg">
<g clip-path="url(#clip0_289_3078)">
<path d="M85.435 111.444H0V195.879H85.435V111.444Z" stroke="url(#paint0_linear_289_3078)" stroke-opacity="0.07" stroke-width="0.5"/>
<path d="M256.305 111.444H170.87V195.879H256.305V111.444Z" stroke="url(#paint1_linear_289_3078)" stroke-opacity="0.07" stroke-width="0.5"/>
<path d="M341.74 111.444H256.305V195.879H341.74V111.444Z" stroke="url(#paint2_linear_289_3078)" stroke-opacity="0.07" stroke-width="0.5"/>
<path d="M427.175 111.444H341.74V195.879H427.175V111.444Z" stroke="url(#paint3_linear_289_3078)" stroke-opacity="0.07" stroke-width="0.5"/>
<path d="M512.61 111.444H427.175V195.879H512.61V111.444Z" stroke="url(#paint4_linear_289_3078)" stroke-opacity="0.07" stroke-width="0.5"/>
<path d="M598.045 111.444H512.61V195.879H598.045V111.444Z" stroke="url(#paint5_linear_289_3078)" stroke-opacity="0.07" stroke-width="0.5"/>
<path d="M683.48 111.444H598.045V195.879H683.48V111.444Z" stroke="url(#paint6_linear_289_3078)" stroke-opacity="0.07" stroke-width="0.5"/>
<path d="M768.916 111.444H683.48V195.879H768.916V111.444Z" stroke="url(#paint7_linear_289_3078)" stroke-opacity="0.07" stroke-width="0.5"/>
<path d="M854.35 111.444H768.915V195.879H854.35V111.444Z" stroke="url(#paint8_linear_289_3078)" stroke-opacity="0.07" stroke-width="0.5"/>
<path d="M939.786 111.444H854.351V195.879H939.786V111.444Z" stroke="url(#paint9_linear_289_3078)" stroke-opacity="0.07" stroke-width="0.5"/>
<path d="M1025.22 111.444H939.785V195.879H1025.22V111.444Z" stroke="url(#paint10_linear_289_3078)" stroke-opacity="0.07" stroke-width="0.5"/>
<path d="M1110.66 111.444H1025.22V195.879H1110.66V111.444Z" stroke="url(#paint11_linear_289_3078)" stroke-opacity="0.07" stroke-width="0.5"/>
<path d="M1196.09 111.444H1110.66V195.879H1196.09V111.444Z" stroke="url(#paint12_linear_289_3078)" stroke-opacity="0.07" stroke-width="0.5"/>
<path d="M1281.53 111.444H1196.09V195.879H1281.53V111.444Z" stroke="url(#paint13_linear_289_3078)" stroke-opacity="0.07" stroke-width="0.5"/>
<path d="M1366.96 111.444H1281.53V195.879H1366.96V111.444Z" stroke="url(#paint14_linear_289_3078)" stroke-opacity="0.07" stroke-width="0.5"/>
<path d="M1452.4 111.444H1366.96V195.879H1452.4V111.444Z" stroke="url(#paint15_linear_289_3078)" stroke-opacity="0.07" stroke-width="0.5"/>
<path opacity="0.33" d="M1537.83 111.444H1452.4V195.879H1537.83V111.444Z" stroke="url(#paint16_linear_289_3078)" stroke-opacity="0.07" stroke-width="0.5"/>
<path d="M1623.27 111.444H1537.83V195.879H1623.27V111.444Z" stroke="url(#paint17_linear_289_3078)" stroke-opacity="0.07" stroke-width="0.5"/>
<path d="M85.435 195.878H0V280.313H85.435V195.878Z" stroke="white" stroke-opacity="0.07" stroke-width="0.5"/>
<path d="M170.87 195.878H85.4351V280.313H170.87V195.878Z" stroke="white" stroke-opacity="0.07" stroke-width="0.5"/>
<path d="M256.305 195.878H170.87V280.313H256.305V195.878Z" stroke="white" stroke-opacity="0.07" stroke-width="0.5"/>
<path d="M341.74 195.878H256.305V280.313H341.74V195.878Z" stroke="white" stroke-opacity="0.07" stroke-width="0.5"/>
<path d="M427.175 195.878H341.74V280.313H427.175V195.878Z" stroke="white" stroke-opacity="0.07" stroke-width="0.5"/>
<path d="M512.61 195.878H427.175V280.313H512.61V195.878Z" stroke="white" stroke-opacity="0.07" stroke-width="0.5"/>
<path d="M598.045 195.878H512.61V280.313H598.045V195.878Z" stroke="white" stroke-opacity="0.07" stroke-width="0.5"/>
<path d="M683.48 195.878H598.045V280.313H683.48V195.878Z" stroke="white" stroke-opacity="0.07" stroke-width="0.5"/>
<path d="M768.916 195.878H683.48V280.313H768.916V195.878Z" stroke="white" stroke-opacity="0.07" stroke-width="0.5"/>
<path d="M854.35 195.878H768.915V280.313H854.35V195.878Z" stroke="white" stroke-opacity="0.07" stroke-width="0.5"/>
<path d="M939.786 195.878H854.351V280.313H939.786V195.878Z" stroke="white" stroke-opacity="0.07" stroke-width="0.5"/>
<path d="M1025.22 195.878H939.785V280.313H1025.22V195.878Z" stroke="white" stroke-opacity="0.07" stroke-width="0.5"/>
<path d="M1110.66 195.878H1025.22V280.313H1110.66V195.878Z" stroke="white" stroke-opacity="0.07" stroke-width="0.5"/>
<path d="M1196.09 195.878H1110.66V280.313H1196.09V195.878Z" stroke="white" stroke-opacity="0.07" stroke-width="0.5"/>
<path d="M1281.53 195.878H1196.09V280.313H1281.53V195.878Z" stroke="white" stroke-opacity="0.07" stroke-width="0.5"/>
<path d="M1366.96 195.878H1281.53V280.313H1366.96V195.878Z" stroke="white" stroke-opacity="0.07" stroke-width="0.5"/>
<path d="M1452.4 195.878H1366.96V280.313H1452.4V195.878Z" stroke="white" stroke-opacity="0.07" stroke-width="0.5"/>
<path d="M1537.83 195.878H1452.4V280.313H1537.83V195.878Z" stroke="white" stroke-opacity="0.07" stroke-width="0.5"/>
<path d="M1623.27 195.878H1537.83V280.313H1623.27V195.878Z" stroke="white" stroke-opacity="0.07" stroke-width="0.5"/>
<path d="M85.435 280.313H0V364.747H85.435V280.313Z" stroke="white" stroke-opacity="0.07" stroke-width="0.5"/>
<path d="M170.87 280.313H85.4351V364.747H170.87V280.313Z" stroke="white" stroke-opacity="0.07" stroke-width="0.5"/>
<path d="M256.305 280.313H170.87V364.747H256.305V280.313Z" stroke="white" stroke-opacity="0.07" stroke-width="0.5"/>
<path d="M341.74 280.313H256.305V364.747H341.74V280.313Z" stroke="white" stroke-opacity="0.07" stroke-width="0.5"/>
<path d="M427.175 280.313H341.74V364.747H427.175V280.313Z" stroke="white" stroke-opacity="0.07" stroke-width="0.5"/>
<path d="M512.61 280.313H427.175V364.747H512.61V280.313Z" stroke="white" stroke-opacity="0.07" stroke-width="0.5"/>
<path d="M598.045 280.313H512.61V364.747H598.045V280.313Z" stroke="white" stroke-opacity="0.07" stroke-width="0.5"/>
<path d="M683.48 280.313H598.045V364.747H683.48V280.313Z" stroke="white" stroke-opacity="0.07" stroke-width="0.5"/>
<path d="M768.916 280.313H683.48V364.747H768.916V280.313Z" stroke="white" stroke-opacity="0.07" stroke-width="0.5"/>
<path d="M854.35 280.313H768.915V364.747H854.35V280.313Z" stroke="white" stroke-opacity="0.07" stroke-width="0.5"/>
<path d="M939.786 280.313H854.351V364.747H939.786V280.313Z" stroke="white" stroke-opacity="0.07" stroke-width="0.5"/>
<path d="M1025.22 280.313H939.785V364.747H1025.22V280.313Z" stroke="white" stroke-opacity="0.07" stroke-width="0.5"/>
<path d="M1110.66 280.313H1025.22V364.747H1110.66V280.313Z" stroke="white" stroke-opacity="0.07" stroke-width="0.5"/>
<path d="M1196.09 280.313H1110.66V364.747H1196.09V280.313Z" stroke="white" stroke-opacity="0.07" stroke-width="0.5"/>
<path d="M1281.53 280.313H1196.09V364.747H1281.53V280.313Z" stroke="white" stroke-opacity="0.07" stroke-width="0.5"/>
<path d="M1366.96 280.313H1281.53V364.747H1366.96V280.313Z" stroke="white" stroke-opacity="0.07" stroke-width="0.5"/>
<path d="M1452.4 280.313H1366.96V364.747H1452.4V280.313Z" stroke="white" stroke-opacity="0.07" stroke-width="0.5"/>
<path d="M1537.83 280.313H1452.4V364.747H1537.83V280.313Z" stroke="white" stroke-opacity="0.07" stroke-width="0.5"/>
<path d="M1623.27 280.313H1537.83V364.747H1623.27V280.313Z" stroke="white" stroke-opacity="0.07" stroke-width="0.5"/>
<path d="M85.435 364.747H0V449.181H85.435V364.747Z" stroke="white" stroke-opacity="0.07" stroke-width="0.5"/>
<path d="M170.87 364.747H85.4351V449.181H170.87V364.747Z" stroke="white" stroke-opacity="0.07" stroke-width="0.5"/>
<path d="M256.305 364.747H170.87V449.181H256.305V364.747Z" stroke="white" stroke-opacity="0.07" stroke-width="0.5"/>
<path d="M341.74 364.747H256.305V449.181H341.74V364.747Z" stroke="white" stroke-opacity="0.07" stroke-width="0.5"/>
<path d="M427.175 364.747H341.74V449.181H427.175V364.747Z" stroke="white" stroke-opacity="0.07" stroke-width="0.5"/>
<path d="M512.61 364.747H427.175V449.181H512.61V364.747Z" stroke="white" stroke-opacity="0.07" stroke-width="0.5"/>
<path d="M598.045 364.747H512.61V449.181H598.045V364.747Z" stroke="white" stroke-opacity="0.07" stroke-width="0.5"/>
<path d="M683.48 364.747H598.045V449.181H683.48V364.747Z" stroke="white" stroke-opacity="0.07" stroke-width="0.5"/>
<path d="M768.916 364.747H683.48V449.181H768.916V364.747Z" stroke="white" stroke-opacity="0.07" stroke-width="0.5"/>
<path d="M854.35 364.747H768.915V449.181H854.35V364.747Z" stroke="white" stroke-opacity="0.07" stroke-width="0.5"/>
<path d="M939.786 364.747H854.351V449.181H939.786V364.747Z" stroke="white" stroke-opacity="0.07" stroke-width="0.5"/>
<path d="M1025.22 364.747H939.785V449.181H1025.22V364.747Z" stroke="white" stroke-opacity="0.07" stroke-width="0.5"/>
<path d="M1110.66 364.747H1025.22V449.181H1110.66V364.747Z" stroke="white" stroke-opacity="0.07" stroke-width="0.5"/>
<path d="M1196.09 364.747H1110.66V449.181H1196.09V364.747Z" stroke="white" stroke-opacity="0.07" stroke-width="0.5"/>
<path d="M1281.53 364.747H1196.09V449.181H1281.53V364.747Z" stroke="white" stroke-opacity="0.07" stroke-width="0.5"/>
<path d="M1366.96 364.747H1281.53V449.181H1366.96V364.747Z" stroke="white" stroke-opacity="0.07" stroke-width="0.5"/>
<path d="M1452.4 364.747H1366.96V449.181H1452.4V364.747Z" stroke="white" stroke-opacity="0.07" stroke-width="0.5"/>
<path d="M1537.83 364.747H1452.4V449.181H1537.83V364.747Z" stroke="white" stroke-opacity="0.07" stroke-width="0.5"/>
<path d="M1623.27 364.747H1537.83V449.181H1623.27V364.747Z" stroke="white" stroke-opacity="0.07" stroke-width="0.5"/>
<path d="M85.435 449.182H0V533.616H85.435V449.182Z" stroke="white" stroke-opacity="0.07" stroke-width="0.5"/>
<path d="M170.87 449.182H85.4351V533.616H170.87V449.182Z" stroke="white" stroke-opacity="0.07" stroke-width="0.5"/>
<path d="M256.305 449.182H170.87V533.616H256.305V449.182Z" stroke="white" stroke-opacity="0.07" stroke-width="0.5"/>
<path d="M341.74 449.182H256.305V533.616H341.74V449.182Z" stroke="white" stroke-opacity="0.07" stroke-width="0.5"/>
<path d="M427.175 449.182H341.74V533.616H427.175V449.182Z" stroke="white" stroke-opacity="0.07" stroke-width="0.5"/>
<path d="M512.61 449.182H427.175V533.616H512.61V449.182Z" stroke="white" stroke-opacity="0.07" stroke-width="0.5"/>
<path d="M598.045 449.182H512.61V533.616H598.045V449.182Z" stroke="white" stroke-opacity="0.07" stroke-width="0.5"/>
<path d="M683.48 449.182H598.045V533.616H683.48V449.182Z" stroke="white" stroke-opacity="0.07" stroke-width="0.5"/>
<path d="M768.916 449.182H683.48V533.616H768.916V449.182Z" stroke="white" stroke-opacity="0.07" stroke-width="0.5"/>
<path d="M854.35 449.182H768.915V533.616H854.35V449.182Z" stroke="white" stroke-opacity="0.07" stroke-width="0.5"/>
<path d="M939.786 449.182H854.351V533.616H939.786V449.182Z" stroke="white" stroke-opacity="0.07" stroke-width="0.5"/>
<path d="M1025.22 449.182H939.785V533.616H1025.22V449.182Z" stroke="white" stroke-opacity="0.07" stroke-width="0.5"/>
<path d="M1110.66 449.182H1025.22V533.616H1110.66V449.182Z" stroke="white" stroke-opacity="0.07" stroke-width="0.5"/>
<path d="M1196.09 449.182H1110.66V533.616H1196.09V449.182Z" stroke="white" stroke-opacity="0.07" stroke-width="0.5"/>
<path d="M1281.53 449.182H1196.09V533.616H1281.53V449.182Z" stroke="white" stroke-opacity="0.07" stroke-width="0.5"/>
<path d="M1366.96 449.182H1281.53V533.616H1366.96V449.182Z" stroke="white" stroke-opacity="0.07" stroke-width="0.5"/>
<path d="M1452.4 449.182H1366.96V533.616H1452.4V449.182Z" stroke="white" stroke-opacity="0.07" stroke-width="0.5"/>
<path d="M1537.83 449.182H1452.4V533.616H1537.83V449.182Z" stroke="white" stroke-opacity="0.07" stroke-width="0.5"/>
<path d="M1623.27 449.182H1537.83V533.616H1623.27V449.182Z" stroke="white" stroke-opacity="0.07" stroke-width="0.5"/>
<path d="M85.435 533.616H0V618.05H85.435V533.616Z" stroke="white" stroke-opacity="0.07" stroke-width="0.5"/>
<path d="M170.87 533.616H85.4351V618.05H170.87V533.616Z" stroke="white" stroke-opacity="0.07" stroke-width="0.5"/>
<path d="M256.305 533.616H170.87V618.05H256.305V533.616Z" stroke="white" stroke-opacity="0.07" stroke-width="0.5"/>
<path d="M341.74 533.616H256.305V618.05H341.74V533.616Z" stroke="white" stroke-opacity="0.07" stroke-width="0.5"/>
<path d="M427.175 533.616H341.74V618.05H427.175V533.616Z" stroke="white" stroke-opacity="0.07" stroke-width="0.5"/>
<path d="M512.61 533.616H427.175V618.05H512.61V533.616Z" stroke="white" stroke-opacity="0.07" stroke-width="0.5"/>
<path d="M598.045 533.616H512.61V618.05H598.045V533.616Z" stroke="white" stroke-opacity="0.07" stroke-width="0.5"/>
<path d="M683.48 533.616H598.045V618.05H683.48V533.616Z" stroke="white" stroke-opacity="0.07" stroke-width="0.5"/>
<path d="M768.916 533.616H683.48V618.05H768.916V533.616Z" stroke="white" stroke-opacity="0.07" stroke-width="0.5"/>
<path d="M854.35 533.616H768.915V618.05H854.35V533.616Z" stroke="white" stroke-opacity="0.07" stroke-width="0.5"/>
<path d="M939.786 533.616H854.351V618.05H939.786V533.616Z" stroke="white" stroke-opacity="0.07" stroke-width="0.5"/>
<path d="M1025.22 533.616H939.785V618.05H1025.22V533.616Z" stroke="white" stroke-opacity="0.07" stroke-width="0.5"/>
<path d="M1110.66 533.616H1025.22V618.05H1110.66V533.616Z" stroke="white" stroke-opacity="0.07" stroke-width="0.5"/>
<path d="M1196.09 533.616H1110.66V618.05H1196.09V533.616Z" stroke="white" stroke-opacity="0.07" stroke-width="0.5"/>
<path d="M1281.53 533.616H1196.09V618.05H1281.53V533.616Z" stroke="white" stroke-opacity="0.07" stroke-width="0.5"/>
<path d="M1366.96 533.616H1281.53V618.05H1366.96V533.616Z" stroke="white" stroke-opacity="0.07" stroke-width="0.5"/>
<path d="M1452.4 533.616H1366.96V618.05H1452.4V533.616Z" stroke="white" stroke-opacity="0.07" stroke-width="0.5"/>
<path d="M1537.83 533.616H1452.4V618.05H1537.83V533.616Z" stroke="white" stroke-opacity="0.07" stroke-width="0.5"/>
<path d="M1623.27 533.616H1537.83V618.05H1623.27V533.616Z" stroke="white" stroke-opacity="0.07" stroke-width="0.5"/>
<path d="M85.435 618.05H0V702.484H85.435V618.05Z" stroke="white" stroke-opacity="0.07" stroke-width="0.5"/>
<path d="M170.87 618.05H85.4351V702.484H170.87V618.05Z" stroke="white" stroke-opacity="0.07" stroke-width="0.5"/>
<path d="M256.305 618.05H170.87V702.484H256.305V618.05Z" stroke="white" stroke-opacity="0.07" stroke-width="0.5"/>
<path d="M341.74 618.05H256.305V702.484H341.74V618.05Z" stroke="white" stroke-opacity="0.07" stroke-width="0.5"/>
<path d="M427.175 618.05H341.74V702.484H427.175V618.05Z" stroke="white" stroke-opacity="0.07" stroke-width="0.5"/>
<path d="M512.61 618.05H427.175V702.484H512.61V618.05Z" stroke="white" stroke-opacity="0.07" stroke-width="0.5"/>
<path d="M598.045 618.05H512.61V702.484H598.045V618.05Z" stroke="white" stroke-opacity="0.07" stroke-width="0.5"/>
<path d="M683.48 618.05H598.045V702.484H683.48V618.05Z" stroke="white" stroke-opacity="0.07" stroke-width="0.5"/>
<path d="M768.916 618.05H683.48V702.484H768.916V618.05Z" stroke="white" stroke-opacity="0.07" stroke-width="0.5"/>
<path d="M854.35 618.05H768.915V702.484H854.35V618.05Z" stroke="white" stroke-opacity="0.07" stroke-width="0.5"/>
<path d="M939.786 618.05H854.351V702.484H939.786V618.05Z" stroke="white" stroke-opacity="0.07" stroke-width="0.5"/>
<path d="M1025.22 618.05H939.785V702.484H1025.22V618.05Z" stroke="white" stroke-opacity="0.07" stroke-width="0.5"/>
<path d="M1110.66 618.05H1025.22V702.484H1110.66V618.05Z" stroke="white" stroke-opacity="0.07" stroke-width="0.5"/>
<path d="M1196.09 618.05H1110.66V702.484H1196.09V618.05Z" stroke="white" stroke-opacity="0.07" stroke-width="0.5"/>
<path d="M1281.53 618.05H1196.09V702.484H1281.53V618.05Z" stroke="white" stroke-opacity="0.07" stroke-width="0.5"/>
<path d="M1366.96 618.05H1281.53V702.484H1366.96V618.05Z" stroke="white" stroke-opacity="0.07" stroke-width="0.5"/>
<path d="M1452.4 618.05H1366.96V702.484H1452.4V618.05Z" stroke="white" stroke-opacity="0.07" stroke-width="0.5"/>
<path d="M1537.83 618.05H1452.4V702.484H1537.83V618.05Z" stroke="white" stroke-opacity="0.07" stroke-width="0.5"/>
<path d="M1623.27 618.05H1537.83V702.484H1623.27V618.05Z" stroke="white" stroke-opacity="0.07" stroke-width="0.5"/>
<path d="M85.435 702.484H0V786.919H85.435V702.484Z" stroke="white" stroke-opacity="0.07" stroke-width="0.5"/>
<path d="M170.87 702.484H85.4351V786.919H170.87V702.484Z" stroke="white" stroke-opacity="0.07" stroke-width="0.5"/>
<path d="M256.305 702.484H170.87V786.919H256.305V702.484Z" stroke="white" stroke-opacity="0.07" stroke-width="0.5"/>
<path d="M341.74 702.484H256.305V786.919H341.74V702.484Z" stroke="white" stroke-opacity="0.07" stroke-width="0.5"/>
<path d="M427.175 702.484H341.74V786.919H427.175V702.484Z" stroke="white" stroke-opacity="0.07" stroke-width="0.5"/>
<path d="M512.61 702.484H427.175V786.919H512.61V702.484Z" stroke="white" stroke-opacity="0.07" stroke-width="0.5"/>
<path d="M598.045 702.484H512.61V786.919H598.045V702.484Z" stroke="white" stroke-opacity="0.07" stroke-width="0.5"/>
<path d="M683.48 702.484H598.045V786.919H683.48V702.484Z" stroke="white" stroke-opacity="0.07" stroke-width="0.5"/>
<path d="M768.916 702.484H683.48V786.919H768.916V702.484Z" stroke="white" stroke-opacity="0.07" stroke-width="0.5"/>
<path d="M854.35 702.484H768.915V786.919H854.35V702.484Z" stroke="white" stroke-opacity="0.07" stroke-width="0.5"/>
<path d="M939.786 702.484H854.351V786.919H939.786V702.484Z" stroke="white" stroke-opacity="0.07" stroke-width="0.5"/>
<path d="M1025.22 702.484H939.785V786.919H1025.22V702.484Z" stroke="white" stroke-opacity="0.07" stroke-width="0.5"/>
<path d="M1110.66 702.484H1025.22V786.919H1110.66V702.484Z" stroke="white" stroke-opacity="0.07" stroke-width="0.5"/>
<path d="M1196.09 702.484H1110.66V786.919H1196.09V702.484Z" stroke="white" stroke-opacity="0.07" stroke-width="0.5"/>
<path d="M1281.53 702.484H1196.09V786.919H1281.53V702.484Z" stroke="white" stroke-opacity="0.07" stroke-width="0.5"/>
<path d="M1366.96 702.484H1281.53V786.919H1366.96V702.484Z" stroke="white" stroke-opacity="0.07" stroke-width="0.5"/>
<path d="M1452.4 702.484H1366.96V786.919H1452.4V702.484Z" stroke="white" stroke-opacity="0.07" stroke-width="0.5"/>
<path d="M1537.83 702.484H1452.4V786.919H1537.83V702.484Z" stroke="white" stroke-opacity="0.07" stroke-width="0.5"/>
<path d="M1623.27 702.484H1537.83V786.919H1623.27V702.484Z" stroke="white" stroke-opacity="0.07" stroke-width="0.5"/>
<path d="M85.435 786.918H0V871.352H85.435V786.918Z" stroke="white" stroke-opacity="0.07" stroke-width="0.5"/>
<path d="M170.87 786.918H85.4351V871.352H170.87V786.918Z" stroke="white" stroke-opacity="0.07" stroke-width="0.5"/>
<path d="M256.305 786.918H170.87V871.352H256.305V786.918Z" stroke="white" stroke-opacity="0.07" stroke-width="0.5"/>
<path d="M341.74 786.918H256.305V871.352H341.74V786.918Z" stroke="white" stroke-opacity="0.07" stroke-width="0.5"/>
<path d="M427.175 786.918H341.74V871.352H427.175V786.918Z" stroke="white" stroke-opacity="0.07" stroke-width="0.5"/>
<path d="M512.61 786.918H427.175V871.352H512.61V786.918Z" stroke="white" stroke-opacity="0.07" stroke-width="0.5"/>
<path d="M598.045 786.918H512.61V871.352H598.045V786.918Z" stroke="white" stroke-opacity="0.07" stroke-width="0.5"/>
<path d="M683.48 786.918H598.045V871.352H683.48V786.918Z" stroke="white" stroke-opacity="0.07" stroke-width="0.5"/>
<path d="M768.916 786.918H683.48V871.352H768.916V786.918Z" stroke="white" stroke-opacity="0.07" stroke-width="0.5"/>
<path d="M854.35 786.918H768.915V871.352H854.35V786.918Z" stroke="white" stroke-opacity="0.07" stroke-width="0.5"/>
<path d="M939.786 786.918H854.351V871.352H939.786V786.918Z" stroke="white" stroke-opacity="0.07" stroke-width="0.5"/>
<path d="M1025.22 786.918H939.785V871.352H1025.22V786.918Z" stroke="white" stroke-opacity="0.07" stroke-width="0.5"/>
<path d="M1110.66 786.918H1025.22V871.352H1110.66V786.918Z" stroke="white" stroke-opacity="0.07" stroke-width="0.5"/>
<path d="M1196.09 786.918H1110.66V871.352H1196.09V786.918Z" stroke="white" stroke-opacity="0.07" stroke-width="0.5"/>
<path d="M1281.53 786.918H1196.09V871.352H1281.53V786.918Z" stroke="white" stroke-opacity="0.07" stroke-width="0.5"/>
<path d="M1366.96 786.918H1281.53V871.352H1366.96V786.918Z" stroke="white" stroke-opacity="0.07" stroke-width="0.5"/>
<path d="M1452.4 786.918H1366.96V871.352H1452.4V786.918Z" stroke="white" stroke-opacity="0.07" stroke-width="0.5"/>
<path d="M1537.83 786.918H1452.4V871.352H1537.83V786.918Z" stroke="white" stroke-opacity="0.07" stroke-width="0.5"/>
<path d="M1623.27 786.918H1537.83V871.352H1623.27V786.918Z" stroke="white" stroke-opacity="0.07" stroke-width="0.5"/>
<path d="M85.435 871.353H0V955.787H85.435V871.353Z" stroke="white" stroke-opacity="0.07" stroke-width="0.5"/>
<path d="M170.87 871.353H85.4351V955.787H170.87V871.353Z" stroke="white" stroke-opacity="0.07" stroke-width="0.5"/>
<path d="M256.305 871.353H170.87V955.787H256.305V871.353Z" stroke="white" stroke-opacity="0.07" stroke-width="0.5"/>
<path d="M341.74 871.353H256.305V955.787H341.74V871.353Z" stroke="white" stroke-opacity="0.07" stroke-width="0.5"/>
<path d="M427.175 871.353H341.74V955.787H427.175V871.353Z" stroke="white" stroke-opacity="0.07" stroke-width="0.5"/>
<path d="M512.61 871.353H427.175V955.787H512.61V871.353Z" stroke="white" stroke-opacity="0.07" stroke-width="0.5"/>
<path d="M598.045 871.353H512.61V955.787H598.045V871.353Z" stroke="white" stroke-opacity="0.07" stroke-width="0.5"/>
<path d="M683.48 871.353H598.045V955.787H683.48V871.353Z" stroke="white" stroke-opacity="0.07" stroke-width="0.5"/>
<path d="M768.916 871.353H683.48V955.787H768.916V871.353Z" stroke="white" stroke-opacity="0.07" stroke-width="0.5"/>
<path d="M854.35 871.353H768.915V955.787H854.35V871.353Z" stroke="white" stroke-opacity="0.07" stroke-width="0.5"/>
<path d="M939.786 871.353H854.351V955.787H939.786V871.353Z" stroke="white" stroke-opacity="0.07" stroke-width="0.5"/>
<path d="M1025.22 871.353H939.785V955.787H1025.22V871.353Z" stroke="white" stroke-opacity="0.07" stroke-width="0.5"/>
<path d="M1110.66 871.353H1025.22V955.787H1110.66V871.353Z" stroke="white" stroke-opacity="0.07" stroke-width="0.5"/>
<path d="M1196.09 871.353H1110.66V955.787H1196.09V871.353Z" stroke="white" stroke-opacity="0.07" stroke-width="0.5"/>
<path d="M1281.53 871.353H1196.09V955.787H1281.53V871.353Z" stroke="white" stroke-opacity="0.07" stroke-width="0.5"/>
<path d="M1366.96 871.353H1281.53V955.787H1366.96V871.353Z" stroke="white" stroke-opacity="0.07" stroke-width="0.5"/>
<path d="M1452.4 871.353H1366.96V955.787H1452.4V871.353Z" stroke="white" stroke-opacity="0.07" stroke-width="0.5"/>
<path d="M1537.83 871.353H1452.4V955.787H1537.83V871.353Z" stroke="white" stroke-opacity="0.07" stroke-width="0.5"/>
<path d="M1623.27 871.353H1537.83V955.787H1623.27V871.353Z" stroke="white" stroke-opacity="0.07" stroke-width="0.5"/>
<path d="M85.435 955.787H0V1040.22H85.435V955.787Z" stroke="white" stroke-opacity="0.07" stroke-width="0.5"/>
<path d="M170.87 955.787H85.4351V1040.22H170.87V955.787Z" stroke="white" stroke-opacity="0.07" stroke-width="0.5"/>
<path d="M256.305 955.787H170.87V1040.22H256.305V955.787Z" stroke="white" stroke-opacity="0.07" stroke-width="0.5"/>
<path d="M341.74 955.787H256.305V1040.22H341.74V955.787Z" stroke="white" stroke-opacity="0.07" stroke-width="0.5"/>
<path d="M427.175 955.787H341.74V1040.22H427.175V955.787Z" stroke="white" stroke-opacity="0.07" stroke-width="0.5"/>
<path d="M512.61 955.787H427.175V1040.22H512.61V955.787Z" stroke="white" stroke-opacity="0.07" stroke-width="0.5"/>
<path d="M598.045 955.787H512.61V1040.22H598.045V955.787Z" stroke="white" stroke-opacity="0.07" stroke-width="0.5"/>
<path d="M683.48 955.787H598.045V1040.22H683.48V955.787Z" stroke="white" stroke-opacity="0.07" stroke-width="0.5"/>
<path d="M768.916 955.787H683.48V1040.22H768.916V955.787Z" stroke="white" stroke-opacity="0.07" stroke-width="0.5"/>
<path d="M854.35 955.787H768.915V1040.22H854.35V955.787Z" stroke="white" stroke-opacity="0.07" stroke-width="0.5"/>
<path d="M939.786 955.787H854.351V1040.22H939.786V955.787Z" stroke="white" stroke-opacity="0.07" stroke-width="0.5"/>
<path d="M1025.22 955.787H939.785V1040.22H1025.22V955.787Z" stroke="white" stroke-opacity="0.07" stroke-width="0.5"/>
<path d="M1110.66 955.787H1025.22V1040.22H1110.66V955.787Z" stroke="white" stroke-opacity="0.07" stroke-width="0.5"/>
<path d="M1196.09 955.787H1110.66V1040.22H1196.09V955.787Z" stroke="white" stroke-opacity="0.07" stroke-width="0.5"/>
<path d="M1281.53 955.787H1196.09V1040.22H1281.53V955.787Z" stroke="white" stroke-opacity="0.07" stroke-width="0.5"/>
<path d="M1366.96 955.787H1281.53V1040.22H1366.96V955.787Z" stroke="white" stroke-opacity="0.07" stroke-width="0.5"/>
<path d="M1452.4 955.787H1366.96V1040.22H1452.4V955.787Z" stroke="white" stroke-opacity="0.07" stroke-width="0.5"/>
<path d="M1537.83 955.787H1452.4V1040.22H1537.83V955.787Z" stroke="white" stroke-opacity="0.07" stroke-width="0.5"/>
<path d="M1623.27 955.787H1537.83V1040.22H1623.27V955.787Z" stroke="white" stroke-opacity="0.07" stroke-width="0.5"/>
<path d="M85.435 1040.22H0V1124.65H85.435V1040.22Z" stroke="white" stroke-opacity="0.07" stroke-width="0.5"/>
<path d="M170.87 1040.22H85.4351V1124.65H170.87V1040.22Z" stroke="white" stroke-opacity="0.07" stroke-width="0.5"/>
<path d="M256.305 1040.22H170.87V1124.65H256.305V1040.22Z" stroke="white" stroke-opacity="0.07" stroke-width="0.5"/>
<path d="M341.74 1040.22H256.305V1124.65H341.74V1040.22Z" stroke="white" stroke-opacity="0.07" stroke-width="0.5"/>
<path d="M427.175 1040.22H341.74V1124.65H427.175V1040.22Z" stroke="white" stroke-opacity="0.07" stroke-width="0.5"/>
<path d="M512.61 1040.22H427.175V1124.65H512.61V1040.22Z" stroke="white" stroke-opacity="0.07" stroke-width="0.5"/>
<path d="M598.045 1040.22H512.61V1124.65H598.045V1040.22Z" stroke="white" stroke-opacity="0.07" stroke-width="0.5"/>
<path d="M683.48 1040.22H598.045V1124.65H683.48V1040.22Z" stroke="white" stroke-opacity="0.07" stroke-width="0.5"/>
<path d="M768.916 1040.22H683.48V1124.65H768.916V1040.22Z" stroke="white" stroke-opacity="0.07" stroke-width="0.5"/>
<path d="M854.35 1040.22H768.915V1124.65H854.35V1040.22Z" stroke="white" stroke-opacity="0.07" stroke-width="0.5"/>
<path d="M939.786 1040.22H854.351V1124.65H939.786V1040.22Z" stroke="white" stroke-opacity="0.07" stroke-width="0.5"/>
<path d="M1025.22 1040.22H939.785V1124.65H1025.22V1040.22Z" stroke="white" stroke-opacity="0.07" stroke-width="0.5"/>
<path d="M1110.66 1040.22H1025.22V1124.65H1110.66V1040.22Z" stroke="white" stroke-opacity="0.07" stroke-width="0.5"/>
<path d="M1196.09 1040.22H1110.66V1124.65H1196.09V1040.22Z" stroke="white" stroke-opacity="0.07" stroke-width="0.5"/>
<path d="M1281.53 1040.22H1196.09V1124.65H1281.53V1040.22Z" stroke="white" stroke-opacity="0.07" stroke-width="0.5"/>
<path d="M1366.96 1040.22H1281.53V1124.65H1366.96V1040.22Z" stroke="white" stroke-opacity="0.07" stroke-width="0.5"/>
<path d="M1452.4 1040.22H1366.96V1124.65H1452.4V1040.22Z" stroke="white" stroke-opacity="0.07" stroke-width="0.5"/>
<path d="M1537.83 1040.22H1452.4V1124.65H1537.83V1040.22Z" stroke="white" stroke-opacity="0.07" stroke-width="0.5"/>
<path d="M1623.27 1040.22H1537.83V1124.65H1623.27V1040.22Z" stroke="white" stroke-opacity="0.07" stroke-width="0.5"/>
<path d="M85.435 1124.66H0V1209.09H85.435V1124.66Z" stroke="white" stroke-opacity="0.07" stroke-width="0.5"/>
<path d="M170.87 1124.66H85.4351V1209.09H170.87V1124.66Z" stroke="white" stroke-opacity="0.07" stroke-width="0.5"/>
<path d="M256.305 1124.66H170.87V1209.09H256.305V1124.66Z" stroke="white" stroke-opacity="0.07" stroke-width="0.5"/>
<path d="M341.74 1124.66H256.305V1209.09H341.74V1124.66Z" stroke="white" stroke-opacity="0.07" stroke-width="0.5"/>
<path d="M427.175 1124.66H341.74V1209.09H427.175V1124.66Z" stroke="white" stroke-opacity="0.07" stroke-width="0.5"/>
<path d="M512.61 1124.66H427.175V1209.09H512.61V1124.66Z" stroke="white" stroke-opacity="0.07" stroke-width="0.5"/>
<path d="M598.045 1124.66H512.61V1209.09H598.045V1124.66Z" stroke="white" stroke-opacity="0.07" stroke-width="0.5"/>
<path d="M683.48 1124.66H598.045V1209.09H683.48V1124.66Z" stroke="white" stroke-opacity="0.07" stroke-width="0.5"/>
<path d="M768.916 1124.66H683.48V1209.09H768.916V1124.66Z" stroke="white" stroke-opacity="0.07" stroke-width="0.5"/>
<path d="M854.35 1124.66H768.915V1209.09H854.35V1124.66Z" stroke="white" stroke-opacity="0.07" stroke-width="0.5"/>
<path d="M939.786 1124.66H854.351V1209.09H939.786V1124.66Z" stroke="white" stroke-opacity="0.07" stroke-width="0.5"/>
<path d="M1025.22 1124.66H939.785V1209.09H1025.22V1124.66Z" stroke="white" stroke-opacity="0.07" stroke-width="0.5"/>
<path d="M1110.66 1124.66H1025.22V1209.09H1110.66V1124.66Z" stroke="white" stroke-opacity="0.07" stroke-width="0.5"/>
<path d="M1196.09 1124.66H1110.66V1209.09H1196.09V1124.66Z" stroke="white" stroke-opacity="0.07" stroke-width="0.5"/>
<path d="M1281.53 1124.66H1196.09V1209.09H1281.53V1124.66Z" stroke="white" stroke-opacity="0.07" stroke-width="0.5"/>
<path d="M1366.96 1124.66H1281.53V1209.09H1366.96V1124.66Z" stroke="white" stroke-opacity="0.07" stroke-width="0.5"/>
<path d="M1452.4 1124.66H1366.96V1209.09H1452.4V1124.66Z" stroke="white" stroke-opacity="0.07" stroke-width="0.5"/>
<path d="M1537.83 1124.66H1452.4V1209.09H1537.83V1124.66Z" stroke="white" stroke-opacity="0.07" stroke-width="0.5"/>
<path d="M1623.27 1124.66H1537.83V1209.09H1623.27V1124.66Z" stroke="white" stroke-opacity="0.07" stroke-width="0.5"/>
<path d="M85.435 1209.09H0V1293.52H85.435V1209.09Z" stroke="white" stroke-opacity="0.07" stroke-width="0.5"/>
<path d="M170.87 1209.09H85.4351V1293.52H170.87V1209.09Z" stroke="white" stroke-opacity="0.07" stroke-width="0.5"/>
<path d="M256.305 1209.09H170.87V1293.52H256.305V1209.09Z" stroke="white" stroke-opacity="0.07" stroke-width="0.5"/>
<path d="M341.74 1209.09H256.305V1293.52H341.74V1209.09Z" stroke="white" stroke-opacity="0.07" stroke-width="0.5"/>
<path d="M427.175 1209.09H341.74V1293.52H427.175V1209.09Z" stroke="white" stroke-opacity="0.07" stroke-width="0.5"/>
<path d="M512.61 1209.09H427.175V1293.52H512.61V1209.09Z" stroke="white" stroke-opacity="0.07" stroke-width="0.5"/>
<path d="M598.045 1209.09H512.61V1293.52H598.045V1209.09Z" stroke="white" stroke-opacity="0.07" stroke-width="0.5"/>
<path d="M683.48 1209.09H598.045V1293.52H683.48V1209.09Z" stroke="white" stroke-opacity="0.07" stroke-width="0.5"/>
<path d="M768.916 1209.09H683.48V1293.52H768.916V1209.09Z" stroke="white" stroke-opacity="0.07" stroke-width="0.5"/>
<path d="M854.35 1209.09H768.915V1293.52H854.35V1209.09Z" stroke="white" stroke-opacity="0.07" stroke-width="0.5"/>
<path d="M939.786 1209.09H854.351V1293.52H939.786V1209.09Z" stroke="white" stroke-opacity="0.07" stroke-width="0.5"/>
<path d="M1025.22 1209.09H939.785V1293.52H1025.22V1209.09Z" stroke="white" stroke-opacity="0.07" stroke-width="0.5"/>
<path d="M1110.66 1209.09H1025.22V1293.52H1110.66V1209.09Z" stroke="white" stroke-opacity="0.07" stroke-width="0.5"/>
<path d="M1196.09 1209.09H1110.66V1293.52H1196.09V1209.09Z" stroke="white" stroke-opacity="0.07" stroke-width="0.5"/>
<path d="M1281.53 1209.09H1196.09V1293.52H1281.53V1209.09Z" stroke="white" stroke-opacity="0.07" stroke-width="0.5"/>
<path d="M1366.96 1209.09H1281.53V1293.52H1366.96V1209.09Z" stroke="white" stroke-opacity="0.07" stroke-width="0.5"/>
<path d="M1452.4 1209.09H1366.96V1293.52H1452.4V1209.09Z" stroke="white" stroke-opacity="0.07" stroke-width="0.5"/>
<path d="M1537.83 1209.09H1452.4V1293.52H1537.83V1209.09Z" stroke="white" stroke-opacity="0.07" stroke-width="0.5"/>
<path d="M1623.27 1209.09H1537.83V1293.52H1623.27V1209.09Z" stroke="white" stroke-opacity="0.07" stroke-width="0.5"/>
<path d="M85.435 1293.52H0V1377.96H85.435V1293.52Z" stroke="white" stroke-opacity="0.07" stroke-width="0.5"/>
<path d="M170.87 1293.52H85.4351V1377.96H170.87V1293.52Z" stroke="white" stroke-opacity="0.07" stroke-width="0.5"/>
<path d="M256.305 1293.52H170.87V1377.96H256.305V1293.52Z" stroke="white" stroke-opacity="0.07" stroke-width="0.5"/>
<path d="M341.74 1293.52H256.305V1377.96H341.74V1293.52Z" stroke="white" stroke-opacity="0.07" stroke-width="0.5"/>
<path d="M427.175 1293.52H341.74V1377.96H427.175V1293.52Z" stroke="white" stroke-opacity="0.07" stroke-width="0.5"/>
<path d="M512.61 1293.52H427.175V1377.96H512.61V1293.52Z" stroke="white" stroke-opacity="0.07" stroke-width="0.5"/>
<path d="M598.045 1293.52H512.61V1377.96H598.045V1293.52Z" stroke="white" stroke-opacity="0.07" stroke-width="0.5"/>
<path d="M683.48 1293.52H598.045V1377.96H683.48V1293.52Z" stroke="white" stroke-opacity="0.07" stroke-width="0.5"/>
<path d="M768.916 1293.52H683.48V1377.96H768.916V1293.52Z" stroke="white" stroke-opacity="0.07" stroke-width="0.5"/>
<path d="M854.35 1293.52H768.915V1377.96H854.35V1293.52Z" stroke="white" stroke-opacity="0.07" stroke-width="0.5"/>
<path d="M939.786 1293.52H854.351V1377.96H939.786V1293.52Z" stroke="white" stroke-opacity="0.07" stroke-width="0.5"/>
<path d="M1025.22 1293.52H939.785V1377.96H1025.22V1293.52Z" stroke="white" stroke-opacity="0.07" stroke-width="0.5"/>
<path d="M1110.66 1293.52H1025.22V1377.96H1110.66V1293.52Z" stroke="white" stroke-opacity="0.07" stroke-width="0.5"/>
<path d="M1196.09 1293.52H1110.66V1377.96H1196.09V1293.52Z" stroke="white" stroke-opacity="0.07" stroke-width="0.5"/>
<path d="M1281.53 1293.52H1196.09V1377.96H1281.53V1293.52Z" stroke="white" stroke-opacity="0.07" stroke-width="0.5"/>
<path d="M1366.96 1293.52H1281.53V1377.96H1366.96V1293.52Z" stroke="white" stroke-opacity="0.07" stroke-width="0.5"/>
<path d="M1452.4 1293.52H1366.96V1377.96H1452.4V1293.52Z" stroke="white" stroke-opacity="0.07" stroke-width="0.5"/>
<path d="M1537.83 1293.52H1452.4V1377.96H1537.83V1293.52Z" stroke="white" stroke-opacity="0.07" stroke-width="0.5"/>
<path d="M1623.27 1293.52H1537.83V1377.96H1623.27V1293.52Z" stroke="white" stroke-opacity="0.07" stroke-width="0.5"/>
<path d="M85.435 1377.96H0V1462.39H85.435V1377.96Z" stroke="white" stroke-opacity="0.07" stroke-width="0.5"/>
<path d="M170.87 1377.96H85.4351V1462.39H170.87V1377.96Z" stroke="white" stroke-opacity="0.07" stroke-width="0.5"/>
<path d="M256.305 1377.96H170.87V1462.39H256.305V1377.96Z" stroke="white" stroke-opacity="0.07" stroke-width="0.5"/>
<path d="M341.74 1377.96H256.305V1462.39H341.74V1377.96Z" stroke="white" stroke-opacity="0.07" stroke-width="0.5"/>
<path d="M427.175 1377.96H341.74V1462.39H427.175V1377.96Z" stroke="white" stroke-opacity="0.07" stroke-width="0.5"/>
<path d="M512.61 1377.96H427.175V1462.39H512.61V1377.96Z" stroke="white" stroke-opacity="0.07" stroke-width="0.5"/>
<path d="M598.045 1377.96H512.61V1462.39H598.045V1377.96Z" stroke="white" stroke-opacity="0.07" stroke-width="0.5"/>
<path d="M683.48 1377.96H598.045V1462.39H683.48V1377.96Z" stroke="white" stroke-opacity="0.07" stroke-width="0.5"/>
<path d="M768.916 1377.96H683.48V1462.39H768.916V1377.96Z" stroke="white" stroke-opacity="0.07" stroke-width="0.5"/>
<path d="M854.35 1377.96H768.915V1462.39H854.35V1377.96Z" stroke="white" stroke-opacity="0.07" stroke-width="0.5"/>
<path d="M939.786 1377.96H854.351V1462.39H939.786V1377.96Z" stroke="white" stroke-opacity="0.07" stroke-width="0.5"/>
<path d="M1025.22 1377.96H939.785V1462.39H1025.22V1377.96Z" stroke="white" stroke-opacity="0.07" stroke-width="0.5"/>
<path d="M1110.66 1377.96H1025.22V1462.39H1110.66V1377.96Z" stroke="white" stroke-opacity="0.07" stroke-width="0.5"/>
<path d="M1196.09 1377.96H1110.66V1462.39H1196.09V1377.96Z" stroke="white" stroke-opacity="0.07" stroke-width="0.5"/>
<path d="M1281.53 1377.96H1196.09V1462.39H1281.53V1377.96Z" stroke="white" stroke-opacity="0.07" stroke-width="0.5"/>
<path d="M1366.96 1377.96H1281.53V1462.39H1366.96V1377.96Z" stroke="white" stroke-opacity="0.07" stroke-width="0.5"/>
<path d="M1452.4 1377.96H1366.96V1462.39H1452.4V1377.96Z" stroke="white" stroke-opacity="0.07" stroke-width="0.5"/>
<path d="M1537.83 1377.96H1452.4V1462.39H1537.83V1377.96Z" stroke="white" stroke-opacity="0.07" stroke-width="0.5"/>
<path d="M1623.27 1377.96H1537.83V1462.39H1623.27V1377.96Z" stroke="white" stroke-opacity="0.07" stroke-width="0.5"/>
<path d="M85.435 1462.39H0V1546.83H85.435V1462.39Z" stroke="white" stroke-opacity="0.07" stroke-width="0.5"/>
<path d="M170.87 1462.39H85.4351V1546.83H170.87V1462.39Z" stroke="white" stroke-opacity="0.07" stroke-width="0.5"/>
<path d="M256.305 1462.39H170.87V1546.83H256.305V1462.39Z" stroke="white" stroke-opacity="0.07" stroke-width="0.5"/>
<path d="M341.74 1462.39H256.305V1546.83H341.74V1462.39Z" stroke="white" stroke-opacity="0.07" stroke-width="0.5"/>
<path d="M427.175 1462.39H341.74V1546.83H427.175V1462.39Z" stroke="white" stroke-opacity="0.07" stroke-width="0.5"/>
<path d="M512.61 1462.39H427.175V1546.83H512.61V1462.39Z" stroke="white" stroke-opacity="0.07" stroke-width="0.5"/>
<path d="M598.045 1462.39H512.61V1546.83H598.045V1462.39Z" stroke="white" stroke-opacity="0.07" stroke-width="0.5"/>
<path d="M683.48 1462.39H598.045V1546.83H683.48V1462.39Z" stroke="white" stroke-opacity="0.07" stroke-width="0.5"/>
<path d="M768.916 1462.39H683.48V1546.83H768.916V1462.39Z" stroke="white" stroke-opacity="0.07" stroke-width="0.5"/>
<path d="M854.35 1462.39H768.915V1546.83H854.35V1462.39Z" stroke="white" stroke-opacity="0.07" stroke-width="0.5"/>
<path d="M939.786 1462.39H854.351V1546.83H939.786V1462.39Z" stroke="white" stroke-opacity="0.07" stroke-width="0.5"/>
<path d="M1025.22 1462.39H939.785V1546.83H1025.22V1462.39Z" stroke="white" stroke-opacity="0.07" stroke-width="0.5"/>
<path d="M1110.66 1462.39H1025.22V1546.83H1110.66V1462.39Z" stroke="white" stroke-opacity="0.07" stroke-width="0.5"/>
<path d="M1196.09 1462.39H1110.66V1546.83H1196.09V1462.39Z" stroke="white" stroke-opacity="0.07" stroke-width="0.5"/>
<path d="M1281.53 1462.39H1196.09V1546.83H1281.53V1462.39Z" stroke="white" stroke-opacity="0.07" stroke-width="0.5"/>
<path d="M1366.96 1462.39H1281.53V1546.83H1366.96V1462.39Z" stroke="white" stroke-opacity="0.07" stroke-width="0.5"/>
<path d="M1452.4 1462.39H1366.96V1546.83H1452.4V1462.39Z" stroke="white" stroke-opacity="0.07" stroke-width="0.5"/>
<path d="M1537.83 1462.39H1452.4V1546.83H1537.83V1462.39Z" stroke="white" stroke-opacity="0.07" stroke-width="0.5"/>
<path d="M1623.27 1462.39H1537.83V1546.83H1623.27V1462.39Z" stroke="white" stroke-opacity="0.07" stroke-width="0.5"/>
<path d="M85.435 1546.83H0V1631.26H85.435V1546.83Z" stroke="white" stroke-opacity="0.07" stroke-width="0.5"/>
<path d="M170.87 1546.83H85.4351V1631.26H170.87V1546.83Z" stroke="white" stroke-opacity="0.07" stroke-width="0.5"/>
<path d="M256.305 1546.83H170.87V1631.26H256.305V1546.83Z" stroke="white" stroke-opacity="0.07" stroke-width="0.5"/>
<path d="M341.74 1546.83H256.305V1631.26H341.74V1546.83Z" stroke="white" stroke-opacity="0.07" stroke-width="0.5"/>
<path d="M427.175 1546.83H341.74V1631.26H427.175V1546.83Z" stroke="white" stroke-opacity="0.07" stroke-width="0.5"/>
<path d="M512.61 1546.83H427.175V1631.26H512.61V1546.83Z" stroke="white" stroke-opacity="0.07" stroke-width="0.5"/>
<path d="M598.045 1546.83H512.61V1631.26H598.045V1546.83Z" stroke="white" stroke-opacity="0.07" stroke-width="0.5"/>
<path d="M683.48 1546.83H598.045V1631.26H683.48V1546.83Z" stroke="white" stroke-opacity="0.07" stroke-width="0.5"/>
<path d="M768.916 1546.83H683.48V1631.26H768.916V1546.83Z" stroke="white" stroke-opacity="0.07" stroke-width="0.5"/>
<path d="M854.35 1546.83H768.915V1631.26H854.35V1546.83Z" stroke="white" stroke-opacity="0.07" stroke-width="0.5"/>
<path d="M939.786 1546.83H854.351V1631.26H939.786V1546.83Z" stroke="white" stroke-opacity="0.07" stroke-width="0.5"/>
<path d="M1025.22 1546.83H939.785V1631.26H1025.22V1546.83Z" stroke="white" stroke-opacity="0.07" stroke-width="0.5"/>
<path d="M1110.66 1546.83H1025.22V1631.26H1110.66V1546.83Z" stroke="white" stroke-opacity="0.07" stroke-width="0.5"/>
<path d="M1196.09 1546.83H1110.66V1631.26H1196.09V1546.83Z" stroke="white" stroke-opacity="0.07" stroke-width="0.5"/>
<path d="M1281.53 1546.83H1196.09V1631.26H1281.53V1546.83Z" stroke="white" stroke-opacity="0.07" stroke-width="0.5"/>
<path d="M1366.96 1546.83H1281.53V1631.26H1366.96V1546.83Z" stroke="white" stroke-opacity="0.07" stroke-width="0.5"/>
<path d="M1452.4 1546.83H1366.96V1631.26H1452.4V1546.83Z" stroke="white" stroke-opacity="0.07" stroke-width="0.5"/>
<path d="M1537.83 1546.83H1452.4V1631.26H1537.83V1546.83Z" stroke="white" stroke-opacity="0.07" stroke-width="0.5"/>
<path d="M1623.27 1546.83H1537.83V1631.26H1623.27V1546.83Z" stroke="white" stroke-opacity="0.07" stroke-width="0.5"/>
</g>
<defs>
<linearGradient id="paint0_linear_289_3078" x1="42.7175" y1="111.444" x2="42.8027" y2="195.872" gradientUnits="userSpaceOnUse">
<stop stop-color="white" stop-opacity="0"/>
<stop offset="1" stop-color="white"/>
</linearGradient>
<linearGradient id="paint1_linear_289_3078" x1="213.588" y1="111.444" x2="213.588" y2="195.879" gradientUnits="userSpaceOnUse">
<stop stop-color="white" stop-opacity="0"/>
<stop offset="1" stop-color="white"/>
</linearGradient>
<linearGradient id="paint2_linear_289_3078" x1="299.023" y1="111.444" x2="299.023" y2="195.879" gradientUnits="userSpaceOnUse">
<stop stop-color="white" stop-opacity="0"/>
<stop offset="0.551032" stop-color="white"/>
</linearGradient>
<linearGradient id="paint3_linear_289_3078" x1="384.458" y1="111.444" x2="384.458" y2="195.879" gradientUnits="userSpaceOnUse">
<stop stop-color="white" stop-opacity="0"/>
<stop offset="1" stop-color="white"/>
</linearGradient>
<linearGradient id="paint4_linear_289_3078" x1="469.893" y1="111.444" x2="469.893" y2="195.879" gradientUnits="userSpaceOnUse">
<stop stop-color="white" stop-opacity="0"/>
<stop offset="1" stop-color="white"/>
</linearGradient>
<linearGradient id="paint5_linear_289_3078" x1="555.328" y1="111.444" x2="555.328" y2="195.879" gradientUnits="userSpaceOnUse">
<stop stop-color="white" stop-opacity="0"/>
<stop offset="1" stop-color="white"/>
</linearGradient>
<linearGradient id="paint6_linear_289_3078" x1="640.763" y1="111.444" x2="640.763" y2="195.879" gradientUnits="userSpaceOnUse">
<stop stop-color="white" stop-opacity="0"/>
<stop offset="1" stop-color="white"/>
</linearGradient>
<linearGradient id="paint7_linear_289_3078" x1="726.198" y1="111.444" x2="726.198" y2="195.879" gradientUnits="userSpaceOnUse">
<stop stop-color="white" stop-opacity="0"/>
<stop offset="1" stop-color="white"/>
</linearGradient>
<linearGradient id="paint8_linear_289_3078" x1="811.633" y1="111.444" x2="811.633" y2="195.879" gradientUnits="userSpaceOnUse">
<stop stop-color="white" stop-opacity="0"/>
<stop offset="1" stop-color="white"/>
</linearGradient>
<linearGradient id="paint9_linear_289_3078" x1="897.068" y1="111.444" x2="897.068" y2="195.879" gradientUnits="userSpaceOnUse">
<stop stop-color="white" stop-opacity="0"/>
<stop offset="1" stop-color="white"/>
</linearGradient>
<linearGradient id="paint10_linear_289_3078" x1="982.503" y1="111.444" x2="982.503" y2="195.879" gradientUnits="userSpaceOnUse">
<stop stop-color="white" stop-opacity="0"/>
<stop offset="1" stop-color="white"/>
</linearGradient>
<linearGradient id="paint11_linear_289_3078" x1="1067.94" y1="111.444" x2="1067.94" y2="195.879" gradientUnits="userSpaceOnUse">
<stop stop-color="white" stop-opacity="0"/>
<stop offset="1" stop-color="white"/>
</linearGradient>
<linearGradient id="paint12_linear_289_3078" x1="1153.37" y1="111.444" x2="1153.37" y2="195.879" gradientUnits="userSpaceOnUse">
<stop stop-color="white" stop-opacity="0"/>
<stop offset="1" stop-color="white"/>
</linearGradient>
<linearGradient id="paint13_linear_289_3078" x1="1238.81" y1="111.444" x2="1238.81" y2="195.879" gradientUnits="userSpaceOnUse">
<stop stop-color="white" stop-opacity="0"/>
<stop offset="1" stop-color="white"/>
</linearGradient>
<linearGradient id="paint14_linear_289_3078" x1="1324.24" y1="111.444" x2="1324.24" y2="195.879" gradientUnits="userSpaceOnUse">
<stop stop-color="white" stop-opacity="0"/>
<stop offset="1" stop-color="white"/>
</linearGradient>
<linearGradient id="paint15_linear_289_3078" x1="1409.68" y1="111.444" x2="1409.68" y2="195.879" gradientUnits="userSpaceOnUse">
<stop stop-color="white" stop-opacity="0"/>
<stop offset="1" stop-color="white"/>
</linearGradient>
<linearGradient id="paint16_linear_289_3078" x1="1495.11" y1="111.444" x2="1495.11" y2="195.879" gradientUnits="userSpaceOnUse">
<stop stop-color="white" stop-opacity="0"/>
<stop offset="1" stop-color="white"/>
</linearGradient>
<linearGradient id="paint17_linear_289_3078" x1="1580.55" y1="111.444" x2="1580.55" y2="195.879" gradientUnits="userSpaceOnUse">
<stop stop-color="white" stop-opacity="0"/>
<stop offset="1" stop-color="white"/>
</linearGradient>
<clipPath id="clip0_289_3078">
<rect width="1622" height="1603" fill="white"/>
</clipPath>
</defs>
</svg>
