<svg width="38" height="32" viewBox="0 0 38 32" fill="none" xmlns="http://www.w3.org/2000/svg">
<g clip-path="url(#clip0_246_6626)">
<path d="M19.9969 6.43796L14.3281 25.7763C14.3007 25.8746 14.2556 25.9666 14.1954 26.0475L13.7295 27.9675C13.1387 30.6007 11.9076 31.9159 10.0258 31.9159C8.14403 31.9159 6.86868 30.6468 6.15293 28.1437L0.426905 7.96746C0.301974 7.61763 0.301974 7.26779 0.166631 6.96135C0.0540207 6.41068 0.00249566 5.84835 0.0130698 5.28542C0.0130698 3.38712 0.684576 1.86576 2.54033 1.33966C2.88975 1.20519 3.26132 1.14435 3.63348 1.16068C5.3617 1.16068 6.53814 2.51661 7.20964 5.24474L9.95553 16.4963L13.6931 3.78034L13.7607 3.8183C13.9333 3.90469 14.1212 3.95271 14.3125 3.95932H14.375L12.1757 11.4549L12.6494 13.0495L13.9117 8.75118C14.0122 8.80004 14.121 8.82769 14.2318 8.83254H14.2657L12.8446 13.6895L13.3833 15.4929L15.7258 7.46305C15.8989 7.55354 16.0892 7.60264 16.2828 7.60678H16.3453L13.7009 16.602L14.3412 18.7525L16.6081 11.0319C16.6887 11.0752 16.7778 11.0984 16.8684 11.0997H16.8944C16.8957 11.1123 16.8957 11.125 16.8944 11.1376L14.4921 19.3003L15.0257 21.082L19.3644 6.31322C19.5369 6.40238 19.7263 6.45054 19.9188 6.45424L19.9969 6.43796Z" fill="white"/>
<path d="M31.0585 2.8556H31.1183C31.4581 2.85484 31.7841 2.71567 32.0267 2.46781C32.2932 2.20948 32.4505 1.85155 32.464 1.47255C32.4715 1.28609 32.4435 1.09992 32.3814 0.924862C32.3193 0.749809 32.2243 0.589373 32.1022 0.452893C31.9839 0.31477 31.8398 0.203335 31.6787 0.125448C31.5175 0.0475613 31.3428 0.00487206 31.1652 1.17973e-05C30.809 -0.00505619 30.4647 0.133946 30.2048 0.387809C30.0308 0.560079 29.9018 0.775668 29.83 1.01425C29.7964 1.13446 29.7754 1.25813 29.7675 1.38306C29.7593 1.57082 29.7871 1.75841 29.8492 1.93487C29.9113 2.11134 30.0065 2.27315 30.1293 2.41086C30.2371 2.53662 30.3669 2.63972 30.5119 2.71459C30.6824 2.80146 30.8687 2.84953 31.0585 2.8556ZM30.5822 1.95256C30.4502 1.80265 30.3806 1.60446 30.3884 1.40124C30.3962 1.19801 30.4808 1.00625 30.6238 0.86781C30.6933 0.799459 30.7751 0.746068 30.8644 0.710701C30.9537 0.675334 31.0489 0.658685 31.1444 0.661707C31.2389 0.664652 31.3319 0.687008 31.4181 0.727495C31.5043 0.767982 31.582 0.825803 31.6467 0.89764C31.7754 1.04595 31.8443 1.24016 31.8393 1.44001C31.838 1.50722 31.8275 1.57389 31.8081 1.63798C31.7702 1.76478 31.7022 1.87954 31.6103 1.97154C31.4699 2.10981 31.2828 2.18483 31.0897 2.18035C30.9945 2.18173 30.9001 2.16215 30.8126 2.12289C30.7251 2.08364 30.6466 2.0256 30.5822 1.95256Z" fill="white"/>
<path d="M26.3006 16.7675L30.504 2.45424C30.5139 2.40391 30.5337 2.35627 30.5623 2.31439C30.5909 2.27251 30.6275 2.23731 30.6699 2.21104C30.7122 2.18477 30.7594 2.16801 30.8084 2.16185C30.8573 2.15568 30.907 2.16024 30.9541 2.17522C31.0013 2.19021 31.0449 2.2153 31.0822 2.24889C31.1196 2.28247 31.1497 2.3238 31.1708 2.37024C31.1919 2.41668 31.2035 2.4672 31.2047 2.51855C31.206 2.56991 31.1969 2.62098 31.1781 2.66848L26.9747 16.9817C26.9649 17.032 26.945 17.0797 26.9165 17.1216C26.8879 17.1634 26.8513 17.1986 26.8089 17.2249C26.7665 17.2512 26.7193 17.2679 26.6704 17.2741C26.6214 17.2803 26.5718 17.2757 26.5246 17.2607C26.4775 17.2457 26.4338 17.2206 26.3965 17.1871C26.3592 17.1535 26.329 17.1121 26.3079 17.0657C26.2868 17.0193 26.2753 16.9688 26.274 16.9174C26.2728 16.866 26.2818 16.815 26.3006 16.7675Z" fill="white"/>
<path d="M33.0394 6.50034H33.0993C33.4378 6.4996 33.7627 6.36147 34.005 6.11526C34.271 5.85804 34.4281 5.50133 34.4417 5.12352C34.4554 4.7457 34.3245 4.37769 34.0779 4.10034C33.96 3.96255 33.8162 3.8513 33.6556 3.77343C33.4949 3.69555 33.3207 3.65269 33.1435 3.64746C32.7865 3.63717 32.4395 3.77129 32.1753 4.0217C32.0021 4.19413 31.874 4.40974 31.8031 4.64814C31.7685 4.7681 31.7475 4.89189 31.7406 5.01695C31.7325 5.20448 31.7601 5.39183 31.8217 5.56823C31.8834 5.74462 31.9779 5.90656 32.0998 6.04475C32.2087 6.16929 32.3383 6.2722 32.4824 6.34848C32.6551 6.4412 32.8453 6.49305 33.0394 6.50034ZM32.5631 5.59729C32.466 5.48673 32.4021 5.34897 32.3793 5.20101C32.3565 5.05305 32.3757 4.90136 32.4347 4.76467C32.4937 4.62798 32.5897 4.51227 32.7111 4.4318C32.8324 4.35134 32.9737 4.30964 33.1175 4.31187C33.2119 4.31477 33.3048 4.33739 33.3906 4.37838C33.4764 4.41937 33.5535 4.47791 33.6172 4.55051C33.7485 4.69733 33.8187 4.89232 33.8124 5.09289C33.8092 5.1601 33.7978 5.22662 33.7786 5.29085C33.7427 5.41793 33.6754 5.53295 33.5834 5.62441C33.4424 5.76194 33.256 5.83768 33.0628 5.83594C32.9682 5.8343 32.875 5.81225 32.789 5.77118C32.703 5.7301 32.6261 5.6709 32.5631 5.59729Z" fill="white"/>
<path d="M28.7863 18.9369L32.5681 6.0637C32.5766 6.01864 32.5942 5.97595 32.6196 5.93842C32.6451 5.90088 32.6778 5.86932 32.7157 5.84579C32.7535 5.82226 32.7957 5.80728 32.8395 5.80182C32.8833 5.79636 32.9277 5.80055 32.9698 5.8141C33.012 5.82765 33.0509 5.85027 33.0841 5.8805C33.1173 5.91072 33.1441 5.94788 33.1626 5.98956C33.1812 6.03124 33.1911 6.07651 33.1918 6.12245C33.1925 6.16839 33.184 6.21397 33.1667 6.25624L29.3875 19.1295C29.3771 19.1727 29.3584 19.2132 29.3325 19.2486C29.3065 19.2841 29.274 19.3136 29.2367 19.3355C29.1995 19.3574 29.1584 19.3711 29.1159 19.3759C29.0734 19.3807 29.0304 19.3764 28.9895 19.3633C28.9486 19.3503 28.9108 19.3286 28.8782 19.2998C28.8456 19.271 28.819 19.2355 28.8 19.1956C28.7809 19.1557 28.7699 19.1122 28.7676 19.0677C28.7652 19.0233 28.7716 18.9788 28.7863 18.9369Z" fill="white"/>
<path d="M33.6376 9.98778H33.6662C33.8308 9.9885 33.989 9.92121 34.1061 9.80066C34.1699 9.73911 34.2214 9.66501 34.2576 9.58263C34.2938 9.50024 34.3139 9.41121 34.3169 9.32066C34.3207 9.23023 34.3069 9.13994 34.2765 9.05515C34.2461 8.97036 34.1997 8.89281 34.1399 8.8271C34.0831 8.75986 34.0135 8.70563 33.9356 8.66782C33.8576 8.63001 33.773 8.60945 33.687 8.60744C33.5141 8.60308 33.3465 8.67037 33.2212 8.79456C33.1368 8.87815 33.0741 8.98264 33.039 9.09829C33.0223 9.15657 33.0118 9.21659 33.0077 9.27727C33.0016 9.46004 33.0642 9.63808 33.1821 9.77354C33.2344 9.83506 33.2982 9.88488 33.3695 9.91998C33.453 9.96294 33.5445 9.98609 33.6376 9.98778ZM33.406 9.54845C33.3432 9.47617 33.3102 9.38108 33.3141 9.28367C33.3179 9.18627 33.3584 9.09436 33.4268 9.02778C33.4611 8.99311 33.5019 8.96628 33.5468 8.94901C33.5916 8.93173 33.6394 8.92438 33.687 8.92744C33.7327 8.92843 33.7777 8.93903 33.8192 8.95861C33.8608 8.97818 33.8982 9.00632 33.9291 9.04134C33.993 9.1134 34.027 9.20889 34.0236 9.30694C34.0201 9.405 33.9796 9.49767 33.9109 9.56473C33.8766 9.59961 33.8358 9.62676 33.791 9.64449C33.7463 9.66222 33.6985 9.67014 33.6506 9.66778C33.6036 9.66664 33.5574 9.6549 33.5151 9.63336C33.4729 9.61183 33.4357 9.58101 33.406 9.54303V9.54845Z" fill="white"/>
<path d="M29.8377 21.939L33.367 9.92543C33.4165 9.75187 33.5232 9.63526 33.6039 9.65424C33.6845 9.67323 33.708 9.84136 33.6559 10.0122L30.1292 22.0258C30.0771 22.1966 29.9704 22.3159 29.8924 22.297C29.8143 22.278 29.7882 22.1098 29.8377 21.939Z" fill="white"/>
<path d="M30.7617 8.37963H30.793C30.9567 8.37964 31.1138 8.3124 31.2302 8.19251C31.3585 8.06762 31.4344 7.895 31.4412 7.71218C31.448 7.52937 31.3853 7.35114 31.2667 7.21624C31.209 7.15025 31.1392 7.09702 31.0614 7.05975C30.9836 7.02248 30.8994 7.00192 30.8138 6.99929C30.7277 6.99677 30.642 7.01201 30.5616 7.04412C30.4812 7.07623 30.4077 7.12459 30.3453 7.18641C30.2609 7.27001 30.1983 7.3745 30.1631 7.49014C30.1483 7.54876 30.1387 7.60867 30.1345 7.66912C30.1305 7.75976 30.1438 7.85033 30.1738 7.93553C30.2037 8.02074 30.2496 8.09888 30.3089 8.16539C30.3615 8.22544 30.4241 8.27506 30.4937 8.31183C30.5772 8.35463 30.6687 8.37777 30.7617 8.37963ZM30.5327 7.94302C30.4693 7.87106 30.4358 7.77581 30.4397 7.67819C30.4437 7.58057 30.4846 7.48856 30.5535 7.42234C30.5855 7.38856 30.6236 7.36174 30.6656 7.34343C30.7076 7.32512 30.7527 7.31569 30.7982 7.31569C30.8437 7.31569 30.8888 7.32512 30.9308 7.34343C30.9728 7.36174 31.0109 7.38856 31.0428 7.42234C31.0756 7.45831 31.1009 7.50099 31.117 7.54768C31.1332 7.59436 31.1398 7.64403 31.1365 7.69353C31.1368 7.72588 31.1315 7.75803 31.1209 7.78844C31.1038 7.85027 31.0715 7.90636 31.0272 7.95115C30.9562 8.01881 30.8631 8.05568 30.767 8.05421C30.6779 8.05046 30.5938 8.01055 30.5327 7.94302Z" fill="white"/>
<path d="M27.7897 17.5268L30.5122 8.2549C30.5512 8.11931 30.6475 8.03253 30.7282 8.05965C30.8089 8.08676 30.8427 8.21422 30.8037 8.3471L28.0786 17.619C28.0396 17.7518 27.9433 17.8386 27.8626 17.8142C27.7819 17.7898 27.7507 17.6596 27.7897 17.5268Z" fill="white"/>
<path d="M36.6829 5.33695H36.7427C37.0812 5.33621 37.4061 5.19808 37.6485 4.95187C37.915 4.69355 38.0723 4.33561 38.0858 3.95662C38.0934 3.76991 38.0652 3.5835 38.0026 3.40837C37.94 3.23325 37.8444 3.07295 37.7214 2.93695C37.6034 2.79916 37.4597 2.68791 37.299 2.61004C37.1384 2.53216 36.9641 2.4893 36.787 2.48407C36.428 2.4763 36.0803 2.61554 35.8188 2.87187C35.645 3.04384 35.5168 3.25961 35.4466 3.49831C35.4117 3.61822 35.3908 3.74203 35.3841 3.86712C35.3683 4.24579 35.4975 4.6155 35.7433 4.89492C35.8526 5.01935 35.9832 5.12144 36.1285 5.19594C36.3014 5.28386 36.4905 5.33195 36.6829 5.33695ZM36.2066 4.4339C36.0746 4.284 36.005 4.08581 36.0128 3.88259C36.0206 3.67936 36.1052 3.4876 36.2482 3.34916C36.3164 3.28105 36.397 3.22774 36.4851 3.19233C36.5733 3.15692 36.6673 3.14012 36.7617 3.14289C36.8562 3.14567 36.9492 3.16797 37.0353 3.2085C37.1214 3.24903 37.1989 3.30698 37.2633 3.37899C37.3924 3.527 37.4615 3.72141 37.4559 3.92136C37.4527 3.98947 37.4414 4.05689 37.4221 4.12204C37.3861 4.24911 37.3188 4.36413 37.2269 4.4556C37.0863 4.59361 36.8994 4.6686 36.7063 4.66441C36.6122 4.66447 36.5191 4.64399 36.433 4.60429C36.3469 4.56459 36.2698 4.50655 36.2066 4.4339Z" fill="white"/>
<path d="M30.4648 24.4827L36.1622 5.07932C36.2429 4.80814 36.4433 4.61831 36.6099 4.67255C36.7765 4.72678 36.8442 4.99254 36.7609 5.27187L31.0635 24.6725C30.9828 24.9437 30.7824 25.1336 30.6158 25.082C30.4492 25.0305 30.3816 24.7593 30.4648 24.4827Z" fill="white"/>
<path d="M27.4173 12.8922C26.2227 16.96 25.0072 21.0766 24.9864 21.0766C24.7382 21.916 24.2343 22.6482 23.551 23.1625C22.8677 23.6768 22.0421 23.9451 21.1994 23.9268C20.2187 23.9121 19.2648 23.5909 18.4613 23.0047L19.8095 27.2163C20.8194 30.3295 22.5476 31.9078 25.028 31.9078C27.5084 31.9078 29.2367 30.3295 30.2491 27.2163L30.9987 24.8786L27.4173 12.8922ZM21.9958 10.6793L20.3561 5.06576C19.8095 3.31118 18.883 1.12 16.7331 1.12C14.5832 1.12 13.2012 3.0183 13.2012 5.15525V5.9444C13.303 6.76955 13.4996 7.57896 13.7868 8.35525L17.5764 20.2875C18.0813 21.8658 19.2187 22.6115 20.3561 22.6115C22.8834 22.6115 23.724 19.8997 24.0598 17.7302C23.724 16.7675 22.9172 13.619 21.9958 10.6793Z" fill="white"/>
</g>
<defs>
<clipPath id="clip0_246_6626">
<rect width="38" height="32" fill="white"/>
</clipPath>
</defs>
</svg>
