<svg width="49" height="48" viewBox="0 0 49 48" fill="none" xmlns="http://www.w3.org/2000/svg">
<g clip-path="url(#clip0_251_13700)">
<path d="M20.3151 24L30.2082 15.9233L30.2085 15.9231C30.4651 15.7133 30.6775 15.4556 30.8334 15.1643C30.9892 14.8729 31.0851 14.5539 31.1154 14.2254C31.1456 13.8969 31.1094 13.5659 31.0091 13.2515C30.9089 12.937 30.7465 12.6456 30.5319 12.3937C30.3173 12.1419 30.0547 11.9345 29.7594 11.7829C29.4642 11.6314 29.1418 11.5385 28.8106 11.5093C28.4795 11.4801 28.1456 11.515 27.828 11.6122C27.5104 11.7094 27.2149 11.8671 26.9584 12.0767L20.3151 24ZM20.3151 24L30.2082 32.0767L30.2085 32.0769C30.4651 32.2867 30.6775 32.5444 30.8334 32.8357C30.9892 33.1271 31.0851 33.4461 31.1154 33.7746C31.1456 34.1031 31.1094 34.4341 31.0091 34.7485C30.9089 35.063 30.7465 35.3544 30.5319 35.6063C30.3173 35.8581 30.0547 36.0655 29.7594 36.2171C29.4642 36.3686 29.1418 36.4614 28.8106 36.4907C28.4795 36.5199 28.1456 36.485 27.828 36.3878C27.5104 36.2906 27.2149 36.1329 26.9584 35.9233L20.3151 24ZM26.9581 12.0769L14.7084 22.0767L14.7083 22.0768C14.422 22.3106 14.1909 22.604 14.032 22.9364C13.8731 23.2689 13.7905 23.632 13.7905 24C13.7905 24.368 13.8731 24.7311 14.032 25.0636C14.1909 25.396 14.422 25.6893 14.7083 25.9232L14.7084 25.9233L26.9581 35.9231L26.9581 12.0769ZM37.8376 43.5369C33.8906 46.1204 29.2491 47.5 24.5002 47.5C18.1333 47.4948 12.0307 45.0147 7.53173 40.6075C3.03303 36.2006 0.50528 30.2273 0.499985 23.9996C0.500069 19.3542 1.90628 14.8123 4.54204 10.9481C7.17797 7.08361 10.9256 4.07011 15.3122 2.2902C19.6989 0.51025 24.5265 0.0443802 29.1841 0.95192C33.8416 1.85945 38.1184 4.09928 41.4742 7.38661C44.8299 10.6738 47.114 14.8608 48.0392 19.4173C48.9645 23.9738 48.4897 28.6969 46.6745 32.9897C44.8593 37.2826 41.7846 40.9535 37.8376 43.5369Z" fill="white" stroke="#C5C5C5"/>
</g>
<defs>
<clipPath id="clip0_251_13700">
<rect width="49" height="48" fill="white" transform="matrix(-1 0 0 -1 49 48)"/>
</clipPath>
</defs>
</svg>
