<svg width="786" height="29" viewBox="0 0 786 29" fill="none" xmlns="http://www.w3.org/2000/svg">
<g clip-path="url(#clip0_242_1886)">
<path d="M772.011 0.924866C769.309 0.924866 766.668 1.72607 764.421 3.22716C762.174 4.72826 760.423 6.86182 759.389 9.35804C758.356 11.8543 758.085 14.601 758.612 17.251C759.139 19.901 760.44 22.3352 762.351 24.2457C764.261 26.1562 766.696 27.4573 769.346 27.9844C771.995 28.5115 774.742 28.241 777.238 27.207C779.735 26.1731 781.868 24.4221 783.369 22.1756C784.87 19.929 785.672 17.2878 785.672 14.5859C785.669 10.9637 784.228 7.4907 781.667 4.92942C779.106 2.36813 775.633 0.92788 772.011 0.924866ZM777.294 15.4602L770.464 21.1523C770.349 21.2481 770.216 21.3204 770.073 21.365C769.931 21.4096 769.781 21.4256 769.632 21.4122C769.483 21.3988 769.338 21.3562 769.205 21.2867C769.073 21.2173 768.955 21.1225 768.859 21.0077C768.764 20.8929 768.691 20.7603 768.647 20.6176C768.602 20.4748 768.586 20.3247 768.6 20.1758C768.613 20.0268 768.656 19.882 768.725 19.7495C768.794 19.617 768.889 19.4995 769.004 19.4037L774.785 14.5859L769.004 9.7681C768.889 9.67227 768.794 9.55477 768.725 9.4223C768.656 9.28982 768.613 9.14498 768.6 8.99603C768.586 8.84708 768.602 8.69695 768.647 8.5542C768.691 8.41145 768.764 8.27889 768.859 8.16407C768.955 8.04926 769.073 7.95444 769.205 7.88504C769.338 7.81563 769.483 7.773 769.632 7.75958C769.781 7.74615 769.931 7.76219 770.073 7.80679C770.216 7.85139 770.349 7.92366 770.464 8.01949L777.294 13.7116C777.422 13.8184 777.525 13.9521 777.596 14.1032C777.667 14.2543 777.703 14.4191 777.703 14.5859C777.703 14.7527 777.667 14.9175 777.596 15.0686C777.525 15.2197 777.422 15.3534 777.294 15.4602Z" fill="white"/>
</g>
<g clip-path="url(#clip1_242_1886)">
<path d="M14.3229 28.9134C17.0247 28.9134 19.666 28.1122 21.9125 26.6111C24.1591 25.11 25.91 22.9764 26.944 20.4802C27.978 17.984 28.2485 15.2372 27.7214 12.5872C27.1943 9.93725 25.8932 7.50309 23.9827 5.59256C22.0721 3.68203 19.638 2.38095 16.988 1.85383C14.338 1.32672 11.5912 1.59725 9.095 2.63123C6.59878 3.6652 4.46522 5.41616 2.96413 7.66271C1.46303 9.90925 0.661828 12.5505 0.661828 15.2524C0.664841 18.8746 2.10509 22.3476 4.66638 24.9088C7.22766 27.4701 10.7006 28.9104 14.3229 28.9134ZM9.03945 14.3781L15.87 8.68597C15.9848 8.59014 16.1173 8.51786 16.2601 8.47327C16.4028 8.42867 16.553 8.41263 16.7019 8.42605C16.8509 8.43948 16.9957 8.48211 17.1282 8.55151C17.2607 8.62091 17.3782 8.71573 17.474 8.83054C17.5698 8.94536 17.6421 9.07793 17.6867 9.22068C17.7313 9.36342 17.7473 9.51356 17.7339 9.6625C17.7205 9.81145 17.6779 9.9563 17.6085 10.0888C17.539 10.2212 17.4442 10.3387 17.3294 10.4346L11.5485 15.2524L17.3294 20.0702C17.4442 20.166 17.539 20.2835 17.6085 20.416C17.6779 20.5484 17.7205 20.6933 17.7339 20.8422C17.7473 20.9912 17.7313 21.1413 17.6867 21.2841C17.6421 21.4268 17.5698 21.5594 17.474 21.6742C17.3782 21.789 17.2607 21.8838 17.1282 21.9532C16.9957 22.0226 16.8509 22.0653 16.7019 22.0787C16.553 22.0921 16.4028 22.0761 16.2601 22.0315C16.1173 21.9869 15.9848 21.9146 15.87 21.8188L9.03945 16.1267C8.91133 16.0198 8.80826 15.8861 8.73753 15.7351C8.6668 15.584 8.63013 15.4192 8.63013 15.2524C8.63013 15.0855 8.6668 14.9208 8.73753 14.7697C8.80826 14.6186 8.91133 14.4849 9.03945 14.3781Z" fill="white"/>
</g>
<defs>
<clipPath id="clip0_242_1886">
<rect width="27.3221" height="27.3221" fill="white" transform="translate(758.349 0.924866)"/>
</clipPath>
<clipPath id="clip1_242_1886">
<rect width="27.322" height="27.322" fill="white" transform="matrix(-1 0 0 -1 27.9839 28.9134)"/>
</clipPath>
</defs>
</svg>
