<svg width="112" height="31" viewBox="0 0 112 31" fill="none" xmlns="http://www.w3.org/2000/svg">
<g opacity="0.7">
<path d="M97.0038 0.893799H96.9963C88.7256 0.893799 82 7.6213 82 15.8938C81.9949 19.0532 82.995 22.1323 84.8556 24.6857L82.9863 30.2582L88.7519 28.4151C91.1976 30.0376 94.0688 30.9001 97.0038 30.8938C105.274 30.8938 112 24.1644 112 15.8938C112 7.62317 105.274 0.893799 97.0038 0.893799ZM105.732 22.0757C105.37 23.0975 103.934 23.945 102.788 24.1925C102.004 24.3594 100.981 24.4925 97.5344 23.0638C93.1263 21.2375 90.2875 16.7582 90.0663 16.4675C89.8544 16.1769 88.285 14.0957 88.285 11.9432C88.285 9.79067 89.3781 8.74255 89.8188 8.29255C90.1806 7.92317 90.7788 7.75442 91.3525 7.75442C91.5381 7.75442 91.705 7.7638 91.855 7.7713C92.2956 7.79005 92.5169 7.8163 92.8075 8.51192C93.1694 9.3838 94.0506 11.5363 94.1556 11.7575C94.2625 11.9788 94.3694 12.2788 94.2194 12.5694C94.0788 12.8694 93.955 13.0025 93.7338 13.2575C93.5125 13.5125 93.3025 13.7075 93.0813 13.9813C92.8788 14.2194 92.65 14.4744 92.905 14.915C93.16 15.3463 94.0413 16.7844 95.3388 17.9394C97.0131 19.43 98.3706 19.9063 98.8563 20.1088C99.2181 20.2588 99.6494 20.2232 99.9138 19.9419C100.249 19.58 100.664 18.98 101.086 18.3894C101.386 17.9657 101.764 17.9132 102.162 18.0632C102.567 18.2038 104.71 19.2632 105.151 19.4825C105.591 19.7038 105.882 19.8088 105.989 19.9944C106.094 20.18 106.094 21.0519 105.732 22.0757Z" fill="white"/>
<path d="M16.4944 14.1629H16.5174V14.1268L16.4944 14.1629ZM16.4944 14.1629H16.5174V14.1268L16.4944 14.1629ZM16.4944 14.1629H16.5174V14.1268L16.4944 14.1629ZM16.4944 14.1629H16.5174V14.1268L16.4944 14.1629ZM16.4944 14.1629H16.5174V14.1268L16.4944 14.1629ZM16.4944 14.1629H16.5174V14.1268L16.4944 14.1629ZM16.4944 14.1629H16.5174V14.1268L16.4944 14.1629ZM16.4944 14.1629H16.5174V14.1268L16.4944 14.1629ZM16.4944 14.1629H16.5174V14.1268L16.4944 14.1629ZM16.4944 14.1629H16.5174V14.1268L16.4944 14.1629ZM16.4944 14.1629H16.5174V14.1268L16.4944 14.1629ZM16.4944 14.1629H16.5174V14.1268L16.4944 14.1629ZM16.4944 14.1629H16.5174V14.1268L16.4944 14.1629ZM16.4944 14.1629H16.5174V14.1268L16.4944 14.1629ZM16.4944 14.1629H16.5174V14.1268L16.4944 14.1629ZM16.4944 14.1629H16.5174V14.1268L16.4944 14.1629ZM15 0.893799C12.0333 0.893799 9.13319 1.77353 6.66645 3.42175C4.19972 5.06997 2.27713 7.41265 1.14181 10.1535C0.00649913 12.8944 -0.290551 15.9104 0.288228 18.8202C0.867006 21.7299 2.29562 24.4026 4.3934 26.5004C6.49119 28.5982 9.16393 30.0268 12.0736 30.6056C14.9834 31.1843 17.9994 30.8873 20.7403 29.752C23.4811 28.6167 25.8238 26.6941 27.472 24.2273C29.1203 21.7606 30 18.8605 30 15.8938C29.9957 11.9169 28.4139 8.1041 25.6018 5.292C22.7897 2.47989 18.9769 0.898146 15 0.893799ZM11.2492 22.6466C11.2483 22.7131 11.2213 22.7766 11.174 22.8233C11.1266 22.87 11.0628 22.8962 10.9963 22.8962H8.10598C8.03978 22.8962 7.97629 22.8699 7.92948 22.8231C7.88266 22.7763 7.85637 22.7128 7.85637 22.6466V12.9345C7.85593 12.9015 7.86207 12.8687 7.87442 12.838C7.88677 12.8073 7.90508 12.7794 7.92831 12.7559C7.95153 12.7324 7.97919 12.7137 8.00969 12.7009C8.04019 12.6882 8.07292 12.6816 8.10598 12.6816H10.9963C11.0295 12.6816 11.0624 12.6882 11.0931 12.7009C11.1237 12.7136 11.1516 12.7322 11.1751 12.7557C11.1986 12.7792 11.2172 12.8071 11.2299 12.8377C11.2426 12.8684 11.2492 12.9013 11.2492 12.9345V22.6466ZM9.44932 11.3843C9.09009 11.3843 8.73892 11.2777 8.44024 11.0782C8.14155 10.8786 7.90875 10.5949 7.77128 10.263C7.63381 9.93116 7.59784 9.56597 7.66792 9.21364C7.73801 8.86132 7.91099 8.53768 8.165 8.28367C8.41902 8.02966 8.74265 7.85667 9.09497 7.78659C9.4473 7.71651 9.8125 7.75248 10.1444 7.88995C10.4763 8.02742 10.7599 8.26022 10.9595 8.5589C11.1591 8.85759 11.2656 9.20875 11.2656 9.56798C11.266 9.80662 11.2194 10.043 11.1282 10.2636C11.0371 10.4841 10.9033 10.6845 10.7346 10.8533C10.5658 11.022 10.3654 11.1558 10.1449 11.2469C9.92433 11.338 9.68796 11.3847 9.44932 11.3843ZM23.4804 22.6466C23.4795 22.7131 23.4525 22.7766 23.4052 22.8233C23.3578 22.87 23.294 22.8962 23.2275 22.8962H20.3372C20.3044 22.8962 20.272 22.8897 20.2417 22.8772C20.2114 22.8647 20.1839 22.8463 20.1607 22.8231C20.1375 22.7999 20.1191 22.7724 20.1066 22.7421C20.094 22.7118 20.0876 22.6794 20.0876 22.6466V17.4276C20.0876 16.0547 19.5982 15.1285 18.3698 15.1285C17.9871 15.1307 17.6143 15.2511 17.3027 15.4734C16.991 15.6956 16.7558 16.0088 16.6291 16.37C16.5425 16.637 16.5047 16.9174 16.5174 17.1977V22.6466C16.5174 22.7137 16.4908 22.778 16.4433 22.8254C16.3959 22.8728 16.3316 22.8995 16.2645 22.8995H13.3742C13.3412 22.8995 13.3084 22.8929 13.2779 22.8802C13.2474 22.8674 13.2198 22.8487 13.1965 22.8252C13.1733 22.8017 13.155 22.7738 13.1426 22.7431C13.1303 22.7125 13.1242 22.6796 13.1246 22.6466C13.1246 21.2606 13.1607 14.5308 13.1246 12.9477C13.1242 12.9146 13.1303 12.8818 13.1426 12.8511C13.155 12.8205 13.1733 12.7926 13.1965 12.769C13.2198 12.7455 13.2474 12.7268 13.2779 12.7141C13.3084 12.7013 13.3412 12.6948 13.3742 12.6948H16.2579C16.2913 12.6943 16.3244 12.7006 16.3552 12.7131C16.3861 12.7257 16.4142 12.7443 16.4378 12.7678C16.4613 12.7914 16.4799 12.8195 16.4925 12.8504C16.505 12.8812 16.5113 12.9143 16.5108 12.9477V14.1399C16.8181 13.6066 17.2655 13.1676 17.8045 12.8706C18.3436 12.5736 18.9537 12.4298 19.5686 12.455C21.7988 12.455 23.4738 13.9133 23.4738 17.0532L23.4804 22.6466ZM16.5174 14.1728V14.1366L16.4944 14.1728H16.5174ZM16.4944 14.1728H16.5174V14.1366L16.4944 14.1728ZM16.4944 14.1728H16.5174V14.1366L16.4944 14.1728ZM16.4944 14.1728H16.5174V14.1366L16.4944 14.1728ZM16.4944 14.1728H16.5174V14.1366L16.4944 14.1728ZM16.4944 14.1728H16.5174V14.1366L16.4944 14.1728ZM16.4944 14.1728H16.5174V14.1366L16.4944 14.1728ZM16.4944 14.1728H16.5174V14.1366L16.4944 14.1728ZM16.4944 14.1728H16.5174V14.1366L16.4944 14.1728ZM16.4944 14.1728H16.5174V14.1366L16.4944 14.1728ZM16.4944 14.1728H16.5174V14.1366L16.4944 14.1728ZM16.4944 14.1728H16.5174V14.1366L16.4944 14.1728ZM16.4944 14.1728H16.5174V14.1366L16.4944 14.1728ZM16.4944 14.1728H16.5174V14.1366L16.4944 14.1728ZM16.4944 14.1728H16.5174V14.1366L16.4944 14.1728Z" fill="white"/>
<path d="M71 15.9855C71 7.65058 64.2843 0.893799 56 0.893799C47.7157 0.893799 41 7.65058 41 15.9855C41 23.5182 46.4853 29.7617 53.6562 30.8938V20.3479H49.8477V15.9855H53.6562V12.6606C53.6562 8.87825 55.8957 6.789 59.3219 6.789C60.9631 6.789 62.6797 7.08376 62.6797 7.08376V10.7977H60.7882C58.9249 10.7977 58.3438 11.961 58.3438 13.1545V15.9855H62.5039L61.8389 20.3479H58.3438V30.8938C65.5147 29.7617 71 23.5182 71 15.9855Z" fill="white"/>
</g>
</svg>
