<svg width="14" height="54" viewBox="0 0 14 54" fill="none" xmlns="http://www.w3.org/2000/svg">
<path d="M0.848633 45.5337V24.2331C0.848633 19.6289 2.7165 16.5158 7.3207 16.5158C11.9249 16.5158 13.7928 19.6289 13.7928 24.2331V45.5337C13.7928 50.1379 11.9904 53.2511 7.3207 53.2511C2.65096 53.2511 0.848633 50.1051 0.848633 45.5337ZM1.01249 6.02931C1.11432 4.80521 1.57036 3.63726 2.32498 2.66808C3.0796 1.69889 4.10014 0.970428 5.26192 0.571628C6.4237 0.172828 7.67643 0.12096 8.8672 0.422356C10.058 0.723751 11.1352 1.36537 11.9674 2.26885C12.7996 3.17234 13.3506 4.29859 13.5533 5.51007C13.756 6.72156 13.6015 7.96584 13.1087 9.09098C12.6159 10.2161 11.8062 11.1734 10.7783 11.846C9.75049 12.5185 8.54902 12.8772 7.3207 12.8783C5.58513 12.7809 3.95577 12.0113 2.77811 10.7327C1.60045 9.45406 0.967157 7.76702 1.01249 6.02931Z" fill="white"/>
</svg>
